<?xml version="1.0" standalone="no"?>
<!DOCTYPE svg PUBLIC "-//W3C//DTD SVG 1.1//EN" "http://www.w3.org/Graphics/SVG/1.1/DTD/svg11.dtd" >
<svg xmlns="http://www.w3.org/2000/svg" xmlns:xlink="http://www.w3.org/1999/xlink" version="1.1">
<metadata>
Created by FontForge 20170731 at Sat Sep  4 23:09:01 2021
 By Aleksey,,,
Part of the digitally encoded machine readable outline data for producing the Typefaces provided is copyrighted (c) 1981 - 2008 Linotype GmbH, www.linotype.com. All rights reserved. This software is the property of Linotype GmbH, and may not be reproduced, used, displayed, modified, disclosed or transferred without the express written approval of Linotype GmbH.  The digitally encoded machine readable software for producing the Typefaces licensed to you is copyrighted (c) 1990 Adobe Systems. All Rights Reserved. This software is the property of Adobe Systems Incorporated and its licensors, and may not be reproduced, used, displayed, modified, disclosed or transferred without the express written approval of Adobe. Helvetica is a trademark of Linotype GmbH registered in the U.S. Patent and Trademark Office and may be registered in certain other jurisdictions. This typeface is original artwork of Linotype Design Studio. The design may be protected in certain jurisdictions.
</metadata>
<defs>
<font id="HelveticaNeueW01-87HvCnObl" horiz-adv-x="532" >
  <font-face 
    font-family="HelveticaNeueW01-87HvCnObl"
    font-weight="400"
    font-stretch="normal"
    units-per-em="2048"
    panose-1="2 11 8 6 4 7 2 9 2 4"
    ascent="1462"
    descent="-586"
    x-height="1108"
    cap-height="1462"
    bbox="-121 -459 2350.93 1980"
    underline-thickness="102"
    underline-position="-307"
    unicode-range="U+0020-2122"
  />
<missing-glyph 
 />
    <glyph glyph-name=".notdef" 
 />
    <glyph glyph-name=".null" horiz-adv-x="0" 
 />
    <glyph glyph-name="nonmarkingreturn" horiz-adv-x="681" 
 />
    <glyph glyph-name="space" unicode=" " 
 />
    <glyph glyph-name="exclam" unicode="!" horiz-adv-x="684" 
d="M248 307h319l-63 -307h-320zM479 1462h332l-100 -479l-154 -565h-254l76 565z" />
    <glyph glyph-name="quotedbl" unicode="&#x22;" horiz-adv-x="985" 
d="M451 1462h266l-150 -714h-266zM874 1462h267l-150 -714h-266z" />
    <glyph glyph-name="numbersign" unicode="#" horiz-adv-x="1064" 
d="M799 842h-148l-92 -262h148zM254 350h-150l48 230h182l92 262h-150l48 229h182l121 350h227l-123 -350h148l122 350h226l-123 -350h149l-47 -229h-182l-92 -262h149l-47 -230h-182l-119 -350h-225l119 350h-148l-119 -350h-225z" />
    <glyph glyph-name="dollar" unicode="$" horiz-adv-x="1064" 
d="M438 -29q-81 5 -148 25q-71 21 -115 63q-46 43 -64 112q-18 71 2 169l20 94h332l-10 -47q-16 -79 2 -133q18 -53 106 -53q47 0 78 14q34 15 55 38q23 25 36 52q14 30 20 57q12 57 -8 95q-19 37 -58 64q-40 27 -91 48q-80 32 -107 44q-50 22 -104 55q-50 30 -84 78
q-33 46 -47 117q-13 69 9 169q17 85 53 154q37 71 96 127q58 55 141 91q81 35 193 46l31 152h160l-31 -152q103 -7 172 -41q68 -33 104 -84q35 -50 43 -119q7 -64 -10 -143l-6 -35h-331q23 100 2 146q-23 47 -97 47q-133 0 -166 -146q-12 -56 8 -94q19 -36 58 -63
q43 -29 90 -49q65 -27 106 -45q62 -28 104 -53q52 -32 85 -76q35 -47 48 -111t-5 -160q-47 -225 -178 -331q-131 -105 -334 -122l-39 -180h-160z" />
    <glyph glyph-name="percent" unicode="%" horiz-adv-x="1593" 
d="M983 365q16 79 46 159q26 70 74 124q47 53 115 81q70 29 168 29q109 0 168 -31q57 -30 80 -84q23 -53 18 -125q-4 -63 -22 -153q-16 -72 -43 -154q-25 -74 -67 -125q-45 -55 -113 -84q-71 -31 -180 -31t-169 31q-58 30 -81 84q-23 53 -18 125q4 62 24 154zM258 1057
q17 85 47 160q27 69 75 123q47 53 115 81q70 29 169 29q108 0 167 -31q58 -30 79 -84q21 -55 17 -125q-4 -63 -22 -153q-15 -77 -41 -154q-24 -72 -68 -125q-45 -54 -115 -84q-71 -30 -179 -30q-111 0 -168 30t-80 84q-22 52 -17 125q4 71 21 154zM1225 365
q-27 -120 -20 -171q8 -53 55 -53q27 0 45 12q17 12 32 38q14 26 27 72q11 39 27 112q12 55 18 111q4 39 -1 65q-5 23 -19 30t-37 7q-56 0 -84 -66q-28 -64 -43 -157zM1319 1450h207l-951 -1479h-206zM500 1057q-25 -122 -19 -171q6 -52 54 -52q29 0 45 11t32 39q15 27 27 71
q11 39 27 112q12 54 18 112q4 38 -1 64q-5 23 -19 30t-37 7q-55 0 -84 -66q-28 -64 -43 -157z" />
    <glyph glyph-name="ampersand" unicode="&#x26;" horiz-adv-x="1290" 
d="M1006 512q40 44 61 94q18 43 37 101h291q-35 -127 -93 -235q-59 -111 -167 -202l145 -270h-362l-48 90q-92 -56 -183 -87q-93 -32 -204 -32q-125 0 -204 38q-78 37 -118 97q-41 60 -48 132q-8 77 6 141q17 83 50 140q37 65 82 111q48 50 108 93q52 38 133 90
q-13 22 -34 68q-18 40 -30 82q-11 41 -16 88q-4 42 4 86q18 85 63 150q46 65 108 107q63 42 139 63q80 22 161 22q78 0 144 -21q70 -22 112 -60q45 -41 63 -103t0 -144q-16 -70 -46 -121q-32 -52 -77 -98q-43 -43 -99 -85q-49 -37 -114 -79zM604 598q-69 -43 -110 -92
q-39 -47 -50 -100q-8 -37 -1 -68q8 -34 28 -57q23 -26 51 -40q32 -16 68 -16q93 0 172 74zM702 1174q-12 -53 11 -105q23 -53 51 -98q58 39 106 87q47 47 62 113q12 54 -18 84q-31 31 -76 31q-41 0 -83 -30q-43 -30 -53 -82z" />
    <glyph glyph-name="quotesingle" unicode="'" 
d="M436 1462h266l-149 -714h-266z" />
    <glyph glyph-name="parenleft" unicode="(" horiz-adv-x="645" 
d="M309 -377q-36 84 -68 200q-30 109 -45 224q-16 124 -13 242q3 125 30 254q28 133 76 254q49 124 112 242q60 113 139 225q80 113 152 198h266q-68 -86 -127 -180q-65 -104 -120 -218q-59 -123 -104 -249q-46 -130 -75 -272q-31 -144 -38 -273q-8 -138 -1 -248
q8 -125 29 -219q22 -97 53 -180h-266z" />
    <glyph glyph-name="parenright" unicode=")" horiz-adv-x="645" 
d="M559 1462q39 -92 69 -199q30 -108 45 -225q15 -113 13 -241q-1 -122 -29 -254q-28 -133 -76 -254q-48 -120 -115 -242q-64 -116 -139 -224q-80 -114 -151 -200h-264q63 79 126 180q59 94 119 219q56 117 103 248q49 139 78 273q30 148 37 272q7 131 0 249q-7 107 -30 218
q-20 95 -52 180h266z" />
    <glyph glyph-name="asterisk" unicode="*" horiz-adv-x="835" 
d="M342 1284l233 -98l54 276h184l-61 -276l272 98l25 -176l-277 -86l123 -217l-174 -111l-115 221l-205 -221l-127 111l211 217l-239 86z" />
    <glyph glyph-name="plus" unicode="+" horiz-adv-x="1228" 
d="M561 385h-385l55 266h385l80 385h267l-80 -385h385l-56 -266h-385l-79 -385h-267z" />
    <glyph glyph-name="comma" unicode="," 
d="M182 369h320l-64 -306q-16 -77 -42 -148t-70 -127q-43 -55 -116 -92q-70 -36 -177 -42l35 160q69 0 107 47q39 48 61 151h-127z" />
    <glyph glyph-name="hyphen" unicode="-" horiz-adv-x="757" 
d="M221 731h619l-60 -278h-618z" />
    <glyph glyph-name="period" unicode="." 
d="M182 369h320l-76 -369h-320z" />
    <glyph glyph-name="slash" unicode="/" horiz-adv-x="720" 
d="M764 1491h278l-782 -1520h-276z" />
    <glyph glyph-name="zero" unicode="0" horiz-adv-x="1064" 
d="M1157 711q-33 -150 -77 -291q-43 -139 -110 -235q-69 -99 -175 -156q-108 -58 -269 -58q-160 0 -247 51q-84 50 -114 144q-29 92 -14 231q16 145 52 314q34 163 74 290q42 134 112 235q70 100 176 157t269 57q160 0 246 -50q85 -49 114 -145t14 -232q-17 -152 -51 -312z
M545 709q-33 -166 -47 -254q-16 -100 -15 -160q1 -57 24 -83q21 -24 64 -24t75 24t57 83q28 67 52 160q27 107 56 254q32 149 49 257q17 107 16 160q-1 58 -23 83q-21 24 -65 24q-42 0 -74 -24q-33 -25 -59 -83q-27 -60 -52 -160q-24 -94 -58 -257z" />
    <glyph glyph-name="one" unicode="1" horiz-adv-x="1064" 
d="M612 1006h-278l45 217h43q100 0 165 22q67 23 110 57q48 38 70 73q24 38 40 75h242l-301 -1450h-345z" />
    <glyph glyph-name="two" unicode="2" horiz-adv-x="1064" 
d="M279 967l8 47q91 436 559 436q130 0 212 -32q80 -31 121 -86q40 -54 45 -128q4 -72 -14 -160q-17 -76 -41 -141q-22 -60 -59 -111q-40 -55 -91 -104q-62 -58 -136 -115q-77 -63 -218 -175q-90 -71 -128 -132h514l-56 -266h-925q27 130 82 231q59 108 121 183
q59 71 137 139q60 52 122 100q111 83 174 138q62 55 95 98q31 41 44 78q11 31 19 75q18 86 6 139q-12 52 -86 52q-49 0 -81 -26t-52 -65q-21 -40 -33 -87q-13 -51 -20 -88h-319z" />
    <glyph glyph-name="three" unicode="3" horiz-adv-x="1064" 
d="M485 426q-9 -41 -14 -92q-4 -41 4 -75q7 -31 29 -51t59 -20q66 0 108 45t66 168q15 66 15 115q0 68 -34 92q-36 25 -112 25h-82l45 217h95q86 0 128 55q41 55 64 162q16 85 -2 126q-18 40 -78 40q-58 0 -104 -43q-47 -44 -74 -166h-307q45 217 178 319q131 107 377 107
q216 0 298 -94q83 -95 40 -305q-22 -110 -92 -190q-68 -78 -174 -101l-3 -4q122 -28 162 -112q39 -83 6 -236q-24 -117 -77 -200q-52 -82 -125 -135t-161 -77q-92 -25 -183 -25q-107 0 -193 20q-83 19 -136 69t-68 139q-15 87 14 227h331z" />
    <glyph glyph-name="four" unicode="4" horiz-adv-x="1064" 
d="M158 547l653 874h369l-183 -874h136l-56 -266h-135l-57 -281h-320l58 281h-521zM778 1032h-4l-344 -485h248z" />
    <glyph glyph-name="five" unicode="5" horiz-adv-x="1064" 
d="M477 426l-12 -53q-7 -42 -8 -70q-1 -33 6 -58q8 -26 29 -41q22 -16 59 -16q85 0 125 81q43 86 72 231q27 128 10 190t-84 62q-47 0 -88 -26q-42 -26 -64 -89h-319l209 784h813l-56 -266h-548l-74 -272l4 -4q38 55 116 85q74 29 146 29q199 0 265 -120q67 -122 12 -384
q-57 -274 -199 -397q-140 -121 -383 -121q-234 0 -324 105t-51 297l12 53h332z" />
    <glyph glyph-name="six" unicode="6" horiz-adv-x="1064" 
d="M578 188q72 0 113 67t65 185q29 137 17 196q-12 60 -93 60q-41 0 -68 -17q-29 -18 -48 -49t-33 -74q-11 -34 -23 -91q-29 -133 -18 -203q12 -74 88 -74zM872 1079q8 40 9 59q1 25 -7 50q-15 45 -73 45q-43 0 -75 -20t-58 -65q-27 -46 -51 -126q-23 -77 -48 -199h4
q47 67 120 97q72 30 165 30q167 0 236 -103q69 -104 18 -347q-24 -115 -62 -205q-40 -96 -108 -168t-169 -114q-102 -42 -245 -42q-159 0 -244 49q-86 50 -116 142q-32 96 -20 222t47 294q41 198 79 323q44 144 115 244q72 101 183 153q110 52 288 52q194 0 289 -87
q94 -87 55 -284h-332z" />
    <glyph glyph-name="seven" unicode="7" horiz-adv-x="1064" 
d="M299 1130l61 291h924l-53 -256q-111 -127 -212 -279q-97 -145 -185 -309q-84 -157 -146 -307q-64 -155 -92 -270h-356q34 128 102 279q63 140 159 309q85 150 191 298q101 141 201 244h-594z" />
    <glyph glyph-name="eight" unicode="8" horiz-adv-x="1064" 
d="M666 647q-44 0 -72 -17q-32 -19 -52 -48q-20 -28 -36 -72q-14 -37 -25 -90q-10 -46 -13 -91q-3 -43 6 -73q9 -31 33 -49q25 -19 64 -19q40 0 72 19q31 18 52 49q20 29 36 73q14 39 25 91q10 46 13 90q3 42 -6 72t-33 48q-23 17 -64 17zM711 864q59 0 98 40q38 40 61 147
q7 43 8 70q1 29 -8 59q-8 24 -27 39q-18 14 -55 14q-68 0 -106 -53q-36 -50 -53 -129q-23 -107 0 -147q22 -40 82 -40zM834 1450q118 0 197 -27q80 -27 122 -75q43 -49 52 -118t-9 -155q-27 -125 -95 -203q-69 -80 -173 -102l-2 -4q111 -18 158 -107q46 -88 18 -235
q-18 -93 -55 -174t-104 -145q-64 -61 -168 -98q-102 -36 -249 -36q-148 0 -234 34q-88 35 -128 94q-41 61 -43 144q-2 89 18 181q11 58 37 119q23 54 64 103q40 47 91 78q53 32 118 42l2 4q-88 24 -125 100q-38 77 -11 205q16 79 55 151q38 69 101 119t153 77q92 28 210 28z
" />
    <glyph glyph-name="nine" unicode="9" horiz-adv-x="1064" 
d="M678 725q78 0 116 67q37 65 58 164q27 128 16 203q-11 74 -86 74q-73 0 -114 -67q-43 -69 -66 -185q-29 -137 -17 -196q12 -60 93 -60zM485 340q-7 -32 -8 -56q-2 -28 6 -51q15 -45 76 -45q43 0 75 20t58 65q27 46 49 125q25 88 47 200h-4q-46 -66 -119 -96
q-74 -31 -165 -31q-167 0 -236 103q-69 104 -18 348q23 113 62 204q41 97 109 168q69 72 169 114q101 42 245 42q163 0 246 -49q85 -50 115 -141q31 -93 17 -224q-14 -137 -46 -293q-39 -188 -80 -324q-44 -145 -113 -243t-184 -152q-114 -53 -286 -53q-194 0 -289 87
t-57 282h331z" />
    <glyph glyph-name="colon" unicode=":" 
d="M332 1090h319l-76 -369h-319zM182 369h320l-76 -369h-320z" />
    <glyph glyph-name="semicolon" unicode=";" 
d="M332 1090h319l-76 -369h-319zM182 369h320l-64 -306q-16 -77 -42 -148t-70 -127q-43 -55 -116 -92q-70 -36 -177 -42l35 160q69 0 107 47q39 48 61 151h-127z" />
    <glyph glyph-name="less" unicode="&#x3c;" horiz-adv-x="1228" 
d="M231 651l1119 402l-56 -267l-747 -268l637 -268l-56 -266l-952 401z" />
    <glyph glyph-name="equal" unicode="=" horiz-adv-x="1228" 
d="M184 428h1037l-56 -266h-1036zM276 874h1037l-56 -266h-1036z" />
    <glyph glyph-name="greater" unicode="&#x3e;" horiz-adv-x="1228" 
d="M1212 385l-1120 -401l55 266l748 268l-637 268l55 267l955 -402z" />
    <glyph glyph-name="question" unicode="?" horiz-adv-x="1024" 
d="M397 307h320l-64 -307h-319zM289 1006l8 41q43 211 173 327q131 117 347 117q211 0 302 -103t52 -294q-18 -88 -54 -153q-38 -68 -79 -116q-45 -53 -90 -92t-88 -79t-72 -79q-29 -40 -40 -90l-15 -67h-307l14 65q22 105 50 164q30 64 77 115q36 40 84 77t85 71
q37 35 73 88q32 48 49 126q15 71 -2 111q-16 39 -80 39t-108 -61q-44 -60 -72 -207h-307z" />
    <glyph glyph-name="at" unicode="@" horiz-adv-x="1638" 
d="M1333 1106h178l-225 -512q-16 -34 -21 -53q-3 -14 -10 -29q-6 -43 31 -43q29 0 73 25t83 70q44 50 76 112q35 67 51 149q24 113 0 201q-24 89 -86 149q-62 61 -155 92q-92 31 -206 31q-129 0 -246 -44q-118 -45 -208 -121q-93 -79 -155 -183q-63 -105 -87 -223
q-24 -125 -1 -225q24 -101 87 -178q62 -75 163 -118q99 -42 226 -42q139 0 259 38q112 35 212 91h182q-142 -154 -320 -238t-378 -84q-166 0 -301 57q-137 58 -223 157q-87 101 -122 241q-34 137 1 305q33 160 125 301q92 140 221 242q131 104 287 160q158 57 321 57
q139 0 262 -44q121 -43 204 -126t120 -196q37 -112 8 -255q-23 -109 -69 -194q-47 -87 -107 -151q-57 -62 -126 -110q-66 -47 -129 -75q-62 -28 -116 -42q-51 -13 -86 -13q-57 0 -84 26q-28 27 -22 82h-4q-50 -46 -119 -77q-68 -31 -149 -31q-58 0 -105 23q-48 23 -83 69
q-34 44 -46 109q-12 64 6 147q17 90 69 184q50 90 122 161q75 74 162 115q93 44 192 44q77 0 133 -33t86 -105zM1161 768q17 73 -20 118q-37 46 -103 46q-51 0 -101 -25q-46 -23 -88 -62q-41 -38 -68 -86q-28 -50 -38 -93q-16 -75 15 -126t102 -51q52 0 104 25q49 24 90 65
q38 38 68 90q28 49 39 99z" />
    <glyph glyph-name="A" unicode="A" horiz-adv-x="1175" 
d="M680 1462h430l61 -1462h-356l4 279h-350l-109 -279h-356zM834 1196h-5l-256 -651h250z" />
    <glyph glyph-name="B" unicode="B" horiz-adv-x="1175" 
d="M502 254h104q106 0 158 56q54 57 70 134q22 110 -19 158q-41 47 -121 47h-110zM633 879h94q92 0 139 47q48 48 64 125q6 25 4 55q-1 26 -18 51q-14 21 -44 37q-27 14 -75 14h-97zM410 1462h534q188 0 283 -89q94 -88 57 -271q-27 -130 -106 -219q-79 -90 -191 -111l-2 -4
q42 -6 85 -21q44 -15 76 -55q32 -39 45 -106q13 -68 -9 -180q-16 -71 -47 -137q-33 -71 -98 -131q-64 -60 -167 -99q-102 -39 -256 -39h-508z" />
    <glyph glyph-name="C" unicode="C" horiz-adv-x="1099" 
d="M915 954q35 164 24 234q-12 74 -97 74q-54 0 -88 -27q-37 -29 -63 -87q-29 -65 -52 -159q-34 -141 -55 -241q-36 -170 -53 -270q-18 -103 -13 -167q5 -63 31 -86q27 -24 80 -24q48 0 81 26q34 26 58 75q25 50 44 117q22 77 38 154h332l-11 -51q-24 -118 -66 -219
t-114 -174q-73 -74 -180 -116q-108 -42 -268 -42q-166 0 -249 59q-84 60 -109 161q-25 103 -9 244q16 138 51 306q28 140 68 276q39 134 111 239q73 106 187 170q116 65 298 65q111 0 195 -26q85 -26 131 -83q47 -58 59 -147q12 -93 -14 -219l-15 -62h-332z" />
    <glyph glyph-name="D" unicode="D" horiz-adv-x="1175" 
d="M502 254h92q63 0 105 16q43 16 80 70q36 53 68 153q31 98 66 263q24 121 38 221q12 88 0 139q-12 52 -48 72t-106 20h-97zM410 1462h510q126 0 212 -36q84 -35 126 -115t44 -211q1 -129 -38 -322q-40 -194 -89 -345q-48 -148 -124 -243q-77 -97 -189 -143
q-114 -47 -280 -47h-476z" />
    <glyph glyph-name="E" unicode="E" horiz-adv-x="1024" 
d="M410 1462h845l-57 -278h-502l-61 -293h471l-57 -279h-471l-70 -333h524l-57 -279h-869z" />
    <glyph glyph-name="F" unicode="F" horiz-adv-x="985" 
d="M410 1462h845l-57 -278h-502l-61 -293h471l-57 -279h-471l-127 -612h-345z" />
    <glyph glyph-name="G" unicode="G" horiz-adv-x="1138" 
d="M936 1018q7 42 11 78q4 43 0 80q-4 36 -26 61t-71 25q-52 0 -90 -29q-36 -28 -67 -92q-29 -61 -55 -165q-29 -116 -56 -247q-33 -167 -47 -251q-17 -106 -13 -163q4 -60 29 -88q23 -26 78 -26q88 0 139 77q52 78 82 230l10 47h-162l47 229h482l-162 -784h-236l21 139h-4
q-61 -98 -156 -133q-96 -35 -194 -35q-135 0 -211 51q-74 50 -101 143q-26 90 -14 228t49 307q40 193 80 326q43 146 117 249q73 103 189 160q113 56 298 56q111 0 183 -24q76 -25 117 -62q46 -41 63 -88q18 -49 21 -103q3 -55 -4 -104q-8 -53 -15 -92h-332z" />
    <glyph glyph-name="H" unicode="H" horiz-adv-x="1175" 
d="M410 1462h344l-115 -547h274l115 547h344l-303 -1462h-344l129 625h-274l-129 -625h-345z" />
    <glyph glyph-name="I" unicode="I" horiz-adv-x="569" 
d="M416 1462h344l-303 -1462h-344z" />
    <glyph glyph-name="J" unicode="J" horiz-adv-x="1024" 
d="M877 1462h344l-213 -1022q-22 -105 -61 -188q-42 -89 -105 -149q-65 -62 -159 -97t-220 -35q-230 0 -312 106q-81 105 -40 298l18 90h320l-15 -64q-11 -53 -13 -72q-5 -36 0 -65q4 -28 24 -46q18 -17 61 -17q36 0 62 18q24 17 43 50q17 31 30 76q14 49 23 95z" />
    <glyph glyph-name="K" unicode="K" horiz-adv-x="1175" 
d="M410 1462h344l-121 -577h4l442 577h371l-514 -631l258 -831h-387l-152 551l-120 -141l-84 -410h-345z" />
    <glyph glyph-name="L" unicode="L" horiz-adv-x="948" 
d="M410 1462h344l-246 -1183h498l-58 -279h-842z" />
    <glyph glyph-name="M" unicode="M" horiz-adv-x="1593" 
d="M420 1462h504l-21 -960h4l375 960h498l-303 -1462h-320l236 1139h-4l-459 -1139h-266v1139h-5l-235 -1139h-307z" />
    <glyph glyph-name="N" unicode="N" horiz-adv-x="1214" 
d="M410 1462h395l84 -950h4l199 950h319l-303 -1462h-389l-92 1008h-4l-209 -1008h-308z" />
    <glyph glyph-name="O" unicode="O" horiz-adv-x="1175" 
d="M1253 731q-31 -158 -70 -290q-40 -135 -113 -242q-71 -104 -189 -166t-299 -62q-167 0 -260 54q-89 52 -124 152q-34 98 -22 240q12 143 49 314q39 183 83 315q46 139 120 239q75 101 186 153q114 53 283 53q121 0 202 -29q77 -27 125 -79q46 -49 64 -120q19 -74 19 -155
q0 -84 -17 -181q-20 -115 -37 -196zM582 731q-33 -168 -47 -253q-17 -104 -14 -163q3 -60 29 -88q25 -26 77 -26q53 0 89 26q37 27 67 88q30 62 57 163q27 103 57 253q34 169 46 252q15 102 12 164t-29 88q-27 27 -78 27t-87 -27t-66 -88q-28 -56 -56 -164
q-27 -102 -57 -252z" />
    <glyph glyph-name="P" unicode="P" horiz-adv-x="1138" 
d="M621 825h94q102 0 147 56q46 56 62 129q8 42 8 77q0 53 -33 88q-32 33 -111 33h-88zM410 1462h532q134 0 211 -44q75 -43 110 -109q33 -63 33 -145q0 -83 -14 -146q-21 -100 -62 -180q-41 -81 -110 -142q-65 -58 -164 -92q-96 -33 -225 -33h-152l-118 -571h-345z" />
    <glyph glyph-name="Q" unicode="Q" horiz-adv-x="1175" 
d="M762 -8q-13 -4 -35 -7q-8 -1 -24.5 -4t-22.5 -4q-46 -6 -98 -6q-167 0 -260 54q-89 52 -124 152q-34 98 -22 240q12 143 49 314q39 183 83 315q46 139 120 239q75 101 186 153q114 53 283 53q121 0 202 -29q77 -27 125 -79q46 -49 64 -120q19 -74 19 -155q0 -84 -17 -181
q-20 -115 -37 -196q-19 -91 -39 -169q-24 -93 -47 -159q-27 -78 -61 -142q-36 -69 -84 -120l131 -170l-240 -184zM582 731q-33 -168 -47 -253q-17 -104 -14 -163q3 -60 29 -88q25 -26 77 -26q53 0 89 26q37 27 67 88q30 62 57 163q27 103 57 253q34 169 46 252
q15 102 12 164t-29 88q-27 27 -78 27t-87 -27t-66 -88q-28 -56 -56 -164q-27 -102 -57 -252z" />
    <glyph glyph-name="R" unicode="R" horiz-adv-x="1175" 
d="M410 1462h577q111 0 179 -31q70 -32 104 -84q35 -53 41 -121q6 -67 -11 -145q-33 -161 -111 -243q-80 -85 -208 -113v-4q78 -12 120 -43q39 -29 53 -78q13 -45 7 -108q-7 -73 -20 -136q-18 -96 -31 -173q-10 -60 -10 -97q0 -32 9 -46q10 -15 26 -22l-2 -18h-371
q-14 35 -8 104q7 77 32 193q20 107 24 155q5 61 -4 94t-34 46q-24 12 -65 12h-132l-124 -604h-345zM625 846h106q54 0 89 17q38 18 65 45t42 62q15 36 21 66q16 81 -11 133q-28 52 -130 52h-105z" />
    <glyph glyph-name="S" unicode="S" horiz-adv-x="1099" 
d="M483 446l-10 -51q-10 -43 -10 -78q0 -54 25 -85t94 -31q44 0 77 15q31 14 57 40q22 22 38 56q13 27 20 63q12 60 -6 97q-19 40 -57 66q-40 27 -91 48q-60 24 -106 45q-50 22 -103 56q-49 31 -84 81q-33 48 -47 120t7 173q18 86 59 166q39 75 111 136q69 59 168 93
q100 35 231 35q127 0 212 -31q83 -30 127 -85t53 -127t-9 -156l-6 -35h-332q22 111 2 153q-18 52 -92 52q-137 0 -170 -158q-17 -76 21 -120q40 -46 100 -75q65 -31 139 -60t135 -78q60 -48 90 -127q31 -81 4 -208q-52 -249 -205 -357t-390 -108q-90 0 -177 17
q-85 17 -142 59q-58 43 -84 117q-25 73 -1 188l21 94h331z" />
    <glyph glyph-name="T" unicode="T" horiz-adv-x="983" 
d="M565 1184h-307l57 278h959l-57 -278h-308l-245 -1184h-345z" />
    <glyph glyph-name="U" unicode="U" horiz-adv-x="1138" 
d="M1151 483q-23 -108 -60 -201q-37 -91 -106 -162q-66 -68 -170 -109q-101 -40 -252 -40q-150 0 -236 39q-84 38 -124 109q-40 70 -38 163q2 98 23 201l203 979h344l-225 -1079q-17 -87 7 -134q24 -48 93 -48q70 0 114 48q43 48 60 134l226 1079h344z" />
    <glyph glyph-name="V" unicode="V" horiz-adv-x="1099" 
d="M307 1462h369l-62 -1130h4l412 1130h369l-635 -1462h-438z" />
    <glyph glyph-name="W" unicode="W" horiz-adv-x="1593" 
d="M315 1462h344l-90 -1040h4l369 1040h320l-54 -1040h4l340 1040h332l-557 -1462h-381l66 1038h-4l-357 -1038h-381z" />
    <glyph glyph-name="X" unicode="X" horiz-adv-x="1138" 
d="M518 743l-174 719h381l55 -448h4l242 448h381l-483 -719l209 -743h-394l-75 481l-277 -481h-381z" />
    <glyph glyph-name="Y" unicode="Y" horiz-adv-x="1097" 
d="M496 575l-187 887h381l51 -542h4l281 542h369l-555 -887l-119 -575h-344z" />
    <glyph glyph-name="Z" unicode="Z" horiz-adv-x="985" 
d="M98 254l690 930h-456l57 278h852l-51 -241l-696 -942h501l-57 -279h-891z" />
    <glyph glyph-name="bracketleft" unicode="[" horiz-adv-x="681" 
d="M475 1462h518l-47 -229h-211l-286 -1380h210l-49 -230h-518z" />
    <glyph glyph-name="backslash" unicode="\" horiz-adv-x="720" 
d="M297 1491h278l152 -1520h-278z" />
    <glyph glyph-name="bracketright" unicode="]" horiz-adv-x="681" 
d="M-37 -147h209l287 1380h-211l47 229h518l-383 -1839h-516z" />
    <glyph glyph-name="asciicircum" unicode="^" horiz-adv-x="1228" 
d="M793 1421h233l219 -788h-254l-139 510l-352 -510h-254z" />
    <glyph glyph-name="underscore" unicode="_" horiz-adv-x="1024" 
d="M-31 -154h1022l-20 -102h-1022z" />
    <glyph glyph-name="grave" unicode="`" 
d="M283 1516h319l43 -291h-217z" />
    <glyph glyph-name="a" unicode="a" horiz-adv-x="1024" 
d="M444 342q-15 -66 3 -103q18 -38 65 -38q55 0 100 32q48 34 64 119q12 51 25 115q3 17 10 45t8 35q-43 -21 -75 -33q-42 -16 -54 -20q-9 -3 -22 -8.5t-17 -6.5q-16 -6 -29 -14q-32 -22 -49 -48q-18 -27 -29 -75zM244 768q27 118 73 186q48 71 115 111q67 41 142 56
q82 16 182 16q205 0 282 -76q78 -76 43 -252l-118 -569q-4 -20 -14 -66q-7 -30 -10 -68q-3 -30 -1 -60q2 -27 14 -46h-319q-4 26 -1 61q4 44 7 66h-4q-51 -75 -127 -115q-79 -41 -164 -41q-142 0 -202 79q-60 80 -23 259q21 101 72 173q53 75 122 110t155 53q64 13 161 37
q43 12 64 19q25 9 41 23q17 15 25 34q9 21 15 51q10 50 -8 81q-18 30 -74 30q-69 0 -103 -40q-33 -39 -50 -112h-295z" />
    <glyph glyph-name="b" unicode="b" horiz-adv-x="1062" 
d="M530 547q-34 -158 -29 -248q5 -86 79 -86q46 0 78 30q33 32 55 78q24 51 38 110q2 7 29 130q17 80 27 137q11 62 6 106t-25 67q-21 24 -65 24q-43 0 -73 -27t-51 -73q-21 -47 -38 -111q-14 -53 -31 -137zM395 1462h332l-98 -475h4q61 90 134 119q77 31 144 31
q100 0 155 -44t73 -123q18 -81 8 -188q-11 -112 -37 -237q-32 -153 -77 -264q-44 -109 -101 -178q-56 -68 -128 -100t-155 -32q-53 0 -93 16q-37 15 -61 39t-36 52q-13 30 -17 57h-4l-26 -135h-320z" />
    <glyph glyph-name="c" unicode="c" horiz-adv-x="985" 
d="M780 690q24 123 6 176q-19 54 -84 54q-39 0 -70 -26q-28 -24 -52 -73t-41 -114q-22 -82 -37 -154q-41 -193 -37 -277q4 -88 86 -88q36 0 62 14q24 13 46 44q19 27 37 81q16 47 33 124h307q-53 -257 -182 -368q-130 -112 -354 -112q-155 0 -236 52q-80 51 -107 137
q-28 90 -17 198q13 122 38 236q23 115 65 216q42 104 105 172q68 74 162 114q97 41 231 41q131 0 209 -33q79 -33 116 -91q39 -60 40 -142q2 -84 -19 -181h-307z" />
    <glyph glyph-name="d" unicode="d" horiz-adv-x="1062" 
d="M758 547q6 31 24 137q11 63 9 111q-1 44 -21 73q-18 27 -61 27q-47 0 -77 -24t-51 -67q-23 -47 -37 -106q-21 -87 -32 -137q-13 -60 -25 -130q-10 -61 -7 -110q3 -47 23 -78q19 -30 66 -30q73 0 114 86q40 85 75 248zM678 135h-4q-17 -32 -38 -57q-25 -30 -57 -52
q-35 -24 -78 -39q-46 -16 -100 -16q-127 0 -191 72q-65 73 -65 238q0 113 33 264q26 124 62 237q34 107 86 188q51 80 123 123q73 44 174 44q31 0 68 -8t63 -23q29 -17 51 -46q24 -31 35 -73h4l98 475h332l-303 -1462h-320z" />
    <glyph glyph-name="e" unicode="e" horiz-adv-x="985" 
d="M770 692q24 117 15 178q-9 62 -78 62q-81 0 -118 -64t-59 -176h240zM489 500l-14 -68q-27 -129 -15 -192q12 -64 83 -64q66 0 100 49q36 52 64 154h307q-47 -209 -176 -308q-130 -100 -338 -100q-155 0 -236 52q-80 51 -107 137q-28 90 -17 198q13 122 38 236
q23 115 65 216q42 104 105 172q68 74 162 114q97 41 231 41q155 0 232 -46t104 -132t14 -201q-13 -117 -42 -258h-560z" />
    <glyph glyph-name="f" unicode="f" horiz-adv-x="606" 
d="M317 879h-137l47 229h138l18 92q17 77 43 131q27 55 72 91q46 37 113 53t171 16q58 0 81 -1q45 -2 65 -5l-45 -223h-47q-67 0 -92 -19q-22 -17 -33 -65l-15 -70h154l-47 -229h-154l-182 -879h-332z" />
    <glyph glyph-name="g" unicode="g" horiz-adv-x="1062" 
d="M524 573q-18 -86 -24 -145q-6 -61 1 -94q8 -36 26 -50q21 -16 55 -16q32 0 59 15t49 50q22 36 42 96q18 54 40 155q31 157 22 226q-9 73 -81 73q-40 0 -71 -23q-30 -22 -51 -63q-22 -43 -37 -99q-14 -54 -30 -125zM893 1108h307l-223 -1069q-18 -95 -57 -171
q-39 -77 -104 -131q-64 -53 -160 -84q-95 -30 -226 -30q-117 0 -195 25q-75 24 -114 66q-40 43 -47 99q-8 58 4 117h307q0 -44 23 -67q29 -23 75 -23q41 0 71 15q31 16 51 48q22 36 38 87t33 133l14 67h-4q-52 -95 -133 -130q-76 -33 -164 -33q-90 0 -141 42t-72 114
q-20 68 -15 172q4 97 29 214q18 83 52 200q29 97 82 182q50 80 126 133t183 53q112 0 162 -52q48 -49 63 -127h4z" />
    <glyph glyph-name="h" unicode="h" horiz-adv-x="1062" 
d="M395 1462h332l-98 -475h4q56 81 128 116q69 34 157 34q140 0 199 -74t26 -234l-172 -829h-332l156 756q12 60 -5 93q-18 34 -65 34t-91 -38q-45 -39 -61 -120l-149 -725h-332z" />
    <glyph glyph-name="i" unicode="i" 
d="M408 1479h331l-53 -254h-332zM330 1108h332l-230 -1108h-332z" />
    <glyph glyph-name="j" unicode="j" 
d="M408 1479h331l-53 -254h-332zM330 1108h332l-236 -1135q-18 -85 -45 -148t-72 -105q-44 -41 -114 -61q-67 -19 -177 -19q-47 0 -67 1q-26 1 -72 3l47 227q14 -2 27 -2h20q37 1 59 11q21 9 35 26q12 15 20 43q9 31 15 63z" />
    <glyph glyph-name="k" unicode="k" horiz-adv-x="1062" 
d="M395 1462h332l-156 -751h4l330 397h365l-410 -446l219 -662h-362l-121 418l-111 -117l-61 -301h-332z" />
    <glyph glyph-name="l" unicode="l" 
d="M403 1462h332l-303 -1462h-332z" />
    <glyph glyph-name="m" unicode="m" horiz-adv-x="1630" 
d="M332 1108h319l-26 -131h4q51 73 129 117q77 43 170 43q33 0 76 -5q36 -4 72 -23q37 -19 59 -51q24 -35 30 -91q76 94 148 133q68 37 162 37q140 0 199 -74t26 -234l-172 -829h-332l156 756q12 60 -5 93q-18 34 -65 34t-91 -38q-45 -39 -61 -120l-149 -725h-332l156 756
q12 60 -5 93q-18 34 -65 34t-91 -38q-44 -37 -60 -120l-150 -725h-332z" />
    <glyph glyph-name="n" unicode="n" horiz-adv-x="1062" 
d="M322 1108h319l-27 -131h4q50 73 130 117q77 43 170 43q140 0 199 -74t26 -234l-172 -829h-332l156 756q12 60 -5 93q-18 34 -65 34t-91 -38q-45 -39 -61 -120l-149 -725h-332z" />
    <glyph glyph-name="o" unicode="o" horiz-adv-x="1024" 
d="M506 -29q-153 0 -235 44q-81 43 -111 122q-31 81 -24 184q7 102 32 230q28 131 65 231q38 104 106 186q65 79 165 124q99 45 244 45q150 0 233 -44t113 -122q30 -79 23 -184q-8 -109 -34 -230q-28 -131 -65 -231q-38 -104 -106 -186q-66 -79 -164 -124q-99 -45 -242 -45z
M752 553q15 74 30 173q10 67 5 114q-4 43 -24 61q-21 19 -58 19t-66 -20t-52 -62q-21 -39 -44 -113q-17 -57 -41 -170q-44 -203 -33 -285q10 -82 84 -82q39 0 67 19q29 19 49 61q22 45 41 113q18 65 42 172z" />
    <glyph glyph-name="p" unicode="p" horiz-adv-x="1062" 
d="M532 561q-6 -31 -24 -137q-10 -58 -8 -111q1 -45 20 -73q18 -27 62 -27q45 0 75 24q34 27 53 67q21 42 36 106q21 87 32 137q13 60 25 130q10 61 7 110q-3 48 -24 78t-65 30q-73 0 -114 -86q-40 -85 -75 -248zM322 1108h319l-29 -135h4q17 32 38 57q22 26 59 52
q34 23 79 39q46 16 99 16q127 0 191 -72q65 -73 65 -238q0 -113 -33 -264q-28 -134 -61 -237q-34 -107 -86 -188q-50 -79 -124 -123q-73 -44 -173 -44q-34 0 -69 6q-33 6 -62 24q-31 20 -52 46q-22 27 -34 74h-4l-101 -481h-332z" />
    <glyph glyph-name="q" unicode="q" horiz-adv-x="1062" 
d="M760 561q34 158 29 248q-5 86 -78 86q-47 0 -79 -30t-54 -78q-24 -51 -38 -110q-17 -70 -30 -130q-19 -86 -26 -137q-9 -62 -6 -106q3 -43 24 -67t65 -24q43 0 73 27t51 73q21 47 38 111q14 53 31 137zM664 121h-5q-61 -90 -134 -120q-72 -30 -144 -30q-102 0 -157 44
q-54 43 -72 123q-19 86 -8 188q13 118 38 237q32 153 77 264q44 109 101 178q56 68 128 100t155 32q53 0 93 -16q38 -15 62 -39q23 -23 35 -53q10 -24 15 -56h4l29 135h319l-305 -1468h-332z" />
    <glyph glyph-name="r" unicode="r" horiz-adv-x="757" 
d="M322 1108h319l-33 -156h4q46 72 124 129q77 56 182 56h24q8 0 12 -1l15 -3l-64 -312q-24 5 -45 6q-28 2 -45 2q-101 0 -170 -45q-70 -46 -92 -155l-129 -629h-332z" />
    <glyph glyph-name="s" unicode="s" horiz-adv-x="948" 
d="M418 352q-7 -42 -8 -68q-2 -33 6 -57q7 -22 28 -37q20 -14 62 -14q58 0 96 33q36 32 47 80q8 41 -9 73q-19 36 -89 62q-95 34 -166 65q-70 30 -112 71t-54 97q-12 57 6 146q34 166 162 250q127 84 330 84q116 0 188 -27t109 -70q37 -42 44 -99q7 -55 -5 -116l-6 -37h-295
l4 21q15 71 -8 97t-76 26q-65 0 -94 -29q-28 -28 -39 -74q-10 -49 23 -74q35 -26 89 -45q19 -7 119 -40q65 -22 115 -60q52 -40 77 -104q25 -66 3 -172q-34 -167 -162 -265t-336 -98q-223 0 -306 83q-83 82 -48 249l10 49h295z" />
    <glyph glyph-name="t" unicode="t" horiz-adv-x="645" 
d="M317 879h-137l47 229h138l67 326h332l-68 -326h154l-47 -229h-154l-117 -560q-12 -59 8 -80q20 -22 78 -22q15 0 24 1q14 2 24 3l-45 -221q-99 -12 -195 -12q-89 0 -140 10q-55 11 -82 42q-28 32 -29 91q-1 58 20 156z" />
    <glyph glyph-name="u" unicode="u" horiz-adv-x="1062" 
d="M971 0h-320l27 131h-4q-51 -73 -129 -117q-77 -43 -170 -43q-141 0 -201 74q-59 72 -24 234l172 829h331l-157 -756q-12 -60 5 -93q18 -34 64 -34q47 0 91 38q45 39 61 120l151 725h332z" />
    <glyph glyph-name="v" unicode="v" horiz-adv-x="985" 
d="M252 1108h344l-41 -817h4l301 817h332l-504 -1108h-393z" />
    <glyph glyph-name="w" unicode="w" horiz-adv-x="1517" 
d="M248 1108h332l-64 -817h4l295 817h356l-53 -817h4l287 817h320l-469 -1108h-375l47 817h-4l-297 -817h-381z" />
    <glyph glyph-name="x" unicode="x" horiz-adv-x="985" 
d="M424 573l-168 535h332l63 -330l203 330h332l-387 -535l178 -573h-332l-76 358l-229 -358h-332z" />
    <glyph glyph-name="y" unicode="y" horiz-adv-x="985" 
d="M250 1108h344l-27 -776h4l291 776h332l-528 -1116q-49 -102 -98 -175q-46 -69 -99 -108q-54 -39 -122 -54q-69 -15 -167 -15h-76q-21 0 -33 1t-34 3l49 233q37 -8 80 -8q46 0 92 26t74 97z" />
    <glyph glyph-name="z" unicode="z" horiz-adv-x="948" 
d="M115 254l542 600h-399l53 254h793l-53 -254l-555 -600h440l-51 -254h-822z" />
    <glyph glyph-name="braceleft" unicode="{" horiz-adv-x="681" 
d="M242 268q15 77 -30 131t-124 54l39 180q37 0 74 12q35 11 67 35q33 25 54 54q22 32 30 69l80 383q28 135 118 206q88 70 232 70h207l-47 -229h-82q-70 0 -100 -45q-31 -47 -43 -105l-64 -311q-22 -94 -89 -154q-68 -61 -161 -73l-2 -4q105 -15 141 -76t13 -166l-61 -297
q-7 -32 -8 -56q-1 -22 8 -48q7 -21 26 -33q18 -12 53 -12h82l-49 -230h-207q-134 0 -199 68t-36 209z" />
    <glyph glyph-name="bar" unicode="|" horiz-adv-x="454" 
d="M403 1491h267l-316 -1520h-266z" />
    <glyph glyph-name="braceright" unicode="}" horiz-adv-x="681" 
d="M252 313q22 94 89 154q70 62 161 74l2 4q-200 28 -154 241l62 297q5 25 7 57q1 27 -6 48t-27 33t-52 12h-82l47 229h207q136 0 200 -67t35 -209l-77 -369q-17 -79 28 -131q45 -53 125 -53l-39 -180q-32 0 -73 -13q-40 -13 -68 -34q-30 -22 -53 -55q-24 -34 -31 -68
l-80 -383q-28 -135 -118 -206q-89 -71 -232 -71h-205l49 230h80q69 0 99 45t42 104z" />
    <glyph glyph-name="asciitilde" unicode="~" horiz-adv-x="1228" 
d="M1188 492q-56 -77 -126 -127t-161 -50q-74 0 -129 22q-54 22 -98 48q-38 22 -88 48q-42 22 -92 22q-31 0 -63 -15q-30 -14 -61 -36q-27 -19 -54 -46q-19 -19 -35 -43l-27 230q55 75 127 127q68 49 162 49q73 0 128 -22q53 -21 99 -48q45 -27 87 -48t93 -21q34 0 63 14
q31 15 60 36q27 20 53 46q25 25 37 43z" />
    <glyph glyph-name="uni00A0" unicode="&#xa0;" 
 />
    <glyph glyph-name="exclamdown" unicode="&#xa1;" horiz-adv-x="684" 
d="M666 807h-320l66 307h319zM434 -348h-332l101 479l153 565h254l-75 -565z" />
    <glyph glyph-name="cent" unicode="&#xa2;" horiz-adv-x="1064" 
d="M461 -29q-129 11 -193 65q-63 54 -86 140q-20 83 -8 193q11 95 37 225q24 117 59 206q37 94 95 167q56 71 140 115q85 45 197 55l35 163h160l-35 -163q151 -16 214 -88t63 -189q0 -73 -19 -170h-307q24 123 6 176q-19 54 -84 54q-39 0 -70 -26q-30 -26 -53 -73
q-24 -49 -41 -114q-17 -64 -36 -154q-41 -193 -37 -277q4 -88 86 -88q36 0 62 14q24 13 46 44q19 27 37 81q16 47 33 124h307q-49 -234 -158 -347q-108 -112 -290 -133l-39 -186h-160z" />
    <glyph glyph-name="sterling" unicode="&#xa3;" horiz-adv-x="1064" 
d="M70 176q151 88 223 180q71 91 88 168q5 22 6 42q2 22 -2 32h-219l41 193h137q-60 152 -31 292q18 80 64 150q46 68 111 116q63 46 154 74q87 27 189 27q135 0 221 -30t129 -85q44 -56 51 -133q7 -76 -11 -174h-308l7 29q38 176 -97 176q-56 0 -108 -32t-70 -118
q-3 -15 -5 -47q-1 -18 4 -54q5 -33 15 -77q6 -27 29 -114h352l-41 -193h-282q2 -8 2 -27q0 -11 -4 -30q-17 -87 -84 -159q-70 -75 -191 -153l2 -4q51 23 109 23q36 0 57 -7q20 -7 44 -17q14 -6 46 -16q22 -7 64 -7q58 0 121 24t108 51l51 -210q-114 -65 -202 -79
q-98 -16 -146 -16q-41 0 -83 12q-73 21 -85 25q-35 12 -89 26q-43 11 -93 11q-62 0 -110 -16q-47 -16 -115 -45z" />
    <glyph glyph-name="currency" unicode="&#xa4;" horiz-adv-x="1064" 
d="M203 428q-60 123 -27 283q34 159 143 282l-86 111l162 135l88 -111q76 43 148 64q75 22 153 22q153 0 265 -86l133 111l108 -135l-135 -111q59 -126 29 -282q-34 -157 -148 -281l90 -113l-163 -135l-89 111q-70 -43 -143 -64q-76 -22 -158 -22q-156 0 -262 88l-135 -113
l-106 135zM430 711q-12 -54 -5 -102q7 -47 32 -84q23 -35 66 -56q40 -20 102 -20t109 20q52 22 90 56q40 35 67 84q26 47 39 102q11 53 3 101q-7 47 -32 84q-23 34 -66 56q-42 21 -102 21q-59 0 -109 -21q-52 -22 -90 -56q-40 -35 -67 -84q-26 -46 -37 -101z" />
    <glyph glyph-name="yen" unicode="&#xa5;" horiz-adv-x="1064" 
d="M428 270h-297l39 193h297l25 112l-9 39h-280l39 193h200l-135 614h350l62 -526h4l287 526h338l-394 -614h201l-39 -193h-280l-25 -39l-25 -112h297l-39 -193h-296l-56 -270h-319z" />
    <glyph glyph-name="brokenbar" unicode="&#xa6;" horiz-adv-x="454" 
d="M403 1491h267l-115 -555h-266zM203 526h266l-115 -555h-266z" />
    <glyph glyph-name="section" unicode="&#xa7;" horiz-adv-x="1062" 
d="M860 563q11 51 -19 85q-31 36 -76 59q-51 26 -96 44q-51 20 -81 44q-55 -27 -90 -65q-36 -39 -43 -73q-10 -51 14 -78q26 -29 69 -50q51 -25 100 -44q58 -23 110 -63q33 22 67 61t45 80zM424 84l-6 -33q-16 -66 7 -105q24 -40 81 -40q110 0 139 137q10 55 -25 89t-95 63
q-45 22 -128 58q-70 30 -125 75t-85 112t-7 172q11 52 34 95q26 48 55 83q31 37 70 68q40 32 77 49q-59 44 -74 105q-15 58 2 131q18 92 66 161q47 67 114 107t149 60q83 20 167 20q120 0 203 -25q78 -24 119 -69q40 -45 48 -108q8 -65 -8 -138l-2 -16h-307l6 30
q12 61 -16 85q-29 24 -78 24q-65 0 -97 -33q-32 -34 -38 -67q-11 -53 26 -82q41 -33 97 -58q58 -26 128 -55q65 -27 123 -74q56 -45 84 -115q29 -73 7 -180q-21 -106 -76 -174q-54 -67 -142 -129q40 -46 59 -110q19 -65 1 -152q-22 -103 -73 -174q-50 -69 -119 -110
q-67 -39 -152 -56q-81 -16 -174 -16q-121 0 -198 27q-75 27 -119 75q-41 46 -52 110t4 132l10 51h320z" />
    <glyph glyph-name="dieresis" unicode="&#xa8;" 
d="M627 1505h254l-56 -266h-254zM266 1505h254l-55 -266h-254z" />
    <glyph glyph-name="copyright" unicode="&#xa9;" horiz-adv-x="1638" 
d="M211 731q33 159 121 296q89 139 213 242q123 102 275 163q148 59 308 59t284 -59q126 -60 208 -163q83 -104 113 -242q31 -141 -2 -296q-33 -157 -122 -296q-88 -137 -213 -241q-123 -103 -276 -163q-152 -60 -307 -60q-158 0 -284 60q-124 59 -207 163q-83 105 -113 241
q-31 141 2 296zM428 731q-24 -118 -3 -220q21 -100 80 -176q59 -75 148 -117q90 -42 201 -42t219 42q111 43 198 117q90 76 153 176q65 103 89 220q25 122 3 220q-22 101 -81 176q-58 75 -149 117q-90 42 -201 42q-110 0 -218 -42q-107 -42 -196 -117q-92 -78 -154 -176
q-65 -103 -89 -220zM1352 602q-28 -76 -77 -139q-50 -64 -108 -103q-61 -41 -126 -62q-69 -22 -134 -22q-101 0 -176 35q-74 35 -118 97t-56 144q-12 86 8 179q21 98 66 181q47 86 112 144q68 61 155 95q88 35 192 35q70 0 128 -21q61 -22 99 -60q42 -42 62 -100
q22 -63 16 -139h-201q-4 55 -43 91t-113 36q-54 0 -95 -20q-44 -21 -80 -57q-34 -34 -59 -82q-23 -44 -34 -103q-10 -51 -4 -100q6 -46 26 -83t54 -58t82 -21q72 0 131 37t80 96h213z" />
    <glyph glyph-name="ordfeminine" unicode="&#xaa;" horiz-adv-x="665" 
d="M612 1087q-47 -24 -70 -30q-22 -6 -44 -21q-17 -13 -28 -26q-10 -13 -15 -39q-6 -31 5 -51q12 -21 40 -21q24 0 52 19q27 18 38 59zM563 766q-12 34 -4 76h-4q-18 -45 -68 -66q-47 -24 -108 -24q-99 0 -139 45q-41 46 -19 149q11 59 45 102t82 66q45 22 105 32
q77 15 108 23q10 2 24 7t15 5q13 4 24 13q8 7 13 20q1 2 8 31q5 24 -6 41t-41 17q-38 0 -58 -23t-30 -59h-229q16 72 47 117q32 46 73 69q48 25 98 34q53 9 138 9q155 0 208 -46q54 -47 32 -151l-72 -344q-9 -48 -14 -79q-6 -43 8 -64h-236z" />
    <glyph glyph-name="guillemotleft" unicode="&#xab;" horiz-adv-x="909" 
d="M659 791l367 225l-65 -307l-193 -117l145 -117l-63 -307l-275 225zM258 791l367 225l-66 -307l-192 -117l145 -117l-63 -307l-275 225z" />
    <glyph glyph-name="logicalnot" unicode="&#xac;" horiz-adv-x="1228" 
d="M991 608h-770l55 266h1037l-139 -673h-267z" />
    <glyph glyph-name="uni00AD" unicode="&#xad;" horiz-adv-x="757" 
d="M221 731h619l-60 -278h-618z" />
    <glyph glyph-name="registered" unicode="&#xae;" horiz-adv-x="1638" 
d="M211 731q33 159 121 296q89 139 213 242q123 102 275 163q148 59 308 59t284 -59q126 -60 208 -163q83 -104 113 -242q31 -141 -2 -296q-33 -157 -122 -296q-88 -137 -213 -241q-123 -103 -276 -163q-152 -60 -307 -60q-158 0 -284 60q-124 59 -207 163q-83 105 -113 241
q-31 141 2 296zM428 731q-24 -118 -3 -220q21 -100 80 -176q59 -75 148 -117q90 -42 201 -42t219 42q111 43 198 117q90 76 153 176q65 103 89 220q25 122 3 220q-22 101 -81 176q-58 75 -149 117q-90 42 -201 42q-110 0 -218 -42q-107 -42 -196 -117q-92 -78 -154 -176
q-65 -103 -89 -220zM848 791h139q62 0 104 18q41 18 58 90q8 38 -3 57q-11 20 -33 32q-19 11 -48 14q-36 4 -51 4h-121zM735 1153h334q165 0 231 -68q66 -67 39 -196q-22 -107 -95 -168q-71 -59 -157 -70l140 -344h-213l-121 336h-72l-69 -336h-193z" />
    <glyph glyph-name="macron" unicode="&#xaf;" 
d="M248 1462h635l-37 -180h-635z" />
    <glyph glyph-name="degree" unicode="&#xb0;" horiz-adv-x="819" 
d="M334 1139q16 67 50 121q36 57 87 99t113 66q64 25 127 25q60 0 115 -25q51 -23 86 -66q34 -41 46 -99q13 -60 -2 -121q-12 -66 -49 -122t-88 -98q-54 -45 -113 -67q-66 -25 -126 -25q-64 0 -117 25q-50 23 -84 67q-33 42 -45 98q-12 57 0 122zM494 1139q-12 -65 22 -108
q35 -44 98 -44q64 0 117 44q54 45 66 108q15 62 -22 107q-36 44 -99 44t-116 -44q-50 -42 -66 -107z" />
    <glyph glyph-name="plusminus" unicode="&#xb1;" horiz-adv-x="1228" 
d="M152 266h1036l-55 -266h-1037zM596 555h-385l55 266h385l45 215h267l-45 -215h385l-56 -266h-385l-45 -215h-266z" />
    <glyph glyph-name="uni00B2" unicode="&#xb2;" horiz-adv-x="692" 
d="M260 1151l8 39q28 130 119 195t264 65q99 0 157 -18q57 -18 88 -53q30 -34 34 -80q4 -44 -8 -101q-6 -32 -21 -77q-12 -35 -39 -70q-31 -40 -72 -74q-50 -42 -124 -86q-60 -35 -107 -69q-34 -25 -59 -56h323l-39 -193h-647q24 110 104 207q84 102 201 183q75 52 112 83
q38 33 60 59q20 25 28 46q6 16 13 45q7 38 0 66t-49 28q-29 0 -47 -15q-17 -14 -30 -37q-10 -17 -17 -46l-10 -41h-242z" />
    <glyph glyph-name="uni00B3" unicode="&#xb3;" horiz-adv-x="692" 
d="M272 1184q15 71 42 121q25 46 71 81q48 34 111 49t161 15q168 0 227 -56q61 -58 34 -186q-15 -64 -62 -113q-46 -48 -133 -63v-4q99 -17 124 -62q25 -46 9 -132q-17 -77 -50 -128q-34 -52 -84 -85q-49 -32 -114 -48q-59 -14 -139 -14q-88 0 -146 11q-64 12 -100 44
q-37 32 -47 89q-10 56 8 147h267q-6 -30 -7 -46q-2 -27 2 -42q6 -43 43 -43q35 0 62 24q26 23 37 80q15 67 -6 93t-86 26h-58l33 160h61q53 0 82 32q28 32 39 78q6 36 -6 57t-41 21q-27 0 -53 -23q-27 -24 -39 -83h-242z" />
    <glyph glyph-name="acute" unicode="&#xb4;" 
d="M553 1518h319l-264 -291h-217z" />
    <glyph glyph-name="mu" unicode="&#xb5;" horiz-adv-x="1062" 
d="M971 0h-320l27 131h-4q-15 -24 -43 -57q-23 -27 -53 -51q-26 -20 -59 -37q-30 -15 -56 -15q-27 0 -45 9l-70 -340h-332l306 1468h331l-157 -756q-12 -60 5 -93q18 -34 64 -34q47 0 91 38q45 39 61 120l151 725h332z" />
    <glyph glyph-name="paragraph" unicode="&#xb6;" horiz-adv-x="1228" 
d="M539 690q-59 0 -111 26q-51 26 -87 75q-35 49 -49 118q-13 68 5 160q39 183 161 289q120 104 290 104h618l-362 -1745h-267l320 1540h-135l-320 -1540h-266z" />
    <glyph glyph-name="periodcentered" unicode="&#xb7;" 
d="M170 559q7 41 34 82q26 40 60 68t77 45q41 16 85 16q88 0 136 -61t30 -150q-22 -87 -93 -149t-161 -62q-87 0 -137 62q-49 61 -31 149z" />
    <glyph glyph-name="cedilla" unicode="&#xb8;" 
d="M0 -313q33 -15 62 -22q36 -9 73 -9q54 0 83 23q30 24 36 53q4 28 -21 47q-24 18 -67 18q-20 0 -40 -5q-4 -1 -22 -7l-38 39l153 176h121l-100 -115q22 9 55 9q49 0 81 -15q33 -16 50 -38q20 -27 24 -53q5 -31 -1 -60q-18 -87 -98 -137t-197 -50q-88 0 -132 10
q-43 10 -83 29z" />
    <glyph glyph-name="uni00B9" unicode="&#xb9;" horiz-adv-x="692" 
d="M481 1159h-166l33 160h27q65 0 107 13q45 14 73 33q29 20 45 43q19 28 25 42h184l-182 -877h-267z" />
    <glyph glyph-name="ordmasculine" unicode="&#xba;" horiz-adv-x="665" 
d="M872 1102q-16 -70 -41 -138q-25 -67 -67 -112q-44 -47 -110 -74q-64 -26 -165 -26q-106 0 -161 26q-58 27 -80 73q-23 47 -20 110q3 61 20 137q15 77 40 140q26 66 69 112q42 45 112 73q67 27 166 27q104 0 161 -27q56 -27 78 -72q23 -48 19 -111q-5 -64 -21 -138z
M489 1102q-22 -109 -16 -157q6 -46 47 -46q44 0 66 45t45 156q22 109 19 156t-46 47q-40 0 -66 -46q-27 -48 -49 -155z" />
    <glyph glyph-name="guillemotright" unicode="&#xbb;" horiz-adv-x="909" 
d="M594 475l192 113l-145 121l66 307l272 -225l-84 -398l-365 -225zM193 475l192 113l-145 121l65 307l273 -225l-84 -398l-365 -225z" />
    <glyph glyph-name="onequarter" unicode="&#xbc;" horiz-adv-x="1593" 
d="M440 1159h-166l33 160h27q65 0 107 13q45 14 73 33q29 20 45 43q19 28 25 42h184l-182 -877h-267zM1352 1485h202l-1140 -1548h-203zM942 344l397 516h291l-108 -516h90l-39 -192h-90l-31 -152h-254l31 152h-326zM1323 606h-4l-193 -262h142z" />
    <glyph glyph-name="onehalf" unicode="&#xbd;" horiz-adv-x="1593" 
d="M1010 578l8 38q29 131 119 196q91 65 262 65q94 0 157 -19q61 -18 90 -52q28 -33 33 -80q4 -44 -8 -101q-7 -38 -20 -77q-12 -37 -39 -71q-27 -35 -74 -74q-49 -41 -123 -86q-63 -37 -106 -68q-37 -26 -60 -56h324l-39 -193h-647q24 112 103 207q81 98 202 182
q75 52 112 83q38 33 60 59q20 24 28 47q6 16 13 45q7 37 0 65q-8 29 -49 29q-28 0 -47 -16q-18 -15 -30 -36q-9 -16 -17 -47l-11 -40h-241zM440 1159h-166l33 160h27q65 0 107 13q45 14 73 33q29 20 45 43q19 28 25 42h184l-182 -877h-267zM1352 1485h202l-1140 -1548h-203z
" />
    <glyph glyph-name="threequarters" unicode="&#xbe;" horiz-adv-x="1593" 
d="M260 1184q15 71 42 121q25 46 71 81q48 34 110 49q63 15 162 15q167 0 226 -56q61 -58 34 -186q-15 -65 -61 -113t-133 -63v-4q99 -17 124 -62q25 -46 9 -132q-17 -77 -50 -128q-34 -52 -84 -85q-49 -32 -114 -48q-59 -14 -139 -14q-89 0 -147 11q-63 12 -99 44
q-37 32 -47 89q-10 56 8 147h266q-5 -23 -6 -46q-2 -27 2 -42q6 -43 43 -43q35 0 62 24q25 22 36 80q15 67 -6 93t-86 26h-57l33 160h61q53 0 82 32q28 32 39 78q6 36 -6 57t-41 21q-27 0 -53 -23q-27 -24 -39 -83h-242zM1434 1485h202l-1140 -1548h-203zM1010 344l397 516
h291l-109 -516h90l-39 -192h-90l-30 -152h-254l30 152h-325zM1391 606h-4l-193 -262h141z" />
    <glyph glyph-name="questiondown" unicode="&#xbf;" horiz-adv-x="1024" 
d="M856 807h-319l65 307h320zM967 109l-11 -41q-44 -212 -173 -328q-131 -117 -347 -117q-210 0 -302 104q-91 102 -50 293q18 86 54 152q38 69 79 116q47 54 90 91q52 45 88 80q44 42 71 79q29 40 40 91l14 67h307l-12 -65q-23 -103 -52 -164q-30 -64 -77 -115
q-34 -37 -85 -77q-58 -46 -85 -72q-42 -41 -73 -89q-31 -49 -48 -124q-15 -71 2 -111q17 -39 80 -39q65 0 109 61q43 59 73 208h308z" />
    <glyph glyph-name="Agrave" unicode="&#xc0;" horiz-adv-x="1175" 
d="M680 1462h430l61 -1462h-356l4 279h-350l-109 -279h-356zM834 1196h-5l-256 -651h250zM659 1843h320l43 -291h-217z" />
    <glyph glyph-name="Aacute" unicode="&#xc1;" horiz-adv-x="1175" 
d="M680 1462h430l61 -1462h-356l4 279h-350l-109 -279h-356zM834 1196h-5l-256 -651h250zM926 1845h319l-264 -291h-217z" />
    <glyph glyph-name="Acircumflex" unicode="&#xc2;" horiz-adv-x="1175" 
d="M680 1462h430l61 -1462h-356l4 279h-350l-109 -279h-356zM834 1196h-5l-256 -651h250zM793 1843h344l86 -291h-242l-41 166l-109 -166h-243z" />
    <glyph glyph-name="Atilde" unicode="&#xc3;" horiz-adv-x="1175" 
d="M680 1462h430l61 -1462h-356l4 279h-350l-109 -279h-356zM834 1196h-5l-256 -651h250zM1235 1839q-11 -41 -35 -94q-23 -51 -55 -90q-34 -42 -76 -68t-98 -26q-37 0 -70 9q-32 9 -61 21q-46 19 -53 22q-24 9 -44 9q-29 0 -47 -23q-20 -25 -26 -38h-158q18 58 40 103
q26 53 56 89q33 39 72 63q37 23 84 23q42 0 73 -9q24 -7 60 -22q39 -14 51 -20q21 -10 45 -10q39 0 54 19q11 15 24 42h164z" />
    <glyph glyph-name="Adieresis" unicode="&#xc4;" horiz-adv-x="1175" 
d="M680 1462h430l61 -1462h-356l4 279h-350l-109 -279h-356zM834 1196h-5l-256 -651h250zM1010 1833h254l-56 -266h-254zM649 1833h254l-55 -266h-254z" />
    <glyph glyph-name="Aring" unicode="&#xc5;" horiz-adv-x="1175" 
d="M680 1462h430l61 -1462h-356l4 279h-350l-109 -279h-356zM834 1196h-5l-256 -651h250zM799 1743q-10 -59 17 -91t79 -32q51 0 95 36t54 87q10 60 -18 91q-29 32 -80 32q-50 0 -94 -36q-42 -35 -53 -87zM674 1743q11 54 39 97q31 48 68 75q41 30 88 48q45 17 100 17
q54 0 92 -17q41 -18 68 -48q26 -29 39 -75q12 -43 1 -97q-10 -53 -39 -97q-30 -46 -69 -75q-40 -30 -89 -48q-48 -18 -100 -18t-92 18q-41 18 -68 48t-38 75q-11 44 0 97z" />
    <glyph glyph-name="AE" unicode="&#xc6;" horiz-adv-x="1630" 
d="M1018 1184h-17l-337 -639h221zM874 1462h981l-57 -278h-461l-61 -293h430l-57 -279h-430l-70 -333h479l-57 -279h-799l57 279h-307l-147 -279h-357z" />
    <glyph glyph-name="Ccedilla" unicode="&#xc7;" horiz-adv-x="1099" 
d="M315 -313q32 -14 63 -22q36 -9 73 -9q54 0 83 23t35 53q5 29 -20 47q-24 18 -68 18q-20 0 -40 -5q-5 -1 -9.5 -2.5t-7.5 -3t-4 -1.5l-39 39l129 147q-139 6 -217 58q-61 45 -90 114q-29 70 -32 161q-3 94 13 201q17 114 43 236q28 140 68 276q39 134 111 239
q73 106 187 170q116 65 298 65q111 0 195 -26q85 -26 131 -83q47 -58 59 -147q12 -93 -14 -219l-15 -62h-332q35 164 24 234q-12 74 -97 74q-54 0 -88 -27q-37 -29 -63 -87q-29 -65 -52 -159q-34 -141 -55 -241q-36 -170 -53 -270q-18 -103 -13 -167q5 -63 31 -86
q27 -24 80 -24q48 0 81 26q34 26 58 75q25 50 44 117q22 77 38 154h332l-11 -51q-16 -82 -46 -169q-27 -79 -70 -143q-46 -68 -103 -115q-63 -52 -141 -83q-82 -30 -178 -37l-78 -90q22 9 55 9q50 0 81 -15q33 -16 50 -38q20 -27 24 -53q5 -31 -1 -60q-19 -88 -97 -137
q-80 -50 -198 -50q-88 0 -132 10q-43 10 -83 29z" />
    <glyph glyph-name="Egrave" unicode="&#xc8;" horiz-adv-x="1024" 
d="M410 1462h845l-57 -278h-502l-61 -293h471l-57 -279h-471l-70 -333h524l-57 -279h-869zM621 1843h319l43 -291h-217z" />
    <glyph glyph-name="Eacute" unicode="&#xc9;" horiz-adv-x="1024" 
d="M410 1462h845l-57 -278h-502l-61 -293h471l-57 -279h-471l-70 -333h524l-57 -279h-869zM881 1845h319l-264 -291h-217z" />
    <glyph glyph-name="Ecircumflex" unicode="&#xca;" horiz-adv-x="1024" 
d="M410 1462h845l-57 -278h-502l-61 -293h471l-57 -279h-471l-70 -333h524l-57 -279h-869zM725 1843h344l86 -291h-242l-41 166l-108 -166h-244z" />
    <glyph glyph-name="Edieresis" unicode="&#xcb;" horiz-adv-x="1024" 
d="M410 1462h845l-57 -278h-502l-61 -293h471l-57 -279h-471l-70 -333h524l-57 -279h-869zM954 1833h254l-55 -266h-254zM594 1833h254l-55 -266h-254z" />
    <glyph glyph-name="Igrave" unicode="&#xcc;" horiz-adv-x="569" 
d="M416 1462h344l-303 -1462h-344zM410 1843h319l43 -291h-217z" />
    <glyph glyph-name="Iacute" unicode="&#xcd;" horiz-adv-x="569" 
d="M416 1462h344l-303 -1462h-344zM596 1845h319l-264 -291h-217z" />
    <glyph glyph-name="Icircumflex" unicode="&#xce;" horiz-adv-x="569" 
d="M416 1462h344l-303 -1462h-344zM483 1843h344l86 -291h-241l-41 166l-109 -166h-243z" />
    <glyph glyph-name="Idieresis" unicode="&#xcf;" horiz-adv-x="569" 
d="M416 1462h344l-303 -1462h-344zM711 1833h254l-56 -266h-254zM350 1833h254l-55 -266h-254z" />
    <glyph glyph-name="Eth" unicode="&#xd0;" horiz-adv-x="1175" 
d="M240 649h-107l49 230h107l121 583h501q127 0 212 -36t128 -115t46 -211q3 -138 -33 -322q-42 -184 -96 -345q-49 -146 -125 -243t-187 -143q-114 -47 -283 -47h-467zM502 254h92q63 0 105 16q43 16 80 70q36 53 68 153q31 98 66 263q24 121 38 221q12 88 0 139
q-12 52 -48 72t-106 20h-97l-67 -329h127l-49 -230h-127z" />
    <glyph glyph-name="Ntilde" unicode="&#xd1;" horiz-adv-x="1214" 
d="M410 1462h395l84 -950h4l199 950h319l-303 -1462h-389l-92 1008h-4l-209 -1008h-308zM1313 1839q-11 -41 -35 -94q-23 -51 -55 -90q-34 -42 -76 -68t-98 -26q-37 0 -70 9q-32 9 -61 21q-46 19 -53 22q-24 9 -44 9q-29 0 -47 -23q-20 -25 -26 -38h-158q18 58 40 103
q26 53 56 89q33 39 72 63q37 23 84 23q40 0 72 -9q27 -8 61 -22q39 -14 51 -20q21 -10 45 -10q38 0 53 19q14 18 25 42h164z" />
    <glyph glyph-name="Ograve" unicode="&#xd2;" horiz-adv-x="1175" 
d="M1253 731q-31 -158 -70 -290q-40 -135 -113 -242q-71 -104 -189 -166t-299 -62q-167 0 -260 54q-89 52 -124 152q-34 98 -22 240q12 143 49 314q39 183 83 315q46 139 120 239q75 101 186 153q114 53 283 53q121 0 202 -29q77 -27 125 -79q46 -49 64 -120q19 -74 19 -155
q0 -84 -17 -181q-20 -115 -37 -196zM582 731q-33 -168 -47 -253q-17 -104 -14 -163q3 -60 29 -88q25 -26 77 -26q53 0 89 26q37 27 67 88q30 62 57 163q27 103 57 253q34 169 46 252q15 102 12 164t-29 88q-27 27 -78 27t-87 -27t-66 -88q-28 -56 -56 -164
q-27 -102 -57 -252zM616 1843h320l43 -291h-217z" />
    <glyph glyph-name="Oacute" unicode="&#xd3;" horiz-adv-x="1175" 
d="M1253 731q-31 -158 -70 -290q-40 -135 -113 -242q-71 -104 -189 -166t-299 -62q-167 0 -260 54q-89 52 -124 152q-34 98 -22 240q12 143 49 314q39 183 83 315q46 139 120 239q75 101 186 153q114 53 283 53q121 0 202 -29q77 -27 125 -79q46 -49 64 -120q19 -74 19 -155
q0 -84 -17 -181q-20 -115 -37 -196zM582 731q-33 -168 -47 -253q-17 -104 -14 -163q3 -60 29 -88q25 -26 77 -26q53 0 89 26q37 27 67 88q30 62 57 163q27 103 57 253q34 169 46 252q15 102 12 164t-29 88q-27 27 -78 27t-87 -27t-66 -88q-28 -56 -56 -164
q-27 -102 -57 -252zM942 1845h320l-265 -291h-217z" />
    <glyph glyph-name="Ocircumflex" unicode="&#xd4;" horiz-adv-x="1175" 
d="M1253 731q-31 -158 -70 -290q-40 -135 -113 -242q-71 -104 -189 -166t-299 -62q-167 0 -260 54q-89 52 -124 152q-34 98 -22 240q12 143 49 314q39 183 83 315q46 139 120 239q75 101 186 153q114 53 283 53q121 0 202 -29q77 -27 125 -79q46 -49 64 -120q19 -74 19 -155
q0 -84 -17 -181q-20 -115 -37 -196zM582 731q-33 -168 -47 -253q-17 -104 -14 -163q3 -60 29 -88q25 -26 77 -26q53 0 89 26q37 27 67 88q30 62 57 163q27 103 57 253q34 169 46 252q15 102 12 164t-29 88q-27 27 -78 27t-87 -27t-66 -88q-28 -56 -56 -164
q-27 -102 -57 -252zM793 1843h344l86 -291h-242l-41 166l-109 -166h-243z" />
    <glyph glyph-name="Otilde" unicode="&#xd5;" horiz-adv-x="1175" 
d="M1253 731q-31 -158 -70 -290q-40 -135 -113 -242q-71 -104 -189 -166t-299 -62q-167 0 -260 54q-89 52 -124 152q-34 98 -22 240q12 143 49 314q39 183 83 315q46 139 120 239q75 101 186 153q114 53 283 53q121 0 202 -29q77 -27 125 -79q46 -49 64 -120q19 -74 19 -155
q0 -84 -17 -181q-20 -115 -37 -196zM582 731q-33 -168 -47 -253q-17 -104 -14 -163q3 -60 29 -88q25 -26 77 -26q53 0 89 26q37 27 67 88q30 62 57 163q27 103 57 253q34 169 46 252q15 102 12 164t-29 88q-27 27 -78 27t-87 -27t-66 -88q-28 -56 -56 -164
q-27 -102 -57 -252zM1284 1839q-11 -41 -35 -94q-23 -51 -55 -90q-34 -42 -76 -68t-98 -26q-37 0 -70 9q-32 9 -61 21q-3 1 -23 9.5t-29 12.5q-24 9 -44 9q-30 0 -48 -23q-20 -25 -26 -38h-158q18 58 40 103q26 53 56 89q33 39 72 63q37 23 84 23q41 0 73 -9q24 -7 60 -22
q39 -14 51 -20q21 -10 45 -10q39 0 54 19q11 15 24 42h164z" />
    <glyph glyph-name="Odieresis" unicode="&#xd6;" horiz-adv-x="1175" 
d="M1253 731q-31 -158 -70 -290q-40 -135 -113 -242q-71 -104 -189 -166t-299 -62q-167 0 -260 54q-89 52 -124 152q-34 98 -22 240q12 143 49 314q39 183 83 315q46 139 120 239q75 101 186 153q114 53 283 53q121 0 202 -29q77 -27 125 -79q46 -49 64 -120q19 -74 19 -155
q0 -84 -17 -181q-20 -115 -37 -196zM582 731q-33 -168 -47 -253q-17 -104 -14 -163q3 -60 29 -88q25 -26 77 -26q53 0 89 26q37 27 67 88q30 62 57 163q27 103 57 253q34 169 46 252q15 102 12 164t-29 88q-27 27 -78 27t-87 -27t-66 -88q-28 -56 -56 -164
q-27 -102 -57 -252zM1016 1833h254l-56 -266h-253zM655 1833h254l-55 -266h-254z" />
    <glyph glyph-name="multiply" unicode="&#xd7;" horiz-adv-x="1228" 
d="M539 518l-250 313l223 185l248 -316l379 316l145 -185l-381 -313l250 -313l-221 -185l-248 316l-379 -316l-147 185z" />
    <glyph glyph-name="Oslash" unicode="&#xd8;" horiz-adv-x="1175" 
d="M948 1182q-10 43 -34 61q-25 19 -66 19q-51 0 -87 -27t-66 -88q-28 -56 -56 -164q-27 -102 -57 -252q-4 -20 -11.5 -55t-8.5 -38q-8 -36 -13 -75h4zM246 90q-40 47 -56 113q-16 64 -16 147q0 88 14 176q16 104 37 205q39 183 83 315q46 139 120 239q75 101 186 153
q114 53 283 53q145 0 225 -39l84 129l123 -59l-96 -150q42 -49 59 -120q16 -69 15 -151q-1 -72 -18 -177q-15 -93 -36 -193q-31 -158 -70 -290q-40 -135 -113 -242q-71 -104 -189 -166t-299 -62q-150 0 -226 39l-86 -129l-123 60zM528 279q16 -78 99 -78q53 0 89 26
q37 27 67 88q30 62 57 163q27 103 57 253q4 19 10.5 51t8.5 42q10 50 14 73h-4z" />
    <glyph glyph-name="Ugrave" unicode="&#xd9;" horiz-adv-x="1138" 
d="M1151 483q-23 -108 -60 -201q-37 -91 -106 -162q-66 -68 -170 -109q-101 -40 -252 -40q-150 0 -236 39q-84 38 -124 109q-40 70 -38 163q2 98 23 201l203 979h344l-225 -1079q-17 -87 7 -134q24 -48 93 -48q70 0 114 48q43 48 60 134l226 1079h344zM651 1843h320l43 -291
h-217z" />
    <glyph glyph-name="Uacute" unicode="&#xda;" horiz-adv-x="1138" 
d="M1151 483q-23 -108 -60 -201q-37 -91 -106 -162q-66 -68 -170 -109q-101 -40 -252 -40q-150 0 -236 39q-84 38 -124 109q-40 70 -38 163q2 98 23 201l203 979h344l-225 -1079q-17 -87 7 -134q24 -48 93 -48q70 0 114 48q43 48 60 134l226 1079h344zM942 1845h320
l-265 -291h-217z" />
    <glyph glyph-name="Ucircumflex" unicode="&#xdb;" horiz-adv-x="1138" 
d="M1151 483q-23 -108 -60 -201q-37 -91 -106 -162q-66 -68 -170 -109q-101 -40 -252 -40q-150 0 -236 39q-84 38 -124 109q-40 70 -38 163q2 98 23 201l203 979h344l-225 -1079q-17 -87 7 -134q24 -48 93 -48q70 0 114 48q43 48 60 134l226 1079h344zM774 1843h344l86 -291
h-241l-41 166l-109 -166h-244z" />
    <glyph glyph-name="Udieresis" unicode="&#xdc;" horiz-adv-x="1138" 
d="M1151 483q-23 -108 -60 -201q-37 -91 -106 -162q-66 -68 -170 -109q-101 -40 -252 -40q-150 0 -236 39q-84 38 -124 109q-40 70 -38 163q2 98 23 201l203 979h344l-225 -1079q-17 -87 7 -134q24 -48 93 -48q70 0 114 48q43 48 60 134l226 1079h344zM991 1833h254
l-55 -266h-254zM631 1833h254l-56 -266h-254z" />
    <glyph glyph-name="Yacute" unicode="&#xdd;" horiz-adv-x="1097" 
d="M496 575l-187 887h381l51 -542h4l281 542h369l-555 -887l-119 -575h-344zM930 1845h319l-264 -291h-217z" />
    <glyph glyph-name="Thorn" unicode="&#xde;" horiz-adv-x="1138" 
d="M567 563h94q50 0 88 16q34 14 59 39q22 22 38 59q14 33 22 71q9 47 9 77q0 52 -32 87q-31 34 -110 34h-88zM410 1462h344l-56 -262h189q102 0 168 -25q67 -25 108 -68q43 -44 60 -95q18 -53 18 -111q0 -86 -14 -145q-21 -98 -63 -181q-41 -81 -109 -141q-65 -58 -164 -92
q-96 -33 -225 -33h-152l-63 -309h-345z" />
    <glyph glyph-name="germandbls" unicode="&#xdf;" horiz-adv-x="1099" 
d="M313 1026q28 128 70 214q43 88 110 144q66 56 160 81q96 26 224 26q121 0 198 -27q76 -27 116 -74q39 -47 47 -116q8 -68 -9 -150q-24 -116 -84 -191q-61 -76 -170 -104l-2 -4q48 -5 82 -24q36 -20 59 -64t27 -110q4 -65 -17 -166q-30 -147 -76 -237q-46 -92 -108 -144
q-64 -54 -140 -73q-77 -19 -173 -19q-43 0 -71 4q-37 5 -46 8l45 221q7 -1 23 -3q8 -1 28 -1q79 0 119 59q42 62 70 195q27 131 2 182q-24 49 -107 49h-33l48 230h36q37 0 61 14q26 16 44 39q17 23 30 55q10 25 17 64q21 95 -5 133q-25 37 -79 37q-61 0 -96 -45
q-36 -48 -54 -131l-227 -1098h-332z" />
    <glyph glyph-name="agrave" unicode="&#xe0;" horiz-adv-x="1024" 
d="M444 342q-15 -66 3 -103q18 -38 65 -38q55 0 100 32q48 34 64 119q12 51 25 115q3 17 10 45t8 35q-43 -21 -75 -33q-42 -16 -54 -20q-9 -3 -22 -8.5t-17 -6.5q-16 -6 -29 -14q-32 -22 -49 -48q-18 -27 -29 -75zM244 768q27 118 73 186q48 71 115 111q67 41 142 56
q82 16 182 16q205 0 282 -76q78 -76 43 -252l-118 -569q-4 -20 -14 -66q-7 -30 -10 -68q-3 -30 -1 -60q2 -27 14 -46h-319q-4 26 -1 61q4 44 7 66h-4q-51 -75 -127 -115q-79 -41 -164 -41q-142 0 -202 79q-60 80 -23 259q21 101 72 173q53 75 122 110t155 53q64 13 161 37
q43 12 64 19q25 9 41 23q17 15 25 34q9 21 15 51q10 50 -8 81q-18 30 -74 30q-69 0 -103 -40q-33 -39 -50 -112h-295zM524 1516h320l43 -291h-217z" />
    <glyph glyph-name="aacute" unicode="&#xe1;" horiz-adv-x="1024" 
d="M444 342q-15 -66 3 -103q18 -38 65 -38q55 0 100 32q48 34 64 119q12 51 25 115q3 17 10 45t8 35q-43 -21 -75 -33q-42 -16 -54 -20q-9 -3 -22 -8.5t-17 -6.5q-16 -6 -29 -14q-32 -22 -49 -48q-18 -27 -29 -75zM244 768q27 118 73 186q48 71 115 111q67 41 142 56
q82 16 182 16q205 0 282 -76q78 -76 43 -252l-118 -569q-4 -20 -14 -66q-7 -30 -10 -68q-3 -30 -1 -60q2 -27 14 -46h-319q-4 26 -1 61q4 44 7 66h-4q-51 -75 -127 -115q-79 -41 -164 -41q-142 0 -202 79q-60 80 -23 259q21 101 72 173q53 75 122 110t155 53q64 13 161 37
q43 12 64 19q25 9 41 23q17 15 25 34q9 21 15 51q10 50 -8 81q-18 30 -74 30q-69 0 -103 -40q-33 -39 -50 -112h-295zM817 1518h320l-265 -291h-217z" />
    <glyph glyph-name="acircumflex" unicode="&#xe2;" horiz-adv-x="1024" 
d="M444 342q-15 -66 3 -103q18 -38 65 -38q55 0 100 32q48 34 64 119q12 51 25 115q3 17 10 45t8 35q-43 -21 -75 -33q-42 -16 -54 -20q-9 -3 -22 -8.5t-17 -6.5q-16 -6 -29 -14q-32 -22 -49 -48q-18 -27 -29 -75zM244 768q27 118 73 186q48 71 115 111q67 41 142 56
q82 16 182 16q205 0 282 -76q78 -76 43 -252l-118 -569q-4 -20 -14 -66q-7 -30 -10 -68q-3 -30 -1 -60q2 -27 14 -46h-319q-4 26 -1 61q4 44 7 66h-4q-51 -75 -127 -115q-79 -41 -164 -41q-142 0 -202 79q-60 80 -23 259q21 101 72 173q53 75 122 110t155 53q64 13 161 37
q43 12 64 19q25 9 41 23q17 15 25 34q9 21 15 51q10 50 -8 81q-18 30 -74 30q-69 0 -103 -40q-33 -39 -50 -112h-295zM664 1561h344l86 -291h-242l-41 166l-109 -166h-243z" />
    <glyph glyph-name="atilde" unicode="&#xe3;" horiz-adv-x="1024" 
d="M444 342q-15 -66 3 -103q18 -38 65 -38q55 0 100 32q48 34 64 119q12 51 25 115q3 17 10 45t8 35q-43 -21 -75 -33q-42 -16 -54 -20q-9 -3 -22 -8.5t-17 -6.5q-16 -6 -29 -14q-32 -22 -49 -48q-18 -27 -29 -75zM244 768q27 118 73 186q48 71 115 111q67 41 142 56
q82 16 182 16q205 0 282 -76q78 -76 43 -252l-118 -569q-4 -20 -14 -66q-7 -30 -10 -68q-3 -30 -1 -60q2 -27 14 -46h-319q-4 26 -1 61q4 44 7 66h-4q-51 -75 -127 -115q-79 -41 -164 -41q-142 0 -202 79q-60 80 -23 259q21 101 72 173q53 75 122 110t155 53q64 13 161 37
q43 12 64 19q25 9 41 23q17 15 25 34q9 21 15 51q10 50 -8 81q-18 30 -74 30q-69 0 -103 -40q-33 -39 -50 -112h-295zM1149 1511q-11 -41 -35 -94q-23 -51 -55 -90q-33 -40 -76 -67t-98 -27q-37 0 -70 9q-25 7 -61 22q-24 10 -53 21q-24 9 -44 9q-29 0 -47 -22
q-19 -24 -26 -39h-158q18 58 40 103q26 53 56 89q33 39 72 63q37 23 84 23q42 0 73 -9t60 -21q29 -11 51 -21q21 -10 45 -10q39 0 54 19q11 15 24 42h164z" />
    <glyph glyph-name="adieresis" unicode="&#xe4;" horiz-adv-x="1024" 
d="M444 342q-15 -66 3 -103q18 -38 65 -38q55 0 100 32q48 34 64 119q12 51 25 115q3 17 10 45t8 35q-43 -21 -75 -33q-42 -16 -54 -20q-9 -3 -22 -8.5t-17 -6.5q-16 -6 -29 -14q-32 -22 -49 -48q-18 -27 -29 -75zM244 768q27 118 73 186q48 71 115 111q67 41 142 56
q82 16 182 16q205 0 282 -76q78 -76 43 -252l-118 -569q-4 -20 -14 -66q-7 -30 -10 -68q-3 -30 -1 -60q2 -27 14 -46h-319q-4 26 -1 61q4 44 7 66h-4q-51 -75 -127 -115q-79 -41 -164 -41q-142 0 -202 79q-60 80 -23 259q21 101 72 173q53 75 122 110t155 53q64 13 161 37
q43 12 64 19q25 9 41 23q17 15 25 34q9 21 15 51q10 50 -8 81q-18 30 -74 30q-69 0 -103 -40q-33 -39 -50 -112h-295zM868 1505h254l-55 -266h-254zM508 1505h254l-55 -266h-254z" />
    <glyph glyph-name="aring" unicode="&#xe5;" horiz-adv-x="1024" 
d="M444 342q-15 -66 3 -103q18 -38 65 -38q55 0 100 32q48 34 64 119q12 51 25 115q3 17 10 45t8 35q-43 -21 -75 -33q-42 -16 -54 -20q-9 -3 -22 -8.5t-17 -6.5q-16 -6 -29 -14q-32 -22 -49 -48q-18 -27 -29 -75zM244 768q27 118 73 186q48 71 115 111q67 41 142 56
q82 16 182 16q205 0 282 -76q78 -76 43 -252l-118 -569q-4 -20 -14 -66q-7 -30 -10 -68q-3 -30 -1 -60q2 -27 14 -46h-319q-4 26 -1 61q4 44 7 66h-4q-51 -75 -127 -115q-79 -41 -164 -41q-142 0 -202 79q-60 80 -23 259q21 101 72 173q53 75 122 110t155 53q64 13 161 37
q43 12 64 19q25 9 41 23q17 15 25 34q9 21 15 51q10 50 -8 81q-18 30 -74 30q-69 0 -103 -40q-33 -39 -50 -112h-295zM678 1423q-10 -59 17 -91t79 -32t95 36q45 37 55 87q10 59 -19 91t-80 32t-94 -36q-42 -35 -53 -87zM553 1423q11 55 39 98q30 46 68 74q43 32 89 49
q45 17 99 17t92 -17q41 -18 69 -49q27 -30 39 -74q12 -43 1 -98q-10 -53 -39 -97q-29 -45 -70 -75q-40 -30 -89 -48q-45 -17 -99 -17q-55 0 -93 17q-41 18 -68 48t-38 75q-11 44 0 97z" />
    <glyph glyph-name="ae" unicode="&#xe6;" horiz-adv-x="1517" 
d="M1296 692q25 120 16 178q-9 62 -79 62q-81 0 -118 -64q-35 -61 -58 -176h239zM444 342q-15 -66 3 -103q18 -38 65 -38q55 0 100 32q48 34 64 119q12 51 25 115q3 17 10 45t8 35q-43 -21 -75 -33q-42 -16 -54 -20q-9 -3 -22 -8.5t-17 -6.5q-16 -6 -29 -14q-32 -22 -49 -48
q-18 -27 -29 -75zM244 768q27 118 73 186q48 71 115 111q68 42 140 56q80 16 161 16q77 0 127 -15q52 -16 78 -35q30 -22 41 -41q9 -17 16 -34q66 73 149 99q84 26 171 26q95 0 161 -30t103 -95q36 -64 41 -171q4 -99 -27 -255l-18 -86h-559l-15 -68q-27 -129 -15 -192
q12 -64 83 -64q66 0 100 49q36 52 64 154h307q-47 -209 -176 -308q-130 -100 -338 -100q-157 0 -226 48q-68 47 -83 135q-53 -93 -136 -138t-206 -45q-69 0 -128 17q-57 16 -91 55t-46 104q-12 66 9 162q21 101 72 173q53 75 122 110t155 53q64 13 161 37q43 12 64 19
q25 9 41 23q17 15 25 34q9 21 15 51q10 50 -8 81q-18 30 -74 30q-69 0 -103 -40q-33 -39 -50 -112h-295z" />
    <glyph glyph-name="ccedilla" unicode="&#xe7;" horiz-adv-x="985" 
d="M236 -313q33 -15 62 -22q36 -9 73 -9q54 0 83 23t35 53q5 29 -20 47q-24 18 -68 18q-20 0 -40 -5l-21 -7l-39 39l131 151q-113 11 -170 48q-63 38 -89 96q-28 63 -34 134q-6 75 6 162q12 88 33 179q23 115 65 216q42 104 105 172q68 74 162 114q97 41 231 41
q131 0 209 -33q79 -33 116 -91q39 -60 40 -142q2 -84 -19 -181h-307q24 123 6 176q-19 54 -84 54q-39 0 -70 -26q-28 -24 -52 -73t-41 -114q-22 -82 -37 -154q-41 -193 -37 -277q4 -88 86 -88q36 0 62 14q24 13 46 44q19 27 37 81q16 47 33 124h307q-51 -255 -182 -369
q-115 -97 -303 -109l-76 -88q22 9 55 9q50 0 81 -15q35 -17 51 -38q19 -25 23 -53q5 -31 -1 -60q-19 -88 -97 -137q-80 -50 -198 -50q-88 0 -132 10q-43 10 -83 29z" />
    <glyph glyph-name="egrave" unicode="&#xe8;" horiz-adv-x="985" 
d="M770 692q24 117 15 178q-9 62 -78 62q-81 0 -118 -64t-59 -176h240zM489 500l-14 -68q-27 -129 -15 -192q12 -64 83 -64q66 0 100 49q36 52 64 154h307q-47 -209 -176 -308q-130 -100 -338 -100q-155 0 -236 52q-80 51 -107 137q-28 90 -17 198q13 122 38 236
q23 115 65 216q42 104 105 172q68 74 162 114q97 41 231 41q155 0 232 -46t104 -132t14 -201q-13 -117 -42 -258h-560zM489 1516h320l43 -291h-217z" />
    <glyph glyph-name="eacute" unicode="&#xe9;" horiz-adv-x="985" 
d="M770 692q24 117 15 178q-9 62 -78 62q-81 0 -118 -64t-59 -176h240zM489 500l-14 -68q-27 -129 -15 -192q12 -64 83 -64q66 0 100 49q36 52 64 154h307q-47 -209 -176 -308q-130 -100 -338 -100q-155 0 -236 52q-80 51 -107 137q-28 90 -17 198q13 122 38 236
q23 115 65 216q42 104 105 172q68 74 162 114q97 41 231 41q155 0 232 -46t104 -132t14 -201q-13 -117 -42 -258h-560zM809 1518h319l-264 -291h-217z" />
    <glyph glyph-name="ecircumflex" unicode="&#xea;" horiz-adv-x="985" 
d="M770 692q24 117 15 178q-9 62 -78 62q-81 0 -118 -64t-59 -176h240zM489 500l-14 -68q-27 -129 -15 -192q12 -64 83 -64q66 0 100 49q36 52 64 154h307q-47 -209 -176 -308q-130 -100 -338 -100q-155 0 -236 52q-80 51 -107 137q-28 90 -17 198q13 122 38 236
q23 115 65 216q42 104 105 172q68 74 162 114q97 41 231 41q155 0 232 -46t104 -132t14 -201q-13 -117 -42 -258h-560zM651 1561h344l86 -291h-241l-41 166l-109 -166h-244z" />
    <glyph glyph-name="edieresis" unicode="&#xeb;" horiz-adv-x="985" 
d="M770 692q24 117 15 178q-9 62 -78 62q-81 0 -118 -64t-59 -176h240zM489 500l-14 -68q-27 -129 -15 -192q12 -64 83 -64q66 0 100 49q36 52 64 154h307q-47 -209 -176 -308q-130 -100 -338 -100q-155 0 -236 52q-80 51 -107 137q-28 90 -17 198q13 122 38 236
q23 115 65 216q42 104 105 172q68 74 162 114q97 41 231 41q155 0 232 -46t104 -132t14 -201q-13 -117 -42 -258h-560zM858 1505h254l-55 -266h-254zM498 1505h254l-56 -266h-254z" />
    <glyph glyph-name="igrave" unicode="&#xec;" 
d="M330 1108h332l-230 -1108h-332zM317 1516h320l43 -291h-217z" />
    <glyph glyph-name="iacute" unicode="&#xed;" 
d="M330 1108h332l-230 -1108h-332zM516 1518h320l-265 -291h-217z" />
    <glyph glyph-name="icircumflex" unicode="&#xee;" 
d="M330 1108h332l-230 -1108h-332zM403 1561h345l86 -291h-242l-41 166l-109 -166h-243z" />
    <glyph glyph-name="idieresis" unicode="&#xef;" 
d="M330 1108h332l-230 -1108h-332zM621 1505h253l-55 -266h-254zM260 1505h254l-55 -266h-254z" />
    <glyph glyph-name="eth" unicode="&#xf0;" horiz-adv-x="1024" 
d="M367 1262l186 100q-25 32 -48 56q-9 10 -25 27.5t-23 24.5l248 160q29 -34 57 -66q10 -11 28 -32t27 -31l174 94l92 -96l-186 -96q70 -91 119 -179q50 -89 74 -192q24 -100 22 -225q-1 -121 -35 -281q-24 -115 -63 -218q-38 -99 -104 -176q-65 -75 -162 -118
q-98 -43 -242 -43q-152 0 -234 42q-80 41 -114 116q-33 74 -26 174q7 97 32 219q18 93 51 193q32 97 87 179q54 81 135 132t196 51q44 0 77 -10q31 -10 68 -35l6 4q-31 58 -69 113q-45 66 -82 113l-184 -99zM745 524q39 184 31 261q-8 75 -84 75q-71 0 -115 -77t-81 -259
q-39 -187 -28 -260q12 -76 85 -76q37 0 64 18q31 21 50 57q23 44 40 104q14 49 38 157z" />
    <glyph glyph-name="ntilde" unicode="&#xf1;" horiz-adv-x="1062" 
d="M322 1108h319l-27 -131h4q50 73 130 117q77 43 170 43q140 0 199 -74t26 -234l-172 -829h-332l156 756q12 60 -5 93q-18 34 -65 34t-91 -38q-45 -39 -61 -120l-149 -725h-332zM1147 1511q-11 -41 -35 -94q-23 -51 -55 -90q-33 -40 -76 -67q-44 -27 -98 -27q-37 0 -70 9
q-25 7 -61 22q-24 10 -53 21q-24 9 -44 9q-29 0 -47 -22q-19 -24 -26 -39h-158q18 58 40 103q26 53 56 89q33 39 72 63q37 23 84 23q42 0 73 -9t60 -21q29 -11 51 -21q21 -10 45 -10q38 0 53 19q14 18 25 42h164z" />
    <glyph glyph-name="ograve" unicode="&#xf2;" horiz-adv-x="1024" 
d="M506 -29q-153 0 -235 44q-81 43 -111 122q-31 81 -24 184q7 102 32 230q28 131 65 231q38 104 106 186q65 79 165 124q99 45 244 45q150 0 233 -44t113 -122q30 -79 23 -184q-8 -109 -34 -230q-28 -131 -65 -231q-38 -104 -106 -186q-66 -79 -164 -124q-99 -45 -242 -45z
M752 553q15 74 30 173q10 67 5 114q-4 43 -24 61q-21 19 -58 19t-66 -20t-52 -62q-21 -39 -44 -113q-17 -57 -41 -170q-44 -203 -33 -285q10 -82 84 -82q39 0 67 19q29 19 49 61q22 45 41 113q18 65 42 172zM516 1516h320l43 -291h-217z" />
    <glyph glyph-name="oacute" unicode="&#xf3;" horiz-adv-x="1024" 
d="M506 -29q-153 0 -235 44q-81 43 -111 122q-31 81 -24 184q7 102 32 230q28 131 65 231q38 104 106 186q65 79 165 124q99 45 244 45q150 0 233 -44t113 -122q30 -79 23 -184q-8 -109 -34 -230q-28 -131 -65 -231q-38 -104 -106 -186q-66 -79 -164 -124q-99 -45 -242 -45z
M752 553q15 74 30 173q10 67 5 114q-4 43 -24 61q-21 19 -58 19t-66 -20t-52 -62q-21 -39 -44 -113q-17 -57 -41 -170q-44 -203 -33 -285q10 -82 84 -82q39 0 67 19q29 19 49 61q22 45 41 113q18 65 42 172zM801 1518h319l-264 -291h-217z" />
    <glyph glyph-name="ocircumflex" unicode="&#xf4;" horiz-adv-x="1024" 
d="M506 -29q-153 0 -235 44q-81 43 -111 122q-31 81 -24 184q7 102 32 230q28 131 65 231q38 104 106 186q65 79 165 124q99 45 244 45q150 0 233 -44t113 -122q30 -79 23 -184q-8 -109 -34 -230q-28 -131 -65 -231q-38 -104 -106 -186q-66 -79 -164 -124q-99 -45 -242 -45z
M752 553q15 74 30 173q10 67 5 114q-4 43 -24 61q-21 19 -58 19t-66 -20t-52 -62q-21 -39 -44 -113q-17 -57 -41 -170q-44 -203 -33 -285q10 -82 84 -82q39 0 67 19q29 19 49 61q22 45 41 113q18 65 42 172zM649 1561h344l86 -291h-241l-41 166l-109 -166h-244z" />
    <glyph glyph-name="otilde" unicode="&#xf5;" horiz-adv-x="1024" 
d="M506 -29q-153 0 -235 44q-81 43 -111 122q-31 81 -24 184q7 102 32 230q28 131 65 231q38 104 106 186q65 79 165 124q99 45 244 45q150 0 233 -44t113 -122q30 -79 23 -184q-8 -109 -34 -230q-28 -131 -65 -231q-38 -104 -106 -186q-66 -79 -164 -124q-99 -45 -242 -45z
M752 553q15 74 30 173q10 67 5 114q-4 43 -24 61q-21 19 -58 19t-66 -20t-52 -62q-21 -39 -44 -113q-17 -57 -41 -170q-44 -203 -33 -285q10 -82 84 -82q39 0 67 19q29 19 49 61q22 45 41 113q18 65 42 172zM1133 1511q-11 -41 -35 -94q-22 -48 -56 -90q-34 -41 -75 -67
q-43 -27 -99 -27q-36 0 -69 9q-28 8 -62 22q-33 14 -52 21q-24 9 -44 9q-29 0 -47 -22q-21 -27 -27 -39h-157q18 58 40 103q26 53 56 89q33 39 72 63q37 23 84 23q40 0 72 -9q35 -10 61 -21q29 -11 51 -21q21 -10 45 -10q38 0 53 19q14 18 25 42h164z" />
    <glyph glyph-name="odieresis" unicode="&#xf6;" horiz-adv-x="1024" 
d="M506 -29q-153 0 -235 44q-81 43 -111 122q-31 81 -24 184q7 102 32 230q28 131 65 231q38 104 106 186q65 79 165 124q99 45 244 45q150 0 233 -44t113 -122q30 -79 23 -184q-8 -109 -34 -230q-28 -131 -65 -231q-38 -104 -106 -186q-66 -79 -164 -124q-99 -45 -242 -45z
M752 553q15 74 30 173q10 67 5 114q-4 43 -24 61q-21 19 -58 19t-66 -20t-52 -62q-21 -39 -44 -113q-17 -57 -41 -170q-44 -203 -33 -285q10 -82 84 -82q39 0 67 19q29 19 49 61q22 45 41 113q18 65 42 172zM854 1505h254l-55 -266h-254zM494 1505h254l-56 -266h-254z" />
    <glyph glyph-name="divide" unicode="&#xf7;" horiz-adv-x="1228" 
d="M612 952q7 39 32 78q24 37 55 64t72 42t81 15q87 0 130 -56q44 -58 28 -143q-7 -39 -32 -78q-22 -35 -55 -63q-31 -27 -72 -42t-81 -15q-87 0 -130 56q-44 58 -28 142zM432 84q7 39 32 78q22 35 55 63q31 27 72 42q43 16 81 16q86 0 130 -57q43 -57 27 -142
q-8 -42 -31 -78q-21 -33 -56 -63q-32 -28 -71 -42q-43 -16 -81 -16q-86 0 -130 57q-44 58 -28 142zM231 651h1037l-56 -266h-1036z" />
    <glyph glyph-name="oslash" unicode="&#xf8;" horiz-adv-x="1024" 
d="M782 858q-12 62 -80 62q-39 0 -70 -26q-28 -24 -52 -73t-41 -114q-23 -85 -37 -152l-17 -78h4zM471 250q12 -62 80 -62q82 0 124 98q43 100 77 267l14 76h-4zM186 88q-55 76 -52 195t36 272q22 101 52 198q31 103 94 188q62 84 165 140t267 56q142 0 219 -39l108 141
l105 -72l-113 -147q55 -78 51 -196q-4 -115 -35 -271q-23 -105 -52 -199q-32 -102 -94 -187q-62 -84 -166 -140t-265 -56q-142 0 -219 39l-111 -141l-104 72z" />
    <glyph glyph-name="ugrave" unicode="&#xf9;" horiz-adv-x="1062" 
d="M971 0h-320l27 131h-4q-51 -73 -129 -117q-77 -43 -170 -43q-141 0 -201 74q-59 72 -24 234l172 829h331l-157 -756q-12 -60 5 -93q18 -34 64 -34q47 0 91 38q45 39 61 120l151 725h332zM553 1516h319l43 -291h-217z" />
    <glyph glyph-name="uacute" unicode="&#xfa;" horiz-adv-x="1062" 
d="M971 0h-320l27 131h-4q-51 -73 -129 -117q-77 -43 -170 -43q-141 0 -201 74q-59 72 -24 234l172 829h331l-157 -756q-12 -60 5 -93q18 -34 64 -34q47 0 91 38q45 39 61 120l151 725h332zM829 1518h320l-264 -291h-217z" />
    <glyph glyph-name="ucircumflex" unicode="&#xfb;" horiz-adv-x="1062" 
d="M971 0h-320l27 131h-4q-51 -73 -129 -117q-77 -43 -170 -43q-141 0 -201 74q-59 72 -24 234l172 829h331l-157 -756q-12 -60 5 -93q18 -34 64 -34q47 0 91 38q45 39 61 120l151 725h332zM670 1561h344l86 -291h-242l-41 166l-108 -166h-244z" />
    <glyph glyph-name="udieresis" unicode="&#xfc;" horiz-adv-x="1062" 
d="M971 0h-320l27 131h-4q-51 -73 -129 -117q-77 -43 -170 -43q-141 0 -201 74q-59 72 -24 234l172 829h331l-157 -756q-12 -60 5 -93q18 -34 64 -34q47 0 91 38q45 39 61 120l151 725h332zM885 1505h254l-56 -266h-254zM524 1505h254l-55 -266h-254z" />
    <glyph glyph-name="yacute" unicode="&#xfd;" horiz-adv-x="985" 
d="M250 1108h344l-27 -776h4l291 776h332l-528 -1116q-49 -102 -98 -175q-46 -69 -99 -108q-54 -39 -122 -54q-69 -15 -167 -15h-76q-21 0 -33 1t-34 3l49 233q37 -8 80 -8q46 0 92 26t74 97zM807 1518h319l-264 -291h-217z" />
    <glyph glyph-name="thorn" unicode="&#xfe;" horiz-adv-x="1062" 
d="M532 561q-6 -31 -24 -137q-10 -58 -8 -111q1 -45 20 -73q18 -27 62 -27q45 0 75 24q34 27 53 67q21 42 36 106q21 87 32 137q13 60 25 130q10 61 7 110q-3 48 -24 78t-65 30q-73 0 -114 -86q-40 -85 -75 -248zM395 1462h332l-102 -489h4q17 32 38 57q25 30 57 52
q35 24 76 39q45 16 91 16q127 0 191 -72q65 -73 65 -238q0 -113 -33 -264q-28 -134 -61 -237q-34 -107 -86 -188q-50 -79 -124 -123q-73 -44 -173 -44q-34 0 -69 6q-33 6 -62 24q-31 20 -52 46q-22 27 -34 74h-4l-101 -481h-332z" />
    <glyph glyph-name="ydieresis" unicode="&#xff;" horiz-adv-x="985" 
d="M250 1108h344l-27 -776h4l291 776h332l-528 -1116q-49 -102 -98 -175q-46 -69 -99 -108q-54 -39 -122 -54q-69 -15 -167 -15h-76q-21 0 -33 1t-34 3l49 233q37 -8 80 -8q46 0 92 26t74 97zM852 1505h254l-55 -266h-254zM492 1505h253l-55 -266h-254z" />
    <glyph glyph-name="dotlessi" unicode="&#x131;" 
d="M330 1108h332l-230 -1108h-332z" />
    <glyph glyph-name="OE" unicode="&#x152;" horiz-adv-x="1593" 
d="M582 731q-27 -136 -42 -218q-18 -98 -18 -167q0 -68 25 -107q24 -38 84 -38q39 0 67 12q29 12 50 33q18 18 33 46q14 27 24 52q8 21 22 71q17 60 25 97q3 13 11.5 50.5t13.5 59.5q4 19 22 109q3 13 10.5 50.5t11.5 58.5t11 58.5t10 51.5q1 5 17 98q8 46 8 70q0 26 -3 52
t-15 47q-11 20 -34 32q-24 13 -63 13q-59 0 -100 -38q-40 -37 -71 -108q-29 -67 -52 -168q-28 -123 -47 -217zM799 76q-53 -50 -129 -77q-79 -28 -154 -28q-154 0 -230 60q-78 61 -102 162q-24 103 -8 241q17 145 49 297q14 63 36 163q20 91 49 171q31 88 73 161
q44 78 104 136t145 94q84 35 193 35q73 0 137 -24t107 -76l14 71h762l-57 -278h-475l-62 -293h449l-58 -279h-448l-70 -333h494l-57 -279h-777z" />
    <glyph glyph-name="oe" unicode="&#x153;" horiz-adv-x="1517" 
d="M1315 692q24 115 16 178q-8 62 -74 62q-76 0 -111 -64t-59 -176h228zM502 553q-41 -193 -37 -277q4 -88 86 -88t124 99q43 100 75 264q40 188 37 279q-3 90 -85 90q-39 0 -70 -26q-28 -24 -52 -73t-41 -114q-22 -82 -37 -154zM1047 500l-15 -68q-27 -128 -16 -192t78 -64
q60 0 94 49q35 50 63 154h308q-52 -204 -173 -307q-119 -101 -309 -101q-127 0 -191 41q-61 39 -83 105q-73 -92 -157 -118q-89 -28 -185 -28q-102 0 -176 31q-71 30 -109 98q-37 67 -39 176q-2 112 31 267q24 126 63 233q40 110 104 189t160 126q93 46 234 46
q115 0 179 -35q63 -34 96 -107q74 82 148 111q79 31 175 31q119 0 189 -41q69 -41 98 -113q28 -71 25 -173q-3 -101 -27 -220l-19 -90h-546z" />
    <glyph glyph-name="Scaron" unicode="&#x160;" horiz-adv-x="1099" 
d="M483 446l-10 -51q-10 -43 -10 -78q0 -54 25 -85t94 -31q44 0 77 15q31 14 57 40q22 22 38 56q13 27 20 63q12 60 -6 97q-19 40 -57 66q-40 27 -91 48q-60 24 -106 45q-50 22 -103 56q-49 31 -84 81q-33 48 -47 120t7 173q18 86 59 166q39 75 111 136q69 59 168 93
q100 35 231 35q127 0 212 -31q83 -30 127 -85t53 -127t-9 -156l-6 -35h-332q22 111 2 153q-18 52 -92 52q-137 0 -170 -158q-17 -76 21 -120q40 -46 100 -75q65 -31 139 -60t135 -78q60 -48 90 -127q31 -81 4 -208q-52 -249 -205 -357t-390 -108q-90 0 -177 17
q-85 17 -142 59q-58 43 -84 117q-25 73 -1 188l21 94h331zM608 1843h244l41 -166l108 166h242l-205 -291h-344z" />
    <glyph glyph-name="scaron" unicode="&#x161;" horiz-adv-x="948" 
d="M418 352q-7 -42 -8 -68q-2 -33 6 -57q7 -22 28 -37q20 -14 62 -14q58 0 96 33q36 32 47 80q8 41 -9 73q-19 36 -89 62q-95 34 -166 65q-70 30 -112 71t-54 97q-12 57 6 146q34 166 162 250q127 84 330 84q116 0 188 -27t109 -70q37 -42 44 -99q7 -55 -5 -116l-6 -37h-295
l4 21q15 71 -8 97t-76 26q-65 0 -94 -29q-28 -28 -39 -74q-10 -49 23 -74q35 -26 89 -45q19 -7 119 -40q65 -22 115 -60q52 -40 77 -104q25 -66 3 -172q-34 -167 -162 -265t-336 -98q-223 0 -306 83q-83 82 -48 249l10 49h295zM459 1516h243l41 -166l109 166h242l-205 -291
h-344z" />
    <glyph glyph-name="Ydieresis" unicode="&#x178;" horiz-adv-x="1097" 
d="M496 575l-187 887h381l51 -542h4l281 542h369l-555 -887l-119 -575h-344zM979 1833h254l-55 -266h-254zM618 1833h254l-55 -266h-254z" />
    <glyph glyph-name="Zcaron" unicode="&#x17d;" horiz-adv-x="985" 
d="M98 254l690 930h-456l57 278h852l-51 -241l-696 -942h501l-57 -279h-891zM561 1843h244l41 -166l108 166h242l-205 -291h-344z" />
    <glyph glyph-name="zcaron" unicode="&#x17e;" horiz-adv-x="948" 
d="M115 254l542 600h-399l53 254h793l-53 -254l-555 -600h440l-51 -254h-822zM446 1516h244l41 -166l109 166h241l-204 -291h-345z" />
    <glyph glyph-name="florin" unicode="&#x192;" horiz-adv-x="1064" 
d="M-25 -139q15 -1 33 -3q12 -1 45 -1q35 0 60 7q29 8 49 27q24 22 44 57q23 40 44 91l254 631h-221l79 192h220l114 281q63 159 176 239t299 80q41 0 82 -3q70 -5 90 -7l-90 -211q-11 1 -31 3q-10 1 -32 1q-43 0 -71 -7q-29 -7 -54 -29q-23 -20 -48 -62q-20 -34 -50 -107
l-72 -178h229l-80 -192h-227l-266 -666q-33 -80 -77 -151t-98 -115q-60 -49 -131 -73q-74 -25 -175 -25q-48 0 -103 5q-45 4 -76 11z" />
    <glyph glyph-name="circumflex" unicode="&#x2c6;" 
d="M403 1518h345l86 -291h-242l-41 166l-109 -166h-243z" />
    <glyph glyph-name="caron" unicode="&#x2c7;" 
d="M258 1516h244l41 -166l108 166h242l-205 -291h-344z" />
    <glyph glyph-name="ring" unicode="&#x2da;" 
d="M440 1423q-10 -58 18 -91q27 -32 79 -32q51 0 95 36t54 87q10 60 -18 91q-29 32 -80 32q-50 0 -94 -36t-54 -87zM315 1423q11 55 39 98q29 44 69 74q44 32 88 49q45 17 99 17t92 -17q42 -18 69 -49q27 -30 39 -74q12 -43 1 -98q-10 -53 -39 -97q-29 -45 -70 -75
q-40 -30 -89 -48q-45 -17 -99 -17t-92 17q-43 19 -69 48q-27 30 -38 75q-11 44 0 97z" />
    <glyph glyph-name="tilde" unicode="&#x2dc;" 
d="M907 1511q-11 -41 -35 -94q-23 -51 -55 -90q-33 -40 -76 -67t-98 -27q-37 0 -70 9q-25 7 -61 22q-33 14 -52 21q-24 9 -44 9q-29 0 -47 -22q-21 -27 -27 -39h-158q18 58 40 103q25 51 57 89q34 40 71 63t84 23q42 0 73 -9t60 -21q33 -12 52 -21q21 -10 45 -10q38 0 53 19
q11 15 24 42h164z" />
    <glyph glyph-name="endash" unicode="&#x2013;" horiz-adv-x="1024" 
d="M147 719h1024l-51 -254h-1024z" />
    <glyph glyph-name="emdash" unicode="&#x2014;" horiz-adv-x="2048" 
d="M147 719h2048l-51 -254h-2048z" />
    <glyph glyph-name="quoteleft" unicode="&#x2018;" 
d="M324 1053q16 73 42 147q25 71 70 128q43 55 116 92q70 36 177 42l-33 -159q-68 0 -108 -48q-39 -47 -60 -151h127l-75 -356h-320z" />
    <glyph glyph-name="quoteright" unicode="&#x2019;" 
d="M666 1157q-16 -77 -42 -148q-25 -68 -71 -127q-43 -55 -116 -92q-71 -36 -177 -42l35 159q69 0 107 47q39 48 61 152h-127l74 356h319z" />
    <glyph glyph-name="quotesinglbase" unicode="&#x201a;" 
d="M182 369h320l-64 -306q-16 -77 -42 -148t-70 -127q-43 -55 -116 -92q-70 -36 -177 -42l35 160q69 0 107 47q39 48 61 151h-127z" />
    <glyph glyph-name="quotedblleft" unicode="&#x201c;" horiz-adv-x="985" 
d="M778 1053q16 73 42 147q24 69 71 128q43 55 116 92q71 36 177 42l-33 -159q-69 0 -109 -48q-38 -45 -59 -151h127l-76 -356h-319zM322 1053q16 73 42 147q25 71 70 128q43 55 116 92q70 36 177 42l-33 -159q-68 0 -108 -48q-39 -47 -60 -151h127l-75 -356h-320z" />
    <glyph glyph-name="quotedblright" unicode="&#x201d;" horiz-adv-x="985" 
d="M864 1462h320l-64 -305q-16 -77 -42 -148t-70 -127q-43 -55 -116 -92q-70 -36 -177 -42l35 159q69 0 107 47q39 48 61 152h-127zM408 1462h319l-63 -305q-16 -77 -42 -148q-25 -68 -71 -127q-43 -55 -116 -92q-71 -36 -177 -42l35 159q69 0 107 47q39 48 61 152h-127z
" />
    <glyph glyph-name="quotedblbase" unicode="&#x201e;" horiz-adv-x="985" 
d="M637 369h319l-63 -306q-16 -77 -42 -148q-25 -68 -71 -127q-44 -56 -115 -92q-70 -36 -178 -42l35 160q70 0 108 47t60 151h-127zM180 369h320l-64 -306q-16 -77 -42 -148t-70 -127q-43 -55 -116 -92q-70 -36 -177 -42l35 160q69 0 107 47t60 151h-127z" />
    <glyph glyph-name="dagger" unicode="&#x2020;" horiz-adv-x="1064" 
d="M532 801h-342l56 266h342l82 395h331l-81 -395h342l-56 -266h-342l-225 -1084h-332z" />
    <glyph glyph-name="daggerdbl" unicode="&#x2021;" horiz-adv-x="1064" 
d="M389 111h-342l55 266h342l88 424h-342l56 266h342l82 395h331l-81 -395h342l-56 -266h-342l-88 -424h340l-55 -266h-340l-82 -394h-332z" />
    <glyph glyph-name="bullet" unicode="&#x2022;" horiz-adv-x="1024" 
d="M299 731q15 79 57 142q45 68 103 116q60 49 132 78q73 29 148 29q76 0 137 -29q60 -29 99 -78q37 -48 53 -116q15 -66 0 -142q-17 -77 -58 -142q-42 -65 -103 -116q-60 -49 -132 -78q-71 -28 -147 -28q-77 0 -136 28q-62 29 -100 78q-39 49 -54 116t1 142z" />
    <glyph glyph-name="ellipsis" unicode="&#x2026;" horiz-adv-x="2048" 
d="M1622 369h320l-76 -369h-320zM940 369h320l-76 -369h-320zM258 369h320l-76 -369h-320z" />
    <glyph glyph-name="perthousand" unicode="&#x2030;" horiz-adv-x="2275" 
d="M967 365q16 79 46 159q27 72 73 124q47 53 115 81q70 29 169 29q109 0 168 -31q57 -30 80 -84q22 -51 17 -125q-4 -70 -21 -153q-16 -72 -43 -154q-24 -72 -68 -125q-46 -55 -112 -84q-71 -31 -181 -31q-109 0 -169 31q-56 29 -80 84q-23 53 -18 125q4 62 24 154z
M1208 365q-27 -117 -19 -171q8 -53 54 -53q27 0 45 12q19 13 33 38q14 26 27 72q6 21 26 112q14 64 19 111q4 39 -1 65q-4 22 -20 30q-14 7 -37 7q-55 0 -84 -66q-28 -64 -43 -157zM242 1057q17 85 47 160q27 69 75 123q47 53 114 81q70 29 169 29q109 0 168 -31
q58 -30 79 -84q21 -53 16 -125q-4 -70 -21 -153q-15 -77 -41 -154q-23 -70 -69 -125q-45 -55 -114 -84q-71 -30 -180 -30q-111 0 -168 30q-56 29 -79 84q-22 54 -18 125q4 64 22 154zM1681 365q16 79 46 159q26 70 74 124q47 53 115 81q70 29 169 29q109 0 168 -31
q57 -30 80 -84q22 -51 17 -125q-4 -70 -21 -153q-16 -72 -43 -154q-24 -72 -68 -125q-45 -55 -113 -84q-71 -31 -180 -31t-169 31q-58 30 -81 84q-22 51 -17 125q4 68 23 154zM483 1057q-24 -119 -18 -171t53 -52q28 0 45 11q18 12 33 39t27 71q6 21 26 112q14 63 19 112
q4 38 -1 64q-4 22 -20 30q-14 7 -37 7q-56 0 -84 -66q-28 -64 -43 -157zM1303 1450h206l-950 -1479h-207zM1923 365q-27 -117 -19 -171q8 -53 54 -53q27 0 45 12q19 13 33 38q12 22 26 72q11 39 27 112q12 55 18 111q4 39 -1 65q-5 23 -19 30t-37 7q-56 0 -84 -66
q-28 -64 -43 -157z" />
    <glyph glyph-name="guilsinglleft" unicode="&#x2039;" 
d="M270 791l367 225l-66 -307l-192 -117l145 -117l-63 -307l-275 225z" />
    <glyph glyph-name="guilsinglright" unicode="&#x203a;" 
d="M205 475l194 117l-147 117l65 307l273 -225l-84 -398l-365 -225z" />
    <glyph glyph-name="Euro" unicode="&#x20ac;" horiz-adv-x="983" 
d="M1145 1120q-8 29 -26 61q-19 33 -56 60q-40 30 -74 37q-40 8 -80 8q-50 0 -92 -13q-43 -13 -88 -54q-32 -28 -57 -68q-27 -44 -43 -80q-20 -46 -31 -79q-12 -39 -18 -64h458l-77 -140h-418q-11 -36 -18 -70q-6 -27 -13 -73h379l-78 -139h-321q-4 -22 -9 -60
q-4 -33 -4 -79q0 -38 8 -84q7 -41 31 -76q26 -38 65 -55t91 -17q43 0 87 10q45 10 97 33q40 20 80 48q34 25 72 69l-45 -225q-27 -18 -54 -33q-26 -15 -53 -25q-31 -14 -70 -22q-50 -11 -64 -13q-18 -3 -52 -5q-15 -1 -35 -1q-116 0 -186 28q-69 28 -103 60q-46 45 -69 108
q-23 65 -29 126q-6 66 -2 121q5 63 10 92h-154l78 139h97q7 46 13 73q9 45 17 70h-145l78 140h104q50 181 124 282q76 104 148 152q89 58 178 74q80 14 142 14q52 0 100 -7q52 -8 105 -32q70 -33 110 -102z" />
    <glyph glyph-name="trademark" unicode="&#x2122;" horiz-adv-x="2027" 
d="M535 1257h-213l43 205h692l-43 -205h-213l-133 -639h-267zM1960 1196h-4l-311 -578h-201l-70 578h-4l-121 -578h-229l176 844h356l60 -512h4l272 512h357l-177 -844h-229z" />
    <glyph glyph-name="glyph218" 
d="M403 1843h345l86 -291h-242l-41 166l-109 -166h-243z" />
    </font>
</defs>
</svg>
