<?xml version="1.0" standalone="no"?>
<!DOCTYPE svg PUBLIC "-//W3C//DTD SVG 1.1//EN" "http://www.w3.org/Graphics/SVG/1.1/DTD/svg11.dtd" >
<svg xmlns="http://www.w3.org/2000/svg" xmlns:xlink="http://www.w3.org/1999/xlink" version="1.1">
<metadata>
Created by FontForge 20170731 at Sat Sep  4 23:09:01 2021
 By Aleksey,,,
Copyright (c) 2013, 2014 Monotype Imaging Inc. All rights reserved.
</metadata>
<defs>
<font id="HelveticaNeueLTW06-93BlkExtObl" horiz-adv-x="1781" >
  <font-face 
    font-family="HelveticaNeueLTW06-93BlkExtObl"
    font-weight="900"
    font-style="italic"
    font-stretch="expanded"
    units-per-em="2048"
    panose-1="2 11 10 5 4 5 2 9 2 4"
    ascent="1638"
    descent="-410"
    x-height="1120"
    cap-height="1462"
    bbox="-610 -481 3305 2071"
    underline-thickness="102"
    underline-position="-255"
    slope="-12"
    unicode-range="U+000D-FB04"
  />
<missing-glyph horiz-adv-x="1048" 
d="M0 0v1470h1049v-1470h-1049zM946 1366h-844v-1264h844v1264zM461 479q0 5 -2 27l-2 24q0 103 28 155q27 50 107 130q54 56 71 85q17 30 17 71q0 73 -46 123q-46 51 -110 51q-62 0 -109 -45q-47 -46 -59 -150l-102 17q12 143 88 212q75 68 188 68t184 -77q70 -76 70 -191
q0 -72 -27 -126t-104 -122q-52 -49 -70 -73q-19 -25 -23 -67q-5 -48 -5 -112h-94zM455 240v137h114v-137h-114z" />
    <glyph glyph-name="IJ" unicode="IJ" horiz-adv-x="2557" 
d="M147 0l304 1462h577l-303 -1462h-578zM2173 1462h577l-184 -887q-56 -259 -153 -381q-100 -125 -268 -185q-169 -60 -431 -60t-397 40q-138 41 -208 130q-71 91 -71 250q0 93 31 243h578q-18 -85 -21 -105q-8 -51 -8 -77q0 -59 30 -92t107 -33q98 0 150 56q53 57 75 167z
" />
    <glyph glyph-name="ij" unicode="ij" horiz-adv-x="1603" 
d="M377 1231l59 282h512l-59 -282h-512zM123 0l231 1120h512l-231 -1120h-512zM1223 1231l59 282h512l-59 -282h-512zM750 -33h53q93 0 115 7q24 7 39 29q16 22 32 101l211 1016h512l-229 -1102q-35 -170 -90 -255q-54 -83 -160 -124q-104 -40 -277 -40q-247 4 -280 12z" />
    <glyph glyph-name="napostrophe" unicode="&#x22;n" horiz-adv-x="1777" 
d="M758 1538q-18 -79 -56 -131q-38 -51 -107 -75q-66 -22 -255 -27l20 98q65 5 93 15q33 12 53 44h-217l45 221h454zM1143 0l110 537q17 76 17 110q0 133 -162 135q-113 0 -189 -70q-78 -72 -106 -206l-104 -506h-512l231 1120h496l-29 -139h4q79 77 216 123q138 47 282 47
q207 -1 313 -85q105 -82 105 -237q0 -41 -13 -114l-147 -715h-512z" />
    <glyph glyph-name="uniFB00" unicode="ff" horiz-adv-x="1990" 
d="M1184 0l166 801h-416l-166 -801h-512l166 801h-238l66 319h237l27 127q33 153 154 216q122 63 360 63q105 0 189 -3q70 -2 141 -10l-55 -270h-150q-86 0 -110 -23t-35 -65l-9 -35h416l27 127q33 154 153 216q121 63 361 63q104 0 188 -3q71 -3 142 -10l-56 -270h-149
q-86 0 -110 -23q-25 -24 -36 -65l-8 -35h277l-66 -319h-276l-166 -801h-512z" />
    <glyph glyph-name="uniFB01" unicode="fi" horiz-adv-x="1818" 
d="M256 0l166 801h-238l66 319h237l27 127q33 153 154 216q122 63 360 63q105 0 189 -3q70 -2 141 -10l-55 -270h-150q-86 0 -110 -23t-35 -65l-9 -35h277l-66 -319h-276l-166 -801h-512zM1438 1231l59 282h512l-59 -282h-512zM1184 0l231 1120h512l-231 -1120h-512z" />
    <glyph glyph-name="uniFB02" unicode="fl" horiz-adv-x="1818" 
d="M256 0l166 801h-238l66 319h237l27 127q33 153 154 216q122 63 360 63q105 0 189 -3q70 -2 141 -10l-55 -270h-150q-86 0 -110 -23t-35 -65l-9 -35h277l-66 -319h-276l-166 -801h-512zM1184 0l313 1513h512l-313 -1513h-512z" />
    <glyph glyph-name="uniFB03" unicode="ffi" horiz-adv-x="2746" 
d="M1184 0l166 801h-416l-166 -801h-512l166 801h-238l66 319h237l27 127q33 153 154 216q122 63 360 63q105 0 189 -3q70 -2 141 -10l-55 -270h-150q-86 0 -110 -23t-35 -65l-9 -35h416l27 127q33 154 153 216q121 63 361 63q104 0 188 -3q71 -3 142 -10l-56 -270h-149
q-86 0 -110 -23q-25 -24 -36 -65l-8 -35h277l-66 -319h-276l-166 -801h-512zM2365 1231l60 282h512l-60 -282h-512zM2111 0l232 1120h512l-232 -1120h-512z" />
    <glyph glyph-name="uniFB04" unicode="ffl" horiz-adv-x="2746" 
d="M1184 0l166 801h-416l-166 -801h-512l166 801h-238l66 319h237l27 127q33 153 154 216q122 63 360 63q105 0 189 -3q70 -2 141 -10l-55 -270h-150q-86 0 -110 -23t-35 -65l-9 -35h416l27 127q33 154 153 216q121 63 361 63q104 0 188 -3q71 -3 142 -10l-56 -270h-149
q-86 0 -110 -23q-25 -24 -36 -65l-8 -35h277l-66 -319h-276l-166 -801h-512zM2111 0l314 1513h512l-314 -1513h-512z" />
    <glyph glyph-name=".notdef" horiz-adv-x="1048" 
d="M0 0v1470h1049v-1470h-1049zM946 1366h-844v-1264h844v1264zM461 479q0 5 -2 27l-2 24q0 103 28 155q27 50 107 130q54 56 71 85q17 30 17 71q0 73 -46 123q-46 51 -110 51q-62 0 -109 -45q-47 -46 -59 -150l-102 17q12 143 88 212q75 68 188 68t184 -77q70 -76 70 -191
q0 -72 -27 -126t-104 -122q-52 -49 -70 -73q-19 -25 -23 -67q-5 -48 -5 -112h-94zM455 240v137h114v-137h-114z" />
    <glyph glyph-name="glyph1" horiz-adv-x="0" 
 />
    <glyph glyph-name="glyph1" horiz-adv-x="0" 
 />
    <glyph glyph-name="uni000D" unicode="&#xd;" horiz-adv-x="835" 
 />
    <glyph glyph-name="space" unicode=" " horiz-adv-x="835" 
 />
    <glyph glyph-name="exclam" unicode="!" horiz-adv-x="835" 
d="M315 563l129 899h553l-247 -899h-435zM150 0l94 459h536l-94 -459h-536z" />
    <glyph glyph-name="quotedbl" unicode="&#x22;" horiz-adv-x="1478" 
d="M432 586l182 876h344l-182 -876h-344zM944 586l182 876h344l-182 -876h-344z" />
    <glyph glyph-name="numbersign" unicode="#" horiz-adv-x="1228" 
d="M594 0l127 367h-158l-127 -367h-258l127 367h-158l52 245h192l68 197h-160l51 246h195l127 366h258l-127 -366h158l126 366h259l-127 -366h157l-51 -246h-192l-68 -197h160l-51 -245h-195l-127 -367h-258zM874 809h-157l-68 -197h158z" />
    <glyph glyph-name="dollar" unicode="$" horiz-adv-x="1974" 
d="M858 -225l37 184q-356 7 -517 100q-159 91 -159 281q1 66 6 90h604l-2 -16q0 -50 33 -71q35 -22 111 -28l47 230l-365 59q-154 24 -227 101q-72 77 -72 198q0 128 74 262q73 132 255 212q180 79 525 85l39 185h111l-39 -185q352 -12 512 -110q162 -99 162 -287
q0 -45 -4 -61h-603q0 4 1.5 12.5t1.5 13.5q0 98 -136 113l-45 -211l293 -45q236 -38 339 -112q104 -75 104 -212q0 -156 -91 -305q-90 -147 -292 -223q-201 -76 -555 -76l-37 -184h-111zM1143 1143h-19q-102 0 -143 -29t-41 -84q0 -39 37 -52q39 -14 125 -30zM1124 528
l-43 -213q123 0 170 30t47 95q0 59 -90 74z" />
    <glyph glyph-name="percent" unicode="%" horiz-adv-x="2238" 
d="M256 965q0 59 24 145q25 90 74 156q50 68 123 112q70 42 158 64q81 20 188 20q406 0 406 -291q0 -142 -71 -266q-70 -122 -199 -178q-126 -55 -297 -55q-406 2 -406 293zM498 -41l1271 1503h263l-1272 -1503h-262zM776 1241q-90 0 -143 -70t-53 -172q0 -46 32 -75
q34 -31 95 -31q96 0 147 68q51 67 51 174q0 48 -31 77t-98 29zM1303 252q0 96 39 197q40 103 116 169q77 67 177 99q102 33 237 33q198 0 301 -73q102 -72 102 -212q0 -101 -37 -199q-37 -99 -103 -163q-64 -63 -171 -104q-104 -40 -252 -40q-409 0 -409 293zM1823 528
q-92 0 -144 -67q-53 -68 -53 -168q0 -53 32 -83t97 -30q90 0 143 68q54 69 54 174q0 47 -32 77q-30 29 -97 29z" />
    <glyph glyph-name="ampersand" unicode="&#x26;" horiz-adv-x="2125" 
d="M1456 0l-94 109q-107 -67 -289 -114q-178 -46 -358 -46q-263 0 -415 106q-153 107 -153 285q0 184 128 326q127 141 399 198q-94 85 -94 187q0 122 77 217q78 96 237 153q162 58 388 58q250 0 392 -78q143 -78 143 -209q-1 -146 -112 -246q-109 -98 -302 -133l199 -227
q160 111 215 158q74 63 137 120l200 -215q-90 -91 -162 -150q-77 -62 -186 -130l336 -369h-686zM1186 993q82 22 132 62q50 39 50 92q0 32 -32 53t-91 21q-64 0 -105 -32q-40 -31 -40 -77q0 -30 20 -54q22 -27 66 -65zM872 659q-84 -39 -118 -91q-35 -53 -35 -115
q0 -77 56 -124q57 -48 151 -48q65 0 137 17q77 18 104 38z" />
    <glyph glyph-name="quotesingle" unicode="'" horiz-adv-x="835" 
d="M367 586l182 876h344l-182 -876h-344z" />
    <glyph glyph-name="parenleft" unicode="(" horiz-adv-x="1024" 
d="M451 -389q-105 123 -162 291q-58 171 -58 368q0 332 167 657q165 321 438 535h358q-206 -283 -333 -616q-128 -336 -128 -703q0 -149 21 -283q22 -140 55 -249h-358z" />
    <glyph glyph-name="parenright" unicode=")" horiz-adv-x="1024" 
d="M51 -389q190 256 324 596q137 348 137 725q0 157 -20 287q-21 134 -56 243h359q105 -122 161 -293q56 -170 56 -364q0 -344 -169 -664q-170 -323 -433 -530h-359z" />
    <glyph glyph-name="asterisk" unicode="*" horiz-adv-x="950" 
d="M750 537l-113 241l-215 -241l-193 170l230 227l-254 82l133 262l250 -113l49 297h283l-74 -297l295 113l26 -262l-290 -82l135 -227z" />
    <glyph glyph-name="plus" unicode="+" horiz-adv-x="1228" 
d="M838 371l-76 -371h-295l76 371h-371l61 295h371l78 370h295l-78 -370h371l-62 -295h-370z" />
    <glyph glyph-name="comma" unicode="," horiz-adv-x="835" 
d="M100 -233q118 16 188 68q73 55 103 165h-241l94 459h536l-69 -338q-45 -228 -223 -376q-176 -146 -427 -163z" />
    <glyph glyph-name="hyphen" unicode="-" horiz-adv-x="985" 
d="M297 424l147 356h744l-148 -356h-743z" />
    <glyph glyph-name="period" unicode="." horiz-adv-x="835" 
d="M150 0l94 459h536l-94 -459h-536z" />
    <glyph glyph-name="slash" unicode="/" horiz-adv-x="909" 
d="M-23 -51l895 1564h363l-897 -1564h-361z" />
    <glyph glyph-name="zero" unicode="0" horiz-adv-x="1974" 
d="M977 -37q-382 0 -578 142t-196 413q0 190 81 382q80 190 228 315q146 123 344 184q193 59 438 59q374 0 572 -138t198 -413q0 -236 -114 -464t-368 -354t-605 -126zM1208 1090q-124 0 -219 -60q-96 -61 -158 -175q-63 -115 -63 -230q0 -140 78 -217q77 -76 213 -76
q121 0 222 61t161 171q59 108 59 245q0 128 -77 205q-76 76 -216 76z" />
    <glyph glyph-name="one" unicode="1" horiz-adv-x="1363" 
d="M567 0l168 809h-434l74 356h49q228 0 346 59t197 197h432l-295 -1421h-537z" />
    <glyph glyph-name="two" unicode="2" horiz-adv-x="1974" 
d="M61 0q72 328 279 517t580 269l426 88q67 12 109 46q40 33 40 86q0 47 -55 71q-58 25 -160 25q-174 0 -254 -45t-115 -154h-614q90 290 334 423q243 132 659 132q214 0 368 -24q151 -23 251 -72q194 -96 194 -289q0 -187 -143 -323q-145 -137 -481 -197l-463 -84
q-124 -22 -178 -44q-50 -20 -95 -69h1190l-73 -356h-1799z" />
    <glyph glyph-name="three" unicode="3" horiz-adv-x="1974" 
d="M1765 762q109 -27 169 -90q61 -64 61 -160q0 -136 -90 -270t-317 -206q-230 -73 -566 -73q-314 0 -490 37q-178 37 -271 132t-93 251q0 22 8 92h590v-16q0 -74 64 -107q65 -33 229 -33q168 0 247 40q78 40 78 126q0 47 -46 68q-44 20 -144 20h-381l68 332h403
q77 0 125 28q47 27 47 89q0 50 -57 71t-180 21q-51 0 -143 -5q-82 -4 -130 -69h-602q66 221 294 320q226 98 658 98q416 0 601 -76q186 -76 186 -241q0 -145 -77 -243q-76 -97 -241 -132v-4z" />
    <glyph glyph-name="four" unicode="4" horiz-adv-x="1974" 
d="M1686 217l-46 -217h-512l46 217h-1045l74 358l997 846h735l-180 -860h264l-69 -344h-264zM1352 1077l-629 -516h520z" />
    <glyph glyph-name="five" unicode="5" horiz-adv-x="1974" 
d="M895 1077l-59 -145q101 23 205 36q101 13 216 13q374 0 555 -101q183 -102 183 -298q0 -292 -263 -456q-262 -163 -749 -163q-205 0 -358 24q-159 25 -250 72q-199 95 -199 324q0 27 8 88h600q7 -55 35 -84q27 -29 76 -42q48 -13 154 -13q191 0 276 45q86 45 86 139
q0 146 -317 146q-75 0 -143 -14q-67 -14 -107 -36h-555l319 809h1493l-71 -344h-1135z" />
    <glyph glyph-name="six" unicode="6" horiz-adv-x="1974" 
d="M1487 999q-5 58 -63 86q-60 29 -193 29q-169 0 -266 -62q-98 -63 -136 -204q75 40 182 61q105 21 259 21q710 0 710 -369q0 -153 -98 -296q-99 -144 -309 -223t-520 -79t-478 49q-171 50 -262 163q-92 115 -92 310q0 234 112 481q110 243 350 368q238 124 622 124
q397 0 578 -105t181 -335v-19h-577zM795 434q0 -59 68 -93t198 -34q165 0 241 40t76 128q0 57 -66 90t-200 33q-184 0 -251 -50q-66 -50 -66 -114z" />
    <glyph glyph-name="seven" unicode="7" horiz-adv-x="1896" 
d="M268 0q57 191 175 333q119 143 342 305q227 165 655 411v4h-1164l78 368h1778l-92 -442q-471 -288 -703 -512q-238 -229 -327 -467h-742z" />
    <glyph glyph-name="eight" unicode="8" horiz-adv-x="1974" 
d="M1751 762q115 -17 178 -86q64 -70 64 -178q0 -135 -100 -267q-98 -130 -320 -199q-221 -69 -596 -69q-423 0 -622 92q-197 91 -197 283q0 160 105 279q104 118 272 145v4q-200 38 -201 217q0 141 94 254q96 116 302 168q210 53 560 53q428 0 606 -81q179 -81 179 -238
q0 -141 -83 -242t-241 -131v-4zM1212 1114q-184 0 -239 -37t-55 -106q0 -54 55 -72t194 -18q187 0 243 34t56 111q0 50 -55 69q-54 19 -199 19zM768 418q0 -57 66 -84t217 -27q180 0 259 40t79 130q0 69 -69 89q-71 20 -206 20q-165 0 -229 -22q-63 -21 -89 -61
q-28 -42 -28 -85z" />
    <glyph glyph-name="nine" unicode="9" horiz-adv-x="1974" 
d="M203 422h577q4 -60 66 -87q64 -28 192 -28q168 0 266 63q97 63 136 203q-60 -33 -167 -58q-101 -23 -276 -23q-359 0 -534 93q-176 93 -176 273q0 154 100 297q100 144 310 223q211 80 522 80q301 0 471 -48q169 -48 264 -161q94 -112 94 -307q-1 -239 -111 -482
q-109 -242 -345 -369q-238 -128 -625 -128q-395 0 -580 105q-184 105 -184 338v16zM889 946q0 -57 66 -90t196 -33q173 0 247 43q75 43 75 125q0 54 -68 89q-67 34 -199 34q-156 0 -236 -40q-81 -40 -81 -128z" />
    <glyph glyph-name="colon" unicode=":" horiz-adv-x="835" 
d="M287 662l94 458h537l-95 -458h-536zM150 0l94 459h536l-94 -459h-536z" />
    <glyph glyph-name="semicolon" unicode=";" horiz-adv-x="835" 
d="M285 662l94 458h536l-94 -458h-536zM98 -233q118 16 188 68q72 54 105 165h-241l92 459h536l-71 -348q-30 -142 -116 -257q-86 -114 -229 -189q-145 -76 -301 -83z" />
    <glyph glyph-name="less" unicode="&#x3c;" horiz-adv-x="1228" 
d="M170 362l66 312l1118 391l-60 -283l-762 -264l652 -264l-58 -283z" />
    <glyph glyph-name="equal" unicode="=" horiz-adv-x="1228" 
d="M219 600l62 295h1036l-62 -295h-1036zM125 141l61 295h1037l-62 -295h-1036z" />
    <glyph glyph-name="greater" unicode="&#x3e;" horiz-adv-x="1228" 
d="M90 -29l57 283l762 264l-651 264l59 283l955 -391l-66 -312z" />
    <glyph glyph-name="question" unicode="?" horiz-adv-x="1744" 
d="M1425 700q-67 -22 -118 -50q-55 -30 -70 -64h-524q24 111 70 163q47 53 126 90q73 34 211 74q109 30 156 71t47 99q0 54 -52 82q-53 29 -149 29q-261 0 -307 -231h-577q68 208 182 328q111 117 296 170q181 52 480 52q363 0 545 -88t182 -268q0 -113 -69 -221
q-70 -109 -259 -176q-158 -56 -170 -60zM586 0l94 459h537l-95 -459h-536z" />
    <glyph glyph-name="at" unicode="@" horiz-adv-x="1638" 
d="M1554 266q-145 -154 -323 -236q-175 -81 -377 -81q-194 0 -352 79q-162 81 -246 219q-86 142 -86 320q0 242 140 461q142 222 374 353q234 132 483 132q164 0 308 -61q145 -61 233 -178q88 -116 88 -273q0 -192 -108 -366q-107 -172 -283 -265t-297 -94q-42 0 -67 21
t-25 68v14h-4q-55 -49 -113 -75q-62 -28 -113 -28q-118 0 -202 90q-82 88 -82 214q0 109 78 250t203 223t257 82q83 0 143 -30q61 -31 91 -99l45 102h201l-195 -494q-33 -76 -33 -100q0 -11 4 -16q4 -6 21 -6q100 0 184 135q85 136 86 311q0 178 -125 279q-124 100 -344 100
q-146 0 -271 -52q-123 -51 -227 -155q-100 -100 -158 -242q-56 -137 -56 -284q0 -202 136 -320q137 -119 371 -119q115 0 227 31q105 29 201 90h213zM1024 901q-95 0 -175 -86q-79 -85 -79 -180q0 -56 32 -91q31 -34 89 -34q105 0 184 81q80 82 80 187q0 57 -34 90
q-35 33 -97 33z" />
    <glyph glyph-name="A" unicode="A" horiz-adv-x="1818" 
d="M1272 0l-27 168h-602l-96 -168h-615l926 1462h709l319 -1462h-614zM1122 1020h-4l-274 -496h348z" />
    <glyph glyph-name="B" unicode="B" horiz-adv-x="2048" 
d="M141 0l303 1462h1325q171 0 265 -64t94 -198q0 -131 -67 -239t-179 -148v-4q87 -23 136 -94q50 -73 50 -170q0 -104 -52 -221q-54 -122 -146 -192q-95 -72 -212 -102q-118 -30 -255 -30h-1262zM936 1106l-39 -188h438q91 0 126 31q36 31 36 93q0 35 -30 50q-28 14 -93 14
h-438zM827 586l-47 -230h500q85 0 128 41q42 41 42 105q0 44 -36 64q-37 20 -114 20h-473z" />
    <glyph glyph-name="C" unicode="C" horiz-adv-x="2086" 
d="M1556 889v20q0 115 -67 175q-69 61 -189 61q-176 0 -288 -88q-114 -90 -157 -234q-44 -147 -44 -235q0 -135 74 -203t215 -68q140 0 235 62q94 61 154 190h651q-124 -332 -376 -477q-249 -143 -713 -143q-276 0 -427 40q-155 41 -243 104q-91 65 -140 169
q-51 108 -51 254q0 90 27 223q27 134 85 253q60 124 134 206q78 87 167 144q95 61 204 97q115 38 257 56q144 18 310 18q288 0 463 -54q174 -54 274 -176q99 -121 99 -329q0 -3 -0.5 -11.5t-1 -24t-0.5 -29.5h-652z" />
    <glyph glyph-name="D" unicode="D" horiz-adv-x="2086" 
d="M141 0l303 1462h1137q160 0 273 -28q114 -28 192 -86q156 -117 156 -369q0 -114 -25 -241q-23 -118 -74 -244q-201 -494 -813 -494h-1149zM1135 369q230 0 339 139t111 338q0 248 -299 248h-340l-151 -725h340z" />
    <glyph glyph-name="E" unicode="E" horiz-adv-x="1744" 
d="M141 0l303 1462h1555l-74 -356h-977l-41 -197h908l-74 -356h-907l-41 -197h976l-73 -356h-1555z" />
    <glyph glyph-name="F" unicode="F" horiz-adv-x="1630" 
d="M827 526l-108 -526h-578l303 1462h1481l-74 -356h-903l-47 -223h832l-74 -357h-832z" />
    <glyph glyph-name="G" unicode="G" horiz-adv-x="2125" 
d="M1755 0l-39 133q-152 -112 -317 -148q-163 -36 -389 -36q-417 0 -618 144q-202 145 -202 427q0 185 75 383q75 199 222 335q147 137 366 206q217 69 480 69q450 0 663 -117q216 -118 216 -376q0 -37 -2 -59h-651q0 91 -64 138q-62 46 -207 46q-163 0 -273 -77t-161 -212
t-51 -252q0 -287 358 -287q128 0 218 44t143 141h-238l70 332h821l-172 -834h-248z" />
    <glyph glyph-name="H" unicode="H" horiz-adv-x="2086" 
d="M1368 0l121 584h-649l-121 -584h-578l303 1462h578l-107 -510h650l106 510h578l-303 -1462h-578z" />
    <glyph glyph-name="I" unicode="I" horiz-adv-x="872" 
d="M147 0l304 1462h577l-303 -1462h-578z" />
    <glyph glyph-name="J" unicode="J" horiz-adv-x="1630" 
d="M1243 1462h578l-185 -887q-56 -259 -153 -381q-100 -125 -268 -185q-169 -60 -431 -60t-397 40q-138 41 -208 130t-70 250q0 97 30 243h578q-18 -85 -21 -105q-8 -51 -8 -77q0 -59 30 -92t107 -33q98 0 150 56q54 57 76 167z" />
    <glyph glyph-name="K" unicode="K" horiz-adv-x="2009" 
d="M1309 0l-285 561l-225 -168l-80 -393h-578l303 1462h578l-107 -516l644 516h765l-770 -565l523 -897h-768z" />
    <glyph glyph-name="L" unicode="L" horiz-adv-x="1630" 
d="M141 0l303 1462h578l-223 -1069h895l-80 -393h-1473z" />
    <glyph glyph-name="M" unicode="M" horiz-adv-x="2392" 
d="M1726 0l218 1044h-5l-524 -1044h-438l-90 1044h-4l-217 -1044h-525l303 1462h813l64 -850h4l416 850h813l-303 -1462h-525z" />
    <glyph glyph-name="N" unicode="N" horiz-adv-x="2086" 
d="M1313 0l-445 819h-4l-170 -819h-553l303 1462h660l418 -811h6l168 811h553l-303 -1462h-633z" />
    <glyph glyph-name="O" unicode="O" horiz-adv-x="2125" 
d="M190 516q0 213 88 424q88 210 227 330q140 120 341 182q199 61 555 61q451 0 644 -145t193 -424q-1 -214 -88 -425q-85 -208 -228 -328q-141 -119 -344 -181q-199 -61 -527 -61q-478 0 -669 143q-192 144 -192 424zM1298 1145q-117 0 -201 -37q-85 -38 -132 -90
q-47 -53 -79 -120q-30 -63 -52 -143q-22 -78 -23 -165q0 -273 317 -273q259 0 374 178q114 177 114 373q0 277 -318 277z" />
    <glyph glyph-name="P" unicode="P" horiz-adv-x="1933" 
d="M813 455l-94 -455h-578l303 1462h1203q221 0 342 -85q120 -84 120 -263q0 -298 -179 -479q-178 -180 -486 -180h-631zM950 1118l-63 -307h381q136 0 182 60q47 61 47 147q0 53 -42 77q-40 23 -124 23h-381z" />
    <glyph glyph-name="Q" unicode="Q" horiz-adv-x="2125" 
d="M1757 -301l-262 291q-82 -20 -200 -31q-109 -10 -244 -10q-298 0 -476 52q-180 53 -282 177q-103 126 -103 338q0 131 39 281q39 149 108 265q69 115 157 196q91 83 203 137q115 55 282 87q164 31 397 31q292 0 478 -54q185 -54 285 -179q99 -124 99 -336
q0 -245 -107 -468q-108 -225 -251 -316l174 -193zM1124 408l291 256l115 -125q35 54 59 150q25 102 25 179q0 277 -316 277q-182 0 -296 -93q-112 -91 -162 -272q-14 -49 -22 -102q-7 -46 -7 -88q0 -273 317 -273q45 0 70 5z" />
    <glyph glyph-name="R" unicode="R" horiz-adv-x="1970" 
d="M1309 0q-6 15 -6 39q0 23 6 67l24 168q6 39 6 56q0 64 -30 92q-31 29 -84 29h-414l-92 -451h-578l303 1462h1252q260 0 347 -89t87 -232q-2 -147 -88 -270q-85 -121 -215 -150l-2 -4q121 -39 121 -180q0 -13 -7 -72l-30 -244q-6 -72 -6 -108q0 -34 13 -67q14 -36 23 -46
h-630zM946 1094l-57 -275h420q95 0 138 49q44 50 44 129q0 54 -37 75q-39 22 -98 22h-410z" />
    <glyph glyph-name="S" unicode="S" horiz-adv-x="1970" 
d="M1397 1034q4 7 4 31q0 53 -66 85q-67 32 -178 32q-132 0 -192 -33t-60 -90q0 -29 17 -41q17 -13 45 -17l669 -102q193 -30 292 -116q100 -86 100 -222q0 -164 -106 -312q-105 -146 -339 -223q-236 -77 -614 -77q-227 0 -389 24q-161 24 -258 74q-195 102 -195 293
q0 44 12 100h697v-32q0 -55 53 -79t176 -24q133 0 195 34q63 35 63 101q0 67 -92 82l-619 96q-175 27 -258 107q-82 79 -82 211q0 141 85 277q86 137 289 218q203 80 583 82q210 0 369 -24q155 -23 260 -72q215 -99 215 -315q0 -18 -5 -68h-671z" />
    <glyph glyph-name="T" unicode="T" horiz-adv-x="1630" 
d="M526 0l228 1094h-535l76 368h1647l-76 -368h-535l-227 -1094h-578z" />
    <glyph glyph-name="U" unicode="U" horiz-adv-x="1970" 
d="M1585 1462h578l-189 -907q-46 -229 -168 -361q-122 -133 -315 -189q-192 -56 -518 -56q-277 0 -434 39t-246 134q-88 94 -88 257q0 83 18 168l191 915h577l-178 -856q-14 -64 -14 -104q0 -86 58 -129t196 -43q159 0 241 60q83 60 107 188z" />
    <glyph glyph-name="V" unicode="V" horiz-adv-x="1744" 
d="M569 0l-352 1462h635l127 -938h4l516 938h635l-958 -1462h-607z" />
    <glyph glyph-name="W" unicode="W" horiz-adv-x="2387" 
d="M1395 0l-31 811h-4l-369 -811h-567l-123 1462h561v-893h4l402 893h461l26 -893h4l375 893h559l-731 -1462h-567z" />
    <glyph glyph-name="X" unicode="X" horiz-adv-x="1818" 
d="M1180 0l-193 377l-348 -377h-713l815 764l-426 698h678l154 -319l285 319h677l-716 -698l499 -764h-712z" />
    <glyph glyph-name="Y" unicode="Y" horiz-adv-x="1703" 
d="M563 0l84 412l-430 1050h660l159 -573l398 573h659l-868 -1050l-84 -412h-578z" />
    <glyph glyph-name="Z" unicode="Z" horiz-adv-x="1744" 
d="M45 0l64 309l1040 785h-817l76 368h1595l-66 -319l-1017 -774h833l-76 -369h-1632z" />
    <glyph glyph-name="bracketleft" unicode="[" horiz-adv-x="1024" 
d="M27 -389l385 1851h888l-75 -368h-377l-234 -1114h377l-76 -369h-888z" />
    <glyph glyph-name="backslash" unicode="\" horiz-adv-x="909" 
d="M547 -51l-246 1564h363l245 -1564h-362z" />
    <glyph glyph-name="bracketright" unicode="]" horiz-adv-x="1024" 
d="M-53 -389l73 369h377l234 1114h-377l76 368h889l-385 -1851h-887z" />
    <glyph glyph-name="asciicircum" unicode="^" horiz-adv-x="1228" 
d="M979 674l-123 489l-328 -489h-301l512 747h340l201 -747h-301z" />
    <glyph glyph-name="underscore" unicode="_" horiz-adv-x="1024" 
d="M-51 -256l20 102h1022l-20 -102h-1022z" />
    <glyph glyph-name="grave" unicode="`" horiz-adv-x="569" 
d="M356 1245l-252 295h621l125 -295h-494z" />
    <glyph glyph-name="a" unicode="a" 
d="M1186 0l-4 41q0 27 8 70q-107 -81 -247 -118q-144 -38 -345 -38q-254 0 -375 69t-121 216q0 109 57 211t190 162q136 61 370 73l444 23q75 5 109 31q35 27 35 75q0 45 -56 69q-53 23 -161 23q-131 0 -196 -34q-67 -35 -89 -93h-512q69 166 168 240q98 73 256 109
q157 36 457 36q350 0 499 -75q152 -77 152 -250q0 -64 -15 -125l-104 -500q-16 -80 -16 -121q0 -53 20 -94h-524zM799 459q-69 -11 -100 -49t-31 -86t40 -73q41 -26 128 -26q116 0 203 27q89 28 143 83q55 56 73 175q-44 -12 -337 -39z" />
    <glyph glyph-name="b" unicode="b" 
d="M123 0l313 1513h512l-108 -520h4q164 158 477 158q247 0 388 -120q140 -119 140 -329q0 -214 -99 -383t-280 -267q-179 -97 -399 -97q-164 0 -269 41q-104 41 -155 123h-4l-25 -119h-495zM1079 807q-79 0 -143 -23q-67 -24 -108 -68q-44 -48 -65 -118q-22 -75 -22 -125
q0 -84 57 -129t179 -45q169 0 255 95q85 94 85 222q0 92 -61 142q-59 49 -177 49z" />
    <glyph glyph-name="c" unicode="c" 
d="M1325 670q0 4 2 28q0 71 -59 109q-60 39 -187 39q-184 0 -279 -107t-95 -245q0 -102 66 -155q65 -52 190 -52q129 0 206 46q79 47 117 140h537q-89 -271 -313 -395q-222 -123 -615 -123q-187 0 -324 29q-135 28 -227 86q-182 113 -182 344q0 179 91 357q93 181 307 285
q215 104 585 109q250 0 404 -46q158 -47 236 -143q79 -97 79 -255q0 -31 -2 -51h-537z" />
    <glyph glyph-name="d" unicode="d" 
d="M1163 0l25 119h-4q-92 -86 -211 -125t-285 -39q-241 0 -385 120q-143 119 -143 324q0 191 92 367t275 281q181 104 409 104q311 0 412 -158h4l108 520h512l-313 -1513h-496zM1028 807q-150 0 -243 -93t-93 -231q0 -184 236 -184q93 0 159 27t106 73q40 45 58 113
q19 70 19 113q0 182 -242 182z" />
    <glyph glyph-name="e" unicode="e" 
d="M676 440l-2 -24q0 -82 72 -130t198 -48q114 0 177 25q64 25 110 73h545q-102 -186 -325 -284q-221 -97 -554 -97q-187 0 -322 30q-137 30 -229 89q-184 118 -184 346q0 188 99 361q100 174 318 279q217 105 525 105q370 0 546 -127q177 -128 177 -383q0 -87 -25 -215
h-1126zM1339 698l2 25q0 79 -69 126q-68 46 -199 46q-130 0 -216 -46q-88 -47 -128 -151h610z" />
    <glyph glyph-name="f" unicode="f" horiz-adv-x="1062" 
d="M256 0l166 801h-238l66 319h237l27 127q33 153 154 216q122 63 360 63q105 0 189 -3q70 -2 141 -10l-55 -270h-150q-86 0 -110 -23t-35 -65l-9 -35h277l-66 -319h-276l-166 -801h-512z" />
    <glyph glyph-name="g" unicode="g" horiz-adv-x="1818" 
d="M1223 190q-92 -69 -211 -95q-116 -25 -256 -25q-291 0 -437 103q-147 103 -147 300t102 351q103 155 289 241q187 86 416 86q157 0 262 -43q108 -44 164 -115l27 127h495l-213 -1034q-52 -261 -265 -383q-211 -121 -622 -121q-295 0 -436 36q-140 36 -217 116
q-76 79 -76 215v26h566q0 -62 54 -86t159 -24q152 0 224 51q73 52 97 160zM717 553q2 -176 252 -176q165 0 254 76q90 77 90 198q0 81 -66 124q-67 44 -188 44q-122 0 -201 -44q-78 -43 -109 -103q-32 -61 -32 -119z" />
    <glyph glyph-name="h" unicode="h" horiz-adv-x="1703" 
d="M1069 0l111 537q16 67 16 110q0 133 -162 135q-109 0 -186 -68q-79 -70 -109 -210l-104 -504h-512l313 1513h512l-110 -532h4q70 74 201 122q132 48 280 48q207 -1 313 -86q105 -84 105 -236q0 -43 -12 -116l-148 -713h-512z" />
    <glyph glyph-name="i" unicode="i" horiz-adv-x="757" 
d="M377 1231l59 282h512l-59 -282h-512zM123 0l231 1120h512l-231 -1120h-512z" />
    <glyph glyph-name="j" unicode="j" horiz-adv-x="796" 
d="M416 1231l59 282h512l-59 -282h-512zM-57 -33h53q93 0 115 7q25 8 40 29q14 20 31 101l211 1016h512l-229 -1102q-34 -170 -90 -255q-54 -83 -160 -124q-104 -40 -276 -40q-248 5 -281 12z" />
    <glyph glyph-name="k" unicode="k" horiz-adv-x="1703" 
d="M1061 0l-189 377l-188 -131l-49 -246h-512l313 1513h512l-157 -755l462 362h680l-596 -418l416 -702h-692z" />
    <glyph glyph-name="l" unicode="l" horiz-adv-x="757" 
d="M123 0l313 1513h512l-313 -1513h-512z" />
    <glyph glyph-name="m" unicode="m" horiz-adv-x="2387" 
d="M1753 0l123 590q14 78 14 102q0 46 -24 68q-23 22 -88 22q-90 0 -143 -48q-51 -47 -74 -159l-119 -575h-496l131 635q6 33 6 53q0 47 -25 71q-24 23 -87 23q-85 0 -140 -45q-54 -44 -77 -162l-119 -575h-512l231 1120h496l-31 -153h4q90 93 205 139q112 45 250 45
q142 0 222 -43q82 -44 110 -143q85 94 198 139q118 47 252 47q185 0 280 -74t95 -207q0 -14 -2 -48q-2 -26 -6 -44l-162 -778h-512z" />
    <glyph glyph-name="n" unicode="n" horiz-adv-x="1703" 
d="M1069 0l111 537q16 71 16 116q0 61 -42 95q-41 34 -120 34q-232 0 -295 -280l-104 -502h-512l231 1120h496l-29 -139h4q79 76 215 123t283 47q202 0 310 -84t108 -238q0 -57 -10 -106l-150 -723h-512z" />
    <glyph glyph-name="o" unicode="o" 
d="M158 399q0 154 68 321q69 169 199 265q131 96 308 138q179 42 400 42q371 0 545 -107q175 -108 175 -333q0 -192 -93 -384q-93 -191 -309 -289q-215 -97 -570 -97q-377 0 -549 107q-174 108 -174 337zM1061 834q-118 0 -197 -44q-78 -44 -119 -133q-40 -87 -40 -176
q0 -101 58 -147q59 -47 187 -47q194 0 277 108q82 107 82 254q0 91 -60 138q-61 47 -188 47z" />
    <glyph glyph-name="p" unicode="p" 
d="M39 -401l315 1521h496l-27 -133h4q89 83 209 124q117 40 285 40q247 0 388 -120q140 -119 140 -329q0 -194 -89 -364q-89 -171 -271 -277t-418 -106q-308 0 -409 158h-5l-106 -514h-512zM1079 807q-96 0 -177 -38q-80 -37 -120 -117q-41 -80 -41 -173q0 -180 238 -180
q111 0 190 49q81 50 115 123q35 75 35 147q0 92 -61 141q-60 48 -179 48z" />
    <glyph glyph-name="q" unicode="q" 
d="M1063 -401l106 514h-4q-164 -158 -477 -158q-241 0 -385 120q-143 119 -143 324q0 191 92 367t276 281q183 104 408 104q158 0 264 -39q107 -39 164 -125h4l27 133h495l-315 -1521h-512zM1030 807q-167 0 -252 -97q-86 -98 -86 -221q0 -91 62 -141q61 -49 172 -49
q183 0 263 98q81 99 81 230q0 93 -62 137q-61 43 -178 43z" />
    <glyph glyph-name="r" unicode="r" horiz-adv-x="1290" 
d="M123 0l231 1120h496l-45 -215h4q132 132 262 189t266 57q82 0 166 -12l-94 -459l-86 20q-79 21 -162 21q-179 0 -294 -76q-116 -77 -146 -227l-86 -418h-512z" />
    <glyph glyph-name="s" unicode="s" horiz-adv-x="1669" 
d="M1149 784q2 8 2 19q0 43 -47 61q-49 19 -125 19q-109 0 -155 -24t-46 -62q0 -29 33 -42q35 -14 100 -20l467 -41q151 -12 237 -73q87 -61 87 -179q0 -142 -84 -257q-84 -116 -278 -173t-521 -57q-374 0 -539 75t-165 251q0 17 6 67h602v-12q0 -62 49 -80q50 -18 137 -18
q97 0 143 25t46 79q0 23 -14 35q-13 11 -48 16l-475 49q-176 18 -254 78t-78 160q0 249 206 368q203 117 630 117q341 0 505 -81q163 -81 163 -236q0 -17 -7 -64h-577z" />
    <glyph glyph-name="t" unicode="t" horiz-adv-x="1099" 
d="M1059 0q-54 -8 -162 -17q-101 -8 -215 -8q-158 0 -226 20q-69 20 -108 65q-41 47 -41 130q0 67 19 148l96 463h-238l66 319h237l76 361h512l-76 -361h277l-66 -319h-276l-78 -379q-10 -53 -10 -64q0 -34 24 -49q22 -14 86 -14q109 0 164 4z" />
    <glyph glyph-name="u" unicode="u" horiz-adv-x="1703" 
d="M1085 0l25 125h-4q-82 -78 -218 -124q-135 -46 -280 -46q-207 0 -313 86q-105 85 -105 240q0 53 15 122l149 717h512l-123 -594q-8 -32 -8 -65q0 -137 162 -137q126 0 197 67q71 66 98 201l108 528h512l-231 -1120h-496z" />
    <glyph glyph-name="v" unicode="v" horiz-adv-x="1556" 
d="M485 0l-286 1120h577l92 -669h4l371 669h578l-750 -1120h-586z" />
    <glyph glyph-name="w" unicode="w" horiz-adv-x="2387" 
d="M1411 0l-96 586l-338 -586h-596l-150 1120h547l45 -661h4l381 661h434l87 -661h4l340 661h546l-612 -1120h-596z" />
    <glyph glyph-name="x" unicode="x" horiz-adv-x="1703" 
d="M1073 0l-155 317l-287 -317h-651l636 586l-362 534h627l141 -301l264 301h627l-592 -534l403 -586h-651z" />
    <glyph glyph-name="y" unicode="y" horiz-adv-x="1478" 
d="M860 -176q-91 -132 -178 -178q-89 -47 -279 -47q-97 0 -206 7q-130 8 -148 11l68 332q95 -6 135 -6q65 0 95 5q26 4 54 26t58 67l35 49l-308 1030h537l129 -575l367 575h536z" />
    <glyph glyph-name="z" unicode="z" horiz-adv-x="1441" 
d="M51 0l58 283l735 489v4h-596l71 344h1285l-62 -295l-696 -465v-4h618l-73 -356h-1340z" />
    <glyph glyph-name="braceleft" unicode="{" horiz-adv-x="1024" 
d="M393 -389q-105 0 -169 54t-64 159q0 39 8 76l51 239q12 47 12 94q0 64 -35 98t-135 34l70 344q109 0 167 46q59 47 81 154l53 254q30 140 125 220q94 79 225 79h455l-72 -344h-92q-55 0 -87 -12q-31 -12 -51 -44t-32 -89l-39 -187q-28 -134 -95 -187q-66 -53 -177 -60v-4
q96 -11 138 -48t42 -110q0 -46 -10 -90l-37 -174q-12 -53 -12 -76q0 -41 23 -61q24 -21 91 -21h97l-72 -344h-459z" />
    <glyph glyph-name="bar" unicode="|" horiz-adv-x="569" 
d="M100 -51l326 1564h344l-326 -1564h-344z" />
    <glyph glyph-name="braceright" unicode="}" horiz-adv-x="1024" 
d="M8 -389l72 344h113q65 0 99 33t46 92l41 199q27 130 89 186q64 58 183 70v4q-92 11 -135 46q-43 36 -43 113q0 42 21 133l34 164q4 21 4 39q0 52 -27 68q-26 16 -75 16h-108l71 344h459q105 0 169 -55t64 -158q0 -35 -12 -90l-51 -250q-8 -35 -8 -69q0 -63 38 -98
q36 -33 132 -33l-70 -344q-108 0 -166 -46q-58 -45 -80 -147l-55 -264q-34 -155 -129 -226t-233 -71h-443z" />
    <glyph glyph-name="asciitilde" unicode="~" horiz-adv-x="1228" 
d="M1186 477q-83 -95 -151 -135q-70 -41 -142 -41q-79 0 -143 38q-70 42 -124 70q-59 31 -147 31q-55 0 -101 -33q-52 -38 -102 -110l-20 258q62 89 135 133q77 47 158 47q67 0 134 -29q66 -29 144 -70q76 -40 129 -40q48 0 95 32q48 32 116 111z" />
    <glyph glyph-name="uni00A0" unicode="&#xa0;" horiz-adv-x="835" 
 />
    <glyph glyph-name="exclamdown" unicode="&#xa1;" horiz-adv-x="835" 
d="M287 662l94 458h537l-95 -458h-536zM70 -342l247 899h435l-129 -899h-553z" />
    <glyph glyph-name="cent" unicode="&#xa2;" horiz-adv-x="1974" 
d="M1378 670q0 1 2 11t2 28q0 55 -42 88q-41 33 -140 49l-115 -555q94 6 159 47t106 133h536q-78 -256 -288 -382q-209 -125 -582 -130l-45 -223h-123l45 223q-670 18 -670 455q0 206 107 384q106 177 305 267q197 89 510 100l41 195h123l-41 -195q331 -8 489 -112
q160 -106 160 -334l-2 -49h-537zM1077 846q-115 -15 -180 -64q-65 -48 -98 -141q-33 -91 -33 -168q0 -88 47 -132t150 -50z" />
    <glyph glyph-name="sterling" unicode="&#xa3;" horiz-adv-x="1974" 
d="M1878 119q-146 -85 -266 -123q-117 -37 -248 -37q-159 0 -396 45t-282 45q-82 0 -171 -20q-94 -21 -181 -70l-135 346q131 81 182 146q49 62 61 157h-157l51 246h125q-27 57 -27 127q0 128 89 243q87 112 283 176q190 62 492 62q365 0 539 -90t174 -276q0 -79 -24 -187
h-603q9 59 9 74q0 66 -37 88q-38 23 -119 23q-107 0 -154 -42t-47 -141q0 -43 2 -57h287l-51 -246h-285q-24 -63 -81 -120q-52 -52 -148 -115l4 -4q55 31 115 46q61 15 120 15q57 0 210 -20q160 -21 229 -21q89 0 187 31q93 29 179 88z" />
    <glyph glyph-name="currency" unicode="&#xa4;" horiz-adv-x="1228" 
d="M1067 123l-100 125q-151 -90 -320 -90t-282 90l-154 -125l-127 180l147 121q-15 42 -25 87q-9 42 -9 87q0 102 42 209q44 111 119 199l-102 124l211 168l98 -120q151 86 314 86q157 0 272 -86l147 120l142 -168l-150 -124q37 -84 37 -181q0 -102 -38 -205
q-38 -102 -115 -196l94 -121zM817 981q-135 0 -228 -103q-93 -104 -93 -237q0 -87 57 -144t154 -57q67 0 140 35q74 36 126 120q53 86 53 179q0 100 -59 153q-60 54 -150 54z" />
    <glyph glyph-name="yen" unicode="&#xa5;" horiz-adv-x="1974" 
d="M1311 172l-35 -172h-578l35 172h-371l52 246h370l27 129h-371l52 246h204l-311 628h639l129 -614l387 614h639l-573 -628h204l-51 -246h-370l-27 -129h371l-52 -246h-370z" />
    <glyph glyph-name="brokenbar" unicode="&#xa6;" horiz-adv-x="569" 
d="M299 901l127 612h344l-127 -612h-344zM100 -51l127 612h344l-127 -612h-344z" />
    <glyph glyph-name="section" unicode="&#xa7;" horiz-adv-x="1974" 
d="M569 178q-200 43 -299 132q-98 88 -98 216q0 107 73 239q71 129 218 173q-31 57 -31 115q0 108 85 221q86 114 271 177q183 62 463 62q371 0 550 -102t179 -305q0 -3 -2 -43h-553q5 23 5 31q0 52 -60 76t-184 24q-116 0 -171 -22q-52 -21 -52 -66q0 -37 38 -43l545 -105
q174 -30 270 -65q93 -34 157 -98q63 -63 65 -172q0 -107 -58 -226q-57 -116 -211 -186q58 -61 58 -145q0 -90 -52 -185q-54 -98 -160 -163q-109 -67 -281 -101q-175 -35 -410 -35q-381 0 -572 109q-188 107 -188 319v33h553v-14q0 -80 58 -110q59 -30 224 -30q135 0 194 24
q58 24 58 79q0 22 -21 39q-21 16 -145 39zM725 735q-29 -27 -45 -57q-16 -29 -16 -59q0 -32 18 -47q19 -16 57 -23l764 -168q21 24 36 51t15 55q0 33 -27 53q-25 18 -71 29z" />
    <glyph glyph-name="dieresis" unicode="&#xa8;" horiz-adv-x="569" 
d="M-31 1257l54 271h495l-55 -271h-494zM623 1257l55 271h496l-56 -271h-495z" />
    <glyph glyph-name="copyright" unicode="&#xa9;" horiz-adv-x="1638" 
d="M172 571q0 236 135 455t362 353t464 134q190 0 335 -82t224 -228q77 -142 77 -312q-1 -237 -136 -456q-134 -218 -358 -351q-225 -134 -468 -135q-173 0 -318 76t-230 215q-86 140 -87 331zM1081 1280q-180 0 -330 -99q-152 -100 -235 -258q-84 -159 -84 -327
q1 -189 116 -300q116 -113 308 -114q188 1 340 102q148 97 231 258q82 158 82 324q0 189 -115 300q-117 113 -313 114zM1161 846q0 121 -139 121q-114 0 -178 -103q-64 -104 -64 -213q0 -77 38 -124q37 -46 108 -46q64 0 116 29t70 98h225q-51 -152 -167 -238
q-115 -85 -275 -85q-166 0 -259 90t-93 237q0 124 64 259t190 214q125 78 278 78q145 0 225 -72t80 -206l-2 -39h-217z" />
    <glyph glyph-name="ordfeminine" unicode="&#xaa;" horiz-adv-x="1159" 
d="M922 745l2 56q-56 -39 -148 -60q-86 -20 -225 -20q-178 0 -268 40q-93 41 -93 132q0 116 76 188q75 71 283 86l84 7l260 14q50 2 74 9t24 30q0 49 -131 51q-69 0 -111 -16q-45 -17 -61 -45h-381q39 102 101 152q64 51 170 72q108 21 348 21q234 0 346 -47
q110 -46 110 -155q0 -18 -6 -52l-71 -342q-6 -15 -7 -47q0 -10 6 -36q4 -16 11 -38h-393zM709 1024q-49 -6 -74 -25t-25 -45q0 -19 26 -34t75 -15q84 0 141 21q59 22 80 47q24 28 31 80q-79 -14 -146 -19z" />
    <glyph glyph-name="guillemotleft" unicode="&#xab;" horiz-adv-x="1402" 
d="M262 399l84 406l512 330l-72 -344l-294 -189l215 -188l-70 -344zM829 399l84 406l512 330l-71 -344l-295 -189l215 -188l-70 -344z" />
    <glyph glyph-name="logicalnot" unicode="&#xac;" horiz-adv-x="1228" 
d="M883 221l78 379h-742l62 295h1036l-139 -674h-295z" />
    <glyph glyph-name="uni00AD" unicode="&#xad;" horiz-adv-x="985" 
d="M297 424l147 356h744l-148 -356h-743z" />
    <glyph glyph-name="registered" unicode="&#xae;" horiz-adv-x="1638" 
d="M172 571q0 233 135 454t363 354q229 134 463 134q190 0 335 -82q146 -83 224 -227q77 -142 77 -313q0 -236 -135 -455t-359 -352q-225 -134 -468 -135q-173 0 -318 75q-146 75 -231 218q-86 145 -86 329zM1081 1280q-180 0 -330 -99q-151 -100 -235 -257
q-84 -158 -84 -328q0 -186 116 -300t308 -114q188 0 340 102t231 258q81 158 82 326q0 185 -115 297q-117 114 -313 115zM999 315l-127 332h-43l-67 -332h-197l172 836h328q163 0 234 -46q73 -47 73 -140q0 -71 -29 -144q-27 -69 -92 -114q-63 -43 -168 -48l134 -344h-218z
M1036 807q43 0 71 17q30 18 42 52t12 52q0 63 -127 63h-133l-39 -184h174z" />
    <glyph glyph-name="macron" unicode="&#xaf;" horiz-adv-x="569" 
d="M242 1257l65 271h1168l-68 -271h-1165z" />
    <glyph glyph-name="degree" unicode="&#xb0;" horiz-adv-x="819" 
d="M313 1069q1 156 124 274q122 117 276 119q115 0 190 -74q76 -75 76 -182q0 -87 -49 -178q-50 -93 -148 -155q-97 -62 -204 -62q-115 0 -190 72t-75 186zM502 1108q0 -52 30 -82q31 -31 82 -31q72 0 123 53q51 52 51 119q0 50 -31 80q-33 31 -83 31q-68 0 -120 -52
t-52 -118z" />
    <glyph glyph-name="plusminus" unicode="&#xb1;" horiz-adv-x="1228" 
d="M877 555l-39 -186h-295l39 186h-371l61 295h371l39 186h295l-39 -186h371l-62 -295h-370zM96 0l60 295h1036l-59 -295h-1037z" />
    <glyph glyph-name="uni00B2" unicode="&#xb2;" horiz-adv-x="1284" 
d="M240 977q35 149 111 243q77 94 180 147q104 53 217 77q150 32 194 40q107 19 149 29q66 15 66 72q0 24 -32 38q-30 13 -107 13q-74 0 -120 -12q-44 -11 -73 -37q-26 -23 -49 -84h-430q60 196 221 279q162 84 453 84q289 0 425 -58q134 -57 134 -176q0 -117 -98 -202
q-100 -87 -273 -115l-350 -58q-160 -33 -174 -43v-4h772l-49 -233h-1167z" />
    <glyph glyph-name="uni00B3" unicode="&#xb3;" horiz-adv-x="1284" 
d="M1346 1444q174 -28 174 -156q0 -86 -60 -162q-58 -74 -204 -118q-142 -43 -388 -43q-273 0 -375 28q-103 29 -156 84q-52 55 -52 140q0 22 4 53h413q0 -45 52 -65q50 -19 143 -19q104 0 157 22q54 22 54 66q0 30 -37 42q-34 11 -90 11h-250l43 209h264q48 0 78 12
q31 12 31 47q0 50 -160 50q-80 0 -120 -10q-35 -9 -54 -40h-422q41 147 199 209q159 62 444 62q286 0 412 -46q127 -46 127 -149q0 -97 -59 -150q-58 -52 -166 -73z" />
    <glyph glyph-name="acute" unicode="&#xb4;" horiz-adv-x="569" 
d="M721 1245h-494l248 295h621z" />
    <glyph glyph-name="uni00B5" unicode="&#xb5;" horiz-adv-x="1820" 
d="M1757 0q-73 -12 -137 -18q-74 -7 -152 -7q-147 0 -228 35q-79 34 -97 131h-4q-64 -80 -160 -133q-97 -53 -213 -53q-67 0 -133 25h-4l-78 -381h-512l315 1521h512l-127 -612q-6 -28 -6 -51q0 -131 164 -133q123 0 194 70q73 72 97 192l112 534h512l-149 -717
q-6 -28 -6 -47q0 -31 18 -46t68 -15q36 0 76 4z" />
    <glyph glyph-name="paragraph" unicode="&#xb6;" horiz-adv-x="1363" 
d="M909 -367l332 1596h-194l-332 -1596h-320l205 985q-399 2 -401 304q0 149 67 279q67 129 199 196q129 65 346 65h799l-381 -1829h-320z" />
    <glyph glyph-name="periodcentered" unicode="&#xb7;" horiz-adv-x="835" 
d="M248 446q2 128 101 224q100 96 229 98q97 -1 158 -62t61 -153q0 -124 -101 -223q-100 -99 -229 -99q-96 0 -158 62q-61 61 -61 153z" />
    <glyph glyph-name="cedilla" unicode="&#xb8;" horiz-adv-x="569" 
d="M266 -96q32 8 101 8q79 0 128 -37q50 -38 50 -100q0 -100 -85 -163q-86 -63 -249 -63q-70 0 -163 8q-92 8 -159 33l54 111q37 -10 74 -16q40 -7 79 -7q64 0 88 21q25 22 25 49q0 19 -18 28t-44 9q-31 0 -75 -16l-45 43l161 188h156z" />
    <glyph glyph-name="uni00B9" unicode="&#xb9;" horiz-adv-x="888" 
d="M571 977l103 489h-283l47 234h19q141 0 223 27q81 26 141 126h314l-183 -876h-381z" />
    <glyph glyph-name="ordmasculine" unicode="&#xba;" horiz-adv-x="1159" 
d="M231 999q0 100 54 220q53 117 192 180q140 63 406 63q261 0 379 -66t118 -204q0 -104 -54 -222t-192 -184q-136 -65 -407 -65q-259 0 -377 66q-119 66 -119 212zM633 1063q0 -52 37 -80q38 -29 108 -29q97 0 150 53t53 121q0 47 -39 74t-111 27q-88 0 -143 -46t-55 -120z
" />
    <glyph glyph-name="guillemotright" unicode="&#xbb;" horiz-adv-x="1402" 
d="M227 70l70 344l297 188l-217 189l72 344l372 -330l-84 -406zM795 70l69 344l297 188l-217 189l72 344l373 -330l-84 -406z" />
    <glyph glyph-name="onequarter" unicode="&#xbc;" horiz-adv-x="2957" 
d="M592 -41l1270 1503h262l-1270 -1503h-262zM485 549l103 489h-283l47 234h19q141 0 223 27q81 26 141 126h314l-183 -876h-381zM2591 147l-29 -143h-369l29 143h-680l47 228l637 506h516l-104 -508h168l-47 -226h-168zM2322 635l-340 -262h287z" />
    <glyph glyph-name="onehalf" unicode="&#xbd;" horiz-adv-x="2957" 
d="M633 -41l1270 1503h262l-1270 -1503h-262zM526 549l103 489h-283l47 234h19q140 0 223 27q81 26 141 126h314l-183 -876h-381zM1589 4q35 147 112 243q77 95 180 147q105 53 216 77q144 31 195 40q80 15 148 30q67 15 67 71q0 24 -32 38q-33 14 -108 14q-69 0 -119 -13
q-44 -11 -73 -37q-26 -23 -49 -84h-430q60 196 221 279q162 84 453 84q290 0 424 -57q135 -58 135 -177q0 -117 -99 -202q-101 -87 -272 -115l-350 -57q-160 -33 -174 -43v-4h772l-49 -234h-1168z" />
    <glyph glyph-name="threequarters" unicode="&#xbe;" horiz-adv-x="2957" 
d="M1298 1016q175 -29 175 -156q0 -86 -60 -162q-58 -74 -204 -118q-142 -43 -388 -43q-274 0 -376 28t-155 84q-52 55 -52 139q0 23 4 54h413q0 -45 52 -65q50 -19 143 -19q104 0 157 22q54 22 54 66q0 30 -37 42q-34 11 -90 11h-250l43 209h264q48 0 78 12q31 12 31 47
q0 50 -160 50q-80 0 -120 -10q-35 -9 -54 -40h-422q41 147 199 209q159 62 444 62q286 0 412 -46q127 -46 127 -149q0 -97 -59 -150q-58 -52 -167 -73zM899 -41l1270 1503h262l-1270 -1503h-262zM2753 147l-29 -143h-369l29 143h-680l47 228l637 506h516l-104 -508h168
l-48 -226h-167zM2484 635l-340 -262h287z" />
    <glyph glyph-name="questiondown" unicode="&#xbf;" horiz-adv-x="1744" 
d="M760 662l94 458h537l-95 -458h-536zM1739 158q-72 -212 -188 -333q-115 -119 -296 -169q-178 -49 -477 -49q-355 0 -541 87t-186 259q0 122 73 238q72 113 312 190q37 10 178 63q57 23 86 45q31 23 37 46h527q-27 -110 -65 -159q-37 -47 -117 -88q-76 -39 -212 -77
q-127 -34 -172 -78q-45 -43 -45 -98q2 -107 201 -109q257 0 307 232h578z" />
    <glyph glyph-name="Agrave" unicode="&#xc0;" horiz-adv-x="1818" 
d="M1272 0l-27 168h-602l-96 -168h-615l926 1462h709l319 -1462h-614zM1122 1020h-4l-274 -496h348zM1038 1593l-252 295h621l125 -295h-494z" />
    <glyph glyph-name="Aacute" unicode="&#xc1;" horiz-adv-x="1818" 
d="M1272 0l-27 168h-602l-96 -168h-615l926 1462h709l319 -1462h-614zM1122 1020h-4l-274 -496h348zM1389 1593h-494l248 295h620z" />
    <glyph glyph-name="Acircumflex" unicode="&#xc2;" horiz-adv-x="1818" 
d="M1272 0l-27 168h-602l-96 -168h-615l926 1462h709l319 -1462h-614zM1122 1020h-4l-274 -496h348zM1368 1593l-106 156l-172 -156h-517l377 295h733l256 -295h-571z" />
    <glyph glyph-name="Atilde" unicode="&#xc3;" horiz-adv-x="1818" 
d="M1272 0l-27 168h-602l-96 -168h-615l926 1462h709l319 -1462h-614zM1122 1020h-4l-274 -496h348zM1880 1882q-66 -154 -162 -236q-97 -83 -213 -83q-64 0 -290 49t-275 49q-34 0 -54 -16q-24 -19 -40 -43h-217q71 148 171 233q99 84 224 84q60 0 283 -49q226 -49 258 -49
q30 0 53 13q24 14 45 48h217z" />
    <glyph glyph-name="Adieresis" unicode="&#xc4;" horiz-adv-x="1818" 
d="M1272 0l-27 168h-602l-96 -168h-615l926 1462h709l319 -1462h-614zM1122 1020h-4l-274 -496h348zM668 1606l53 270h496l-56 -270h-493zM1321 1606l55 270h496l-55 -270h-496z" />
    <glyph glyph-name="Aring" unicode="&#xc5;" horiz-adv-x="1818" 
d="M1272 0l-27 168h-602l-96 -168h-615l926 1462h709l319 -1462h-614zM1122 1020h-4l-274 -496h348zM969 1741q0 133 104 231q105 99 248 99q98 0 162 -56q63 -56 63 -160q0 -117 -95 -220q-94 -101 -243 -101q-108 0 -174 57q-65 56 -65 150zM1133 1774q0 -41 26 -67
q28 -28 74 -28q54 0 103 44q48 43 48 104q0 41 -27 69q-27 29 -73 29q-58 0 -104 -46q-47 -47 -47 -105z" />
    <glyph glyph-name="AE" unicode="&#xc6;" horiz-adv-x="2387" 
d="M1083 0l50 246h-418l-144 -246h-604l973 1462h1671l-74 -356h-712l-41 -197h684l-74 -356h-684l-41 -197h723l-74 -356h-1235zM1315 1118h-92l-316 -540h295z" />
    <glyph glyph-name="Ccedilla" unicode="&#xc7;" horiz-adv-x="2086" 
d="M1556 889v20q0 113 -66 174q-67 62 -190 62q-170 0 -282 -83q-111 -82 -159 -221q-48 -138 -48 -253q0 -135 74 -203t215 -68q140 0 235 62q94 61 154 190h651q-123 -332 -377 -476q-253 -144 -706 -144l-37 -45q26 8 100 8q86 0 132 -39t46 -94q0 -98 -78 -163
q-81 -67 -280 -67q-62 0 -149 10q-82 9 -148 31l53 111q80 -23 154 -23q65 0 90 22t25 46q0 37 -64 39q-32 0 -76 -16l-45 43l119 141q-233 11 -383 67q-150 57 -238 179q-88 123 -88 317q0 100 32 248q31 145 110 284q78 138 183 228q103 89 236 142q133 54 288 74
q159 21 335 21q272 0 457 -53q182 -54 280 -177q99 -124 99 -329q0 -4 -0.5 -12.5t-1 -24t-0.5 -28.5h-652z" />
    <glyph glyph-name="Egrave" unicode="&#xc8;" horiz-adv-x="1744" 
d="M141 0l303 1462h1555l-74 -356h-977l-41 -197h908l-74 -356h-907l-41 -197h976l-73 -356h-1555zM1102 1593l-252 295h620l125 -295h-493z" />
    <glyph glyph-name="Eacute" unicode="&#xc9;" horiz-adv-x="1744" 
d="M141 0l303 1462h1555l-74 -356h-977l-41 -197h908l-74 -356h-907l-41 -197h976l-73 -356h-1555zM1473 1593h-494l248 295h620z" />
    <glyph glyph-name="Ecircumflex" unicode="&#xca;" horiz-adv-x="1744" 
d="M141 0l303 1462h1555l-74 -356h-977l-41 -197h908l-74 -356h-907l-41 -197h976l-73 -356h-1555zM1354 1593l-107 156l-172 -156h-516l377 295h733l256 -295h-571z" />
    <glyph glyph-name="Edieresis" unicode="&#xcb;" horiz-adv-x="1744" 
d="M141 0l303 1462h1555l-74 -356h-977l-41 -197h908l-74 -356h-907l-41 -197h976l-73 -356h-1555zM647 1606l53 270h496l-55 -270h-494zM1300 1606l56 270h495l-55 -270h-496z" />
    <glyph glyph-name="Igrave" unicode="&#xcc;" horiz-adv-x="872" 
d="M147 0l304 1462h577l-303 -1462h-578zM537 1593l-252 295h620l125 -295h-493z" />
    <glyph glyph-name="Iacute" unicode="&#xcd;" horiz-adv-x="872" 
d="M147 0l304 1462h577l-303 -1462h-578zM958 1593h-493l248 295h620z" />
    <glyph glyph-name="Icircumflex" unicode="&#xce;" horiz-adv-x="872" 
d="M147 0l304 1462h577l-303 -1462h-578zM883 1593l-107 156l-172 -156h-516l377 295h733l256 -295h-571z" />
    <glyph glyph-name="Idieresis" unicode="&#xcf;" horiz-adv-x="872" 
d="M147 0l304 1462h577l-303 -1462h-578zM176 1606l53 270h496l-55 -270h-494zM829 1606l56 270h495l-55 -270h-496z" />
    <glyph glyph-name="Eth" unicode="&#xd0;" horiz-adv-x="2086" 
d="M141 0l129 623h-141l53 258h142l120 581h1149q302 0 455 -123q154 -124 154 -374q0 -229 -101 -473t-303 -368t-508 -124h-1149zM848 623l-53 -254h340q139 0 238 54t156 172q56 116 56 251q0 127 -75 187q-76 61 -224 61h-340l-45 -213h371l-53 -258h-371z" />
    <glyph glyph-name="Ntilde" unicode="&#xd1;" horiz-adv-x="2086" 
d="M1313 0l-445 819h-4l-170 -819h-553l303 1462h660l418 -811h6l168 811h553l-303 -1462h-633zM2025 1882q-67 -155 -161 -236q-97 -83 -213 -83q-64 0 -290 49t-276 49q-34 0 -54 -16q-24 -19 -40 -43h-217q71 148 171 233q99 84 224 84q60 0 283 -49q226 -49 258 -49
q30 0 53 13q24 14 45 48h217z" />
    <glyph glyph-name="Ograve" unicode="&#xd2;" horiz-adv-x="2125" 
d="M190 516q0 213 88 424q88 210 227 330q140 120 341 182q199 61 555 61q451 0 644 -145t193 -424q-1 -214 -88 -425q-85 -208 -228 -328q-141 -119 -344 -181q-199 -61 -527 -61q-478 0 -669 143q-192 144 -192 424zM1298 1145q-117 0 -201 -37q-85 -38 -132 -90
q-47 -53 -79 -120q-30 -63 -52 -143q-22 -78 -23 -165q0 -273 317 -273q259 0 374 178q114 177 114 373q0 277 -318 277zM1161 1593l-252 295h621l125 -295h-494z" />
    <glyph glyph-name="Oacute" unicode="&#xd3;" horiz-adv-x="2125" 
d="M190 516q0 213 88 424q88 210 227 330q140 120 341 182q199 61 555 61q451 0 644 -145t193 -424q-1 -214 -88 -425q-85 -208 -228 -328q-141 -119 -344 -181q-199 -61 -527 -61q-478 0 -669 143q-192 144 -192 424zM1298 1145q-117 0 -201 -37q-85 -38 -132 -90
q-47 -53 -79 -120q-30 -63 -52 -143q-22 -78 -23 -165q0 -273 317 -273q259 0 374 178q114 177 114 373q0 277 -318 277zM1704 1593h-494l248 295h621z" />
    <glyph glyph-name="Ocircumflex" unicode="&#xd4;" horiz-adv-x="2125" 
d="M190 516q0 213 88 424q88 210 227 330q140 120 341 182q199 61 555 61q451 0 644 -145t193 -424q-1 -214 -88 -425q-85 -208 -228 -328q-141 -119 -344 -181q-199 -61 -527 -61q-478 0 -669 143q-192 144 -192 424zM1298 1145q-117 0 -201 -37q-85 -38 -132 -90
q-47 -53 -79 -120q-30 -63 -52 -143q-22 -78 -23 -165q0 -273 317 -273q259 0 374 178q114 177 114 373q0 277 -318 277zM1536 1593l-106 156l-173 -156h-516l377 295h733l256 -295h-571z" />
    <glyph glyph-name="Otilde" unicode="&#xd5;" horiz-adv-x="2125" 
d="M190 516q0 213 88 424q88 210 227 330q140 120 341 182q199 61 555 61q451 0 644 -145t193 -424q-1 -214 -88 -425q-85 -208 -228 -328q-141 -119 -344 -181q-199 -61 -527 -61q-478 0 -669 143q-192 144 -192 424zM1298 1145q-117 0 -201 -37q-85 -38 -132 -90
q-47 -53 -79 -120q-30 -63 -52 -143q-22 -78 -23 -165q0 -273 317 -273q259 0 374 178q114 177 114 373q0 277 -318 277zM2036 1882q-66 -154 -162 -236q-97 -83 -213 -83q-64 0 -290 49t-275 49q-35 0 -55 -16q-24 -19 -40 -43h-217q71 148 171 233q99 84 225 84
q59 0 282 -49q226 -49 258 -49q31 0 54 13q24 14 45 48h217z" />
    <glyph glyph-name="Odieresis" unicode="&#xd6;" horiz-adv-x="2125" 
d="M190 516q0 213 88 424q88 210 227 330q140 120 341 182q199 61 555 61q451 0 644 -145t193 -424q-1 -214 -88 -425q-85 -208 -228 -328q-141 -119 -344 -181q-199 -61 -527 -61q-478 0 -669 143q-192 144 -192 424zM1298 1145q-117 0 -201 -37q-85 -38 -132 -90
q-47 -53 -79 -120q-30 -63 -52 -143q-22 -78 -23 -165q0 -273 317 -273q259 0 374 178q114 177 114 373q0 277 -318 277zM821 1606l53 270h496l-55 -270h-494zM1475 1606l55 270h495l-55 -270h-495z" />
    <glyph glyph-name="multiply" unicode="&#xd7;" horiz-adv-x="1228" 
d="M915 10l-237 297l-363 -297l-163 209l362 299l-240 299l252 209l240 -297l360 297l164 -209l-360 -299l237 -299z" />
    <glyph glyph-name="Oslash" unicode="&#xd8;" horiz-adv-x="2125" 
d="M2152 1257q46 -68 65 -140q19 -73 19 -169q0 -189 -64 -374q-64 -184 -192 -326q-127 -141 -346 -220q-218 -79 -563 -79q-239 0 -338 15q-92 14 -181 43q-80 26 -159 79l-250 -166l-77 143l210 142q-86 125 -86 309q1 196 79 404q75 201 225 339q148 136 359 196
q212 60 523 60q239 0 397 -31q159 -31 261 -106l247 166l80 -145zM1554 1057q-38 46 -102 67q-63 21 -154 21q-129 0 -235 -53q-103 -51 -170 -178q-65 -122 -80 -314q0 -20 4 -35zM874 405q38 -46 104 -67q64 -21 150 -21q167 0 276 76q111 78 160 218q50 144 50 237v33
q0 2 -2 16z" />
    <glyph glyph-name="Ugrave" unicode="&#xd9;" horiz-adv-x="1970" 
d="M1585 1462h578l-189 -907q-46 -229 -168 -361q-122 -133 -315 -189q-192 -56 -518 -56q-277 0 -434 39t-246 134q-88 94 -88 257q0 83 18 168l191 915h577l-178 -856q-14 -64 -14 -104q0 -86 58 -129t196 -43q159 0 241 60q83 60 107 188zM1073 1593l-252 295h621
l125 -295h-494z" />
    <glyph glyph-name="Uacute" unicode="&#xda;" horiz-adv-x="1970" 
d="M1585 1462h578l-189 -907q-46 -229 -168 -361q-122 -133 -315 -189q-192 -56 -518 -56q-277 0 -434 39t-246 134q-88 94 -88 257q0 83 18 168l191 915h577l-178 -856q-14 -64 -14 -104q0 -86 58 -129t196 -43q159 0 241 60q83 60 107 188zM1563 1593h-494l248 295h620z
" />
    <glyph glyph-name="Ucircumflex" unicode="&#xdb;" horiz-adv-x="1970" 
d="M1585 1462h578l-189 -907q-46 -229 -168 -361q-122 -133 -315 -189q-192 -56 -518 -56q-277 0 -434 39t-246 134q-88 94 -88 257q0 83 18 168l191 915h577l-178 -856q-14 -64 -14 -104q0 -86 58 -129t196 -43q159 0 241 60q83 60 107 188zM1440 1593l-107 156l-172 -156
h-516l377 295h733l256 -295h-571z" />
    <glyph glyph-name="Udieresis" unicode="&#xdc;" horiz-adv-x="1970" 
d="M1585 1462h578l-189 -907q-46 -229 -168 -361q-122 -133 -315 -189q-192 -56 -518 -56q-277 0 -434 39t-246 134q-88 94 -88 257q0 83 18 168l191 915h577l-178 -856q-14 -64 -14 -104q0 -86 58 -129t196 -43q159 0 241 60q83 60 107 188zM739 1606l54 270h495l-55 -270
h-494zM1393 1606l55 270h496l-56 -270h-495z" />
    <glyph glyph-name="Yacute" unicode="&#xdd;" horiz-adv-x="1703" 
d="M563 0l84 412l-430 1050h660l159 -573l398 573h659l-868 -1050l-84 -412h-578zM1430 1593h-494l248 295h620z" />
    <glyph glyph-name="Thorn" unicode="&#xde;" horiz-adv-x="1933" 
d="M772 262l-53 -262h-578l303 1462h578l-41 -192h627q228 0 344 -85t116 -267q0 -184 -78 -337q-80 -157 -230 -238t-357 -81h-631zM909 926l-63 -308h381q113 0 173 51q58 49 58 148q0 60 -43 84q-45 25 -125 25h-381z" />
    <glyph glyph-name="germandbls" unicode="&#xdf;" horiz-adv-x="1818" 
d="M1636 852q232 -44 232 -256q0 -189 -103 -342q-102 -152 -273 -215q-174 -64 -384 -64q-103 0 -218 16q-104 14 -153 34l72 344q87 -16 153 -20q78 -5 115 -5q132 0 192 62q60 61 60 145q0 65 -63 94q-64 29 -176 29h-168l55 270h149q101 0 153 40t52 106q0 43 -40 67
q-42 25 -134 25q-158 0 -231 -61q-72 -60 -99 -191l-192 -930h-512l201 975q40 201 155 320q114 119 303 168q191 50 486 50q325 0 479 -80q156 -81 156 -237q0 -115 -64 -217q-63 -100 -203 -123v-4z" />
    <glyph glyph-name="agrave" unicode="&#xe0;" 
d="M1186 0l-4 41q0 27 8 70q-107 -81 -247 -118q-144 -38 -345 -38q-254 0 -375 69t-121 216q0 109 57 211t190 162q136 61 370 73l444 23q75 5 109 31q35 27 35 75q0 45 -56 69q-53 23 -161 23q-131 0 -196 -34q-67 -35 -89 -93h-512q69 166 168 240q98 73 256 109
q157 36 457 36q350 0 499 -75q152 -77 152 -250q0 -64 -15 -125l-104 -500q-16 -80 -16 -121q0 -53 20 -94h-524zM799 459q-69 -11 -100 -49t-31 -86t40 -73q41 -26 128 -26q116 0 203 27q89 28 143 83q55 56 73 175q-44 -12 -337 -39zM1053 1245l-252 295h620l125 -295
h-493z" />
    <glyph glyph-name="aacute" unicode="&#xe1;" 
d="M1186 0l-4 41q0 27 8 70q-107 -81 -247 -118q-144 -38 -345 -38q-254 0 -375 69t-121 216q0 109 57 211t190 162q136 61 370 73l444 23q75 5 109 31q35 27 35 75q0 45 -56 69q-53 23 -161 23q-131 0 -196 -34q-67 -35 -89 -93h-512q69 166 168 240q98 73 256 109
q157 36 457 36q350 0 499 -75q152 -77 152 -250q0 -64 -15 -125l-104 -500q-16 -80 -16 -121q0 -53 20 -94h-524zM799 459q-69 -11 -100 -49t-31 -86t40 -73q41 -26 128 -26q116 0 203 27q89 28 143 83q55 56 73 175q-44 -12 -337 -39zM1376 1245h-493l247 295h621z" />
    <glyph glyph-name="acircumflex" unicode="&#xe2;" 
d="M1186 0l-4 41q0 27 8 70q-107 -81 -247 -118q-144 -38 -345 -38q-254 0 -375 69t-121 216q0 109 57 211t190 162q136 61 370 73l444 23q75 5 109 31q35 27 35 75q0 45 -56 69q-53 23 -161 23q-131 0 -196 -34q-67 -35 -89 -93h-512q69 166 168 240q98 73 256 109
q157 36 457 36q350 0 499 -75q152 -77 152 -250q0 -64 -15 -125l-104 -500q-16 -80 -16 -121q0 -53 20 -94h-524zM799 459q-69 -11 -100 -49t-31 -86t40 -73q41 -26 128 -26q116 0 203 27q89 28 143 83q55 56 73 175q-44 -12 -337 -39zM1296 1245l-106 156l-172 -156h-516
l377 295h733l256 -295h-572z" />
    <glyph glyph-name="atilde" unicode="&#xe3;" 
d="M1186 0l-4 41q0 27 8 70q-107 -81 -247 -118q-144 -38 -345 -38q-254 0 -375 69t-121 216q0 109 57 211t190 162q136 61 370 73l444 23q75 5 109 31q35 27 35 75q0 45 -56 69q-53 23 -161 23q-131 0 -196 -34q-67 -35 -89 -93h-512q69 166 168 240q98 73 256 109
q157 36 457 36q350 0 499 -75q152 -77 152 -250q0 -64 -15 -125l-104 -500q-16 -80 -16 -121q0 -53 20 -94h-524zM799 459q-69 -11 -100 -49t-31 -86t40 -73q41 -26 128 -26q116 0 203 27q89 28 143 83q55 56 73 175q-44 -12 -337 -39zM1808 1534q-68 -157 -161 -237
q-97 -83 -213 -83q-60 0 -290 50q-226 49 -276 49q-32 0 -54 -17q-24 -19 -40 -43h-217q72 150 171 234t224 84q54 0 283 -49q218 -49 258 -49q30 0 53 13q24 14 45 48h217z" />
    <glyph glyph-name="adieresis" unicode="&#xe4;" 
d="M1186 0l-4 41q0 27 8 70q-107 -81 -247 -118q-144 -38 -345 -38q-254 0 -375 69t-121 216q0 109 57 211t190 162q136 61 370 73l444 23q75 5 109 31q35 27 35 75q0 45 -56 69q-53 23 -161 23q-131 0 -196 -34q-67 -35 -89 -93h-512q69 166 168 240q98 73 256 109
q157 36 457 36q350 0 499 -75q152 -77 152 -250q0 -64 -15 -125l-104 -500q-16 -80 -16 -121q0 -53 20 -94h-524zM799 459q-69 -11 -100 -49t-31 -86t40 -73q41 -26 128 -26q116 0 203 27q89 28 143 83q55 56 73 175q-44 -12 -337 -39zM578 1257l53 271h495l-55 -271h-493z
M1231 1257l55 271h496l-56 -271h-495z" />
    <glyph glyph-name="aring" unicode="&#xe5;" 
d="M1186 0l-4 41q0 27 8 70q-107 -81 -247 -118q-144 -38 -345 -38q-254 0 -375 69t-121 216q0 109 57 211t190 162q136 61 370 73l444 23q75 5 109 31q35 27 35 75q0 45 -56 69q-53 23 -161 23q-131 0 -196 -34q-67 -35 -89 -93h-512q69 166 168 240q98 73 256 109
q157 36 457 36q350 0 499 -75q152 -77 152 -250q0 -64 -15 -125l-104 -500q-16 -80 -16 -121q0 -53 20 -94h-524zM799 459q-69 -11 -100 -49t-31 -86t40 -73q41 -26 128 -26q116 0 203 27q89 28 143 83q55 56 73 175q-44 -12 -337 -39zM915 1442q0 134 104 232
q105 99 249 100q98 0 162 -56q63 -56 63 -159q0 -118 -95 -221q-94 -101 -243 -101q-115 0 -177 59q-63 60 -63 146zM1079 1477q0 -40 27 -67q28 -28 74 -28q57 0 104 44t47 104q0 40 -27 69t-73 29q-59 0 -105 -46q-47 -47 -47 -105z" />
    <glyph glyph-name="ae" unicode="&#xe6;" horiz-adv-x="2387" 
d="M1493 444l-2 -41q0 -85 54 -125q53 -40 147 -40q86 0 129 22q40 21 86 76h485q-109 -198 -291 -289q-184 -92 -446 -92q-160 0 -262 36q-103 36 -164 115q-74 -64 -239 -107q-167 -44 -345 -44q-286 0 -414 68q-127 67 -127 215q0 179 119 292t369 134l420 28
q72 4 110 31q39 27 39 82q0 42 -42 60t-144 18q-188 0 -215 -113h-484q60 194 246 295q185 100 518 100q168 0 265 -26q100 -27 153 -80q88 52 187 79q101 27 233 27q286 -1 431 -122t145 -345q0 -68 -12 -132q-20 -110 -23 -122h-926zM2005 678l2 29q0 70 -50 123t-142 53
q-87 0 -166 -56q-80 -57 -109 -149h465zM743 451q-58 -4 -96 -36q-37 -31 -37 -87q0 -54 48 -75q50 -22 126 -22q87 0 157 32q68 31 112 86q42 52 57 153q-49 -25 -111 -31z" />
    <glyph glyph-name="ccedilla" unicode="&#xe7;" 
d="M1325 670q2 20 2 28q0 70 -61 109t-185 39q-175 0 -275 -106q-99 -105 -99 -246q0 -102 66 -155q65 -52 190 -52q129 0 206 46q79 47 117 140h537q-52 -167 -163 -279q-111 -113 -268 -172q-162 -61 -477 -67l-41 -51q26 8 101 8q79 0 129 -35q49 -34 49 -98
q0 -110 -90 -170t-254 -60q-56 0 -162 9q-86 7 -149 32l53 111q81 -23 154 -23q65 0 89 21q23 20 23 47q0 39 -61 39q-32 0 -76 -18l-45 45l127 147q-310 23 -455 135t-145 320q0 142 64 300t200 261t323 146q190 44 396 44q250 0 404 -46q157 -47 236 -142t79 -258
q0 -29 -2 -49h-537z" />
    <glyph glyph-name="egrave" unicode="&#xe8;" 
d="M676 440l-2 -24q0 -82 72 -130t198 -48q114 0 177 25q64 25 110 73h545q-102 -186 -325 -284q-221 -97 -554 -97q-187 0 -322 30q-137 30 -229 89q-184 118 -184 346q0 188 99 361q100 174 318 279q217 105 525 105q370 0 546 -127q177 -128 177 -383q0 -87 -25 -215
h-1126zM1339 698l2 25q0 79 -69 126q-68 46 -199 46q-130 0 -216 -46q-88 -47 -128 -151h610zM907 1245l-252 295h621l125 -295h-494z" />
    <glyph glyph-name="eacute" unicode="&#xe9;" 
d="M676 440l-2 -24q0 -82 72 -130t198 -48q114 0 177 25q64 25 110 73h545q-102 -186 -325 -284q-221 -97 -554 -97q-187 0 -322 30q-137 30 -229 89q-184 118 -184 346q0 188 99 361q100 174 318 279q217 105 525 105q370 0 546 -127q177 -128 177 -383q0 -87 -25 -215
h-1126zM1339 698l2 25q0 79 -69 126q-68 46 -199 46q-130 0 -216 -46q-88 -47 -128 -151h610zM1356 1245h-494l248 295h621z" />
    <glyph glyph-name="ecircumflex" unicode="&#xea;" 
d="M676 440l-2 -24q0 -82 72 -130t198 -48q114 0 177 25q64 25 110 73h545q-102 -186 -325 -284q-221 -97 -554 -97q-187 0 -322 30q-137 30 -229 89q-184 118 -184 346q0 188 99 361q100 174 318 279q217 105 525 105q370 0 546 -127q177 -128 177 -383q0 -87 -25 -215
h-1126zM1339 698l2 25q0 79 -69 126q-68 46 -199 46q-130 0 -216 -46q-88 -47 -128 -151h610zM1268 1245l-107 156l-172 -156h-516l377 295h733l256 -295h-571z" />
    <glyph glyph-name="edieresis" unicode="&#xeb;" 
d="M676 440l-2 -24q0 -82 72 -130t198 -48q114 0 177 25q64 25 110 73h545q-102 -186 -325 -284q-221 -97 -554 -97q-187 0 -322 30q-137 30 -229 89q-184 118 -184 346q0 188 99 361q100 174 318 279q217 105 525 105q370 0 546 -127q177 -128 177 -383q0 -87 -25 -215
h-1126zM1339 698l2 25q0 79 -69 126q-68 46 -199 46q-130 0 -216 -46q-88 -47 -128 -151h610zM575 1257l54 271h495l-55 -271h-494zM1229 1257l55 271h496l-56 -271h-495z" />
    <glyph glyph-name="igrave" unicode="&#xec;" horiz-adv-x="757" 
d="M123 0l231 1120h512l-231 -1120h-512zM375 1245l-252 295h620l125 -295h-493z" />
    <glyph glyph-name="iacute" unicode="&#xed;" horiz-adv-x="757" 
d="M123 0l231 1120h512l-231 -1120h-512zM864 1245h-493l247 295h621z" />
    <glyph glyph-name="icircumflex" unicode="&#xee;" horiz-adv-x="757" 
d="M123 0l231 1120h512l-231 -1120h-512zM762 1245l-107 156l-172 -156h-516l377 295h733l256 -295h-571z" />
    <glyph glyph-name="idieresis" unicode="&#xef;" horiz-adv-x="757" 
d="M123 0l231 1120h512l-231 -1120h-512zM49 1257l53 271h496l-55 -271h-494zM702 1257l56 271h495l-55 -271h-496z" />
    <glyph glyph-name="eth" unicode="&#xf0;" 
d="M1321 918q-46 93 -121 158q-81 70 -180 118l-332 -137l-110 127l229 96q-15 5 -107 31q-38 11 -110 26l311 265q219 -34 408 -115l290 119l158 -107l-262 -108q187 -128 275 -285q90 -160 90 -344q0 -158 -64 -333q-63 -173 -186 -276q-125 -105 -300 -151
q-179 -47 -429 -47q-377 0 -554 101q-180 103 -180 306q0 56 20 144q20 89 58 160t98 133q56 57 136 102q193 113 504 113q122 0 211 -25q84 -24 141 -76zM1030 682q-139 0 -238 -67q-98 -66 -98 -164q0 -74 68 -119t188 -45q155 0 245 68q91 69 91 157q0 78 -65 124
t-191 46z" />
    <glyph glyph-name="ntilde" unicode="&#xf1;" horiz-adv-x="1703" 
d="M1069 0l111 537q16 71 16 116q0 61 -42 95q-41 34 -120 34q-232 0 -295 -280l-104 -502h-512l231 1120h496l-29 -139h4q79 76 215 123t283 47q202 0 310 -84t108 -238q0 -57 -10 -106l-150 -723h-512zM1765 1534q-68 -157 -161 -237q-97 -83 -213 -83q-60 0 -290 50
q-226 49 -276 49q-32 0 -54 -17q-24 -19 -40 -43h-217q72 150 171 234t224 84q54 0 283 -49q218 -49 258 -49q30 0 53 13q24 14 45 48h217z" />
    <glyph glyph-name="ograve" unicode="&#xf2;" 
d="M158 399q0 154 68 321q69 169 199 265q131 96 308 138q179 42 400 42q371 0 545 -107q175 -108 175 -333q0 -192 -93 -384q-93 -191 -309 -289q-215 -97 -570 -97q-377 0 -549 107q-174 108 -174 337zM1061 834q-118 0 -197 -44q-78 -44 -119 -133q-40 -87 -40 -176
q0 -101 58 -147q59 -47 187 -47q194 0 277 108q82 107 82 254q0 91 -60 138q-61 47 -188 47zM922 1245l-252 295h620l125 -295h-493z" />
    <glyph glyph-name="oacute" unicode="&#xf3;" 
d="M158 399q0 154 68 321q69 169 199 265q131 96 308 138q179 42 400 42q371 0 545 -107q175 -108 175 -333q0 -192 -93 -384q-93 -191 -309 -289q-215 -97 -570 -97q-377 0 -549 107q-174 108 -174 337zM1061 834q-118 0 -197 -44q-78 -44 -119 -133q-40 -87 -40 -176
q0 -101 58 -147q59 -47 187 -47q194 0 277 108q82 107 82 254q0 91 -60 138q-61 47 -188 47zM1384 1245h-493l248 295h620z" />
    <glyph glyph-name="ocircumflex" unicode="&#xf4;" 
d="M158 399q0 154 68 321q69 169 199 265q131 96 308 138q179 42 400 42q371 0 545 -107q175 -108 175 -333q0 -192 -93 -384q-93 -191 -309 -289q-215 -97 -570 -97q-377 0 -549 107q-174 108 -174 337zM1061 834q-118 0 -197 -44q-78 -44 -119 -133q-40 -87 -40 -176
q0 -101 58 -147q59 -47 187 -47q194 0 277 108q82 107 82 254q0 91 -60 138q-61 47 -188 47zM1290 1245l-106 156l-172 -156h-516l376 295h734l256 -295h-572z" />
    <glyph glyph-name="otilde" unicode="&#xf5;" 
d="M158 399q0 154 68 321q69 169 199 265q131 96 308 138q179 42 400 42q371 0 545 -107q175 -108 175 -333q0 -192 -93 -384q-93 -191 -309 -289q-215 -97 -570 -97q-377 0 -549 107q-174 108 -174 337zM1061 834q-118 0 -197 -44q-78 -44 -119 -133q-40 -87 -40 -176
q0 -101 58 -147q59 -47 187 -47q194 0 277 108q82 107 82 254q0 91 -60 138q-61 47 -188 47zM1804 1534q-67 -155 -162 -237q-97 -83 -212 -83q-60 0 -290 50q-226 49 -276 49q-32 0 -54 -17q-24 -19 -40 -43h-217q72 150 171 234t224 84q54 0 283 -49q218 -49 258 -49
q30 0 53 13q24 14 45 48h217z" />
    <glyph glyph-name="odieresis" unicode="&#xf6;" 
d="M158 399q0 154 68 321q69 169 199 265q131 96 308 138q179 42 400 42q371 0 545 -107q175 -108 175 -333q0 -192 -93 -384q-93 -191 -309 -289q-215 -97 -570 -97q-377 0 -549 107q-174 108 -174 337zM1061 834q-118 0 -197 -44q-78 -44 -119 -133q-40 -87 -40 -176
q0 -101 58 -147q59 -47 187 -47q194 0 277 108q82 107 82 254q0 91 -60 138q-61 47 -188 47zM578 1257l53 271h495l-55 -271h-493zM1231 1257l55 271h496l-56 -271h-495z" />
    <glyph glyph-name="divide" unicode="&#xf7;" horiz-adv-x="1228" 
d="M592 915q2 99 84 180t180 81q75 0 126 -49q50 -48 50 -121q0 -100 -81 -180t-183 -81q-77 0 -127 50q-49 49 -49 120zM172 371l61 295h1037l-62 -295h-1036zM410 33q1 98 82 179q79 79 182 79q76 0 125 -48t49 -120q0 -101 -80 -181t-184 -81q-78 0 -126 48t-48 124z" />
    <glyph glyph-name="oslash" unicode="&#xf8;" 
d="M1780 967q73 -95 73 -244q0 -117 -37 -250q-37 -134 -127 -242q-87 -105 -214 -166t-273 -85q-153 -25 -321 -25q-366 0 -539 106l-236 -149l-61 121l188 121q-73 98 -73 249q0 195 93 378t305 284q210 100 575 100q362 0 536 -104l232 147l67 -123zM1243 791
q-24 17 -75 31q-43 12 -107 12q-177 0 -265 -100q-86 -98 -91 -257q0 -16 2 -24zM770 332q27 -21 73 -34q40 -11 107 -11q116 0 195 40q81 41 121 130q42 92 43 184q0 19 -2 29z" />
    <glyph glyph-name="ugrave" unicode="&#xf9;" horiz-adv-x="1703" 
d="M1085 0l25 125h-4q-82 -78 -218 -124q-135 -46 -280 -46q-207 0 -313 86q-105 85 -105 240q0 53 15 122l149 717h512l-123 -594q-8 -32 -8 -65q0 -137 162 -137q126 0 197 67q71 66 98 201l108 528h512l-231 -1120h-496zM868 1245l-252 295h621l125 -295h-494z" />
    <glyph glyph-name="uacute" unicode="&#xfa;" horiz-adv-x="1703" 
d="M1085 0l25 125h-4q-82 -78 -218 -124q-135 -46 -280 -46q-207 0 -313 86q-105 85 -105 240q0 53 15 122l149 717h512l-123 -594q-8 -32 -8 -65q0 -137 162 -137q126 0 197 67q71 66 98 201l108 528h512l-231 -1120h-496zM1337 1245h-493l248 295h620z" />
    <glyph glyph-name="ucircumflex" unicode="&#xfb;" horiz-adv-x="1703" 
d="M1085 0l25 125h-4q-82 -78 -218 -124q-135 -46 -280 -46q-207 0 -313 86q-105 85 -105 240q0 53 15 122l149 717h512l-123 -594q-8 -32 -8 -65q0 -137 162 -137q126 0 197 67q71 66 98 201l108 528h512l-231 -1120h-496zM1249 1245l-106 156l-172 -156h-516l376 295h734
l256 -295h-572z" />
    <glyph glyph-name="udieresis" unicode="&#xfc;" horiz-adv-x="1703" 
d="M1085 0l25 125h-4q-82 -78 -218 -124q-135 -46 -280 -46q-207 0 -313 86q-105 85 -105 240q0 53 15 122l149 717h512l-123 -594q-8 -32 -8 -65q0 -137 162 -137q126 0 197 67q71 66 98 201l108 528h512l-231 -1120h-496zM535 1257l53 271h495l-55 -271h-493zM1188 1257
l55 271h496l-56 -271h-495z" />
    <glyph glyph-name="yacute" unicode="&#xfd;" horiz-adv-x="1478" 
d="M860 -176q-91 -132 -178 -178q-89 -47 -279 -47q-97 0 -206 7q-130 8 -148 11l68 332q95 -6 135 -6q65 0 95 5q26 4 54 26t58 67l35 49l-308 1030h537l129 -575l367 575h536zM1214 1245h-493l248 295h620z" />
    <glyph glyph-name="thorn" unicode="&#xfe;" 
d="M39 -401l397 1914h512l-108 -520h4q164 158 477 158q244 0 386 -118t142 -328q0 -217 -100 -387t-280 -267q-179 -96 -398 -96q-308 0 -409 158h-5l-106 -514h-512zM1079 807q-92 0 -173 -36t-123 -118q-42 -83 -42 -174q0 -180 244 -180q103 0 183 49q82 50 116 126
q35 78 35 144q0 95 -62 142t-178 47z" />
    <glyph glyph-name="ydieresis" unicode="&#xff;" horiz-adv-x="1478" 
d="M860 -176q-91 -132 -178 -178q-89 -47 -279 -47q-97 0 -206 7q-130 8 -148 11l68 332q95 -6 135 -6q65 0 95 5q26 4 54 26t58 67l35 49l-308 1030h537l129 -575l367 575h536zM412 1257l53 271h496l-56 -271h-493zM1065 1257l55 271h496l-55 -271h-496z" />
    <glyph glyph-name="Amacron" unicode="&#x100;" horiz-adv-x="1818" 
d="M1272 0l-27 168h-602l-96 -168h-615l926 1462h709l319 -1462h-614zM1122 1020h-4l-274 -496h348zM629 1606l65 270h1168l-68 -270h-1165z" />
    <glyph glyph-name="amacron" unicode="&#x101;" 
d="M1186 0l-4 41q0 27 8 70q-107 -81 -247 -118q-144 -38 -345 -38q-254 0 -375 69t-121 216q0 109 57 211t190 162q136 61 370 73l444 23q75 5 109 31q35 27 35 75q0 45 -56 69q-53 23 -161 23q-131 0 -196 -34q-67 -35 -89 -93h-512q69 166 168 240q98 73 256 109
q157 36 457 36q350 0 499 -75q152 -77 152 -250q0 -64 -15 -125l-104 -500q-16 -80 -16 -121q0 -53 20 -94h-524zM799 459q-69 -11 -100 -49t-31 -86t40 -73q41 -26 128 -26q116 0 203 27q89 28 143 83q55 56 73 175q-44 -12 -337 -39zM565 1257l66 271h1167l-67 -271h-1166
z" />
    <glyph glyph-name="Abreve" unicode="&#x102;" horiz-adv-x="1818" 
d="M1272 0l-27 168h-602l-96 -168h-615l926 1462h709l319 -1462h-614zM1122 1020h-4l-274 -496h348zM1761 1903q-72 -183 -199 -252q-129 -70 -358 -70q-241 0 -336 77q-94 76 -94 234v11h270q5 -52 45 -70q41 -18 160 -18q101 0 155 18q53 18 87 70h270z" />
    <glyph glyph-name="abreve" unicode="&#x103;" 
d="M1186 0l-4 41q0 27 8 70q-107 -81 -247 -118q-144 -38 -345 -38q-254 0 -375 69t-121 216q0 109 57 211t190 162q136 61 370 73l444 23q75 5 109 31q35 27 35 75q0 45 -56 69q-53 23 -161 23q-131 0 -196 -34q-67 -35 -89 -93h-512q69 166 168 240q98 73 256 109
q157 36 457 36q350 0 499 -75q152 -77 152 -250q0 -64 -15 -125l-104 -500q-16 -80 -16 -121q0 -53 20 -94h-524zM799 459q-69 -11 -100 -49t-31 -86t40 -73q41 -26 128 -26q116 0 203 27q89 28 143 83q55 56 73 175q-44 -12 -337 -39zM1675 1554q-73 -182 -199 -251
q-128 -70 -358 -70q-241 0 -336 77q-94 76 -94 234v10h270q4 -51 47 -69q44 -19 158 -19q102 0 157 19q52 18 85 69h270z" />
    <glyph glyph-name="Aogonek" unicode="&#x104;" horiz-adv-x="1818" 
d="M1534 0q-120 -90 -161 -145q-42 -57 -42 -99q0 -28 20 -45q19 -16 54 -16q61 0 151 24l-12 -122q-163 -48 -321 -48q-114 0 -173 38t-59 108q0 75 64 148t217 157l-27 168h-602l-96 -168h-615l926 1462h709l319 -1462h-352zM1122 1020h-4l-274 -496h348z" />
    <glyph glyph-name="aogonek" unicode="&#x105;" 
d="M1458 -403q-163 -48 -321 -48q-114 0 -173 38t-59 108q0 75 64 148t217 157q-3 21 -4 45q1 24 8 66q-107 -81 -247 -118q-144 -38 -345 -38q-254 0 -375 69t-121 216q0 91 35 170q33 75 103 137q139 123 479 139l432 21q79 5 117 28q39 24 39 80q0 45 -57 69
q-55 23 -160 23q-126 0 -193 -33q-68 -33 -92 -94h-512q79 211 261 298t620 87q346 0 497 -74q154 -75 154 -251q0 -28 -3 -58q-2 -18 -12 -65l-104 -508q-16 -83 -16 -115q0 -28 5 -51q4 -20 15 -43h-262q-96 -64 -149 -129q-54 -66 -54 -113q0 -28 20 -46q18 -17 54 -17
q61 0 151 24zM799 459q-69 -11 -101 -49t-32 -86q0 -47 41 -73t129 -26q116 0 203 27q89 28 143 83q55 56 73 175q-42 -8 -109 -17q-48 -6 -222 -22q-64 -4 -125 -12z" />
    <glyph glyph-name="Cacute" unicode="&#x106;" horiz-adv-x="2086" 
d="M1556 889v20q0 115 -67 175q-69 61 -189 61q-176 0 -288 -88q-114 -90 -157 -234q-44 -147 -44 -235q0 -135 74 -203t215 -68q140 0 235 62q94 61 154 190h651q-124 -332 -376 -477q-249 -143 -713 -143q-276 0 -427 40q-155 41 -243 104q-91 65 -140 169
q-51 108 -51 254q0 90 27 223q27 134 85 253q60 124 134 206q78 87 167 144q95 61 204 97q115 38 257 56q144 18 310 18q288 0 463 -54q174 -54 274 -176q99 -121 99 -329q0 -3 -0.5 -11.5t-1 -24t-0.5 -29.5h-652zM1642 1593h-493l248 295h620z" />
    <glyph glyph-name="cacute" unicode="&#x107;" 
d="M1325 670q0 4 2 28q0 71 -59 109q-60 39 -187 39q-184 0 -279 -107t-95 -245q0 -102 66 -155q65 -52 190 -52q129 0 206 46q79 47 117 140h537q-89 -271 -313 -395q-222 -123 -615 -123q-187 0 -324 29q-135 28 -227 86q-182 113 -182 344q0 179 91 357q93 181 307 285
q215 104 585 109q250 0 404 -46q158 -47 236 -143q79 -97 79 -255q0 -31 -2 -51h-537zM1417 1245h-493l247 295h621z" />
    <glyph glyph-name="Ccircumflex" unicode="&#x108;" horiz-adv-x="2086" 
d="M1556 889v20q0 115 -67 175q-69 61 -189 61q-176 0 -288 -88q-114 -90 -157 -234q-44 -147 -44 -235q0 -135 74 -203t215 -68q140 0 235 62q94 61 154 190h651q-124 -332 -376 -477q-249 -143 -713 -143q-276 0 -427 40q-155 41 -243 104q-91 65 -140 169
q-51 108 -51 254q0 90 27 223q27 134 85 253q60 124 134 206q78 87 167 144q95 61 204 97q115 38 257 56q144 18 310 18q288 0 463 -54q174 -54 274 -176q99 -121 99 -329q0 -3 -0.5 -11.5t-1 -24t-0.5 -29.5h-652zM1509 1593l-106 156l-172 -156h-516l377 295h733l256 -295
h-572z" />
    <glyph glyph-name="ccircumflex" unicode="&#x109;" 
d="M1325 670q0 4 2 28q0 71 -59 109q-60 39 -187 39q-184 0 -279 -107t-95 -245q0 -102 66 -155q65 -52 190 -52q129 0 206 46q79 47 117 140h537q-89 -271 -313 -395q-222 -123 -615 -123q-187 0 -324 29q-135 28 -227 86q-182 113 -182 344q0 179 91 357q93 181 307 285
q215 104 585 109q250 0 404 -46q158 -47 236 -143q79 -97 79 -255q0 -31 -2 -51h-537zM1300 1245l-106 156l-172 -156h-516l377 295h733l256 -295h-572z" />
    <glyph glyph-name="Cdotaccent" unicode="&#x10a;" horiz-adv-x="2086" 
d="M1556 889v20q0 115 -67 175q-69 61 -189 61q-176 0 -288 -88q-114 -90 -157 -234q-44 -147 -44 -235q0 -135 74 -203t215 -68q140 0 235 62q94 61 154 190h651q-124 -332 -376 -477q-249 -143 -713 -143q-276 0 -427 40q-155 41 -243 104q-91 65 -140 169
q-51 108 -51 254q0 90 27 223q27 134 85 253q60 124 134 206q78 87 167 144q95 61 204 97q115 38 257 56q144 18 310 18q288 0 463 -54q174 -54 274 -176q99 -121 99 -329q0 -3 -0.5 -11.5t-1 -24t-0.5 -29.5h-652zM1126 1606l56 270h495l-55 -270h-496z" />
    <glyph glyph-name="cdotaccent" unicode="&#x10b;" 
d="M1325 670q0 4 2 28q0 71 -59 109q-60 39 -187 39q-184 0 -279 -107t-95 -245q0 -102 66 -155q65 -52 190 -52q129 0 206 46q79 47 117 140h537q-89 -271 -313 -395q-222 -123 -615 -123q-187 0 -324 29q-135 28 -227 86q-182 113 -182 344q0 179 91 357q93 181 307 285
q215 104 585 109q250 0 404 -46q158 -47 236 -143q79 -97 79 -255q0 -31 -2 -51h-537zM907 1257l56 271h495l-55 -271h-496z" />
    <glyph glyph-name="Ccaron" unicode="&#x10c;" horiz-adv-x="2086" 
d="M1556 889v20q0 115 -67 175q-69 61 -189 61q-176 0 -288 -88q-114 -90 -157 -234q-44 -147 -44 -235q0 -135 74 -203t215 -68q140 0 235 62q94 61 154 190h651q-124 -332 -376 -477q-249 -143 -713 -143q-276 0 -427 40q-155 41 -243 104q-91 65 -140 169
q-51 108 -51 254q0 90 27 223q27 134 85 253q60 124 134 206q78 87 167 144q95 61 204 97q115 38 257 56q144 18 310 18q288 0 463 -54q174 -54 274 -176q99 -121 99 -329q0 -3 -0.5 -11.5t-1 -24t-0.5 -29.5h-652zM1726 1593h-733l-254 295h570l108 -155l170 155h518z" />
    <glyph glyph-name="ccaron" unicode="&#x10d;" 
d="M1325 670q0 4 2 28q0 71 -59 109q-60 39 -187 39q-184 0 -279 -107t-95 -245q0 -102 66 -155q65 -52 190 -52q129 0 206 46q79 47 117 140h537q-89 -271 -313 -395q-222 -123 -615 -123q-187 0 -324 29q-135 28 -227 86q-182 113 -182 344q0 179 91 357q93 181 307 285
q215 104 585 109q250 0 404 -46q158 -47 236 -143q79 -97 79 -255q0 -31 -2 -51h-537zM1503 1245h-733l-254 295h569l109 -156l170 156h518z" />
    <glyph glyph-name="Dcaron" unicode="&#x10e;" horiz-adv-x="2086" 
d="M141 0l303 1462h1137q160 0 273 -28q114 -28 192 -86q156 -117 156 -369q0 -114 -25 -241q-23 -118 -74 -244q-201 -494 -813 -494h-1149zM1135 369q230 0 339 139t111 338q0 248 -299 248h-340l-151 -725h340zM1626 1593h-733l-254 295h569l109 -155l170 155h518z" />
    <glyph glyph-name="dcaron" unicode="&#x10f;" horiz-adv-x="2224" 
d="M1163 0l25 119h-4q-92 -86 -211 -125t-285 -39q-241 0 -385 120q-143 119 -143 324q0 191 92 367t275 281q181 104 409 104q311 0 412 -158h4l108 520h512l-313 -1513h-496zM1028 807q-150 0 -243 -93t-93 -231q0 -184 236 -184q93 0 159 27t106 73q40 45 58 113
q19 70 19 113q0 182 -242 182zM2003 1182l129 331h485l-241 -331h-373z" />
    <glyph glyph-name="Dcroat" unicode="&#x110;" horiz-adv-x="2086" 
d="M141 0l129 623h-141l53 258h142l120 581h1149q302 0 455 -123q154 -124 154 -374q0 -229 -101 -473t-303 -368t-508 -124h-1149zM848 623l-53 -254h340q139 0 238 54t156 172q56 116 56 251q0 127 -75 187q-76 61 -224 61h-340l-45 -213h371l-53 -258h-371z" />
    <glyph glyph-name="dcroat" unicode="&#x111;" horiz-adv-x="1921" 
d="M1163 0l25 119h-4q-92 -86 -211 -125t-285 -39q-246 0 -387 120t-141 322q0 195 92 371q92 177 275 280q182 103 409 103q310 0 412 -158h4l37 183h-283l53 208h275l26 129h512l-26 -129h247l-45 -208h-245l-244 -1176h-496zM1028 807q-159 0 -247 -98q-89 -100 -89 -226
q0 -88 60 -136t176 -48q176 0 259 95t83 231q0 96 -63 139q-62 43 -179 43z" />
    <glyph glyph-name="Emacron" unicode="&#x112;" horiz-adv-x="1744" 
d="M141 0l303 1462h1555l-74 -356h-977l-41 -197h908l-74 -356h-907l-41 -197h976l-73 -356h-1555zM645 1606l66 270h1167l-68 -270h-1165z" />
    <glyph glyph-name="emacron" unicode="&#x113;" 
d="M676 440l-2 -24q0 -82 72 -130t198 -48q114 0 177 25q64 25 110 73h545q-102 -186 -325 -284q-221 -97 -554 -97q-187 0 -322 30q-137 30 -229 89q-184 118 -184 346q0 188 99 361q100 174 318 279q217 105 525 105q370 0 546 -127q177 -128 177 -383q0 -87 -25 -215
h-1126zM1339 698l2 25q0 79 -69 126q-68 46 -199 46q-130 0 -216 -46q-88 -47 -128 -151h610zM553 1257l65 271h1168l-68 -271h-1165z" />
    <glyph glyph-name="Ebreve" unicode="&#x114;" horiz-adv-x="1744" 
d="M141 0l303 1462h1555l-74 -356h-977l-41 -197h908l-74 -356h-907l-41 -197h976l-73 -356h-1555zM1749 1903q-72 -183 -200 -252q-129 -70 -357 -70q-241 0 -336 77q-94 76 -94 234v11h270q5 -53 44 -70q40 -18 161 -18q101 0 155 18q53 18 87 70h270z" />
    <glyph glyph-name="ebreve" unicode="&#x115;" 
d="M676 440l-2 -24q0 -82 72 -130t198 -48q114 0 177 25q64 25 110 73h545q-102 -186 -325 -284q-221 -97 -554 -97q-187 0 -322 30q-137 30 -229 89q-184 118 -184 346q0 188 99 361q100 174 318 279q217 105 525 105q370 0 546 -127q177 -128 177 -383q0 -87 -25 -215
h-1126zM1339 698l2 25q0 79 -69 126q-68 46 -199 46q-130 0 -216 -46q-88 -47 -128 -151h610zM1659 1554q-73 -181 -200 -251q-128 -70 -357 -70q-241 0 -336 77q-94 76 -94 234v10h270q5 -51 46 -69q44 -19 159 -19q102 0 157 19q52 18 85 69h270z" />
    <glyph glyph-name="Edotaccent" unicode="&#x116;" horiz-adv-x="1744" 
d="M141 0l303 1462h1555l-74 -356h-977l-41 -197h908l-74 -356h-907l-41 -197h976l-73 -356h-1555zM977 1606l55 270h496l-55 -270h-496z" />
    <glyph glyph-name="edotaccent" unicode="&#x117;" 
d="M676 440l-2 -24q0 -82 72 -130t198 -48q114 0 177 25q64 25 110 73h545q-102 -186 -325 -284q-221 -97 -554 -97q-187 0 -322 30q-137 30 -229 89q-184 118 -184 346q0 188 99 361q100 174 318 279q217 105 525 105q370 0 546 -127q177 -128 177 -383q0 -87 -25 -215
h-1126zM1339 698l2 25q0 79 -69 126q-68 46 -199 46q-130 0 -216 -46q-88 -47 -128 -151h610zM872 1257l56 271h495l-55 -271h-496z" />
    <glyph glyph-name="Eogonek" unicode="&#x118;" horiz-adv-x="1744" 
d="M1616 -403q-164 -48 -324 -48q-112 0 -171 38q-58 37 -58 108q0 87 82 159q84 73 262 146h-1266l303 1462h1555l-74 -356h-977l-41 -197h908l-74 -356h-907l-41 -197h976l-73 -356h-60q-141 -99 -189 -150q-44 -47 -44 -94q0 -29 19 -45t55 -16q61 0 151 24z" />
    <glyph glyph-name="eogonek" unicode="&#x119;" 
d="M1096 -403q-164 -48 -324 -48q-112 0 -171 38q-58 37 -58 108q0 62 43 120q44 59 202 144q-302 15 -465 130t-163 329q0 192 104 367q105 177 321 279q214 101 519 101q369 0 546 -126t177 -382q0 -89 -25 -217h-1126l-2 -24q0 -82 72 -130t198 -48q114 0 177 25
q64 25 110 73h545q-85 -159 -264 -254q-176 -94 -449 -121l-53 -41q-53 -39 -91 -83q-36 -42 -36 -81q0 -28 18 -45q17 -16 53 -16q64 0 154 24zM1339 698l2 25q0 79 -69 126q-68 46 -199 46t-215 -45t-129 -152h610z" />
    <glyph glyph-name="Ecaron" unicode="&#x11a;" horiz-adv-x="1744" 
d="M141 0l303 1462h1555l-74 -356h-977l-41 -197h908l-74 -356h-907l-41 -197h976l-73 -356h-1555zM1563 1593h-734l-254 295h570l108 -155l170 155h519z" />
    <glyph glyph-name="ecaron" unicode="&#x11b;" 
d="M676 440l-2 -24q0 -82 72 -130t198 -48q114 0 177 25q64 25 110 73h545q-102 -186 -325 -284q-221 -97 -554 -97q-187 0 -322 30q-137 30 -229 89q-184 118 -184 346q0 188 99 361q100 174 318 279q217 105 525 105q370 0 546 -127q177 -128 177 -383q0 -87 -25 -215
h-1126zM1339 698l2 25q0 79 -69 126q-68 46 -199 46q-130 0 -216 -46q-88 -47 -128 -151h610zM1462 1245h-733l-254 295h569l109 -156l170 156h518z" />
    <glyph glyph-name="Gcircumflex" unicode="&#x11c;" horiz-adv-x="2125" 
d="M1755 0l-39 133q-152 -112 -317 -148q-163 -36 -389 -36q-417 0 -618 144q-202 145 -202 427q0 185 75 383q75 199 222 335q147 137 366 206q217 69 480 69q450 0 663 -117q216 -118 216 -376q0 -37 -2 -59h-651q0 91 -64 138q-62 46 -207 46q-163 0 -273 -77t-161 -212
t-51 -252q0 -287 358 -287q128 0 218 44t143 141h-238l70 332h821l-172 -834h-248zM1499 1593l-106 156l-172 -156h-516l376 295h734l256 -295h-572z" />
    <glyph glyph-name="gcircumflex" unicode="&#x11d;" horiz-adv-x="1818" 
d="M1223 190q-92 -69 -211 -95q-116 -25 -256 -25q-291 0 -437 103q-147 103 -147 300t102 351q103 155 289 241q187 86 416 86q157 0 262 -43q108 -44 164 -115l27 127h495l-213 -1034q-52 -261 -265 -383q-211 -121 -622 -121q-295 0 -436 36q-140 36 -217 116
q-76 79 -76 215v26h566q0 -62 54 -86t159 -24q152 0 224 51q73 52 97 160zM717 553q2 -176 252 -176q165 0 254 76q90 77 90 198q0 81 -66 124q-67 44 -188 44q-122 0 -201 -44q-78 -43 -109 -103q-32 -61 -32 -119zM1311 1245l-107 156l-172 -156h-516l377 295h733
l256 -295h-571z" />
    <glyph glyph-name="Gbreve" unicode="&#x11e;" horiz-adv-x="2125" 
d="M1755 0l-39 133q-152 -112 -317 -148q-163 -36 -389 -36q-417 0 -618 144q-202 145 -202 427q0 185 75 383q75 199 222 335q147 137 366 206q217 69 480 69q450 0 663 -117q216 -118 216 -376q0 -37 -2 -59h-651q0 91 -64 138q-62 46 -207 46q-163 0 -273 -77t-161 -212
t-51 -252q0 -287 358 -287q128 0 218 44t143 141h-238l70 332h821l-172 -834h-248zM1905 1903q-72 -183 -200 -252q-129 -70 -357 -70q-241 0 -336 77q-94 76 -94 234v11h270q5 -53 44 -70q41 -18 161 -18q100 0 154 18q53 18 87 70h271z" />
    <glyph glyph-name="gbreve" unicode="&#x11f;" horiz-adv-x="1818" 
d="M1223 190q-92 -69 -211 -95q-116 -25 -256 -25q-291 0 -437 103q-147 103 -147 300t102 351q103 155 289 241q187 86 416 86q157 0 262 -43q108 -44 164 -115l27 127h495l-213 -1034q-52 -261 -265 -383q-211 -121 -622 -121q-295 0 -436 36q-140 36 -217 116
q-76 79 -76 215v26h566q0 -62 54 -86t159 -24q152 0 224 51q73 52 97 160zM717 553q2 -176 252 -176q165 0 254 76q90 77 90 198q0 81 -66 124q-67 44 -188 44q-122 0 -201 -44q-78 -43 -109 -103q-32 -61 -32 -119zM1675 1554q-73 -182 -199 -251q-128 -70 -358 -70
q-241 0 -336 77q-94 76 -94 234v10h270q4 -51 47 -69q44 -19 158 -19q102 0 157 19q52 18 85 69h270z" />
    <glyph glyph-name="Gdotaccent" unicode="&#x120;" horiz-adv-x="2125" 
d="M1755 0l-39 133q-152 -112 -317 -148q-163 -36 -389 -36q-417 0 -618 144q-202 145 -202 427q0 185 75 383q75 199 222 335q147 137 366 206q217 69 480 69q450 0 663 -117q216 -118 216 -376q0 -37 -2 -59h-651q0 91 -64 138q-62 46 -207 46q-163 0 -273 -77t-161 -212
t-51 -252q0 -287 358 -287q128 0 218 44t143 141h-238l70 332h821l-172 -834h-248zM1114 1606l55 270h496l-55 -270h-496z" />
    <glyph glyph-name="gdotaccent" unicode="&#x121;" horiz-adv-x="1818" 
d="M1223 190q-92 -69 -211 -95q-116 -25 -256 -25q-291 0 -437 103q-147 103 -147 300t102 351q103 155 289 241q187 86 416 86q157 0 262 -43q108 -44 164 -115l27 127h495l-213 -1034q-52 -261 -265 -383q-211 -121 -622 -121q-295 0 -436 36q-140 36 -217 116
q-76 79 -76 215v26h566q0 -62 54 -86t159 -24q152 0 224 51q73 52 97 160zM717 553q2 -176 252 -176q165 0 254 76q90 77 90 198q0 81 -66 124q-67 44 -188 44q-122 0 -201 -44q-78 -43 -109 -103q-32 -61 -32 -119zM870 1257l56 271h495l-55 -271h-496z" />
    <glyph glyph-name="Gcommaaccent" unicode="&#x122;" horiz-adv-x="2125" 
d="M1755 0l-39 133q-152 -112 -317 -148q-163 -36 -389 -36q-417 0 -618 144q-202 145 -202 427q0 185 75 383q75 199 222 335q147 137 366 206q217 69 480 69q450 0 663 -117q216 -118 216 -376q0 -37 -2 -59h-651q0 91 -64 138q-62 46 -207 46q-163 0 -273 -77t-161 -212
t-51 -252q0 -287 358 -287q128 0 218 44t143 141h-238l70 332h821l-172 -834h-248zM1217 -248q-27 -131 -110 -182t-308 -51l20 98q60 5 92 16q32 12 54 43h-217l45 222h454z" />
    <glyph glyph-name="gcommaaccent" unicode="&#x123;" horiz-adv-x="1818" 
d="M1223 190q-92 -69 -211 -95q-116 -25 -256 -25q-291 0 -437 103q-147 103 -147 300t102 351q103 155 289 241q187 86 416 86q157 0 262 -43q108 -44 164 -115l27 127h495l-213 -1034q-52 -261 -265 -383q-211 -121 -622 -121q-295 0 -436 36q-140 36 -217 116
q-76 79 -76 215v26h566q0 -62 54 -86t159 -24q152 0 224 51q73 52 97 160zM717 553q2 -176 252 -176q165 0 254 76q90 77 90 198q0 81 -66 124q-67 44 -188 44q-122 0 -201 -44q-78 -43 -109 -103q-32 -61 -32 -119zM942 1292l31 146q22 88 57 135q38 50 112 72
q71 21 249 26l-21 -98q-59 -5 -88 -15q-34 -12 -55 -45h215l-45 -221h-455z" />
    <glyph glyph-name="Hcircumflex" unicode="&#x124;" horiz-adv-x="2086" 
d="M1368 0l121 584h-649l-121 -584h-578l303 1462h578l-107 -510h650l106 510h578l-303 -1462h-578zM1497 1593l-106 156l-172 -156h-517l377 295h733l256 -295h-571z" />
    <glyph glyph-name="hcircumflex" unicode="&#x125;" horiz-adv-x="1703" 
d="M1069 0l111 537q16 67 16 110q0 133 -162 135q-109 0 -186 -68q-79 -70 -109 -210l-104 -504h-512l313 1513h512l-110 -532h4q70 74 201 122q132 48 280 48q207 -1 313 -86q105 -84 105 -236q0 -43 -12 -116l-148 -713h-512zM1253 1593l-106 156l-172 -156h-516l377 295
h733l256 -295h-572z" />
    <glyph glyph-name="Hbar" unicode="&#x126;" horiz-adv-x="2086" 
d="M1368 0l115 553h-649l-115 -553h-578l303 1462h578l-47 -233h649l47 233h578l-303 -1462h-578zM1581 1020h-649l-29 -139h649z" />
    <glyph glyph-name="hbar" unicode="&#x127;" horiz-adv-x="1843" 
d="M1208 0l111 535q16 67 16 116q0 66 -43 99q-42 32 -118 32q-112 0 -188 -69t-105 -203l-107 -510h-512l244 1176h-250l53 208h240l26 129h512l-26 -129h282l-45 -208h-282l-39 -195h4q77 80 208 125q132 45 273 45q202 0 311 -83q107 -82 107 -239q0 -27 -3 -57
q-4 -36 -7 -53l-150 -719h-512z" />
    <glyph glyph-name="Itilde" unicode="&#x128;" horiz-adv-x="872" 
d="M147 0l304 1462h577l-303 -1462h-578zM1417 1882q-66 -154 -162 -236q-97 -83 -213 -83q-63 0 -289 49t-276 49q-34 0 -54 -16q-24 -19 -40 -43h-217q71 148 171 233q99 84 224 84q60 0 283 -49q226 -49 258 -49q30 0 53 13q24 14 45 48h217z" />
    <glyph glyph-name="itilde" unicode="&#x129;" horiz-adv-x="757" 
d="M123 0l231 1120h512l-231 -1120h-512zM1270 1534q-67 -155 -162 -237q-97 -83 -213 -83q-60 0 -290 50q-226 49 -275 49q-33 0 -55 -17t-39 -43h-218q72 150 171 234t225 84q53 0 282 -49q218 -49 258 -49q31 0 54 13q24 14 45 48h217z" />
    <glyph glyph-name="Imacron" unicode="&#x12a;" horiz-adv-x="872" 
d="M147 0l304 1462h577l-303 -1462h-578zM152 1606l65 270h1167l-67 -270h-1165z" />
    <glyph glyph-name="imacron" unicode="&#x12b;" horiz-adv-x="757" 
d="M123 0l231 1120h512l-231 -1120h-512zM16 1257l66 271h1167l-67 -271h-1166z" />
    <glyph glyph-name="Ibreve" unicode="&#x12c;" horiz-adv-x="872" 
d="M147 0l304 1462h577l-303 -1462h-578zM1325 1903q-72 -183 -200 -252q-129 -70 -357 -70q-241 0 -336 77q-94 76 -94 234v11h270q5 -53 44 -70q41 -18 161 -18q101 0 155 18q53 18 87 70h270z" />
    <glyph glyph-name="ibreve" unicode="&#x12d;" horiz-adv-x="757" 
d="M123 0l231 1120h512l-231 -1120h-512zM1194 1554q-73 -181 -200 -251q-128 -70 -357 -70q-241 0 -336 77q-94 76 -94 234v10h270q5 -51 46 -69q44 -19 159 -19q102 0 157 19q52 18 85 69h270z" />
    <glyph glyph-name="Iogonek" unicode="&#x12e;" horiz-adv-x="872" 
d="M639 -403q-163 -48 -324 -48q-109 0 -170 38q-59 37 -59 108q0 87 82 159q84 73 262 146h-283l304 1462h577l-303 -1462h-66q-139 -97 -188 -151q-45 -49 -45 -91q0 -31 19 -47t55 -16q61 0 151 24z" />
    <glyph glyph-name="iogonek" unicode="&#x12f;" horiz-adv-x="757" 
d="M377 1231l59 282h512l-59 -282h-512zM557 -403q-156 -48 -313 -48q-108 0 -166 38t-58 106q0 93 83 165q84 74 251 142h-231l231 1120h512l-231 -1120h-60q-137 -102 -180 -148q-45 -48 -45 -96q0 -25 19 -44q17 -17 53 -17q28 0 66 6q40 6 79 18z" />
    <glyph glyph-name="Idotaccent" unicode="&#x130;" horiz-adv-x="872" 
d="M147 0l304 1462h577l-303 -1462h-578zM508 1606l55 270h496l-55 -270h-496z" />
    <glyph glyph-name="dotlessi" unicode="&#x131;" horiz-adv-x="757" 
d="M123 0l231 1120h512l-231 -1120h-512z" />
    <glyph glyph-name="Jcircumflex" unicode="&#x134;" horiz-adv-x="1630" 
d="M1243 1462h578l-185 -887q-56 -259 -153 -381q-100 -125 -268 -185q-169 -60 -431 -60t-397 40q-138 41 -208 130t-70 250q0 97 30 243h578q-18 -85 -21 -105q-8 -51 -8 -77q0 -59 30 -92t107 -33q98 0 150 56q54 57 76 167zM1679 1593l-106 156l-172 -156h-516l377 295
h733l256 -295h-572z" />
    <glyph glyph-name="jcircumflex" unicode="&#x135;" horiz-adv-x="796" 
d="M-57 -33h49q64 0 100 4q42 5 60 35q17 28 28 88l213 1026h512l-229 -1106q-35 -165 -94 -251t-154 -125t-289 -39q-179 0 -270 12zM795 1245l-107 156l-172 -156h-516l377 295h733l256 -295h-571z" />
    <glyph glyph-name="Kcommaaccent" unicode="&#x136;" horiz-adv-x="2009" 
d="M1309 0l-285 561l-225 -168l-80 -393h-578l303 1462h578l-107 -516l644 516h765l-770 -565l523 -897h-768zM1202 -248q-27 -131 -109 -182q-83 -51 -309 -51l21 98q60 5 92 16q31 11 53 43h-217l45 222h455z" />
    <glyph glyph-name="kcommaaccent" unicode="&#x137;" horiz-adv-x="1703" 
d="M1061 0l-189 377l-188 -131l-49 -246h-512l313 1513h512l-157 -755l462 362h680l-596 -418l416 -702h-692zM1051 -248q-27 -131 -110 -182q-82 -51 -308 -51l20 98q60 5 92 16q32 12 54 43h-217l45 222h454z" />
    <glyph glyph-name="kgreenlandic" unicode="&#x138;" horiz-adv-x="1703" 
d="M1061 0l-189 377l-188 -131l-49 -246h-512l231 1120h512l-75 -362l462 362h680l-596 -418l416 -702h-692z" />
    <glyph glyph-name="Lacute" unicode="&#x139;" horiz-adv-x="1630" 
d="M141 0l303 1462h578l-223 -1069h895l-80 -393h-1473zM993 1593h-493l248 295h620z" />
    <glyph glyph-name="lacute" unicode="&#x13a;" horiz-adv-x="757" 
d="M123 0l313 1513h512l-313 -1513h-512zM940 1593h-494l248 295h621z" />
    <glyph glyph-name="Lcommaaccent" unicode="&#x13b;" horiz-adv-x="1630" 
d="M141 0l303 1462h578l-223 -1069h895l-80 -393h-1473zM1083 -248q-27 -131 -109 -182q-83 -51 -308 -51l20 98q60 5 92 16q31 11 53 43h-217l45 222h455z" />
    <glyph glyph-name="lcommaaccent" unicode="&#x13c;" horiz-adv-x="757" 
d="M123 0l313 1513h512l-313 -1513h-512zM567 -248q-27 -131 -109 -182t-308 -51l20 98q60 5 92 16q31 11 53 43h-217l45 222h455z" />
    <glyph glyph-name="Lcaron" unicode="&#x13d;" horiz-adv-x="1630" 
d="M141 0l303 1462h578l-223 -1069h895l-80 -393h-1473zM1155 1182l129 331h485l-241 -331h-373z" />
    <glyph glyph-name="lcaron" unicode="&#x13e;" horiz-adv-x="1200" 
d="M123 0l313 1513h512l-313 -1513h-512zM979 1182l129 331h485l-241 -331h-373z" />
    <glyph glyph-name="Ldot" unicode="&#x13f;" horiz-adv-x="1630" 
d="M141 0l303 1462h578l-223 -1069h895l-80 -393h-1473zM1087 731l80 389h330l-80 -389h-330z" />
    <glyph glyph-name="ldot" unicode="&#x140;" horiz-adv-x="1189" 
d="M123 0l313 1513h512l-313 -1513h-512zM973 725l82 395h315l-82 -395h-315z" />
    <glyph glyph-name="Lslash" unicode="&#x141;" horiz-adv-x="1630" 
d="M141 0l80 391l-155 -84l67 332l158 84l153 739h578l-88 -420l385 203l-70 -332l-383 -202l-67 -318h895l-80 -393h-1473z" />
    <glyph glyph-name="lslash" unicode="&#x142;" horiz-adv-x="757" 
d="M123 0l96 469l-139 -76l65 307l138 76l153 737h512l-90 -436l139 76l-65 -307l-137 -76l-160 -770h-512z" />
    <glyph glyph-name="Nacute" unicode="&#x143;" horiz-adv-x="2086" 
d="M1313 0l-445 819h-4l-170 -819h-553l303 1462h660l418 -811h6l168 811h553l-303 -1462h-633zM1604 1593h-494l248 295h620z" />
    <glyph glyph-name="nacute" unicode="&#x144;" horiz-adv-x="1703" 
d="M1069 0l111 537q16 71 16 116q0 61 -42 95q-41 34 -120 34q-232 0 -295 -280l-104 -502h-512l231 1120h496l-29 -139h4q79 76 215 123t283 47q202 0 310 -84t108 -238q0 -57 -10 -106l-150 -723h-512zM1321 1245h-494l248 295h621z" />
    <glyph glyph-name="Ncommaaccent" unicode="&#x145;" horiz-adv-x="2086" 
d="M1313 0l-445 819h-4l-170 -819h-553l303 1462h660l418 -811h6l168 811h553l-303 -1462h-633zM1239 -248q-27 -131 -110 -182q-82 -51 -308 -51l21 98q60 5 92 16q31 11 53 43h-217l45 222h455z" />
    <glyph glyph-name="ncommaaccent" unicode="&#x146;" horiz-adv-x="1703" 
d="M1069 0l111 537q16 71 16 116q0 61 -42 95q-41 34 -120 34q-232 0 -295 -280l-104 -502h-512l231 1120h496l-29 -139h4q79 76 215 123t283 47q202 0 310 -84t108 -238q0 -57 -10 -106l-150 -723h-512zM1036 -248q-27 -131 -109 -182q-83 -51 -309 -51l21 98q60 5 92 16
q31 11 53 43h-217l45 222h455z" />
    <glyph glyph-name="Ncaron" unicode="&#x147;" horiz-adv-x="2086" 
d="M1313 0l-445 819h-4l-170 -819h-553l303 1462h660l418 -811h6l168 811h553l-303 -1462h-633zM1710 1593h-733l-254 295h569l109 -155l170 155h518z" />
    <glyph glyph-name="ncaron" unicode="&#x148;" horiz-adv-x="1703" 
d="M1069 0l111 537q16 71 16 116q0 61 -42 95q-41 34 -120 34q-232 0 -295 -280l-104 -502h-512l231 1120h496l-29 -139h4q79 76 215 123t283 47q202 0 310 -84t108 -238q0 -57 -10 -106l-150 -723h-512zM1442 1245h-733l-254 295h569l109 -156l170 156h518z" />
    <glyph glyph-name="Eng" unicode="&#x14a;" horiz-adv-x="2086" 
d="M1141 -68q99 0 148 18q52 19 73 50h-49l-445 819h-4l-170 -819h-553l303 1462h660l418 -811h6l168 811h553l-277 -1329q-57 -279 -254 -416t-565 -137q-46 0 -84 2z" />
    <glyph glyph-name="eng" unicode="&#x14b;" horiz-adv-x="1703" 
d="M803 -420l71 342q99 0 147 42t69 136l96 465q10 57 10 88q0 64 -44 97q-42 32 -118 32q-112 0 -190 -72t-101 -184l-108 -526h-512l231 1120h496l-29 -139h4q84 80 222 125q137 45 276 45q204 0 311 -86t107 -236q0 -57 -10 -106l-132 -633q-52 -261 -234 -386
q-181 -124 -501 -124h-61z" />
    <glyph glyph-name="Omacron" unicode="&#x14c;" horiz-adv-x="2125" 
d="M190 516q0 213 88 424q88 210 227 330q140 120 341 182q199 61 555 61q451 0 644 -145t193 -424q-1 -214 -88 -425q-85 -208 -228 -328q-141 -119 -344 -181q-199 -61 -527 -61q-478 0 -669 143q-192 144 -192 424zM1298 1145q-117 0 -201 -37q-85 -38 -132 -90
q-47 -53 -79 -120q-30 -63 -52 -143q-22 -78 -23 -165q0 -273 317 -273q259 0 374 178q114 177 114 373q0 277 -318 277zM803 1606l65 270h1168l-68 -270h-1165z" />
    <glyph glyph-name="omacron" unicode="&#x14d;" 
d="M158 399q0 154 68 321q69 169 199 265q131 96 308 138q179 42 400 42q371 0 545 -107q175 -108 175 -333q0 -192 -93 -384q-93 -191 -309 -289q-215 -97 -570 -97q-377 0 -549 107q-174 108 -174 337zM1061 834q-118 0 -197 -44q-78 -44 -119 -133q-40 -87 -40 -176
q0 -101 58 -147q59 -47 187 -47q194 0 277 108q82 107 82 254q0 91 -60 138q-61 47 -188 47zM561 1257l66 271h1167l-68 -271h-1165z" />
    <glyph glyph-name="Obreve" unicode="&#x14e;" horiz-adv-x="2125" 
d="M190 516q0 213 88 424q88 210 227 330q140 120 341 182q199 61 555 61q451 0 644 -145t193 -424q-1 -214 -88 -425q-85 -208 -228 -328q-141 -119 -344 -181q-199 -61 -527 -61q-478 0 -669 143q-192 144 -192 424zM1298 1145q-117 0 -201 -37q-85 -38 -132 -90
q-47 -53 -79 -120q-30 -63 -52 -143q-22 -78 -23 -165q0 -273 317 -273q259 0 374 178q114 177 114 373q0 277 -318 277zM1911 1903q-72 -183 -200 -252q-129 -70 -357 -70q-241 0 -336 77q-94 76 -94 234v11h270q5 -53 44 -70q40 -18 161 -18q100 0 154 18q53 18 87 70h271
z" />
    <glyph glyph-name="obreve" unicode="&#x14f;" 
d="M158 399q0 154 68 321q69 169 199 265q131 96 308 138q179 42 400 42q371 0 545 -107q175 -108 175 -333q0 -192 -93 -384q-93 -191 -309 -289q-215 -97 -570 -97q-377 0 -549 107q-174 108 -174 337zM1061 834q-118 0 -197 -44q-78 -44 -119 -133q-40 -87 -40 -176
q0 -101 58 -147q59 -47 187 -47q194 0 277 108q82 107 82 254q0 91 -60 138q-61 47 -188 47zM1665 1554q-73 -181 -200 -251q-128 -70 -357 -70q-241 0 -336 77q-94 76 -94 234v10h270q5 -51 46 -69q44 -19 159 -19q102 0 157 19q52 18 85 69h270z" />
    <glyph glyph-name="Ohungarumlaut" unicode="&#x150;" horiz-adv-x="2125" 
d="M190 516q0 213 88 424q88 210 227 330q140 120 341 182q199 61 555 61q451 0 644 -145t193 -424q-1 -214 -88 -425q-85 -208 -228 -328q-141 -119 -344 -181q-199 -61 -527 -61q-478 0 -669 143q-192 144 -192 424zM1298 1145q-117 0 -201 -37q-85 -38 -132 -90
q-47 -53 -79 -120q-30 -63 -52 -143q-22 -78 -23 -165q0 -273 317 -273q259 0 374 178q114 177 114 373q0 277 -318 277zM1266 1593h-492l246 295h620zM2003 1593h-494l248 295h621z" />
    <glyph glyph-name="ohungarumlaut" unicode="&#x151;" 
d="M158 399q0 154 68 321q69 169 199 265q131 96 308 138q179 42 400 42q371 0 545 -107q175 -108 175 -333q0 -192 -93 -384q-93 -191 -309 -289q-215 -97 -570 -97q-377 0 -549 107q-174 108 -174 337zM1061 834q-118 0 -197 -44q-78 -44 -119 -133q-40 -87 -40 -176
q0 -101 58 -147q59 -47 187 -47q194 0 277 108q82 107 82 254q0 91 -60 138q-61 47 -188 47zM1022 1245h-492l246 295h621zM1759 1245h-493l247 295h621z" />
    <glyph glyph-name="OE" unicode="&#x152;" horiz-adv-x="2387" 
d="M1159 0l17 84q-76 -60 -186 -98q-107 -37 -242 -37q-265 0 -413 136q-149 137 -149 394q0 231 101 489t305 401q206 144 479 144q135 0 228 -37q96 -38 143 -102l18 88h1172l-74 -356h-676l-41 -197h649l-73 -356h-650l-41 -197h687l-74 -356h-1180zM1331 838
q10 46 14 71q5 33 5 47q0 86 -55 138q-54 51 -142 51q-123 0 -207 -78q-85 -79 -131 -246q-47 -170 -47 -272q0 -111 53 -172q54 -60 162 -60q104 0 188 70q82 69 111 205z" />
    <glyph glyph-name="oe" unicode="&#x153;" horiz-adv-x="2387" 
d="M1493 444q0 -2 -0.5 -6.5t-1 -13t-0.5 -16.5q0 -86 51 -128t150 -42q68 0 115 16q50 17 100 82h485q-99 -185 -279 -283t-458 -98q-161 0 -262 37q-103 38 -164 115q-89 -72 -210 -111q-126 -41 -282 -41q-283 0 -430 117t-147 329q0 185 92 375q91 189 280 289
q188 100 459 100q158 0 257 -32t175 -97q102 73 213 101t242 28q286 -1 431 -122t145 -345q0 -70 -12 -133q-3 -14 -7.5 -39t-8 -45t-7.5 -37h-926zM2005 678l2 27q0 79 -53 129q-52 49 -139 49t-166 -56q-80 -57 -109 -149h465zM963 846q-91 0 -161 -51t-108 -158
q-37 -105 -37 -186q0 -83 49 -130t140 -47q96 0 161 50t102 147q38 100 38 188q0 90 -47 139q-46 48 -137 48z" />
    <glyph glyph-name="Racute" unicode="&#x154;" horiz-adv-x="1970" 
d="M1309 0q-6 15 -6 39q0 23 6 67l24 168q6 39 6 56q0 64 -30 92q-31 29 -84 29h-414l-92 -451h-578l303 1462h1252q260 0 347 -89t87 -232q-2 -147 -88 -270q-85 -121 -215 -150l-2 -4q121 -39 121 -180q0 -13 -7 -72l-30 -244q-6 -72 -6 -108q0 -34 13 -67q14 -36 23 -46
h-630zM946 1094l-57 -275h420q95 0 138 49q44 50 44 129q0 54 -37 75q-39 22 -98 22h-410zM1483 1593h-494l248 295h621z" />
    <glyph glyph-name="racute" unicode="&#x155;" horiz-adv-x="1290" 
d="M123 0l231 1120h496l-45 -215h4q132 132 262 189t266 57q82 0 166 -12l-94 -459l-86 20q-79 21 -162 21q-179 0 -294 -76q-116 -77 -146 -227l-86 -418h-512zM1051 1245h-494l248 295h620z" />
    <glyph glyph-name="Rcommaaccent" unicode="&#x156;" horiz-adv-x="1970" 
d="M1309 0q-6 15 -6 39q0 23 6 67l24 168q6 39 6 56q0 64 -30 92q-31 29 -84 29h-414l-92 -451h-578l303 1462h1252q260 0 347 -89t87 -232q-2 -147 -88 -270q-85 -121 -215 -150l-2 -4q121 -39 121 -180q0 -13 -7 -72l-30 -244q-6 -72 -6 -108q0 -34 13 -67q14 -36 23 -46
h-630zM946 1094l-57 -275h420q95 0 138 49q44 50 44 129q0 54 -37 75q-39 22 -98 22h-410zM1212 -248q-27 -131 -109 -182t-308 -51l20 98q60 5 92 16q32 12 54 43h-218l45 222h455z" />
    <glyph glyph-name="rcommaaccent" unicode="&#x157;" horiz-adv-x="1290" 
d="M123 0l231 1120h496l-45 -215h4q132 132 262 189t266 57q82 0 166 -12l-94 -459l-86 20q-79 21 -162 21q-179 0 -294 -76q-116 -77 -146 -227l-86 -418h-512zM567 -248q-27 -131 -109 -182t-308 -51l20 98q60 5 92 16q31 11 53 43h-217l45 222h455z" />
    <glyph glyph-name="Rcaron" unicode="&#x158;" horiz-adv-x="1970" 
d="M1309 0q-6 15 -6 39q0 23 6 67l24 168q6 39 6 56q0 64 -30 92q-31 29 -84 29h-414l-92 -451h-578l303 1462h1252q260 0 347 -89t87 -232q-2 -147 -88 -270q-85 -121 -215 -150l-2 -4q121 -39 121 -180q0 -13 -7 -72l-30 -244q-6 -72 -6 -108q0 -34 13 -67q14 -36 23 -46
h-630zM946 1094l-57 -275h420q95 0 138 49q44 50 44 129q0 54 -37 75q-39 22 -98 22h-410zM1597 1593h-733l-254 295h570l108 -155l170 155h518z" />
    <glyph glyph-name="rcaron" unicode="&#x159;" horiz-adv-x="1290" 
d="M123 0l231 1120h496l-45 -215h4q132 132 262 189t266 57q82 0 166 -12l-94 -459l-86 20q-79 21 -162 21q-179 0 -294 -76q-116 -77 -146 -227l-86 -418h-512zM1257 1245h-733l-254 295h570l108 -156l170 156h518z" />
    <glyph glyph-name="Sacute" unicode="&#x15a;" horiz-adv-x="1970" 
d="M1397 1034q4 7 4 31q0 53 -66 85q-67 32 -178 32q-132 0 -192 -33t-60 -90q0 -29 17 -41q17 -13 45 -17l669 -102q193 -30 292 -116q100 -86 100 -222q0 -164 -106 -312q-105 -146 -339 -223q-236 -77 -614 -77q-227 0 -389 24q-161 24 -258 74q-195 102 -195 293
q0 44 12 100h697v-32q0 -55 53 -79t176 -24q133 0 195 34q63 35 63 101q0 67 -92 82l-619 96q-175 27 -258 107q-82 79 -82 211q0 141 85 277q86 137 289 218q203 80 583 82q210 0 369 -24q155 -23 260 -72q215 -99 215 -315q0 -18 -5 -68h-671zM1483 1593h-494l248 295h621
z" />
    <glyph glyph-name="sacute" unicode="&#x15b;" horiz-adv-x="1669" 
d="M1149 784q2 8 2 19q0 43 -47 61q-49 19 -125 19q-109 0 -155 -24t-46 -62q0 -29 33 -42q35 -14 100 -20l467 -41q151 -12 237 -73q87 -61 87 -179q0 -142 -84 -257q-84 -116 -278 -173t-521 -57q-374 0 -539 75t-165 251q0 17 6 67h602v-12q0 -62 49 -80q50 -18 137 -18
q97 0 143 25t46 79q0 23 -14 35q-13 11 -48 16l-475 49q-176 18 -254 78t-78 160q0 249 206 368q203 117 630 117q341 0 505 -81q163 -81 163 -236q0 -17 -7 -64h-577zM1282 1245h-494l248 295h621z" />
    <glyph glyph-name="Scircumflex" unicode="&#x15c;" horiz-adv-x="1970" 
d="M1397 1034q4 7 4 31q0 53 -66 85q-67 32 -178 32q-132 0 -192 -33t-60 -90q0 -29 17 -41q17 -13 45 -17l669 -102q193 -30 292 -116q100 -86 100 -222q0 -164 -106 -312q-105 -146 -339 -223q-236 -77 -614 -77q-227 0 -389 24q-161 24 -258 74q-195 102 -195 293
q0 44 12 100h697v-32q0 -55 53 -79t176 -24q133 0 195 34q63 35 63 101q0 67 -92 82l-619 96q-175 27 -258 107q-82 79 -82 211q0 141 85 277q86 137 289 218q203 80 583 82q210 0 369 -24q155 -23 260 -72q215 -99 215 -315q0 -18 -5 -68h-671zM1378 1593l-106 156
l-172 -156h-516l377 295h733l256 -295h-572z" />
    <glyph glyph-name="scircumflex" unicode="&#x15d;" horiz-adv-x="1669" 
d="M1149 784q2 8 2 19q0 43 -47 61q-49 19 -125 19q-109 0 -155 -24t-46 -62q0 -29 33 -42q35 -14 100 -20l467 -41q151 -12 237 -73q87 -61 87 -179q0 -142 -84 -257q-84 -116 -278 -173t-521 -57q-374 0 -539 75t-165 251q0 17 6 67h602v-12q0 -62 49 -80q50 -18 137 -18
q97 0 143 25t46 79q0 23 -14 35q-13 11 -48 16l-475 49q-176 18 -254 78t-78 160q0 249 206 368q203 117 630 117q341 0 505 -81q163 -81 163 -236q0 -17 -7 -64h-577zM1204 1245l-106 156l-172 -156h-516l376 295h734l256 -295h-572z" />
    <glyph glyph-name="Scedilla" unicode="&#x15e;" horiz-adv-x="1970" 
d="M1028 -96q32 8 98 8q82 0 131 -37q50 -38 50 -98q0 -48 -28 -104q-27 -55 -103 -89q-78 -35 -218 -35q-64 0 -156 10q-86 9 -151 31l54 111q80 -23 151 -23q65 0 90 20t25 48q0 39 -64 39q-34 0 -73 -16l-46 43l117 137q-415 5 -595 104q-181 100 -181 287q0 50 10 100
h697l-2 -26q0 -55 51 -82t180 -27q133 0 195 34q63 35 63 101q0 67 -92 82l-619 97q-176 27 -258 106t-82 211q0 142 86 279t295 218q206 80 576 80q210 0 369 -24q155 -23 260 -72q215 -99 215 -315q0 -23 -5 -68h-671q4 7 4 31q0 53 -66 85q-67 32 -178 32
q-131 0 -191 -33q-61 -34 -61 -90q0 -29 17 -41q17 -13 45 -17l669 -102q193 -30 292 -116q100 -86 100 -222q0 -166 -110 -314q-109 -146 -319 -217q-212 -72 -534 -79z" />
    <glyph glyph-name="scedilla" unicode="&#x15f;" horiz-adv-x="1669" 
d="M860 -96q24 4 51 6q36 2 50 2q81 0 130 -36q50 -36 50 -99q0 -55 -33 -108q-32 -51 -109 -86q-75 -34 -192 -34q-80 0 -172 10q-86 9 -152 31l54 111q80 -23 153 -23q65 0 89 21t24 47q0 15 -16 28q-14 11 -46 11q-14 0 -32 -3q-21 -4 -43 -13l-45 43l122 143
q-322 7 -477 81q-151 72 -151 245q0 22 6 67h602v-12q0 -60 46 -79q45 -19 140 -19q106 0 147 28q42 28 42 76q0 22 -13 35q-11 11 -47 16l-471 49q-176 18 -257 78t-81 158q0 254 207 371q205 116 629 116q338 0 503 -81t165 -236q0 -17 -7 -64h-577q2 10 2 19q0 43 -47 61
q-49 19 -125 19q-111 0 -156 -24t-45 -62q0 -28 32 -42q33 -14 99 -20l477 -43q152 -15 233 -74q83 -60 83 -176q0 -140 -79 -253t-253 -170q-171 -56 -469 -62z" />
    <glyph glyph-name="Scaron" unicode="&#x160;" horiz-adv-x="1970" 
d="M1397 1034q4 7 4 31q0 53 -66 85q-67 32 -178 32q-132 0 -192 -33t-60 -90q0 -29 17 -41q17 -13 45 -17l669 -102q193 -30 292 -116q100 -86 100 -222q0 -164 -106 -312q-105 -146 -339 -223q-236 -77 -614 -77q-227 0 -389 24q-161 24 -258 74q-195 102 -195 293
q0 44 12 100h697v-32q0 -55 53 -79t176 -24q133 0 195 34q63 35 63 101q0 67 -92 82l-619 96q-175 27 -258 107q-82 79 -82 211q0 141 85 277q86 137 289 218q203 80 583 82q210 0 369 -24q155 -23 260 -72q215 -99 215 -315q0 -18 -5 -68h-671zM1579 1593h-733l-254 295
h569l109 -155l170 155h518z" />
    <glyph glyph-name="scaron" unicode="&#x161;" horiz-adv-x="1669" 
d="M1149 784q2 8 2 19q0 43 -47 61q-49 19 -125 19q-109 0 -155 -24t-46 -62q0 -29 33 -42q35 -14 100 -20l467 -41q151 -12 237 -73q87 -61 87 -179q0 -142 -84 -257q-84 -116 -278 -173t-521 -57q-374 0 -539 75t-165 251q0 17 6 67h602v-12q0 -62 49 -80q50 -18 137 -18
q97 0 143 25t46 79q0 23 -14 35q-13 11 -48 16l-475 49q-176 18 -254 78t-78 160q0 249 206 368q203 117 630 117q341 0 505 -81q163 -81 163 -236q0 -17 -7 -64h-577zM1405 1245h-733l-254 295h569l109 -156l170 156h518z" />
    <glyph glyph-name="Tcommaaccent" unicode="&#x162;" horiz-adv-x="1630" 
d="M526 0l228 1094h-535l76 368h1647l-76 -368h-535l-227 -1094h-578zM1004 -248q-27 -131 -110 -182q-82 -51 -308 -51l20 98q60 5 92 16q32 12 54 43h-217l45 222h454z" />
    <glyph glyph-name="tcommaaccent" unicode="&#x163;" horiz-adv-x="1099" 
d="M1059 0q-54 -8 -162 -17q-101 -8 -215 -8q-158 0 -226 20q-69 20 -108 65q-41 47 -41 130q0 67 19 148l96 463h-238l66 319h237l76 361h512l-76 -361h277l-66 -319h-276l-78 -379q-10 -53 -10 -64q0 -34 24 -49q22 -14 86 -14q109 0 164 4zM883 -248q-27 -131 -110 -182
t-308 -51l20 98q62 5 93 16t53 43h-217l45 222h454z" />
    <glyph glyph-name="Tcaron" unicode="&#x164;" horiz-adv-x="1630" 
d="M526 0l228 1094h-535l76 368h1647l-76 -368h-535l-227 -1094h-578zM1458 1593h-733l-254 295h569l109 -155l170 155h518z" />
    <glyph glyph-name="tcaron" unicode="&#x165;" horiz-adv-x="1480" 
d="M1059 0q-54 -8 -162 -17q-101 -8 -215 -8q-158 0 -226 20q-69 20 -108 65q-41 47 -41 130q0 67 19 148l96 463h-238l66 319h237l76 361h512l-76 -361h277l-66 -319h-276l-78 -379q-10 -53 -10 -64q0 -34 24 -49q22 -14 86 -14q109 0 164 4zM1264 1182l129 331h485
l-242 -331h-372z" />
    <glyph glyph-name="Tbar" unicode="&#x166;" horiz-adv-x="1630" 
d="M526 0l138 664h-297l45 208h295l47 222h-535l76 368h1647l-76 -368h-535l-47 -222h295l-47 -208h-291l-137 -664h-578z" />
    <glyph glyph-name="tbar" unicode="&#x167;" horiz-adv-x="1099" 
d="M1059 0q-54 -8 -162 -17q-101 -8 -215 -8q-154 0 -225 20q-70 20 -110 66t-40 129q0 74 47 285h-262l45 209h260l29 137h-238l62 299h237l76 361h512l-76 -361h277l-62 -299h-276l-29 -137h299l-47 -209h-295q-15 -65 -20 -117q0 -39 27 -51t73 -12q109 0 174 4z" />
    <glyph glyph-name="Utilde" unicode="&#x168;" horiz-adv-x="1970" 
d="M1585 1462h578l-189 -907q-46 -229 -168 -361q-122 -133 -315 -189q-192 -56 -518 -56q-277 0 -434 39t-246 134q-88 94 -88 257q0 83 18 168l191 915h577l-178 -856q-14 -64 -14 -104q0 -86 58 -129t196 -43q159 0 241 60q83 60 107 188zM1974 1882q-66 -154 -162 -236
q-97 -83 -213 -83q-63 0 -289 49t-276 49q-34 0 -54 -16q-24 -19 -40 -43h-217q71 148 171 233q99 84 224 84q60 0 283 -49q226 -49 258 -49q30 0 53 13q24 14 45 48h217z" />
    <glyph glyph-name="utilde" unicode="&#x169;" horiz-adv-x="1703" 
d="M1085 0l25 125h-4q-82 -78 -218 -124q-135 -46 -280 -46q-207 0 -313 86q-105 85 -105 240q0 53 15 122l149 717h512l-123 -594q-8 -32 -8 -65q0 -137 162 -137q126 0 197 67q71 66 98 201l108 528h512l-231 -1120h-496zM1765 1534q-68 -157 -161 -237q-97 -83 -213 -83
q-60 0 -290 50q-226 49 -276 49q-32 0 -54 -17q-24 -19 -40 -43h-217q72 150 171 234t224 84q54 0 283 -49q218 -49 258 -49q30 0 53 13q24 14 45 48h217z" />
    <glyph glyph-name="Umacron" unicode="&#x16a;" horiz-adv-x="1970" 
d="M1585 1462h578l-189 -907q-46 -229 -168 -361q-122 -133 -315 -189q-192 -56 -518 -56q-277 0 -434 39t-246 134q-88 94 -88 257q0 83 18 168l191 915h577l-178 -856q-14 -64 -14 -104q0 -86 58 -129t196 -43q159 0 241 60q83 60 107 188zM721 1606l65 270h1168l-68 -270
h-1165z" />
    <glyph glyph-name="umacron" unicode="&#x16b;" horiz-adv-x="1703" 
d="M1085 0l25 125h-4q-82 -78 -218 -124q-135 -46 -280 -46q-207 0 -313 86q-105 85 -105 240q0 53 15 122l149 717h512l-123 -594q-8 -32 -8 -65q0 -137 162 -137q126 0 197 67q71 66 98 201l108 528h512l-231 -1120h-496zM520 1257l66 271h1167l-67 -271h-1166z" />
    <glyph glyph-name="Ubreve" unicode="&#x16c;" horiz-adv-x="1970" 
d="M1585 1462h578l-189 -907q-46 -229 -168 -361q-122 -133 -315 -189q-192 -56 -518 -56q-277 0 -434 39t-246 134q-88 94 -88 257q0 83 18 168l191 915h577l-178 -856q-14 -64 -14 -104q0 -86 58 -129t196 -43q159 0 241 60q83 60 107 188zM1843 1903q-72 -183 -199 -252
q-129 -70 -358 -70q-241 0 -336 77q-94 76 -94 234v11h270q5 -53 44 -70q40 -18 161 -18q101 0 155 18q53 18 87 70h270z" />
    <glyph glyph-name="ubreve" unicode="&#x16d;" horiz-adv-x="1703" 
d="M1085 0l25 125h-4q-82 -78 -218 -124q-135 -46 -280 -46q-207 0 -313 86q-105 85 -105 240q0 53 15 122l149 717h512l-123 -594q-8 -32 -8 -65q0 -137 162 -137q126 0 197 67q71 66 98 201l108 528h512l-231 -1120h-496zM1632 1554q-73 -182 -199 -251q-128 -70 -358 -70
q-241 0 -336 77q-94 76 -94 234v10h270q4 -51 47 -69q44 -19 158 -19q102 0 157 19q52 18 85 69h270z" />
    <glyph glyph-name="Uring" unicode="&#x16e;" horiz-adv-x="1970" 
d="M1585 1462h578l-189 -907q-46 -229 -168 -361q-122 -133 -315 -189q-192 -56 -518 -56q-277 0 -434 39t-246 134q-88 94 -88 257q0 83 18 168l191 915h577l-178 -856q-14 -64 -14 -104q0 -86 58 -129t196 -43q159 0 241 60q83 60 107 188zM1036 1741q0 132 105 231
t248 99q97 0 161 -56t64 -160q0 -117 -95 -220q-94 -101 -243 -101q-108 0 -174 57t-66 150zM1200 1774q0 -40 27 -67q28 -28 73 -28q55 0 104 44q48 43 48 104q0 39 -28 69q-27 29 -72 29q-59 0 -105 -46q-47 -47 -47 -105z" />
    <glyph glyph-name="uring" unicode="&#x16f;" horiz-adv-x="1703" 
d="M1085 0l25 125h-4q-82 -78 -218 -124q-135 -46 -280 -46q-207 0 -313 86q-105 85 -105 240q0 53 15 122l149 717h512l-123 -594q-8 -32 -8 -65q0 -137 162 -137q126 0 197 67q71 66 98 201l108 528h512l-231 -1120h-496zM844 1391q0 135 103 232t249 99q100 0 162 -55
q63 -56 63 -160q0 -117 -95 -220q-94 -101 -243 -101q-115 0 -177 59t-62 146zM1008 1425q0 -40 26 -66q28 -28 74 -28q57 0 104 44q48 45 48 104q0 39 -28 69q-27 29 -73 29q-58 0 -104 -46q-47 -47 -47 -106z" />
    <glyph glyph-name="Uhungarumlaut" unicode="&#x170;" horiz-adv-x="1970" 
d="M1585 1462h578l-189 -907q-46 -229 -168 -361q-122 -133 -315 -189q-192 -56 -518 -56q-277 0 -434 39t-246 134q-88 94 -88 257q0 83 18 168l191 915h577l-178 -856q-14 -64 -14 -104q0 -86 58 -129t196 -43q159 0 241 60q83 60 107 188zM1171 1593h-491l246 295h620z
M1909 1593h-494l248 295h621z" />
    <glyph glyph-name="uhungarumlaut" unicode="&#x171;" horiz-adv-x="1703" 
d="M1085 0l25 125h-4q-82 -78 -218 -124q-135 -46 -280 -46q-207 0 -313 86q-105 85 -105 240q0 53 15 122l149 717h512l-123 -594q-8 -32 -8 -65q0 -137 162 -137q126 0 197 67q71 66 98 201l108 528h512l-231 -1120h-496zM975 1245h-492l246 295h621zM1712 1245h-493
l247 295h621z" />
    <glyph glyph-name="Uogonek" unicode="&#x172;" horiz-adv-x="1970" 
d="M1212 -403q-163 -48 -321 -48q-114 0 -173 38t-59 108q0 65 43 121q44 57 189 135q-355 7 -521 104q-165 96 -165 324q0 70 22 186l187 897h577l-178 -856q-14 -62 -14 -104q0 -88 58 -130q59 -42 196 -42q158 0 239 59q82 60 109 189l184 884h578l-189 -909
q-39 -184 -130 -311q-92 -128 -240 -195q-151 -68 -435 -92l-75 -59q-95 -77 -95 -140q0 -60 72 -61q64 0 154 24z" />
    <glyph glyph-name="uogonek" unicode="&#x173;" horiz-adv-x="1703" 
d="M1358 -403q-164 -48 -324 -48q-112 0 -171 38q-58 37 -58 108q0 79 65 151q69 76 215 154l25 125h-4q-90 -82 -224 -126q-135 -44 -274 -44q-210 0 -314 86t-104 240q0 44 15 122l149 717h512l-123 -594q-8 -35 -8 -65q0 -137 162 -137q125 0 196 68q72 69 99 200
l108 528h512l-231 -1120h-233q-108 -79 -155 -138q-48 -60 -48 -106q0 -29 19 -45t55 -16q28 0 67 6t84 18z" />
    <glyph glyph-name="Wcircumflex" unicode="&#x174;" horiz-adv-x="2387" 
d="M1395 0l-31 811h-4l-369 -811h-567l-123 1462h561v-893h4l402 893h461l26 -893h4l375 893h559l-731 -1462h-567zM1655 1593l-107 156l-172 -156h-516l377 295h733l256 -295h-571z" />
    <glyph glyph-name="wcircumflex" unicode="&#x175;" horiz-adv-x="2387" 
d="M1411 0l-96 586l-338 -586h-596l-150 1120h547l45 -661h4l381 661h434l87 -661h4l340 661h546l-612 -1120h-596zM1583 1245l-106 156l-172 -156h-517l377 295h733l256 -295h-571z" />
    <glyph glyph-name="Ycircumflex" unicode="&#x176;" horiz-adv-x="1703" 
d="M563 0l84 412l-430 1050h660l159 -573l398 573h659l-868 -1050l-84 -412h-578zM1317 1593l-107 156l-172 -156h-516l377 295h733l256 -295h-571z" />
    <glyph glyph-name="ycircumflex" unicode="&#x177;" horiz-adv-x="1478" 
d="M860 -176q-91 -132 -178 -178q-89 -47 -279 -47q-97 0 -206 7q-130 8 -148 11l68 332q95 -6 135 -6q65 0 95 5q26 4 54 26t58 67l35 49l-308 1030h537l129 -575l367 575h536zM1141 1245l-107 156l-172 -156h-516l377 295h733l256 -295h-571z" />
    <glyph glyph-name="Ydieresis" unicode="&#x178;" horiz-adv-x="1703" 
d="M563 0l84 412l-430 1050h660l159 -573l398 573h659l-868 -1050l-84 -412h-578zM590 1606l53 270h496l-56 -270h-493zM1243 1606l55 270h496l-55 -270h-496z" />
    <glyph glyph-name="Zacute" unicode="&#x179;" horiz-adv-x="1744" 
d="M45 0l64 309l1040 785h-817l76 368h1595l-66 -319l-1017 -774h833l-76 -369h-1632zM1427 1593h-493l248 295h620z" />
    <glyph glyph-name="zacute" unicode="&#x17a;" horiz-adv-x="1441" 
d="M51 0l58 283l735 489v4h-596l71 344h1285l-62 -295l-696 -465v-4h618l-73 -356h-1340zM1198 1245h-493l247 295h621z" />
    <glyph glyph-name="Zdotaccent" unicode="&#x17b;" horiz-adv-x="1744" 
d="M45 0l64 309l1040 785h-817l76 368h1595l-66 -319l-1017 -774h833l-76 -369h-1632zM958 1606l56 270h495l-55 -270h-496z" />
    <glyph glyph-name="zdotaccent" unicode="&#x17c;" horiz-adv-x="1441" 
d="M51 0l58 283l735 489v4h-596l71 344h1285l-62 -295l-696 -465v-4h618l-73 -356h-1340zM723 1257l55 271h496l-55 -271h-496z" />
    <glyph glyph-name="Zcaron" unicode="&#x17d;" horiz-adv-x="1744" 
d="M45 0l64 309l1040 785h-817l76 368h1595l-66 -319l-1017 -774h833l-76 -369h-1632zM1548 1593h-733l-254 295h569l109 -155l170 155h518z" />
    <glyph glyph-name="zcaron" unicode="&#x17e;" horiz-adv-x="1441" 
d="M51 0l58 283l735 489v4h-596l71 344h1285l-62 -295l-696 -465v-4h618l-73 -356h-1340zM1321 1245h-733l-254 295h569l109 -156l170 156h518z" />
    <glyph glyph-name="florin" unicode="&#x192;" horiz-adv-x="1228" 
d="M979 596l-283 -680q-73 -172 -194 -244q-122 -73 -371 -73q-49 0 -132 3q-84 3 -173 9l125 301q33 -6 74 -6q67 0 99 12q30 11 52 38q21 26 51 99l228 541h-222l105 258h223l141 336q63 152 199 213q133 59 373 59q94 0 266 -18l-119 -295q-72 6 -100 6q-62 0 -98 -28
q-37 -29 -60 -87l-78 -186h211l-106 -258h-211z" />
    <glyph glyph-name="Scommaaccent" unicode="&#x218;" horiz-adv-x="1970" 
d="M1397 1034q4 7 4 31q0 53 -66 85q-67 32 -178 32q-132 0 -192 -33t-60 -90q0 -29 17 -41q17 -13 45 -17l669 -102q193 -30 292 -116q100 -86 100 -222q0 -164 -106 -312q-105 -146 -339 -223q-236 -77 -614 -77q-227 0 -389 24q-161 24 -258 74q-195 102 -195 293
q0 44 12 100h697v-32q0 -55 53 -79t176 -24q133 0 195 34q63 35 63 101q0 67 -92 82l-619 96q-175 27 -258 107q-82 79 -82 211q0 141 85 277q86 137 289 218q203 80 583 82q210 0 369 -24q155 -23 260 -72q215 -99 215 -315q0 -18 -5 -68h-671zM1186 -248
q-27 -131 -110 -182t-308 -51l20 98q62 5 93 16t53 43h-217l45 222h455z" />
    <glyph glyph-name="scommaaccent" unicode="&#x219;" horiz-adv-x="1669" 
d="M1149 784q2 8 2 19q0 43 -47 61q-49 19 -125 19q-109 0 -155 -24t-46 -62q0 -29 33 -42q35 -14 100 -20l467 -41q151 -12 237 -73q87 -61 87 -179q0 -142 -84 -257q-84 -116 -278 -173t-521 -57q-374 0 -539 75t-165 251q0 17 6 67h602v-12q0 -62 49 -80q50 -18 137 -18
q97 0 143 25t46 79q0 23 -14 35q-13 11 -48 16l-475 49q-176 18 -254 78t-78 160q0 249 206 368q203 117 630 117q341 0 505 -81q163 -81 163 -236q0 -17 -7 -64h-577zM1032 -248q-27 -131 -109 -182t-309 -51l21 98q60 5 92 16q31 11 53 43h-217l45 222h455z" />
    <glyph glyph-name="uni021A" unicode="&#x21a;" horiz-adv-x="1630" 
d="M526 0l228 1094h-535l76 368h1647l-76 -368h-535l-227 -1094h-578zM1004 -248q-27 -131 -110 -182q-82 -51 -308 -51l20 98q60 5 92 16q32 12 54 43h-217l45 222h454z" />
    <glyph glyph-name="uni021B" unicode="&#x21b;" horiz-adv-x="1099" 
d="M1059 0q-54 -8 -162 -17q-101 -8 -215 -8q-158 0 -226 20q-69 20 -108 65q-41 47 -41 130q0 67 19 148l96 463h-238l66 319h237l76 361h512l-76 -361h277l-66 -319h-276l-78 -379q-10 -53 -10 -64q0 -34 24 -49q22 -14 86 -14q109 0 164 4zM883 -248q-27 -131 -110 -182
t-308 -51l20 98q62 5 93 16t53 43h-217l45 222h454z" />
    <glyph glyph-name="uni0237" unicode="&#x237;" horiz-adv-x="796" 
d="M-57 -33h49q64 0 100 4q42 5 60 35q17 28 28 88l213 1026h512l-229 -1106q-35 -165 -94 -251t-154 -125t-289 -39q-179 0 -270 12z" />
    <glyph glyph-name="circumflex" unicode="&#x2c6;" horiz-adv-x="569" 
d="M651 1245l-106 156l-172 -156h-516l376 295h734l256 -295h-572z" />
    <glyph glyph-name="caron" unicode="&#x2c7;" horiz-adv-x="569" 
d="M905 1245h-733l-254 295h569l109 -156l170 156h518z" />
    <glyph glyph-name="uni02C9" unicode="&#x2c9;" horiz-adv-x="569" 
d="M242 1257l65 271h1168l-68 -271h-1165z" />
    <glyph glyph-name="breve" unicode="&#x2d8;" horiz-adv-x="569" 
d="M1094 1554q-73 -181 -200 -251q-128 -70 -357 -70q-241 0 -336 77t-95 234v10h271q5 -51 46 -69q44 -19 159 -19q101 0 156 19q52 18 85 69h271z" />
    <glyph glyph-name="dotaccent" unicode="&#x2d9;" horiz-adv-x="569" 
d="M295 1257l55 271h496l-55 -271h-496z" />
    <glyph glyph-name="ring" unicode="&#x2da;" horiz-adv-x="569" 
d="M307 1391q0 134 104 232t248 99q100 0 162 -55q64 -56 64 -160q0 -117 -95 -220q-94 -101 -243 -101q-115 0 -177 59q-63 60 -63 146zM471 1425q0 -39 27 -66q28 -28 73 -28q58 0 105 44t47 104q0 39 -28 69q-27 29 -72 29q-59 0 -105 -46q-47 -47 -47 -106z" />
    <glyph glyph-name="ogonek" unicode="&#x2db;" horiz-adv-x="569" 
d="M981 -403q-163 -48 -324 -48q-112 0 -171 38q-58 37 -58 108q0 82 80 154q82 74 264 151h229q-126 -87 -179 -141q-54 -55 -54 -103q0 -31 19 -46q20 -15 55 -15q61 0 151 24z" />
    <glyph glyph-name="tilde" unicode="&#x2dc;" horiz-adv-x="569" 
d="M1198 1534q-67 -155 -162 -237q-97 -83 -213 -83q-59 0 -289 50q-226 49 -276 49q-32 0 -54 -17q-24 -19 -40 -43h-217q72 150 171 234t224 84q54 0 283 -49q218 -49 258 -49q30 0 53 13q24 14 45 48h217z" />
    <glyph glyph-name="hungarumlaut" unicode="&#x2dd;" horiz-adv-x="569" 
d="M260 1245h-491l245 295h621zM997 1245h-493l248 295h620z" />
    <glyph glyph-name="uni0374" unicode="&#x374;" horiz-adv-x="724" 
d="M283 1163l141 377h580l-289 -377h-432z" />
    <glyph glyph-name="uni0375" unicode="&#x375;" horiz-adv-x="724" 
d="M-45 -418l289 377h432l-141 -377h-580z" />
    <glyph glyph-name="uni037E" unicode="&#x37e;" horiz-adv-x="835" 
d="M285 662l94 458h536l-94 -458h-536zM98 -233q118 16 188 68q72 54 105 165h-241l92 459h536l-71 -348q-30 -142 -116 -257q-86 -114 -229 -189q-145 -76 -301 -83z" />
    <glyph glyph-name="tonos" unicode="&#x384;" horiz-adv-x="724" 
d="M295 1225l147 336h566l-308 -336h-405z" />
    <glyph glyph-name="dieresistonos" unicode="&#x385;" horiz-adv-x="1769" 
d="M866 1257l148 316h497l-254 -316h-391zM301 1257l55 271h496l-55 -271h-496zM1493 1257l55 271h496l-55 -271h-496z" />
    <glyph glyph-name="Alphatonos" unicode="&#x386;" horiz-adv-x="1818" 
d="M1272 0l-27 168h-602l-96 -168h-615l926 1462h709l319 -1462h-614zM1122 1020h-4l-274 -496h348zM-82 1126l148 336h565l-307 -336h-406z" />
    <glyph glyph-name="anoteleia" unicode="&#x387;" horiz-adv-x="835" 
d="M465 231q-98 1 -159 64q-60 61 -60 151q2 134 98 227q97 94 231 95q99 -2 159 -63q61 -63 61 -152q-1 -129 -97 -225t-233 -97z" />
    <glyph glyph-name="Epsilontonos" unicode="&#x388;" horiz-adv-x="1744" 
d="M141 0l303 1462h1555l-74 -356h-977l-41 -197h908l-74 -356h-907l-41 -197h976l-73 -356h-1555zM-406 1126l148 336h565l-307 -336h-406z" />
    <glyph glyph-name="Etatonos" unicode="&#x389;" horiz-adv-x="2086" 
d="M1368 0l121 584h-649l-121 -584h-578l303 1462h578l-107 -510h650l106 510h578l-303 -1462h-578zM-406 1126l148 336h565l-307 -336h-406z" />
    <glyph glyph-name="Iotatonos" unicode="&#x38a;" horiz-adv-x="872" 
d="M147 0l304 1462h577l-303 -1462h-578zM-406 1126l148 336h565l-307 -336h-406z" />
    <glyph glyph-name="Omicrontonos" unicode="&#x38c;" horiz-adv-x="2125" 
d="M190 516q0 213 88 424q88 210 227 330q140 120 341 182q199 61 555 61q451 0 644 -145t193 -424q-1 -214 -88 -425q-85 -208 -228 -328q-141 -119 -344 -181q-199 -61 -527 -61q-478 0 -669 143q-192 144 -192 424zM1298 1145q-117 0 -201 -37q-85 -38 -132 -90
q-47 -53 -79 -120q-30 -63 -52 -143q-22 -78 -23 -165q0 -273 317 -273q259 0 374 178q114 177 114 373q0 277 -318 277zM-188 1126l147 336h565l-307 -336h-405z" />
    <glyph glyph-name="Upsilontonos" unicode="&#x38e;" horiz-adv-x="1703" 
d="M563 0l84 412l-430 1050h660l159 -573l398 573h659l-868 -1050l-84 -412h-578zM-610 1126l147 336h565l-307 -336h-405z" />
    <glyph glyph-name="Omegatonos" unicode="&#x38f;" horiz-adv-x="2129" 
d="M-186 1130l147 336h565l-307 -336h-405zM1214 0l89 434q126 62 203 186q75 122 75 261q0 122 -73 193t-208 71q-196 -1 -312 -140q-117 -139 -118 -319q0 -85 35 -149q35 -63 99 -103l-89 -434h-800l67 332h310l6 26q-102 33 -162 120t-60 220q0 222 132 416
q131 193 387 296q255 103 583 103q378 0 602 -141t224 -395q-1 -220 -121 -394t-303 -225l-6 -26h309l-68 -332h-801z" />
    <glyph glyph-name="iotadieresistonos" unicode="&#x390;" horiz-adv-x="905" 
d="M874 0q-155 -20 -195 -22q-54 -3 -134 -3q-210 0 -288 58q-77 57 -77 188q0 58 19 148l155 751h512l-147 -712q-4 -25 -4 -39q0 -39 26 -56q27 -18 103 -18q47 1 92 4zM436 1257l148 316h497l-254 -316h-391zM-129 1257l55 271h496l-55 -271h-496zM1063 1257l55 271h496
l-55 -271h-496z" />
    <glyph glyph-name="Alpha" unicode="&#x391;" horiz-adv-x="1818" 
d="M1272 0l-27 168h-602l-96 -168h-615l926 1462h709l319 -1462h-614zM1122 1020h-4l-274 -496h348z" />
    <glyph glyph-name="Beta" unicode="&#x392;" horiz-adv-x="2048" 
d="M141 0l303 1462h1325q171 0 265 -64t94 -198q0 -131 -67 -239t-179 -148v-4q87 -23 136 -94q50 -73 50 -170q0 -104 -52 -221q-54 -122 -146 -192q-95 -72 -212 -102q-118 -30 -255 -30h-1262zM936 1106l-39 -188h438q91 0 126 31q36 31 36 93q0 35 -30 50q-28 14 -93 14
h-438zM827 586l-47 -230h500q85 0 128 41q42 41 42 105q0 44 -36 64q-37 20 -114 20h-473z" />
    <glyph glyph-name="Gamma" unicode="&#x393;" horiz-adv-x="1630" 
d="M948 1106l-229 -1106h-578l303 1462h1481l-74 -356h-903z" />
    <glyph glyph-name="Delta" unicode="&#x394;" horiz-adv-x="1855" 
d="M68 0l55 274l754 1188h708l258 -1188l-55 -274h-1720zM1141 1020h-4l-369 -664h467z" />
    <glyph glyph-name="Epsilon" unicode="&#x395;" horiz-adv-x="1744" 
d="M141 0l303 1462h1555l-74 -356h-977l-41 -197h908l-74 -356h-907l-41 -197h976l-73 -356h-1555z" />
    <glyph glyph-name="Zeta" unicode="&#x396;" horiz-adv-x="1744" 
d="M45 0l64 309l1040 785h-817l76 368h1595l-66 -319l-1017 -774h833l-76 -369h-1632z" />
    <glyph glyph-name="Eta" unicode="&#x397;" horiz-adv-x="2086" 
d="M1368 0l121 584h-649l-121 -584h-578l303 1462h578l-107 -510h650l106 510h578l-303 -1462h-578z" />
    <glyph glyph-name="Theta" unicode="&#x398;" horiz-adv-x="2125" 
d="M381 92q-191 144 -191 424q0 213 88 424q88 210 227 330q140 120 338 182q196 61 558 61q454 0 645 -145q192 -146 192 -424q0 -211 -87 -422t-229 -331q-141 -119 -344 -181q-199 -61 -527 -61q-479 0 -670 143zM1298 1145q-253 0 -372 -176q-47 -68 -81 -175
q-34 -106 -34 -204q0 -273 317 -273q258 0 373 177t115 374q0 277 -318 277zM926 557l73 356h500l-74 -356h-499z" />
    <glyph glyph-name="Iota" unicode="&#x399;" horiz-adv-x="872" 
d="M147 0l304 1462h577l-303 -1462h-578z" />
    <glyph glyph-name="Kappa" unicode="&#x39a;" horiz-adv-x="2009" 
d="M1309 0l-285 561l-225 -168l-80 -393h-578l303 1462h578l-107 -516l644 516h765l-770 -565l523 -897h-768z" />
    <glyph glyph-name="Lambda" unicode="&#x39b;" horiz-adv-x="1777" 
d="M1231 0l-129 1020h-4l-551 -1020h-615l906 1462h708l299 -1462h-614z" />
    <glyph glyph-name="Mu" unicode="&#x39c;" horiz-adv-x="2392" 
d="M1726 0l218 1044h-5l-524 -1044h-438l-90 1044h-4l-217 -1044h-525l303 1462h813l64 -850h4l416 850h813l-303 -1462h-525z" />
    <glyph glyph-name="Nu" unicode="&#x39d;" horiz-adv-x="2086" 
d="M1313 0l-445 819h-4l-170 -819h-553l303 1462h660l418 -811h6l168 811h553l-303 -1462h-633z" />
    <glyph glyph-name="Xi" unicode="&#x39e;" horiz-adv-x="1570" 
d="M270 1073l82 389h1473l-82 -389h-1473zM266 553l74 356h1268l-74 -356h-1268zM49 0l80 389h1473l-80 -389h-1473z" />
    <glyph glyph-name="Omicron" unicode="&#x39f;" horiz-adv-x="2125" 
d="M190 516q0 213 88 424q88 210 227 330q140 120 341 182q199 61 555 61q451 0 644 -145t193 -424q-1 -214 -88 -425q-85 -208 -228 -328q-141 -119 -344 -181q-199 -61 -527 -61q-478 0 -669 143q-192 144 -192 424zM1298 1145q-117 0 -201 -37q-85 -38 -132 -90
q-47 -53 -79 -120q-30 -63 -52 -143q-22 -78 -23 -165q0 -273 317 -273q259 0 374 178q114 177 114 373q0 277 -318 277z" />
    <glyph glyph-name="Pi" unicode="&#x3a0;" horiz-adv-x="2066" 
d="M1348 0l225 1094h-629l-225 -1094h-578l303 1462h1784l-303 -1462h-577z" />
    <glyph glyph-name="Rho" unicode="&#x3a1;" horiz-adv-x="1933" 
d="M813 455l-94 -455h-578l303 1462h1203q221 0 342 -85q120 -84 120 -263q0 -298 -179 -479q-178 -180 -486 -180h-631zM950 1118l-63 -307h381q136 0 182 60q47 61 47 147q0 53 -42 77q-40 23 -124 23h-381z" />
    <glyph glyph-name="Sigma" unicode="&#x3a3;" horiz-adv-x="1619" 
d="M45 0l64 309l512 389l-322 383l80 381h1499l-78 -368h-729l328 -359v-2l-479 -364h751l-76 -369h-1550z" />
    <glyph glyph-name="Tau" unicode="&#x3a4;" horiz-adv-x="1630" 
d="M526 0l228 1094h-535l76 368h1647l-76 -368h-535l-227 -1094h-578z" />
    <glyph glyph-name="Upsilon" unicode="&#x3a5;" horiz-adv-x="1703" 
d="M563 0l84 412l-430 1050h660l159 -573l398 573h659l-868 -1050l-84 -412h-578z" />
    <glyph glyph-name="Phi" unicode="&#x3a6;" horiz-adv-x="2330" 
d="M854 -160l25 127q-362 10 -547 155q-185 144 -185 406q0 230 119 451q119 222 351 349q233 128 573 138l27 125h557l-27 -125q365 -15 545 -160q182 -146 182 -409q0 -235 -113 -452q-112 -216 -344 -342q-230 -125 -581 -136l-25 -127h-557zM1112 1087
q-126 -17 -205 -88q-81 -74 -121 -187q-41 -117 -41 -220q0 -111 55 -174q54 -62 156 -78zM1513 340q117 15 198 83q84 70 125 186q42 119 42 231q0 220 -209 247z" />
    <glyph glyph-name="Chi" unicode="&#x3a7;" horiz-adv-x="1818" 
d="M1180 0l-193 377l-348 -377h-713l815 764l-426 698h678l154 -319l285 319h677l-716 -698l499 -764h-712z" />
    <glyph glyph-name="Psi" unicode="&#x3a8;" horiz-adv-x="2256" 
d="M850 0l47 229q-334 7 -490 129q-157 122 -157 342q0 78 18 168l125 594h557l-121 -575q-12 -53 -12 -96q0 -63 36 -104q35 -39 128 -50l172 825h557l-172 -825q112 11 171 69q59 59 83 181l121 575h557l-125 -594q-63 -305 -281 -467q-217 -161 -610 -172l-47 -229h-557z
" />
    <glyph glyph-name="Omega" unicode="&#x3a9;" horiz-adv-x="2129" 
d="M1214 0l89 434q126 62 203 186q75 122 75 261q0 122 -73 193t-208 71q-196 -1 -312 -140q-117 -139 -118 -319q0 -85 35 -149q35 -63 99 -103l-89 -434h-800l67 332h310l6 26q-102 33 -162 120t-60 220q0 222 132 416q131 193 387 296q255 103 583 103q378 0 602 -141
t224 -395q-1 -220 -121 -394t-303 -225l-6 -26h309l-68 -332h-801z" />
    <glyph glyph-name="Iotadieresis" unicode="&#x3aa;" horiz-adv-x="872" 
d="M147 0l304 1462h577l-303 -1462h-578zM190 1606l54 270h495l-55 -270h-494zM844 1606l55 270h496l-56 -270h-495z" />
    <glyph glyph-name="Upsilondieresis" unicode="&#x3ab;" horiz-adv-x="1703" 
d="M563 0l84 412l-430 1050h660l159 -573l398 573h659l-868 -1050l-84 -412h-578zM612 1606l54 270h495l-55 -270h-494zM1266 1606l55 270h496l-56 -270h-495z" />
    <glyph glyph-name="alphatonos" unicode="&#x3ac;" horiz-adv-x="1888" 
d="M1837 0q-72 -12 -138 -18q-77 -7 -149 -7q-158 0 -244 37q-88 38 -104 129h-4q-98 -100 -225 -143q-126 -43 -283 -43q-245 0 -388 122q-142 121 -142 333q0 190 99 369q100 180 280 276t407 96q160 0 261 -40q102 -40 157 -124h4l29 133h495l-151 -723l-4 -39
q0 -39 22 -51q23 -12 66 -12q54 0 73 4zM1030 807q-80 0 -144 -26q-62 -25 -106 -69q-42 -42 -64 -107q-22 -66 -22 -113q0 -88 58 -140t174 -53q79 0 145 22q64 21 110 67t67 112q22 69 22 127q0 87 -57 133q-58 47 -183 47zM909 1225l148 336h565l-307 -336h-406z" />
    <glyph glyph-name="epsilontonos" unicode="&#x3ad;" horiz-adv-x="1667" 
d="M1219 721q0 85 -52 123q-50 37 -176 37q-211 0 -211 -103q0 -31 28 -40q27 -9 69 -9h254l-68 -326h-301q-40 0 -69 -20t-29 -59q0 -32 43 -51q42 -19 155 -19q125 0 206 48q82 48 122 153h510q-62 -191 -171 -296q-110 -106 -290 -155q-178 -49 -471 -49q-305 0 -461 75
q-155 75 -155 222q0 119 71 217t217 119v4q-72 10 -110 56q-39 46 -39 112q1 169 179 288q175 117 581 117q340 0 508 -87q167 -86 167 -273q0 -23 -8 -84h-499zM840 1225l147 336h565l-307 -336h-405z" />
    <glyph glyph-name="etatonos" unicode="&#x3ae;" horiz-adv-x="1703" 
d="M987 -401l205 995q6 27 6 51q0 62 -41 100q-40 37 -123 37q-114 0 -191 -72q-77 -73 -100 -184l-108 -526h-512l233 1120h496l-29 -139h4q84 80 222 125q137 45 276 45q210 -1 314 -89q104 -87 104 -235q0 -63 -10 -100l-234 -1128h-512zM807 1225l147 336h566l-308 -336
h-405z" />
    <glyph glyph-name="iotatonos" unicode="&#x3af;" horiz-adv-x="905" 
d="M874 0q-155 -20 -195 -22q-54 -3 -134 -3q-210 0 -288 58q-77 57 -77 188q0 58 19 148l155 751h512l-147 -712q-4 -25 -4 -39q0 -39 26 -56q27 -18 103 -18q47 1 92 4zM418 1225l147 336h565l-307 -336h-405z" />
    <glyph glyph-name="upsilondieresistonos" unicode="&#x3b0;" horiz-adv-x="1703" 
d="M1716 1120q43 -107 43 -252q0 -256 -106 -475q-108 -223 -307 -330q-201 -108 -521 -108q-324 0 -474 84t-150 274q0 72 14 136l141 671h512l-118 -569q-11 -53 -11 -84q0 -72 41 -108q39 -35 135 -35q141 0 217 130t76 357q0 81 -13 156q-13 74 -36 153h557zM838 1257
l147 316h498l-254 -316h-391zM272 1257l56 271h495l-55 -271h-496zM1464 1257l56 271h495l-55 -271h-496z" />
    <glyph glyph-name="alpha" unicode="&#x3b1;" horiz-adv-x="1888" 
d="M1837 0q-72 -12 -138 -18q-77 -7 -149 -7q-158 0 -244 37q-88 38 -104 129h-4q-98 -100 -225 -143q-126 -43 -283 -43q-245 0 -388 122q-142 121 -142 333q0 190 99 369q100 180 280 276t407 96q160 0 261 -40q102 -40 157 -124h4l29 133h495l-151 -723l-4 -39
q0 -39 22 -51q23 -12 66 -12q54 0 73 4zM1030 807q-80 0 -144 -26q-62 -25 -106 -69q-42 -42 -64 -107q-22 -66 -22 -113q0 -88 58 -140t174 -53q79 0 145 22q64 21 110 67t67 112q22 69 22 127q0 87 -57 133q-58 47 -183 47z" />
    <glyph glyph-name="beta" unicode="&#x3b2;" horiz-adv-x="1779" 
d="M39 -401l274 1323q63 312 280 458t605 146q335 0 490 -79t155 -233q0 -119 -70 -213t-190 -135v-2q119 -24 180 -100q62 -77 62 -193q0 -158 -94 -301t-261 -229t-374 -86q-178 0 -284 41q-105 41 -155 119l-106 -516h-512zM895 623l66 309h143q83 0 135 47q51 47 51 121
q0 53 -44 79q-43 25 -134 25q-127 0 -189 -56t-83 -157l-99 -465q-5 -17 -6 -49q0 -82 63 -130t179 -48q131 0 203 59q73 60 73 154q0 62 -49 86q-52 25 -129 25h-180z" />
    <glyph glyph-name="gamma" unicode="&#x3b3;" horiz-adv-x="1800" 
d="M494 -401l49 247q4 15 4 39q0 134 -107 589t-207 646h558q34 -67 102 -344q66 -270 78 -436h4q90 105 229 350q136 240 221 430h537q-129 -312 -375 -664q-250 -356 -479 -565l-59 -292h-555z" />
    <glyph glyph-name="delta" unicode="&#x3b4;" horiz-adv-x="1613" 
d="M1606 1108q-66 34 -153 57q-89 23 -171 23q-88 0 -88 -58q0 -19 38 -39q25 -13 133 -73q95 -53 165 -112q69 -58 105 -128q36 -69 36 -160q0 -190 -104 -343q-105 -155 -304 -237q-201 -83 -481 -83q-323 0 -488 102t-165 305q0 135 60 269q60 133 179 219
q121 87 287 121v4q-63 39 -92 85q-26 42 -26 95q4 165 160 267q157 103 458 104q193 0 321 -18t203 -46zM958 788q-120 -28 -206 -131t-86 -225q0 -77 46 -123q47 -47 142 -47q116 0 196 84q78 82 78 205q0 74 -39 132q-40 60 -131 105z" />
    <glyph glyph-name="epsilon" unicode="&#x3b5;" horiz-adv-x="1667" 
d="M1219 721q0 85 -52 123q-50 37 -176 37q-211 0 -211 -103q0 -31 28 -40q27 -9 69 -9h254l-68 -326h-301q-40 0 -69 -20t-29 -59q0 -32 43 -51q42 -19 155 -19q125 0 206 48q82 48 122 153h510q-62 -191 -171 -296q-110 -106 -290 -155q-178 -49 -471 -49q-305 0 -461 75
q-155 75 -155 222q0 119 71 217t217 119v4q-72 10 -110 56q-39 46 -39 112q1 169 179 288q175 117 581 117q340 0 508 -87q167 -86 167 -273q0 -23 -8 -84h-499z" />
    <glyph glyph-name="zeta" unicode="&#x3b6;" horiz-adv-x="1413" 
d="M719 -381q28 48 55 118q27 69 27 116q0 34 -26 60q-27 27 -107 34q-254 21 -377 128q-125 108 -125 300q0 111 33 220q33 110 94 208q158 250 502 340v6h-353l76 364h1137l-76 -368q-507 -69 -723 -283q-62 -61 -102 -146q-41 -88 -41 -175q0 -103 77 -150
q75 -46 236 -61q122 -12 187 -38q62 -25 97 -74q33 -46 33 -128q0 -87 -35 -211q-33 -118 -94 -260h-495z" />
    <glyph glyph-name="eta" unicode="&#x3b7;" horiz-adv-x="1703" 
d="M987 -401l205 995q6 27 6 51q0 62 -41 100q-40 37 -123 37q-114 0 -191 -72q-77 -73 -100 -184l-108 -526h-512l233 1120h496l-29 -139h4q84 80 222 125q137 45 276 45q210 -1 314 -89q104 -87 104 -235q0 -63 -10 -100l-234 -1128h-512z" />
    <glyph glyph-name="theta" unicode="&#x3b8;" horiz-adv-x="1642" 
d="M815 -45q-329 0 -482 117t-153 377q0 225 94 506q94 282 306 426q213 145 561 145q320 0 474 -122q152 -121 152 -382q0 -192 -84 -480q-84 -289 -287 -438t-581 -149zM1255 883q11 53 11 106q0 98 -47 151q-46 52 -150 52q-116 0 -196 -74q-77 -71 -121 -235h503z
M690 569q-4 -22 -6 -44q-2 -28 -2 -42q0 -196 201 -196q123 0 197 70q75 71 110 212h-500z" />
    <glyph glyph-name="iota" unicode="&#x3b9;" horiz-adv-x="915" 
d="M874 0q-155 -20 -195 -22q-54 -3 -134 -3q-210 0 -288 58q-77 57 -77 188q0 58 19 148l155 751h512l-147 -712q-4 -25 -4 -39q0 -39 26 -56q27 -18 103 -18q47 1 92 4z" />
    <glyph glyph-name="kappa" unicode="&#x3ba;" horiz-adv-x="1703" 
d="M1061 0l-189 377l-188 -131l-49 -246h-512l231 1120h512l-75 -362l462 362h680l-596 -418l416 -702h-692z" />
    <glyph glyph-name="lambda" unicode="&#x3bb;" horiz-adv-x="1654" 
d="M1614 0q-66 -12 -123 -18q-61 -7 -127 -7q-125 0 -197 22q-68 21 -111 76q-43 56 -73 177l-74 297h-4l-383 -547h-540l780 1038q-24 100 -62 129t-131 29q-25 0 -60 -6q-33 -6 -52 -12l65 315q60 18 122 25q74 8 142 8q164 0 250 -30q89 -31 140 -100q54 -73 94 -220
l200 -727q16 -61 29 -91q11 -26 34 -46q20 -17 73 -17q36 1 69 4z" />
    <glyph glyph-name="mu" unicode="&#x3bc;" horiz-adv-x="1820" 
d="M1757 0q-73 -12 -137 -18q-74 -7 -152 -7q-147 0 -228 35q-79 34 -97 131h-4q-64 -80 -160 -133q-97 -53 -213 -53q-67 0 -133 25h-4l-78 -381h-512l315 1521h512l-127 -612q-6 -28 -6 -51q0 -131 164 -133q123 0 194 70q73 72 97 192l112 534h512l-149 -717
q-6 -28 -6 -47q0 -31 18 -46t68 -15q36 0 76 4z" />
    <glyph glyph-name="nu" unicode="&#x3bd;" horiz-adv-x="1708" 
d="M498 0l-287 1120h575l134 -719h6q81 108 185 291q107 189 218 428h539q-150 -338 -345 -621q-194 -281 -399 -499h-626z" />
    <glyph glyph-name="xi" unicode="&#x3be;" horiz-adv-x="1443" 
d="M756 -381q32 60 56 121q26 67 26 115q0 34 -25 56q-24 21 -82 32q-71 14 -196 39q-174 38 -273 109q-100 72 -100 206q0 175 111 306q110 130 300 175v4q-190 78 -190 244q0 124 83 245q82 119 246 187q165 68 396 68q198 0 351 -26q149 -25 206 -50l-78 -379
q-79 29 -222 51q-146 23 -265 23q-95 0 -150 -25q-53 -24 -53 -90q0 -72 147 -72h332l-80 -387h-405q-156 0 -156 -110q0 -63 92 -90q88 -26 273 -43q155 -18 219 -76q63 -57 63 -158q0 -84 -40 -220q-42 -142 -91 -255h-495z" />
    <glyph glyph-name="omicron" unicode="&#x3bf;" 
d="M158 399q0 154 68 321q69 169 199 265q131 96 308 138q179 42 400 42q371 0 545 -107q175 -108 175 -333q0 -192 -93 -384q-93 -191 -309 -289q-215 -97 -570 -97q-377 0 -549 107q-174 108 -174 337zM1061 834q-118 0 -197 -44q-78 -44 -119 -133q-40 -87 -40 -176
q0 -101 58 -147q59 -47 187 -47q194 0 277 108q82 107 82 254q0 91 -60 138q-61 47 -188 47z" />
    <glyph glyph-name="pi" unicode="&#x3c0;" horiz-adv-x="1961" 
d="M1774 0q-36 -9 -108 -16q-92 -9 -167 -9q-173 0 -250 60q-75 59 -75 182q0 47 12 113l94 450h-340l-162 -780h-502l162 780h-245l69 340h1849l-69 -340h-258l-80 -381q-4 -20 -4 -37q0 -33 20 -50t68 -17q20 0 47 4z" />
    <glyph glyph-name="rho" unicode="&#x3c1;" horiz-adv-x="1689" 
d="M-12 -401l178 860q47 236 168 386q122 151 309 228q189 78 453 78q329 0 497 -112q166 -111 166 -330q0 -217 -103 -396q-104 -180 -290 -269q-187 -89 -360 -89q-143 0 -244 40q-103 41 -152 118h-4l-106 -514h-512zM1008 807q-148 0 -234 -96q-86 -97 -86 -232
q0 -90 54 -135t163 -45q144 0 232 91t88 233q0 83 -54 134q-53 50 -163 50z" />
    <glyph glyph-name="sigma1" unicode="&#x3c2;" horiz-adv-x="1515" 
d="M707 -381q34 58 58 124q23 62 23 112q0 41 -32 63q-35 24 -119 31q-231 18 -357 126t-126 300q0 183 96 375q96 193 299 304t483 111q299 0 442 -104q144 -105 144 -332q0 -21 -1 -31q-2 -15 -3 -49h-516q2 16 2 35q0 73 -33 107t-123 34q-138 0 -190 -96
q-54 -99 -54 -194q0 -93 72 -141q71 -47 240 -64q167 -15 244 -68t77 -168q0 -81 -41 -227q-40 -142 -90 -248h-495z" />
    <glyph glyph-name="sigma" unicode="&#x3c3;" horiz-adv-x="1796" 
d="M1657 780v-4q33 -51 33 -139q0 -158 -98 -331q-99 -174 -287 -262q-192 -89 -492 -89q-325 0 -491 114t-166 330q0 173 88 342q89 171 274 274q186 103 479 105h969l-72 -340h-237zM997 780q-139 -1 -219 -95t-80 -226q1 -90 55 -131q53 -41 146 -41q94 0 159 46
q66 46 100 125q34 78 34 156q0 56 -18 97q-17 38 -48 69h-129z" />
    <glyph glyph-name="tau" unicode="&#x3c4;" horiz-adv-x="1415" 
d="M1184 -2q-39 -7 -158 -15q-126 -8 -221 -8q-193 0 -276 44t-83 157q0 40 13 100l104 504h-391l70 340h1364l-70 -340h-471l-80 -383q-6 -27 -6 -43q0 -35 29 -47q28 -12 106 -12q72 0 131 4z" />
    <glyph glyph-name="upsilon" unicode="&#x3c5;" horiz-adv-x="1703" 
d="M1716 1120q43 -107 43 -252q0 -256 -106 -475q-108 -223 -307 -330q-201 -108 -521 -108q-324 0 -474 84t-150 274q0 72 14 136l141 671h512l-118 -569q-11 -53 -11 -84q0 -72 41 -108q39 -35 135 -35q141 0 217 130t76 357q0 81 -13 156q-13 74 -36 153h557z" />
    <glyph glyph-name="phi" unicode="&#x3c6;" horiz-adv-x="2013" 
d="M700 -401l62 305q-623 47 -623 495q0 180 89 370t287 304q199 115 517 131l58 277h448l-57 -277q322 -17 473 -138t151 -343q-8 -355 -235 -572q-229 -219 -660 -247l-61 -305h-449zM965 874q-139 -23 -221 -144t-82 -279q0 -179 167 -222zM1278 229q138 27 220 150
q83 124 83 280q0 181 -168 215z" />
    <glyph glyph-name="chi" unicode="&#x3c7;" horiz-adv-x="1665" 
d="M956 -401l-153 338l-293 -338h-573l661 739l-354 782h571l176 -393l318 393h569l-686 -798l336 -723h-572z" />
    <glyph glyph-name="psi" unicode="&#x3c8;" horiz-adv-x="2150" 
d="M745 -401l74 356q-330 5 -471 96q-141 92 -141 283q0 56 16 145l133 641h512l-118 -569q-9 -47 -9 -78q0 -143 154 -149l240 1157h469l-240 -1157q145 6 220 133t75 354q0 73 -10 144q-11 78 -37 165h549q43 -116 43 -256q0 -216 -72 -402q-71 -185 -209 -304
q-235 -203 -635 -203l-74 -356h-469z" />
    <glyph glyph-name="omega" unicode="&#x3c9;" horiz-adv-x="2115" 
d="M1081 164q-79 -114 -181 -161q-104 -48 -273 -48q-227 0 -337 98q-112 100 -112 287q0 204 97 420q96 214 260 360h555q-151 -129 -256 -337q-105 -209 -105 -349q0 -88 78 -88q99 0 123 117l84 401h432l-84 -401q-4 -15 -4 -39q0 -78 78 -78q81 0 120 96t39 265
q0 120 -29 222q-31 108 -89 191h555q58 -84 83 -178t25 -201q0 -165 -52 -324q-53 -162 -137 -261q-87 -102 -211 -151q-127 -50 -294 -50q-164 0 -246 49q-83 50 -113 160h-6z" />
    <glyph glyph-name="iotadieresis" unicode="&#x3ca;" horiz-adv-x="905" 
d="M874 0q-155 -20 -195 -22q-54 -3 -134 -3q-210 0 -288 58q-77 57 -77 188q0 58 19 148l155 751h512l-147 -712q-4 -25 -4 -39q0 -39 26 -56q27 -18 103 -18q47 1 92 4zM78 1257l53 271h496l-56 -271h-493zM731 1257l55 271h496l-55 -271h-496z" />
    <glyph glyph-name="upsilondieresis" unicode="&#x3cb;" horiz-adv-x="1703" 
d="M1716 1120q43 -107 43 -252q0 -256 -106 -475q-108 -223 -307 -330q-201 -108 -521 -108q-324 0 -474 84t-150 274q0 72 14 136l141 671h512l-118 -569q-11 -53 -11 -84q0 -72 41 -108q39 -35 135 -35q141 0 217 130t76 357q0 81 -13 156q-13 74 -36 153h557zM504 1257
l53 271h496l-56 -271h-493zM1157 1257l55 271h496l-55 -271h-496z" />
    <glyph glyph-name="omicrontonos" unicode="&#x3cc;" 
d="M158 399q0 154 68 321q69 169 199 265q131 96 308 138q179 42 400 42q371 0 545 -107q175 -108 175 -333q0 -192 -93 -384q-93 -191 -309 -289q-215 -97 -570 -97q-377 0 -549 107q-174 108 -174 337zM1061 834q-118 0 -197 -44q-78 -44 -119 -133q-40 -87 -40 -176
q0 -101 58 -147q59 -47 187 -47q194 0 277 108q82 107 82 254q0 91 -60 138q-61 47 -188 47zM915 1225l148 336h565l-307 -336h-406z" />
    <glyph glyph-name="upsilontonos" unicode="&#x3cd;" horiz-adv-x="1703" 
d="M1716 1120q43 -107 43 -252q0 -256 -106 -475q-108 -223 -307 -330q-201 -108 -521 -108q-324 0 -474 84t-150 274q0 72 14 136l141 671h512l-118 -569q-11 -53 -11 -84q0 -72 41 -108q39 -35 135 -35q141 0 217 130t76 357q0 81 -13 156q-13 74 -36 153h557zM838 1225
l147 336h565l-307 -336h-405z" />
    <glyph glyph-name="omegatonos" unicode="&#x3ce;" horiz-adv-x="2115" 
d="M1081 164q-79 -114 -181 -161q-104 -48 -273 -48q-227 0 -337 98q-112 100 -112 287q0 204 97 420q96 214 260 360h555q-151 -129 -256 -337q-105 -209 -105 -349q0 -88 78 -88q99 0 123 117l84 401h432l-84 -401q-4 -15 -4 -39q0 -78 78 -78q81 0 120 96t39 265
q0 120 -29 222q-31 108 -89 191h555q58 -84 83 -178t25 -201q0 -165 -52 -324q-53 -162 -137 -261q-87 -102 -211 -151q-127 -50 -294 -50q-164 0 -246 49q-83 50 -113 160h-6zM1083 1225l148 336h565l-307 -336h-406z" />
    <glyph glyph-name="uni0400" unicode="&#x400;" horiz-adv-x="1744" 
d="M141 0l303 1462h1555l-74 -356h-977l-41 -197h908l-74 -356h-907l-41 -197h976l-73 -356h-1555zM1102 1593l-252 295h620l125 -295h-493z" />
    <glyph glyph-name="afii10023" unicode="&#x401;" horiz-adv-x="1744" 
d="M141 0l303 1462h1555l-74 -356h-977l-41 -197h908l-74 -356h-907l-41 -197h976l-73 -356h-1555zM668 1606l53 270h496l-56 -270h-493zM1321 1606l55 270h496l-55 -270h-496z" />
    <glyph glyph-name="afii10051" unicode="&#x402;" horiz-adv-x="2254" 
d="M1348 317q49 -6 104 -6q98 0 160 42t63 132q0 58 -52 79q-55 22 -165 22q-32 0 -100 -5q-9 -1 -129 -14l-92 -12l-115 -555h-578l230 1106h-453l74 356h1647l-74 -356h-617l-41 -199q171 24 277 32q113 9 192 9q322 0 472 -84q151 -85 151 -276q0 -163 -80 -320
q-78 -153 -253 -237q-171 -82 -449 -82q-143 5 -174 8q-59 5 -72 8z" />
    <glyph glyph-name="afii10052" unicode="&#x403;" horiz-adv-x="1576" 
d="M944 1094l-225 -1094h-578l303 1462h1452l-77 -368h-875zM1352 1593h-494l248 295h620z" />
    <glyph glyph-name="afii10053" unicode="&#x404;" horiz-adv-x="2086" 
d="M2138 557q-90 -234 -223 -361q-134 -128 -339 -188q-202 -59 -523 -59q-459 0 -661 137t-202 428q0 216 89 423q89 208 224 329q135 122 341 185q202 62 532 62q323 0 494 -62q174 -63 259 -179t85 -309q0 -36 -2 -56h-623v13q0 115 -76 176t-210 61q-155 0 -262 -61
q-108 -61 -171 -197h562l-70 -336h-561q6 -138 86 -198q79 -60 223 -60q160 0 256 60q99 62 150 192h622z" />
    <glyph glyph-name="afii10054" unicode="&#x405;" horiz-adv-x="1970" 
d="M1397 1034q4 7 4 31q0 53 -66 85q-67 32 -178 32q-132 0 -192 -33t-60 -90q0 -29 17 -41q17 -13 45 -17l669 -102q193 -30 292 -116q100 -86 100 -222q0 -164 -106 -312q-105 -146 -339 -223q-236 -77 -614 -77q-227 0 -389 24q-161 24 -258 74q-195 102 -195 293
q0 44 12 100h697v-32q0 -55 53 -79t176 -24q133 0 195 34q63 35 63 101q0 67 -92 82l-619 96q-175 27 -258 107q-82 79 -82 211q0 141 85 277q86 137 289 218q203 80 583 82q210 0 369 -24q155 -23 260 -72q215 -99 215 -315q0 -18 -5 -68h-671z" />
    <glyph glyph-name="afii10055" unicode="&#x406;" horiz-adv-x="872" 
d="M147 0l304 1462h577l-303 -1462h-578z" />
    <glyph glyph-name="afii10056" unicode="&#x407;" horiz-adv-x="872" 
d="M147 0l304 1462h577l-303 -1462h-578zM197 1606l53 270h495l-55 -270h-493zM850 1606l55 270h496l-55 -270h-496z" />
    <glyph glyph-name="afii10057" unicode="&#x408;" horiz-adv-x="1630" 
d="M1243 1462h578l-185 -887q-56 -259 -153 -381q-100 -125 -268 -185q-169 -60 -431 -60t-397 40q-138 41 -208 130t-70 250q0 97 30 243h578q-18 -85 -21 -105q-8 -51 -8 -77q0 -59 30 -92t107 -33q98 0 150 56q54 57 76 167z" />
    <glyph glyph-name="afii10058" unicode="&#x409;" horiz-adv-x="3176" 
d="M1384 0l228 1094h-488l-34 -162q-62 -298 -129 -465q-68 -168 -166 -276t-238 -161q-141 -53 -321 -53q-51 0 -117 6q-45 4 -119 17l74 356q20 -7 51 -8q44 -2 49 -2q116 0 195 103q77 100 137 382l131 631h1628l-94 -454h631q218 0 337 -93q117 -90 117 -270
q0 -163 -73 -321q-73 -159 -220 -242q-145 -82 -374 -82h-1205zM2097 651l-63 -307h381q56 0 95 10t69 34t48 70q17 44 17 87q0 58 -40 82t-126 24h-381z" />
    <glyph glyph-name="afii10059" unicode="&#x40a;" horiz-adv-x="3160" 
d="M1368 0l127 618h-649l-127 -618h-578l303 1462h578l-100 -475h649l100 475h578l-101 -475h627q226 0 344 -88q119 -89 119 -266q0 -171 -79 -328q-80 -159 -222 -231q-145 -74 -371 -74h-1198zM2075 631l-60 -287h377q144 0 187 56q44 58 44 132q0 56 -41 77
q-44 22 -126 22h-381z" />
    <glyph glyph-name="afii10060" unicode="&#x40b;" horiz-adv-x="2254" 
d="M1595 0l62 303q14 62 14 121q0 87 -49 124q-50 38 -166 38q-25 0 -98 -5q-19 -1 -131 -14l-90 -12l-115 -555h-578l230 1106h-453l74 356h1647l-74 -356h-617l-43 -199q172 24 268 32q103 9 185 9q329 0 471 -86q141 -85 141 -289q0 -80 -22 -190l-78 -383h-578z" />
    <glyph glyph-name="afii10061" unicode="&#x40c;" horiz-adv-x="2009" 
d="M1309 0l-285 561l-225 -168l-80 -393h-578l303 1462h578l-107 -516l644 516h765l-770 -565l523 -897h-768zM1509 1593h-493l248 295h620z" />
    <glyph glyph-name="uni040D" unicode="&#x40d;" horiz-adv-x="2107" 
d="M1413 0l178 860l-817 -860h-633l303 1462h553l-178 -852l791 852h659l-303 -1462h-553zM1192 1593l-252 295h621l125 -295h-494z" />
    <glyph glyph-name="afii10062" unicode="&#x40e;" horiz-adv-x="1744" 
d="M1145 262q-111 -137 -256 -213t-359 -76q-94 0 -184 8q-94 8 -137 17l74 358q40 -9 84 -14q49 -6 96 -6q78 0 131 13q54 13 113 61l-465 1052h692l166 -518l364 518h645zM1776 1903q-72 -183 -200 -252q-129 -70 -357 -70q-241 0 -336 77t-95 234v11h271q5 -53 44 -70
q41 -18 161 -18q100 0 154 18q53 18 87 70h271z" />
    <glyph glyph-name="afii10145" unicode="&#x40f;" horiz-adv-x="2066" 
d="M1292 0l-69 -340h-512l69 340h-639l303 1462h578l-227 -1093h628l228 1093h577l-303 -1462h-633z" />
    <glyph glyph-name="afii10017" unicode="&#x410;" horiz-adv-x="1818" 
d="M1272 0l-27 168h-602l-96 -168h-615l926 1462h709l319 -1462h-614zM1122 1020h-4l-274 -496h348z" />
    <glyph glyph-name="afii10018" unicode="&#x411;" horiz-adv-x="2027" 
d="M141 0l303 1462h1647l-74 -356h-1069l-35 -160h682q225 0 344 -90t119 -256q0 -134 -66 -282q-65 -146 -214 -233q-146 -85 -383 -85h-1254zM844 610l-56 -266h431q125 0 176 48t51 118q0 100 -172 100h-430z" />
    <glyph glyph-name="afii10019" unicode="&#x412;" horiz-adv-x="2048" 
d="M141 0l303 1462h1325q171 0 265 -64t94 -198q0 -131 -67 -239t-179 -148v-4q87 -23 136 -94q50 -73 50 -170q0 -104 -52 -221q-54 -122 -146 -192q-95 -72 -212 -102q-118 -30 -255 -30h-1262zM936 1106l-39 -188h438q91 0 126 31q36 31 36 93q0 35 -30 50q-28 14 -93 14
h-438zM827 586l-47 -230h500q85 0 128 41q42 41 42 105q0 44 -36 64q-37 20 -114 20h-473z" />
    <glyph glyph-name="afii10020" unicode="&#x413;" horiz-adv-x="1576" 
d="M944 1094l-225 -1094h-578l303 1462h1452l-77 -368h-875z" />
    <glyph glyph-name="afii10021" unicode="&#x414;" horiz-adv-x="2105" 
d="M1511 -340l70 340h-1069l-70 -340h-512l146 709h141q133 141 240 383q106 241 174 557l31 153h1542l-228 -1093h193l-146 -709h-512zM1550 1094h-436l-12 -60q-45 -209 -129 -389q-85 -181 -172 -276h598z" />
    <glyph glyph-name="afii10022" unicode="&#x415;" horiz-adv-x="1744" 
d="M141 0l303 1462h1555l-74 -356h-977l-41 -197h908l-74 -356h-907l-41 -197h976l-73 -356h-1555z" />
    <glyph glyph-name="afii10024" unicode="&#x416;" horiz-adv-x="2953" 
d="M2284 0l-244 530l-199 -159l-76 -371h-577l76 371l-136 159l-458 -530h-738l826 887l-477 575h766l342 -487l102 487h577l-102 -487l547 487h766l-721 -575l463 -887h-737z" />
    <glyph glyph-name="afii10025" unicode="&#x417;" horiz-adv-x="1912" 
d="M1671 791q140 -23 209 -92q66 -66 66 -171q0 -158 -100 -300q-99 -141 -311 -210q-211 -69 -595 -69q-428 0 -612 99q-185 99 -185 329q0 39 4 74q2 17 13 81h610l-2 -38q0 -92 56 -139q57 -48 180 -48q177 0 251 47t74 135q0 44 -40 72q-41 29 -181 33h-64
q-54 0 -139 -4l72 340q85 -4 147 -4q135 0 195 12q59 12 91 47t32 90q0 49 -53 76q-52 27 -183 27q-267 0 -334 -195h-589q83 282 313 406t688 124q387 0 562 -74q177 -75 177 -243q0 -150 -99 -259t-251 -138z" />
    <glyph glyph-name="afii10026" unicode="&#x418;" horiz-adv-x="2107" 
d="M1413 0l178 860l-817 -860h-633l303 1462h553l-178 -852l791 852h659l-303 -1462h-553z" />
    <glyph glyph-name="afii10027" unicode="&#x419;" horiz-adv-x="2107" 
d="M1413 0l178 860l-817 -860h-633l303 1462h553l-178 -852l791 852h659l-303 -1462h-553zM1970 1903q-72 -183 -200 -252q-129 -70 -357 -70q-241 0 -336 77q-94 76 -94 234v11h270q5 -53 44 -70q40 -18 161 -18q101 0 155 18q53 18 87 70h270z" />
    <glyph glyph-name="afii10028" unicode="&#x41a;" horiz-adv-x="2009" 
d="M1309 0l-285 561l-225 -168l-80 -393h-578l303 1462h578l-107 -516l644 516h765l-770 -565l523 -897h-768z" />
    <glyph glyph-name="afii10029" unicode="&#x41b;" horiz-adv-x="2103" 
d="M1384 0l228 1094h-488l-39 -181q-67 -302 -127 -452q-63 -156 -158 -263q-98 -110 -237 -165q-141 -56 -327 -56q-51 0 -117 6q-45 4 -119 17l74 356q20 -7 51 -8q44 -2 49 -2q116 0 195 103q77 100 137 382l131 631h1628l-303 -1462h-578z" />
    <glyph glyph-name="afii10030" unicode="&#x41c;" horiz-adv-x="2392" 
d="M1726 0l218 1044h-5l-524 -1044h-438l-90 1044h-4l-217 -1044h-525l303 1462h813l64 -850h4l416 850h813l-303 -1462h-525z" />
    <glyph glyph-name="afii10031" unicode="&#x41d;" horiz-adv-x="2086" 
d="M1368 0l121 584h-649l-121 -584h-578l303 1462h578l-107 -510h650l106 510h578l-303 -1462h-578z" />
    <glyph glyph-name="afii10032" unicode="&#x41e;" horiz-adv-x="2125" 
d="M190 516q0 213 88 424q88 210 227 330q140 120 341 182q199 61 555 61q451 0 644 -145t193 -424q-1 -214 -88 -425q-85 -208 -228 -328q-141 -119 -344 -181q-199 -61 -527 -61q-478 0 -669 143q-192 144 -192 424zM1298 1145q-117 0 -201 -37q-85 -38 -132 -90
q-47 -53 -79 -120q-30 -63 -52 -143q-22 -78 -23 -165q0 -273 317 -273q259 0 374 178q114 177 114 373q0 277 -318 277z" />
    <glyph glyph-name="afii10033" unicode="&#x41f;" horiz-adv-x="2066" 
d="M1348 0l225 1094h-629l-225 -1094h-578l303 1462h1784l-303 -1462h-577z" />
    <glyph glyph-name="afii10034" unicode="&#x420;" horiz-adv-x="1933" 
d="M813 455l-94 -455h-578l303 1462h1203q221 0 342 -85q120 -84 120 -263q0 -298 -179 -479q-178 -180 -486 -180h-631zM950 1118l-63 -307h381q136 0 182 60q47 61 47 147q0 53 -42 77q-40 23 -124 23h-381z" />
    <glyph glyph-name="afii10035" unicode="&#x421;" horiz-adv-x="2086" 
d="M1556 889v20q0 115 -67 175q-69 61 -189 61q-176 0 -288 -88q-114 -90 -157 -234q-44 -147 -44 -235q0 -135 74 -203t215 -68q140 0 235 62q94 61 154 190h651q-124 -332 -376 -477q-249 -143 -713 -143q-276 0 -427 40q-155 41 -243 104q-91 65 -140 169
q-51 108 -51 254q0 90 27 223q27 134 85 253q60 124 134 206q78 87 167 144q95 61 204 97q115 38 257 56q144 18 310 18q288 0 463 -54q174 -54 274 -176q99 -121 99 -329q0 -3 -0.5 -11.5t-1 -24t-0.5 -29.5h-652z" />
    <glyph glyph-name="afii10036" unicode="&#x422;" horiz-adv-x="1630" 
d="M526 0l228 1094h-535l76 368h1647l-76 -368h-535l-227 -1094h-578z" />
    <glyph glyph-name="afii10037" unicode="&#x423;" horiz-adv-x="1744" 
d="M1145 262q-111 -137 -256 -213t-359 -76q-94 0 -184 8q-94 8 -137 17l74 358q40 -9 84 -14q49 -6 96 -6q78 0 131 13q54 13 113 61l-465 1052h692l166 -518l364 518h645z" />
    <glyph glyph-name="afii10038" unicode="&#x424;" horiz-adv-x="2463" 
d="M180 571q8 373 258 577q251 205 787 206l32 155h576l-33 -155q396 0 593 -115q196 -115 196 -350q0 -221 -116 -415q-115 -192 -345 -281q-231 -89 -586 -89l-31 -151h-575l31 151q-402 0 -595 113q-192 113 -192 354zM1167 1008q-141 0 -233 -61q-90 -60 -123 -185
q-16 -54 -16 -115q0 -100 64 -143t196 -45zM1602 459q201 0 286 104q86 106 86 250q0 195 -260 195z" />
    <glyph glyph-name="afii10039" unicode="&#x425;" horiz-adv-x="1818" 
d="M1180 0l-193 377l-348 -377h-713l815 764l-426 698h678l154 -319l285 319h677l-716 -698l499 -764h-712z" />
    <glyph glyph-name="afii10040" unicode="&#x426;" horiz-adv-x="2129" 
d="M1536 -340l70 340h-1465l303 1462h578l-227 -1093h628l228 1093h577l-227 -1093h192l-145 -709h-512z" />
    <glyph glyph-name="afii10041" unicode="&#x427;" horiz-adv-x="1933" 
d="M1212 0l103 502q-295 -41 -455 -41q-330 0 -470 88t-140 289q0 82 22 188l93 436h567l-74 -352q-12 -60 -12 -104q0 -93 54 -132q53 -38 171 -38q55 0 172 12q119 12 148 18l125 596h579l-303 -1462h-580z" />
    <glyph glyph-name="afii10042" unicode="&#x428;" horiz-adv-x="3026" 
d="M141 0l303 1462h578l-227 -1093h505l228 1093h577l-227 -1093h506l227 1093h578l-303 -1462h-2745z" />
    <glyph glyph-name="afii10043" unicode="&#x429;" horiz-adv-x="3090" 
d="M2497 -340l69 340h-2425l303 1462h578l-227 -1093h505l228 1093h577l-227 -1093h506l227 1093h578l-228 -1093h193l-145 -709h-512z" />
    <glyph glyph-name="afii10044" unicode="&#x42a;" horiz-adv-x="2220" 
d="M430 0l225 1094h-436l78 368h1014l-94 -454h626q223 0 342 -92t119 -269q0 -167 -81 -334q-80 -165 -228 -239t-367 -74h-1198zM1141 651l-64 -307h377q63 0 108 13q44 13 72 39q26 24 41 69q15 44 15 80q0 59 -43 83q-42 23 -129 23h-377z" />
    <glyph glyph-name="afii10045" unicode="&#x42b;" horiz-adv-x="2701" 
d="M141 0l303 1462h578l-94 -454h588q220 0 339 -92t119 -269q0 -163 -81 -333q-81 -169 -231 -241q-152 -73 -362 -73h-1159zM1982 0l304 1462h577l-303 -1462h-578zM852 651l-64 -307h338q62 0 106 12t72 40q27 27 42 71q14 41 14 78q0 59 -43 83q-42 23 -129 23h-336z
" />
    <glyph glyph-name="afii10046" unicode="&#x42c;" horiz-adv-x="1933" 
d="M141 0l303 1462h578l-94 -454h626q223 0 342 -92t119 -269q0 -166 -81 -334q-81 -169 -230 -240q-152 -73 -365 -73h-1198zM852 651l-64 -307h379q63 0 106 12q46 13 72 39q25 25 41 72q15 45 15 78q0 58 -43 82q-44 24 -127 24h-379z" />
    <glyph glyph-name="afii10047" unicode="&#x42d;" horiz-adv-x="2086" 
d="M958 563l70 336h561q-8 136 -90 197t-235 61q-142 0 -243 -64q-102 -65 -147 -186h-622q68 200 198 331q131 133 338 204q206 71 549 71q237 0 394 -30t272 -113q197 -140 197 -424q0 -213 -84 -414q-83 -198 -219 -325t-334 -192q-201 -66 -549 -66q-313 0 -493 58
q-181 58 -262 180q-81 121 -81 335v35h623v-8q0 -131 73 -188q72 -56 230 -56q143 0 247 59q103 58 169 199h-562z" />
    <glyph glyph-name="afii10048" unicode="&#x42e;" horiz-adv-x="3006" 
d="M141 0l303 1462h578l-109 -520h285q74 177 192 298q119 122 321 198q200 75 566 75q289 0 467 -54q177 -54 277 -176q98 -120 98 -331q0 -219 -86 -426q-85 -204 -225 -332q-141 -129 -342 -187t-512 -58q-294 0 -474 55q-183 56 -275 176q-93 122 -93 328q0 43 2 65
h-276l-119 -573h-578zM2200 1145q-149 0 -253 -74t-158 -216q-54 -143 -54 -263q2 -273 295 -275q148 0 252 72t159 212q56 142 56 267q0 136 -75 206q-76 71 -222 71z" />
    <glyph glyph-name="afii10049" unicode="&#x42f;" horiz-adv-x="1986" 
d="M1268 0l94 455h-227l-408 -455h-707l549 514q-147 33 -218 121q-72 89 -72 217t68 282q69 157 217 242q149 86 384 86h1200l-303 -1462h-577zM1499 1118h-381q-135 0 -183 -64t-48 -136q0 -58 41 -82q42 -25 127 -25h381z" />
    <glyph glyph-name="afii10065" unicode="&#x430;" 
d="M1186 0l-4 41q0 27 8 70q-107 -81 -247 -118q-144 -38 -345 -38q-254 0 -375 69t-121 216q0 109 57 211t190 162q136 61 370 73l444 23q75 5 109 31q35 27 35 75q0 45 -56 69q-53 23 -161 23q-131 0 -196 -34q-67 -35 -89 -93h-512q69 166 168 240q98 73 256 109
q157 36 457 36q350 0 499 -75q152 -77 152 -250q0 -64 -15 -125l-104 -500q-16 -80 -16 -121q0 -53 20 -94h-524zM799 459q-69 -11 -100 -49t-31 -86t40 -73q41 -26 128 -26q116 0 203 27q89 28 143 83q55 56 73 175q-44 -12 -337 -39z" />
    <glyph glyph-name="afii10066" unicode="&#x431;" horiz-adv-x="1808" 
d="M2021 1581q-34 -123 -109 -193q-76 -71 -165 -110q-94 -41 -230 -64q-137 -23 -282 -28q-119 -6 -195 -19q-67 -12 -153 -47q-83 -34 -150 -92q-65 -56 -100 -137h8q87 98 252 155q161 56 377 56q304 0 452 -98q150 -99 150 -306q0 -225 -118 -403q-119 -179 -332 -258
q-216 -80 -511 -80q-381 0 -548 123q-166 123 -166 383q0 193 68 406q70 218 195 354q128 139 302 207q175 69 436 81q128 6 195 24q68 18 102 46h522zM1081 799q-110 0 -181 -40q-73 -41 -110 -123q-38 -84 -38 -173q0 -91 55 -137q56 -47 174 -47q167 0 253 99
q85 98 85 245q0 89 -56 132q-58 44 -182 44z" />
    <glyph glyph-name="afii10067" unicode="&#x432;" horiz-adv-x="1738" 
d="M123 0l231 1120h1174q134 0 203 -51t69 -151q0 -105 -51 -181q-50 -75 -145 -114l-2 -5q77 -21 113 -75q38 -56 38 -133q0 -106 -59 -206q-60 -103 -170 -153q-111 -51 -275 -51h-1126zM803 848l-29 -146h336q54 0 88 21q35 21 35 70q0 25 -20 40q-19 15 -72 15h-338z
M721 449l-37 -177h383q50 0 90 26q39 26 39 83q0 31 -21 49q-22 19 -71 19h-383z" />
    <glyph glyph-name="afii10068" unicode="&#x433;" horiz-adv-x="1349" 
d="M795 776l-160 -776h-512l231 1120h1227l-72 -344h-714z" />
    <glyph glyph-name="afii10069" unicode="&#x434;" horiz-adv-x="1816" 
d="M1278 -299l61 299h-868l-61 -299h-471l133 643h137q122 120 191 286q68 163 118 408l17 82h1329l-160 -776h178l-133 -643h-471zM1286 801h-358q-40 -152 -100 -276q-59 -123 -117 -181h481z" />
    <glyph glyph-name="afii10070" unicode="&#x435;" 
d="M676 440l-2 -24q0 -82 72 -130t198 -48q114 0 177 25q64 25 110 73h545q-102 -186 -325 -284q-221 -97 -554 -97q-187 0 -322 30q-137 30 -229 89q-184 118 -184 346q0 188 99 361q100 174 318 279q217 105 525 105q370 0 546 -127q177 -128 177 -383q0 -87 -25 -215
h-1126zM1339 698l2 25q0 79 -69 126q-68 46 -199 46q-130 0 -216 -46q-88 -47 -128 -151h610z" />
    <glyph glyph-name="afii10072" unicode="&#x436;" horiz-adv-x="2445" 
d="M1823 0l-150 356l-147 -127l-47 -229h-512l47 229l-96 127l-295 -356h-662l662 676l-369 444h598l264 -391l82 391h512l-82 -391l428 391h598l-553 -444l383 -676h-661z" />
    <glyph glyph-name="afii10073" unicode="&#x437;" horiz-adv-x="1613" 
d="M1421 606q94 -15 151 -62q58 -48 58 -138q0 -124 -78 -233q-79 -110 -259 -164q-181 -54 -521 -54q-246 0 -385 36t-202 103q-62 66 -62 199q0 57 12 135h514q-2 -14 -2 -37q0 -77 46 -113q47 -36 151 -36q165 0 212 37q48 37 48 96q0 44 -52 62t-182 18q-90 0 -112 -2
l53 260q59 -4 104 -4q183 0 229 28t46 86q0 37 -43 55q-41 17 -152 17q-125 0 -186 -43t-88 -119h-496q68 232 255 332t579 100q334 0 483 -58q150 -58 150 -194q0 -113 -73 -192t-196 -109z" />
    <glyph glyph-name="afii10074" unicode="&#x438;" horiz-adv-x="1738" 
d="M1135 0l135 659l-608 -659h-539l231 1120h484l-136 -653l586 653h559l-231 -1120h-481z" />
    <glyph glyph-name="afii10075" unicode="&#x439;" horiz-adv-x="1738" 
d="M1135 0l135 659l-608 -659h-539l231 1120h484l-136 -653l586 653h559l-231 -1120h-481zM1704 1554q-73 -181 -200 -251q-128 -70 -357 -70q-241 0 -336 77q-94 76 -94 234v10h270q5 -51 46 -69q44 -19 159 -19q102 0 157 19q52 18 85 69h270z" />
    <glyph glyph-name="afii10076" unicode="&#x43a;" horiz-adv-x="1703" 
d="M1081 0l-223 377l-172 -127l-51 -250h-512l231 1120h512l-82 -391l490 391h659l-624 -454l434 -666h-662z" />
    <glyph glyph-name="afii10077" unicode="&#x43b;" horiz-adv-x="1757" 
d="M1122 0l166 801h-348l-22 -105q-57 -278 -139 -425q-81 -144 -215 -218q-133 -73 -341 -73q-54 0 -109 5q-53 5 -114 15l59 295q10 -4 68 -6q118 0 184 95q67 95 107 300l90 436h1358l-232 -1120h-512z" />
    <glyph glyph-name="afii10078" unicode="&#x43c;" horiz-adv-x="2148" 
d="M1552 0l166 801h-4l-440 -801h-402l-108 801h-2l-166 -801h-473l231 1120h731l64 -651l375 651h733l-232 -1120h-473z" />
    <glyph glyph-name="afii10079" unicode="&#x43d;" horiz-adv-x="1724" 
d="M1090 0l86 418h-455l-86 -418h-512l231 1120h512l-73 -358h454l74 358h512l-231 -1120h-512z" />
    <glyph glyph-name="afii10080" unicode="&#x43e;" 
d="M158 399q0 154 68 321q69 169 199 265q131 96 308 138q179 42 400 42q371 0 545 -107q175 -108 175 -333q0 -192 -93 -384q-93 -191 -309 -289q-215 -97 -570 -97q-377 0 -549 107q-174 108 -174 337zM1061 834q-118 0 -197 -44q-78 -44 -119 -133q-40 -87 -40 -176
q0 -101 58 -147q59 -47 187 -47q194 0 277 108q82 107 82 254q0 91 -60 138q-61 47 -188 47z" />
    <glyph glyph-name="afii10081" unicode="&#x43f;" horiz-adv-x="1703" 
d="M1069 0l160 776h-434l-160 -776h-512l231 1120h1458l-231 -1120h-512z" />
    <glyph glyph-name="afii10082" unicode="&#x440;" 
d="M39 -401l315 1521h496l-27 -133h4q89 83 209 124q117 40 285 40q247 0 388 -120q140 -119 140 -329q0 -194 -89 -364q-89 -171 -271 -277t-418 -106q-308 0 -409 158h-5l-106 -514h-512zM1079 807q-96 0 -177 -38q-80 -37 -120 -117q-41 -80 -41 -173q0 -180 238 -180
q111 0 190 49q81 50 115 123q35 75 35 147q0 92 -61 141q-60 48 -179 48z" />
    <glyph glyph-name="afii10083" unicode="&#x441;" 
d="M1325 670q0 4 2 28q0 71 -59 109q-60 39 -187 39q-184 0 -279 -107t-95 -245q0 -102 66 -155q65 -52 190 -52q129 0 206 46q79 47 117 140h537q-89 -271 -313 -395q-222 -123 -615 -123q-187 0 -324 29q-135 28 -227 86q-182 113 -182 344q0 179 91 357q93 181 307 285
q215 104 585 109q250 0 404 -46q158 -47 236 -143q79 -97 79 -255q0 -31 -2 -51h-537z" />
    <glyph glyph-name="afii10084" unicode="&#x442;" horiz-adv-x="1490" 
d="M489 0l160 776h-489l71 344h1491l-71 -344h-490l-160 -776h-512z" />
    <glyph glyph-name="afii10085" unicode="&#x443;" horiz-adv-x="1478" 
d="M860 -176q-91 -132 -178 -178q-89 -47 -279 -47q-97 0 -206 7q-130 8 -148 11l68 332q95 -6 135 -6q65 0 95 5q26 4 54 26t58 67l35 49l-308 1030h537l129 -575l367 575h536z" />
    <glyph glyph-name="afii10086" unicode="&#x444;" horiz-adv-x="2433" 
d="M879 -401l98 479q-44 -41 -148 -77q-99 -34 -192 -34q-227 0 -351 118t-124 325q0 185 85 364q86 181 241 284t370 103q99 0 195 -39q98 -40 121 -98l100 489h512l-100 -489q50 59 163 98t209 39q222 -2 336 -111q115 -110 115 -309q0 -190 -89 -377q-88 -186 -257 -291
q-170 -106 -379 -106q-85 0 -173 31q-84 29 -122 80l-98 -479h-512zM1133 776q-7 22 -58 42t-98 20q-100 0 -165 -54q-63 -52 -90 -140q-28 -90 -28 -173q0 -94 44 -136t132 -42q47 0 96 18t78 47zM1536 358q17 -29 61 -47q45 -18 89 -18q97 0 161 50q63 49 98 153
q33 98 33 178q0 82 -45 123q-46 41 -131 41q-39 0 -101 -20q-61 -20 -77 -42z" />
    <glyph glyph-name="afii10087" unicode="&#x445;" horiz-adv-x="1703" 
d="M1073 0l-155 317l-287 -317h-651l636 586l-362 534h627l141 -301l264 301h627l-592 -534l403 -586h-651z" />
    <glyph glyph-name="afii10088" unicode="&#x446;" horiz-adv-x="1765" 
d="M1227 -299l61 299h-1165l231 1120h512l-159 -776h434l159 776h512l-159 -776h178l-133 -643h-471z" />
    <glyph glyph-name="afii10089" unicode="&#x447;" horiz-adv-x="1611" 
d="M977 0l80 387q-90 -17 -174 -27q-80 -10 -148 -10q-270 0 -390 70q-118 69 -118 231q0 46 17 137l69 332h502l-57 -274q-10 -44 -10 -76q0 -62 36 -88q38 -27 123 -27q53 0 118 10q55 9 91 15l92 440h512l-231 -1120h-512z" />
    <glyph glyph-name="afii10090" unicode="&#x448;" horiz-adv-x="2404" 
d="M123 0l231 1120h512l-161 -776h311l162 776h512l-162 -776h311l162 776h512l-232 -1120h-2158z" />
    <glyph glyph-name="afii10091" unicode="&#x449;" horiz-adv-x="2465" 
d="M1927 -299l62 299h-1866l231 1120h512l-159 -776h311l160 776h512l-160 -776h311l160 776h512l-160 -776h178l-133 -643h-471z" />
    <glyph glyph-name="afii10092" unicode="&#x44a;" horiz-adv-x="1935" 
d="M369 0l159 776h-368l71 344h881l-72 -348h598q169 0 260 -71t91 -207q0 -121 -61 -249q-60 -126 -171 -186q-109 -59 -282 -59h-1106zM971 500l-49 -236h335q103 0 140 46t37 108q0 82 -127 82h-336z" />
    <glyph glyph-name="afii10093" unicode="&#x44b;" horiz-adv-x="2375" 
d="M123 0l231 1120h512l-71 -348h557q169 0 260 -71q90 -71 90 -207q0 -118 -61 -248q-60 -127 -171 -187q-109 -59 -280 -59h-1067zM1741 0l231 1120h512l-231 -1120h-512zM725 500l-49 -236h295q102 0 139 46t37 108q0 82 -127 82h-295z" />
    <glyph glyph-name="afii10094" unicode="&#x44c;" horiz-adv-x="1689" 
d="M123 0l231 1120h512l-71 -348h598q169 0 260 -71q90 -71 90 -207q0 -118 -61 -248q-60 -127 -171 -187q-109 -59 -282 -59h-1106zM725 500l-49 -236h334q104 0 141 46t37 108q0 82 -127 82h-336z" />
    <glyph glyph-name="afii10095" unicode="&#x44d;" horiz-adv-x="1775" 
d="M809 440l55 258h453q-15 75 -78 118q-64 44 -192 44q-141 0 -223 -49q-83 -50 -105 -127h-520q91 256 309 370q216 113 606 113q733 0 733 -456q0 -148 -59 -288q-60 -143 -164 -241q-246 -225 -758 -225q-239 0 -393 38q-152 38 -237 136q-86 100 -86 262q1 38 4 70h520
q5 -95 63 -140q61 -47 193 -47q240 0 332 164h-453z" />
    <glyph glyph-name="afii10096" unicode="&#x44e;" horiz-adv-x="2508" 
d="M123 0l233 1120h512l-77 -370h217q99 211 313 313q215 102 559 102q352 0 527 -108q176 -108 176 -336q0 -156 -67 -317q-66 -158 -177 -250q-237 -199 -709 -199q-356 0 -529 110t-173 341v12h-207l-86 -418h-512zM1808 834q-110 0 -188 -49q-76 -47 -112 -140
q-35 -89 -35 -172q0 -186 225 -186q122 0 196 51q75 52 109 139q35 90 35 170q0 92 -56 139q-57 48 -174 48z" />
    <glyph glyph-name="afii10097" unicode="&#x44f;" horiz-adv-x="1699" 
d="M1065 0l72 348h-176l-320 -348h-612l411 373q-128 24 -190 93q-62 70 -62 173q0 106 58 231q58 124 174 187q117 63 295 63h1093l-231 -1120h-512zM1253 856h-335q-113 0 -150 -49t-37 -100q0 -48 34 -67t103 -19h336z" />
    <glyph glyph-name="uni0450" unicode="&#x450;" 
d="M676 440l-2 -24q0 -82 72 -130t198 -48q114 0 177 25q64 25 110 73h545q-102 -186 -325 -284q-221 -97 -554 -97q-187 0 -322 30q-137 30 -229 89q-184 118 -184 346q0 188 99 361q100 174 318 279q217 105 525 105q370 0 546 -127q177 -128 177 -383q0 -87 -25 -215
h-1126zM1339 698l2 25q0 79 -69 126q-68 46 -199 46q-130 0 -216 -46q-88 -47 -128 -151h610zM907 1245l-252 295h621l125 -295h-494z" />
    <glyph glyph-name="afii10071" unicode="&#x451;" 
d="M676 440l-2 -24q0 -82 72 -130t198 -48q114 0 177 25q64 25 110 73h545q-102 -186 -325 -284q-221 -97 -554 -97q-187 0 -322 30q-137 30 -229 89q-184 118 -184 346q0 188 99 361q100 174 318 279q217 105 525 105q370 0 546 -127q177 -128 177 -383q0 -87 -25 -215
h-1126zM1339 698l2 25q0 79 -69 126q-68 46 -199 46q-130 0 -216 -46q-88 -47 -128 -151h610zM575 1257l54 271h495l-55 -271h-494zM1229 1257l55 271h496l-56 -271h-495z" />
    <glyph glyph-name="afii10099" unicode="&#x452;" horiz-adv-x="1734" 
d="M1638 31q-41 -202 -190 -317t-397 -115q-195 5 -237 6q-41 1 -58 6l73 356h78q108 0 167 49q60 50 83 164l62 295q8 35 8 66q0 139 -162 139q-105 0 -185 -66q-79 -66 -106 -194l-88 -420h-512l227 1094h-235l57 278h236l28 141h512l-28 -141h483l-57 -278h-484l-49 -236
h4q73 74 201 122q129 48 281 48q211 0 315 -85t104 -238q0 -52 -12 -107z" />
    <glyph glyph-name="afii10100" unicode="&#x453;" horiz-adv-x="1349" 
d="M795 776l-160 -776h-512l231 1120h1227l-72 -344h-714zM1176 1245h-494l248 295h620z" />
    <glyph glyph-name="afii10101" unicode="&#x454;" horiz-adv-x="1775" 
d="M1815 463q-55 -173 -168 -285q-113 -113 -286 -167t-468 -54q-364 0 -549 115q-182 113 -182 344q0 143 56 280q57 140 147 228q247 243 780 243q382 0 549 -106q168 -107 168 -332l-2 -45h-521q2 10 2 25q0 70 -62 110q-64 41 -194 41q-127 0 -209 -44
q-80 -43 -126 -118h452l-55 -258h-453q24 -164 267 -164q117 0 201 41q82 40 132 146h521z" />
    <glyph glyph-name="afii10102" unicode="&#x455;" horiz-adv-x="1669" 
d="M1149 784q2 8 2 19q0 43 -47 61q-49 19 -125 19q-109 0 -155 -24t-46 -62q0 -29 33 -42q35 -14 100 -20l467 -41q151 -12 237 -73q87 -61 87 -179q0 -142 -84 -257q-84 -116 -278 -173t-521 -57q-374 0 -539 75t-165 251q0 17 6 67h602v-12q0 -62 49 -80q50 -18 137 -18
q97 0 143 25t46 79q0 23 -14 35q-13 11 -48 16l-475 49q-176 18 -254 78t-78 160q0 249 206 368q203 117 630 117q341 0 505 -81q163 -81 163 -236q0 -17 -7 -64h-577z" />
    <glyph glyph-name="afii10103" unicode="&#x456;" horiz-adv-x="757" 
d="M377 1231l59 282h512l-59 -282h-512zM123 0l231 1120h512l-231 -1120h-512z" />
    <glyph glyph-name="afii10104" unicode="&#x457;" horiz-adv-x="757" 
d="M123 0l231 1120h512l-231 -1120h-512zM66 1257l53 271h495l-55 -271h-493zM719 1257l55 271h496l-56 -271h-495z" />
    <glyph glyph-name="afii10105" unicode="&#x458;" horiz-adv-x="796" 
d="M416 1231l59 282h512l-59 -282h-512zM-57 -33h53q93 0 115 7q25 8 40 29q14 20 31 101l211 1016h512l-229 -1102q-34 -170 -90 -255q-54 -83 -160 -124q-104 -40 -276 -40q-248 5 -281 12z" />
    <glyph glyph-name="afii10106" unicode="&#x459;" horiz-adv-x="2689" 
d="M1122 0l166 801h-348l-18 -88q-50 -254 -109 -378q-56 -118 -134 -196q-74 -74 -186 -117q-109 -42 -266 -42q-53 0 -111 5q-54 5 -116 15l59 295q9 -4 33 -4l35 -2q114 0 180 89q66 88 111 306l90 436h1358l-72 -348h598q170 0 260 -72t90 -206q0 -120 -60 -248
q-60 -127 -171 -187q-109 -59 -281 -59h-1108zM1724 500l-49 -236h336q102 0 139 46t37 108q0 49 -37 65q-39 17 -90 17h-336z" />
    <glyph glyph-name="afii10107" unicode="&#x45a;" horiz-adv-x="2656" 
d="M1090 0l88 428h-455l-88 -428h-512l231 1120h512l-71 -348h454l72 348h512l-72 -348h600q163 0 256 -70t93 -208q0 -121 -61 -249q-60 -126 -171 -186q-109 -59 -283 -59h-1105zM1692 500l-50 -236h336q103 0 140 46q36 45 36 108q0 82 -126 82h-336z" />
    <glyph glyph-name="afii10108" unicode="&#x45b;" horiz-adv-x="1734" 
d="M1122 0l99 479q6 33 6 60q0 66 -41 104q-40 37 -121 37q-103 0 -184 -67q-80 -67 -107 -193l-86 -420h-512l225 1094h-235l57 278h236l30 141h512l-30 -141h483l-57 -278h-484l-49 -236h4q73 74 204 122q132 48 280 48q205 0 311 -85t106 -236q0 -52 -12 -109l-123 -598
h-512z" />
    <glyph glyph-name="afii10109" unicode="&#x45c;" horiz-adv-x="1703" 
d="M1081 0l-223 377l-172 -127l-51 -250h-512l231 1120h512l-82 -391l490 391h659l-624 -454l434 -666h-662zM1290 1245h-493l247 295h621z" />
    <glyph glyph-name="uni045D" unicode="&#x45d;" horiz-adv-x="1738" 
d="M1135 0l135 659l-608 -659h-539l231 1120h484l-136 -653l586 653h559l-231 -1120h-481zM954 1245l-252 295h621l125 -295h-494z" />
    <glyph glyph-name="afii10110" unicode="&#x45e;" horiz-adv-x="1478" 
d="M1544 1554q-73 -182 -199 -251q-128 -70 -358 -70q-241 0 -336 77q-94 76 -94 234v10h270q5 -51 46 -69q44 -19 159 -19q102 0 157 19q52 18 85 69h270z" />
    <glyph glyph-name="afii10193" unicode="&#x45f;" horiz-adv-x="1703" 
d="M1087 0l-61 -299h-471l61 299h-493l231 1120h512l-159 -776h434l159 776h512l-231 -1120h-494z" />
    <glyph glyph-name="afii10050" unicode="&#x490;" horiz-adv-x="1576" 
d="M944 1094l-225 -1094h-578l303 1462h940l70 340h512l-147 -708h-875z" />
    <glyph glyph-name="afii10098" unicode="&#x491;" horiz-adv-x="1349" 
d="M795 776l-160 -776h-512l231 1120h764l62 301h462l-133 -645h-714z" />
    <glyph glyph-name="Wgrave" unicode="&#x1e80;" horiz-adv-x="2387" 
d="M1395 0l-31 811h-4l-369 -811h-567l-123 1462h561v-893h4l402 893h461l26 -893h4l375 893h559l-731 -1462h-567zM1276 1593l-252 295h621l124 -295h-493z" />
    <glyph glyph-name="wgrave" unicode="&#x1e81;" horiz-adv-x="2387" 
d="M1411 0l-96 586l-338 -586h-596l-150 1120h547l45 -661h4l381 661h434l87 -661h4l340 661h546l-612 -1120h-596zM1194 1245l-252 295h621l125 -295h-494z" />
    <glyph glyph-name="Wacute" unicode="&#x1e82;" horiz-adv-x="2387" 
d="M1395 0l-31 811h-4l-369 -811h-567l-123 1462h561v-893h4l402 893h461l26 -893h4l375 893h559l-731 -1462h-567zM1767 1593h-493l248 295h620z" />
    <glyph glyph-name="wacute" unicode="&#x1e83;" horiz-adv-x="2387" 
d="M1411 0l-96 586l-338 -586h-596l-150 1120h547l45 -661h4l381 661h434l87 -661h4l340 661h546l-612 -1120h-596zM1681 1245h-493l248 295h620z" />
    <glyph glyph-name="Wdieresis" unicode="&#x1e84;" horiz-adv-x="2387" 
d="M1395 0l-31 811h-4l-369 -811h-567l-123 1462h561v-893h4l402 893h461l26 -893h4l375 893h559l-731 -1462h-567zM954 1606l54 270h495l-55 -270h-494zM1608 1606l55 270h496l-56 -270h-495z" />
    <glyph glyph-name="wdieresis" unicode="&#x1e85;" horiz-adv-x="2387" 
d="M1411 0l-96 586l-338 -586h-596l-150 1120h547l45 -661h4l381 661h434l87 -661h4l340 661h546l-612 -1120h-596zM881 1257l53 271h496l-56 -271h-493zM1534 1257l55 271h496l-55 -271h-496z" />
    <glyph glyph-name="uni1E9E" unicode="&#x1e9e;" horiz-adv-x="2232" 
d="M2288 473q-1 -183 -107 -301t-276 -170q-174 -53 -381 -53q-333 0 -483 84t-150 260q0 50 16 117h518q-8 -35 -8 -66q0 -64 37 -91q39 -28 115 -28q67 0 114 42q48 43 48 128q0 41 -36 73q-37 33 -112 62l-213 91q-128 60 -185 130q-57 71 -57 154q0 108 57 174t138 91
q88 27 182 44q-26 0 -174 5q-187 0 -282 -68q-95 -67 -123 -201l-195 -950h-577l204 997q51 255 321 385q271 131 740 131q239 0 427 -13q205 -14 352 -34l-66 -309q-190 0 -311 -39t-121 -104q0 -39 44 -66q37 -23 134 -65l158 -72q113 -50 182 -132q70 -84 70 -206z" />
    <glyph glyph-name="Ygrave" unicode="&#x1ef2;" horiz-adv-x="1703" 
d="M563 0l84 412l-430 1050h660l159 -573l398 573h659l-868 -1050l-84 -412h-578zM942 1593l-252 295h621l125 -295h-494z" />
    <glyph glyph-name="ygrave" unicode="&#x1ef3;" horiz-adv-x="1478" 
d="M860 -176q-91 -132 -178 -178q-89 -47 -279 -47q-97 0 -206 7q-130 8 -148 11l68 332q95 -6 135 -6q65 0 95 5q26 4 54 26t58 67l35 49l-308 1030h537l129 -575l367 575h536zM774 1245l-252 295h621l125 -295h-494z" />
    <glyph glyph-name="uni2010" unicode="&#x2010;" horiz-adv-x="985" 
d="M209 424l74 356h743l-74 -356h-743z" />
    <glyph glyph-name="endash" unicode="&#x2013;" horiz-adv-x="1024" 
d="M90 436l68 332h1024l-68 -332h-1024z" />
    <glyph glyph-name="emdash" unicode="&#x2014;" horiz-adv-x="2048" 
d="M90 436l68 332h2048l-68 -332h-2048z" />
    <glyph glyph-name="afii00208" unicode="&#x2015;" horiz-adv-x="2048" 
d="M92 436l68 332h2048l-68 -332h-2048z" />
    <glyph glyph-name="quoteleft" unicode="&#x2018;" horiz-adv-x="835" 
d="M270 586l72 348q46 225 227 369q178 142 420 159l-39 -184q-112 -12 -186 -68t-102 -166h241l-96 -458h-537z" />
    <glyph glyph-name="quoteright" unicode="&#x2019;" horiz-adv-x="835" 
d="M309 770q116 12 188 69q73 58 101 165h-242l97 458h536l-71 -348q-27 -136 -117 -258q-89 -120 -241 -193q-151 -73 -290 -77z" />
    <glyph glyph-name="quotesinglbase" unicode="&#x201a;" horiz-adv-x="835" 
d="M100 -233q118 12 188 68q73 58 103 165h-241l94 459h536l-71 -348q-30 -148 -118 -263q-87 -114 -231 -186q-145 -73 -299 -80z" />
    <glyph glyph-name="quotedblleft" unicode="&#x201c;" horiz-adv-x="1478" 
d="M227 586l72 348q46 223 226 368q178 143 421 160l-39 -184q-113 -12 -186 -69q-75 -58 -103 -165h242l-96 -458h-537zM956 586l72 348q46 221 223 365q175 142 424 163l-39 -184q-112 -12 -186 -68t-102 -166h241l-96 -458h-537z" />
    <glyph glyph-name="quotedblright" unicode="&#x201d;" horiz-adv-x="1478" 
d="M266 770q116 12 188 69q73 58 101 165h-242l97 458h536l-72 -348q-30 -148 -120 -263q-90 -116 -238 -188q-148 -73 -289 -77zM995 770q116 12 188 69q73 58 101 165h-242l97 458h536l-71 -348q-37 -162 -134 -277q-98 -116 -238 -181q-141 -65 -276 -70z" />
    <glyph glyph-name="quotedblbase" unicode="&#x201e;" horiz-adv-x="1478" 
d="M57 -233q119 15 189 69q72 55 102 164h-242l95 459h536l-71 -348q-30 -147 -118 -262q-87 -114 -231 -186q-147 -74 -299 -81zM786 -233q119 15 189 69q72 55 102 164h-241l94 459h536l-71 -348q-39 -169 -134 -281q-93 -109 -230 -174q-135 -64 -283 -74z" />
    <glyph glyph-name="dagger" unicode="&#x2020;" horiz-adv-x="1974" 
d="M635 -401l227 1097h-508l74 357h508l86 409h537l-86 -409h507l-73 -357h-508l-228 -1097h-536z" />
    <glyph glyph-name="daggerdbl" unicode="&#x2021;" horiz-adv-x="1974" 
d="M1237 -25l-78 -376h-512l78 376h-520l65 320h521l98 471h-520l67 319h520l78 377h512l-78 -377h521l-68 -319h-520l-98 -471h520l-66 -320h-520z" />
    <glyph glyph-name="bullet" unicode="&#x2022;" horiz-adv-x="1024" 
d="M291 655q0 120 67 223t171 160q105 58 210 58q135 0 215 -81q80 -82 80 -210q0 -171 -135 -305q-134 -133 -311 -133q-135 0 -216 83q-81 82 -81 205z" />
    <glyph glyph-name="ellipsis" unicode="&#x2026;" horiz-adv-x="2048" 
d="M74 0l94 459h537l-95 -459h-536zM756 0l94 459h536l-94 -459h-536zM1438 0l94 459h536l-94 -459h-536z" />
    <glyph glyph-name="perthousand" unicode="&#x2030;" horiz-adv-x="2387" 
d="M215 983q0 105 47 228q47 122 145 187q97 64 242 64q283 0 283 -237q0 -113 -45 -234t-139 -185q-95 -65 -248 -65q-285 0 -285 242zM180 -41l1272 1503h262l-1272 -1503h-262zM614 1303q-44 0 -70 -36q-26 -37 -50 -142q-25 -109 -25 -154q0 -41 14 -55q15 -15 49 -15
q48 0 73 31q23 29 49 148q26 121 26 153q0 42 -20 56t-46 14zM963 197q0 103 47 230q47 126 145 189q101 64 242 64q282 0 282 -242q0 -102 -45 -225q-44 -121 -140 -188q-94 -66 -249 -66q-282 0 -282 238zM1749 197q0 100 42 220q42 119 139 191q98 72 253 72
q142 0 212 -58q71 -59 71 -182q0 -106 -46 -226q-47 -122 -141 -188q-96 -67 -247 -67q-283 0 -283 238zM1362 520q-42 0 -70 -31q-27 -30 -51 -141t-24 -160q0 -40 14 -54q15 -15 49 -15q55 0 78 41q22 40 45 136q22 92 22 153q0 37 -14 54t-49 17zM2146 520q-70 0 -94 -84
q-27 -94 -37 -150q-12 -66 -12 -100q0 -36 14 -51q15 -16 49 -16q52 0 76 36q25 38 47 143q23 110 23 151q0 40 -14 55q-15 16 -52 16z" />
    <glyph glyph-name="guilsinglleft" unicode="&#x2039;" horiz-adv-x="835" 
d="M262 399l84 406l512 330l-72 -344l-294 -189l215 -188l-70 -344z" />
    <glyph glyph-name="guilsinglright" unicode="&#x203a;" horiz-adv-x="835" 
d="M227 70l70 344l297 188l-217 189l72 344l372 -330l-84 -406z" />
    <glyph glyph-name="uni203D" unicode="&#x203d;" horiz-adv-x="1744" 
d="M727 586q10 52 29 89q17 33 63 68l41 342q-111 -41 -135 -147h-516q63 198 228 312q167 115 462 139l14 110h512l-30 -108q534 -37 534 -293q0 -124 -70 -215q-72 -93 -192 -142q-116 -47 -270 -78q-149 -30 -164 -77h-506zM1245 883q73 16 118 47q48 33 48 94
q0 31 -22 50t-76 30zM590 0l94 459h537l-95 -459h-536z" />
    <glyph glyph-name="fraction" unicode="&#x2044;" horiz-adv-x="339" 
d="M-449 -41l1270 1503h262l-1269 -1503h-263z" />
    <glyph glyph-name="uni2070" unicode="&#x2070;" horiz-adv-x="1284" 
d="M309 1307q6 243 181 399q175 155 542 160q262 0 395 -88q134 -89 134 -254q0 -160 -87 -296q-87 -137 -244 -200q-156 -63 -388 -63q-263 0 -398 87t-135 255zM705 1362q0 -72 46 -117q47 -45 138 -45q114 0 195 75t81 193q0 72 -48 117t-142 45q-113 0 -192 -78
q-78 -77 -78 -190z" />
    <glyph glyph-name="uni2074" unicode="&#x2074;" horiz-adv-x="1284" 
d="M1319 1120l-29 -143h-368l28 143h-680l47 228l637 505h516l-104 -507h168l-47 -226h-168zM1051 1608l-340 -262h286z" />
    <glyph glyph-name="uni2075" unicode="&#x2075;" horiz-adv-x="1284" 
d="M764 1632l-39 -88q55 15 131 28q63 11 160 11q258 0 378 -63q119 -62 119 -183q0 -180 -177 -276t-496 -96q-292 0 -419 63q-128 63 -128 205q0 25 2 39h407q7 -43 51 -63q41 -19 130 -19q122 0 179 30q56 29 56 85q0 36 -43 57q-41 20 -153 20q-75 0 -120 -11
q-55 -13 -73 -23h-375l213 505h1008l-47 -221h-764z" />
    <glyph glyph-name="uni2076" unicode="&#x2076;" horiz-adv-x="1284" 
d="M1165 1585q-5 31 -43 47q-40 17 -131 17q-110 0 -173 -33t-87 -125h4q61 27 134 42q75 15 157 15q245 0 365 -55t120 -170q-2 -169 -166 -263q-166 -95 -452 -95q-315 0 -441 77q-128 78 -128 248q0 143 71 285q72 143 230 217q159 74 413 74q257 0 387 -64
q126 -62 131 -217h-391zM715 1253q0 -30 43 -51q41 -20 133 -20q96 0 152 20q59 21 59 70q0 30 -41 51q-39 20 -141 20q-101 0 -152 -22q-53 -23 -53 -68z" />
    <glyph glyph-name="uni2077" unicode="&#x2077;" horiz-adv-x="1222" 
d="M362 977q40 130 133 224q98 99 237 196q152 106 380 221h-758l49 235h1201l-58 -276q-290 -157 -455 -304q-166 -148 -227 -296h-502z" />
    <glyph glyph-name="uni2078" unicode="&#x2078;" horiz-adv-x="1284" 
d="M1386 1446q64 -16 97 -57q35 -44 35 -99q0 -170 -171 -248q-169 -77 -505 -77q-297 0 -426 55q-131 56 -131 176q0 89 55 156t154 94v2q-44 15 -72 46q-29 32 -29 85q0 145 159 216q160 71 478 71q258 0 395 -44q136 -44 136 -157q0 -78 -45 -135q-46 -58 -130 -82v-2z
M788 1573q0 -28 37 -40q34 -11 131 -11q113 0 153 17q42 18 42 60q0 28 -36 40t-136 12q-91 0 -142 -16q-49 -15 -49 -62zM698 1245q0 -31 45 -46t146 -15q114 0 165 19q52 19 52 71q0 35 -40 48q-39 13 -151 13q-129 0 -173 -21t-44 -69z" />
    <glyph glyph-name="uni2079" unicode="&#x2079;" horiz-adv-x="1284" 
d="M1137 1339q-60 -27 -129 -42t-162 -15q-256 0 -369 58q-115 59 -115 167q0 161 163 260t454 99q313 0 441 -78t128 -248q0 -151 -71 -289q-72 -139 -227 -213q-153 -73 -416 -73q-261 0 -388 64q-126 64 -131 216h392q5 -33 43 -48q39 -15 131 -15q113 0 174 32
q63 33 86 125h-4zM772 1559q0 -31 39 -52q37 -20 141 -20q101 0 152 22q53 23 53 68q0 30 -43 51q-44 21 -133 21q-95 0 -152 -21t-57 -69z" />
    <glyph glyph-name="uni2080" unicode="&#x2080;" horiz-adv-x="1284" 
d="M45 16q6 244 181 400q174 154 542 159q262 0 395 -88t133 -254q0 -158 -87 -295t-243 -200q-158 -64 -388 -64q-263 0 -398 87t-135 255zM440 72q0 -72 46 -117t139 -45q114 0 195 75t81 193q0 72 -48 117t-142 45q-113 0 -192 -78t-79 -190z" />
    <glyph glyph-name="uni2081" unicode="&#x2081;" horiz-adv-x="888" 
d="M307 -313l103 489h-283l47 234h19q141 0 223 27q81 26 141 126h313l-182 -876h-381z" />
    <glyph glyph-name="uni2082" unicode="&#x2082;" horiz-adv-x="1284" 
d="M-25 -313q34 146 112 242t180 148q105 53 216 77q144 31 195 40q102 19 148 29q67 15 67 72q0 24 -32 38q-30 13 -107 13q-74 0 -120 -12q-44 -11 -73 -37q-26 -23 -49 -84h-430q60 196 221 279q160 83 453 83q292 0 425 -57q134 -57 134 -176q0 -118 -98 -203
q-99 -85 -273 -114l-350 -58q-160 -33 -174 -43v-4h772l-49 -233h-1168z" />
    <glyph glyph-name="uni2083" unicode="&#x2083;" horiz-adv-x="1284" 
d="M1081 154q174 -28 174 -156q0 -87 -59 -162t-204 -119q-142 -43 -388 -43q-271 0 -376 29q-102 28 -155 84t-53 139q0 16 5 54h413q0 -46 51 -65q50 -19 144 -19q104 0 157 22q54 22 54 66q0 30 -37 42q-34 11 -90 11h-250l43 209h264q48 0 78 12q31 12 31 47
q0 49 -160 49q-84 0 -120 -9q-35 -9 -54 -40h-422q41 147 199 209q156 61 444 61q286 0 412 -46q127 -46 127 -148q0 -98 -59 -151q-56 -50 -167 -72z" />
    <glyph glyph-name="uni2084" unicode="&#x2084;" horiz-adv-x="1284" 
d="M1055 -170l-29 -143h-369l29 143h-680l47 227l637 506h516l-104 -508h168l-47 -225h-168zM786 317l-340 -262h287z" />
    <glyph glyph-name="uni2085" unicode="&#x2085;" horiz-adv-x="1284" 
d="M500 342l-39 -88q55 15 131 28q63 11 160 11q255 0 377 -64q120 -63 120 -182q0 -180 -177 -276q-179 -97 -497 -97q-288 0 -418 64q-128 63 -128 205q0 25 2 39h407q7 -43 50 -63q41 -19 130 -19q125 0 180 29q56 29 56 85q0 37 -43 58q-41 20 -154 20q-74 0 -119 -11
q-51 -12 -73 -24h-375l213 506h1008l-47 -221h-764z" />
    <glyph glyph-name="uni2086" unicode="&#x2086;" horiz-adv-x="1284" 
d="M901 295q-5 31 -43 47t-131 16q-112 0 -173 -32q-63 -33 -87 -125h4q61 27 134 42q75 15 157 15q244 0 364 -55q121 -55 121 -170q-2 -168 -167 -263q-168 -96 -451 -96q-315 0 -442 78q-128 78 -128 248q0 141 72 285t229 217q156 73 414 73q260 0 387 -63
q126 -62 131 -217h-391zM451 -37q0 -30 43 -51q44 -21 133 -21q93 0 152 21t59 70q0 30 -41 51q-39 20 -142 20q-100 0 -151 -22q-53 -23 -53 -68z" />
    <glyph glyph-name="uni2087" unicode="&#x2087;" horiz-adv-x="1222" 
d="M98 -313q41 131 132 224q93 94 238 195q158 109 380 222h-758l49 235h1200l-57 -276q-292 -158 -456 -304q-165 -147 -226 -296h-502z" />
    <glyph glyph-name="uni2088" unicode="&#x2088;" horiz-adv-x="1284" 
d="M1122 156q63 -15 97 -58t34 -98q0 -170 -171 -248t-504 -78q-294 0 -426 56t-132 176q0 87 56 155q56 69 153 95v2q-43 15 -71 46q-29 32 -29 85q0 145 159 216q158 70 478 70q258 0 395 -44q135 -43 135 -156q0 -78 -45 -135q-46 -58 -129 -82v-2zM524 283q0 -28 37 -40
t131 -12q111 0 153 18t42 60q0 28 -36 40q-33 11 -136 11q-95 0 -143 -15t-48 -62zM434 -45q0 -31 45 -46t146 -15q114 0 165 19q52 19 52 71q0 35 -40 48q-39 13 -151 13q-129 0 -173 -21t-44 -69z" />
    <glyph glyph-name="uni2089" unicode="&#x2089;" horiz-adv-x="1284" 
d="M872 49q-60 -27 -129 -42t-161 -15q-256 0 -369 58q-115 59 -115 167q0 161 163 260q162 98 454 98q315 0 441 -77q128 -78 128 -248q0 -149 -72 -289t-226 -213q-156 -74 -417 -74q-259 0 -387 65q-126 64 -131 216h391q5 -33 43 -48q42 -16 131 -16q112 0 175 33
t86 125h-5zM508 268q0 -30 39 -51q37 -20 141 -20q101 0 152 22q53 23 53 68q0 30 -43 51q-41 20 -133 20q-98 0 -152 -20q-57 -21 -57 -70z" />
    <glyph glyph-name="Euro" unicode="&#x20ac;" horiz-adv-x="1974" 
d="M1776 27q-144 -36 -285 -56q-139 -20 -291 -20q-398 0 -582 135t-184 401v15h-196l143 174h74q0 28 12 63h-178l141 174h90q219 537 1020 537q335 0 623 -125l-297 -334q-127 76 -210 103q-85 28 -171 28q-117 0 -202 -49q-84 -49 -161 -160h686l-143 -174h-612
q-5 -11 -9 -28q-4 -18 -6 -35h580l-143 -174h-443q17 -114 85 -167q69 -54 206 -54q136 0 259 41q118 39 284 127z" />
    <glyph glyph-name="uni20B9" unicode="&#x20b9;" horiz-adv-x="1974" 
d="M1710 1208q16 -27 24 -51q7 -24 9 -53h336l-49 -213h-304q-47 -174 -203 -278q-155 -103 -390 -103h-93l625 -510h-743l-578 522l55 260h426q132 0 213 25q79 24 113 84h-731l43 213h711q-22 60 -89 81q-66 21 -194 21h-404l45 215h1616l-45 -213h-393z" />
    <glyph glyph-name="uni20BA" unicode="&#x20ba;" horiz-adv-x="1818" 
d="M276 0l93 432l-195 -70l49 228l195 69l20 97l-194 -70l49 227l194 70l95 434h512l-52 -233l523 190l-49 -227l-523 -191l-20 -96l522 191l-47 -228l-524 -190l-70 -318h70q158 0 260 96q100 95 141 285h586q-67 -342 -330 -519t-704 -177h-601z" />
    <glyph glyph-name="uni20BD" unicode="&#x20bd;" horiz-adv-x="1974" 
d="M938 -2h-512l41 205h-287l56 250h286l27 125h-287l53 249h287l123 588h977q205 0 304 -78t99 -235q0 -243 -172 -384q-171 -140 -454 -140h-418l-27 -125h574l-56 -250h-573zM1331 827q105 0 158 41t53 140q0 68 -43 96q-44 29 -121 29h-200l-64 -306h217z" />
    <glyph glyph-name="afii61248" unicode="&#x2105;" horiz-adv-x="2238" 
d="M909 1139v8q0 41 -32 67q-33 27 -97 27q-95 0 -147 -65q-53 -67 -53 -166q0 -63 33 -89q36 -28 98 -28q64 0 110 35q45 35 62 82h323q-52 -166 -187 -252q-134 -86 -351 -86q-205 0 -309 73q-105 73 -105 220q6 175 102 309q145 188 473 188q212 0 305 -71
q95 -72 95 -222v-30h-320zM498 -41l1271 1503h263l-1272 -1503h-262zM1303 252q0 96 39 197q40 105 116 170t177 98q102 33 237 33q198 0 301 -73q102 -72 102 -212q0 -102 -37 -198q-38 -99 -102 -163t-169 -105q-102 -40 -255 -40q-409 0 -409 293zM1823 528
q-92 0 -144 -67q-53 -68 -53 -168q0 -53 32 -83t97 -30q92 0 145 68q52 67 52 174q0 47 -33 77q-32 29 -96 29z" />
    <glyph glyph-name="afii61289" unicode="&#x2113;" horiz-adv-x="1024" 
d="M821 98q-96 -66 -187 -96q-95 -31 -192 -31q-140 0 -222 70q-81 69 -81 186q0 33 15 105l-123 -84l-84 182l262 168l96 459q39 193 163 306q124 114 296 114q122 0 204 -79q83 -80 83 -200q-1 -177 -138 -335q-136 -157 -403 -324l-29 -121q-22 -94 -22 -131
q0 -43 23 -63q24 -21 59 -21q47 0 97 23t105 59zM569 815q104 84 161 184q56 97 56 187q0 34 -15 58t-44 24q-57 0 -84 -113z" />
    <glyph glyph-name="afii61352" unicode="&#x2116;" horiz-adv-x="3244" 
d="M1231 0l-367 825l-170 -825h-553l293 1421h684l359 -811l168 811h553l-293 -1421h-674zM2050 0l59 295h1057l-59 -295h-1057zM2654 369q-262 0 -379 65q-118 66 -118 211q0 130 64 242t206 168q140 55 381 55q260 0 379 -66q118 -66 118 -210q0 -132 -64 -242
q-64 -109 -203 -167q-136 -56 -384 -56zM2904 766q0 51 -35 81t-110 30q-56 0 -102 -19q-43 -18 -70 -54q-28 -37 -29 -91q0 -51 34 -81t111 -30q92 0 147 47q54 47 54 117z" />
    <glyph glyph-name="uni2117" unicode="&#x2117;" horiz-adv-x="1638" 
d="M172 571q0 236 135 455q135 220 363 353q229 134 463 134q190 0 335 -82q146 -83 224 -227q77 -142 77 -313q0 -233 -135 -453q-137 -223 -362 -355q-229 -134 -465 -134q-173 0 -318 76q-147 77 -231 219q-86 145 -86 327zM1081 1280q-180 0 -330 -99
q-151 -100 -235 -257q-84 -158 -84 -328q0 -184 115 -299t309 -115q183 0 337 101q151 99 234 259q82 158 82 324q0 189 -116 301q-118 113 -312 113zM610 315l172 836h328q145 0 218 -50t73 -149q0 -90 -44 -170q-43 -78 -132 -119q-87 -40 -217 -40h-138l-63 -308h-197z
M1042 782q60 0 103 34t43 99q0 34 -25 56q-23 20 -84 20h-133l-43 -209h139z" />
    <glyph glyph-name="trademark" unicode="&#x2122;" horiz-adv-x="2048" 
d="M354 618l129 623h-229l47 221h754l-47 -221h-230l-129 -623h-295zM1825 618l114 549h-4l-282 -549h-209l-53 549h-5l-114 -549h-271l177 844h393l49 -485h4l254 485h393l-176 -844h-270z" />
    <glyph glyph-name="uni2126" unicode="&#x2126;" horiz-adv-x="2129" 
d="M1214 0l89 434q126 62 203 186q75 122 75 261q0 122 -73 193t-208 71q-196 -1 -312 -140q-117 -139 -118 -319q0 -85 35 -149q35 -63 99 -103l-89 -434h-800l67 332h310l6 26q-102 33 -162 120t-60 220q0 222 132 416q131 193 387 296q255 103 583 103q378 0 602 -141
t224 -395q-1 -220 -121 -394t-303 -225l-6 -26h309l-68 -332h-801z" />
    <glyph glyph-name="estimated" unicode="&#x212e;" horiz-adv-x="1228" 
d="M1085 242q-101 -157 -204 -216q-107 -61 -263 -61q-228 0 -377 159q-150 160 -151 406q0 150 63 280t184 208q122 78 281 78q235 -1 383 -160t148 -406h-827v-370q121 -121 296 -121q129 0 223 58q95 59 173 188zM918 901q-129 123 -304 123q-168 0 -292 -123v-297h596
v297z" />
    <glyph glyph-name="partialdiff" unicode="&#x2202;" horiz-adv-x="1214" 
d="M139 1307q95 92 194 131t216 39q271 0 422 -196q149 -194 149 -548q0 -184 -34 -323q-35 -143 -101 -240q-137 -199 -399 -199q-220 0 -358 135t-138 351q0 197 129 333t332 138q133 0 252 -84q0 176 -64 284q-63 107 -182 107q-70 0 -132 -34q-64 -35 -114 -85zM799 602
q-41 41 -93 65q-50 23 -104 23q-88 0 -146 -72q-59 -73 -59 -176q0 -98 53 -168q52 -69 136 -69q100 0 156 101q57 102 57 276v20z" />
    <glyph glyph-name="uni2206" unicode="&#x2206;" horiz-adv-x="1855" 
d="M68 0l55 274l754 1188h708l258 -1188l-55 -274h-1720zM1141 1020h-4l-369 -664h467z" />
    <glyph glyph-name="product" unicode="&#x220f;" horiz-adv-x="1554" 
d="M1135 -438v1730h-717v-1730h-322v2048h1358v-2048h-319z" />
    <glyph glyph-name="summation" unicode="&#x2211;" horiz-adv-x="1441" 
d="M59 -438v276l586 762l-563 729v281h1272v-320h-846l514 -690l-545 -719h901v-319h-1319z" />
    <glyph glyph-name="minus" unicode="&#x2212;" horiz-adv-x="1228" 
d="M172 371l61 295h1037l-62 -295h-1036z" />
    <glyph glyph-name="uni2215" unicode="&#x2215;" horiz-adv-x="339" 
d="M-449 -41l1270 1503h262l-1269 -1503h-263z" />
    <glyph glyph-name="uni2219" unicode="&#x2219;" horiz-adv-x="835" 
d="M248 446q2 128 101 224q100 96 229 98q97 -1 158 -62t61 -153q0 -124 -101 -223q-100 -99 -229 -99q-96 0 -158 62q-61 61 -61 153z" />
    <glyph glyph-name="radical" unicode="&#x221a;" horiz-adv-x="1251" 
d="M510 -438l-287 585l-119 -55l-116 250l403 186l213 -475l318 1557h340l-461 -2048h-291z" />
    <glyph glyph-name="infinity" unicode="&#x221e;" horiz-adv-x="1820" 
d="M907 354q-100 -135 -189 -186q-92 -53 -202 -53q-192 0 -309 126t-117 324q0 195 115 318q114 121 301 121q106 0 200 -54q88 -50 201 -205q93 138 184 198q93 61 220 61q186 0 300 -119q113 -118 115 -320q0 -203 -114 -328q-114 -124 -301 -124q-114 0 -210 56
q-100 58 -194 185zM745 555q-47 70 -114 119t-123 49q-62 0 -105 -48q-43 -47 -43 -118q0 -73 40 -116q41 -44 110 -44q58 0 119 38q58 36 116 120zM1069 555q61 -86 119 -122q61 -38 119 -38q69 0 109 45q40 44 40 119q0 71 -44 118q-43 46 -114 46q-49 0 -112 -45
q-66 -47 -117 -123z" />
    <glyph glyph-name="integral" unicode="&#x222b;" horiz-adv-x="1366" 
d="M473 971q0 224 30 332q30 109 81 173t125 99q75 35 170 35q120 0 206 -59t86 -150q0 -65 -41 -108q-40 -42 -106 -42q-72 0 -102 35q-32 36 -36 112q-5 77 -44 77q-18 0 -30 -17q-11 -15 -11 -69q0 -81 8 -203t8 -232l2 -778q0 -323 -98 -469q-99 -147 -307 -147
q-119 0 -206 57t-87 152q0 68 40 108q41 41 105 41q43 0 70 -13q28 -13 46 -43t24 -76q6 -45 14 -68q8 -21 31 -21q17 0 29 16q12 17 12 74q0 71 -10 176q-9 95 -9 162v846z" />
    <glyph glyph-name="approxequal" unicode="&#x2248;" horiz-adv-x="1214" 
d="M1399 1030q-56 -194 -169 -317q-114 -125 -249 -125q-80 0 -245 61q-168 62 -247 62q-44 0 -79 -32t-52 -79h-206q39 171 158 306q120 136 257 136q94 0 250 -60t246 -60q55 0 84 30q27 28 43 78h209zM1292 518q-66 -208 -171 -327q-104 -117 -234 -117q-79 0 -169 31
q-36 12 -98.5 34.5t-77.5 27.5q-86 30 -159 30q-54 0 -84 -30t-45 -77h-207q44 181 164 309q121 129 244 129q99 0 250 -60t249 -60q47 0 77 24q29 23 52 86h209z" />
    <glyph glyph-name="notequal" unicode="&#x2260;" horiz-adv-x="1214" 
d="M797 1300l280 -139l-94 -190h180v-324h-338l-88 -178h426v-322h-583l-164 -333l-283 139l94 194h-182v322h342l86 178h-428v324h588z" />
    <glyph glyph-name="lessequal" unicode="&#x2264;" horiz-adv-x="1214" 
d="M45 598v320l1118 303v-328l-665 -135l665 -166v-330zM45 -109v322h1118v-322h-1118z" />
    <glyph glyph-name="greaterequal" unicode="&#x2265;" horiz-adv-x="1214" 
d="M45 262v330l670 166l-670 135v328l1118 -303v-320zM45 -109v322h1118v-322h-1118z" />
    <glyph glyph-name="lozenge" unicode="&#x25ca;" horiz-adv-x="1214" 
d="M457 -72l-398 801l402 801h287l401 -801l-401 -801h-291zM817 729l-213 473l-215 -473l215 -473z" />
    <glyph glyph-name="zero.dnom" horiz-adv-x="1284" 
d="M113 334q6 243 181 399q175 155 542 160q262 0 395 -88t133 -254q0 -159 -87 -296t-244 -200q-156 -63 -388 -63q-262 0 -397 87t-135 255zM508 389q0 -72 46 -117t138 -45q115 0 196 75t81 194q0 71 -48 116t-143 45q-113 0 -191 -77q-79 -78 -79 -191z" />
    <glyph glyph-name="one.dnom" horiz-adv-x="888" 
d="M375 4l102 490h-282l47 233h18q137 0 223 28q82 27 142 126h313l-182 -877h-381z" />
    <glyph glyph-name="two.dnom" horiz-adv-x="1284" 
d="M43 4q35 147 112 243q77 95 180 147q105 53 216 77q150 32 194 40q85 15 149 30q67 15 67 71q0 24 -32 38q-33 14 -108 14q-70 0 -120 -13q-43 -11 -72 -37q-26 -23 -49 -84h-430q60 196 221 279q162 84 452 84q291 0 425 -57t134 -177q0 -117 -98 -202
q-101 -87 -272 -115l-350 -57q-161 -34 -175 -43v-4h773l-50 -234h-1167z" />
    <glyph glyph-name="three.dnom" horiz-adv-x="1284" 
d="M1149 471q174 -29 174 -156q0 -86 -59 -161t-204 -119q-142 -43 -388 -43q-274 0 -376 28q-104 28 -156 84q-52 55 -52 140q0 22 4 53h414q0 -45 51 -65q50 -19 143 -19q102 0 157 23q54 22 54 65q0 30 -37 42q-34 11 -90 11h-249l43 209h264q48 0 78 12t30 48
q0 49 -159 49q-84 0 -120 -9t-55 -40h-421q40 146 198 208q159 62 445 62q285 0 411 -46q127 -46 127 -149q0 -98 -58 -150t-167 -73z" />
    <glyph glyph-name="four.dnom" horiz-adv-x="1284" 
d="M1120 147l-28 -143h-369l29 143h-680l47 228l637 506h516l-105 -508h168l-47 -226h-168zM852 635l-340 -262h287z" />
    <glyph glyph-name="five.dnom" horiz-adv-x="1284" 
d="M565 659l-39 -88q55 15 131 28q63 11 160 11q258 0 378 -63t120 -182q0 -181 -177 -277t-497 -96q-291 0 -419 63t-128 205q0 25 2 39h408q7 -42 50 -62t130 -20q122 0 179 30t57 85q0 36 -43 57t-154 21q-71 0 -120 -12q-55 -13 -73 -23h-374l213 506h1007l-47 -222
h-764z" />
    <glyph glyph-name="six.dnom" horiz-adv-x="1284" 
d="M965 612q-5 31 -43 47q-40 17 -131 17q-111 0 -174 -33t-87 -125h5q61 27 134 42q75 15 156 15q245 0 365 -55q121 -55 121 -170q-2 -168 -167 -263q-166 -95 -452 -95q-314 0 -441 78q-128 78 -128 247q0 141 72 285t229 217q159 74 414 74q257 0 387 -64
q126 -62 131 -217h-391zM514 281q0 -31 43 -52q41 -20 133 -20q97 0 153 20q58 21 58 70q0 30 -41 51q-40 21 -141 21q-98 0 -152 -23q-53 -23 -53 -67z" />
    <glyph glyph-name="seven.dnom" horiz-adv-x="1222" 
d="M164 4q41 131 132 224q96 97 238 196q155 108 379 221h-757l49 236h1200l-57 -277q-292 -158 -456 -304q-165 -147 -226 -296h-502z" />
    <glyph glyph-name="eight.dnom" horiz-adv-x="1284" 
d="M1188 473q63 -15 96 -57q35 -44 35 -99q0 -169 -171 -247t-505 -78q-297 0 -426 55q-131 56 -131 176q0 89 55 156t154 94v2q-44 15 -72 46t-28 85q0 146 158 216q160 71 478 71q259 0 396 -44q135 -43 135 -157q0 -78 -45 -135q-46 -58 -129 -82v-2zM590 600
q0 -28 37 -40q34 -11 131 -11q112 0 152 17q42 18 42 61q0 28 -36 40q-33 11 -136 11q-94 0 -142 -15t-48 -63zM500 272q0 -31 45 -46t145 -15q114 0 165 19q52 19 52 71q0 35 -40 48q-39 13 -150 13q-129 0 -173 -21t-44 -69z" />
    <glyph glyph-name="nine.dnom" horiz-adv-x="1284" 
d="M940 367q-60 -27 -129 -42q-74 -16 -162 -16q-253 0 -368 59t-115 167q0 161 163 260q162 98 453 98q314 0 442 -78t128 -248q0 -149 -72 -288q-72 -140 -226 -213q-156 -74 -417 -74q-260 0 -387 64q-126 64 -131 216h391q5 -33 43 -48q39 -15 131 -15q111 0 174 33
t86 125h-4zM575 586q0 -30 39 -51t142 -21q97 0 151 23t54 67q0 30 -43 51q-44 21 -134 21q-94 0 -151 -21q-58 -21 -58 -69z" />
    <glyph glyph-name="zero.frac" horiz-adv-x="1284" 
d="M223 879q6 243 181 399q175 155 542 160q262 0 395 -88q134 -89 134 -254q0 -159 -87 -296t-244 -200q-156 -63 -388 -63q-263 0 -398 87t-135 255zM618 934q0 -72 47 -117t138 -45q114 0 195 75t81 193q0 72 -48 117t-142 45q-113 0 -192 -78t-79 -190z" />
    <glyph glyph-name="one.frac" horiz-adv-x="888" 
d="M485 549l103 489h-283l47 234h19q141 0 223 27q81 26 141 126h314l-183 -876h-381z" />
    <glyph glyph-name="two.frac" horiz-adv-x="1284" 
d="M154 549q35 149 111 243q77 94 180 147q105 53 216 77q144 31 195 40q107 19 149 29q66 15 66 72q0 24 -32 38q-30 13 -107 13q-74 0 -120 -12q-44 -11 -73 -37q-26 -23 -49 -84h-430q60 196 221 279q162 84 453 84q289 0 425 -58q134 -57 134 -176q0 -118 -98 -203
q-99 -85 -273 -114l-350 -58q-160 -33 -174 -43v-4h772l-49 -233h-1167z" />
    <glyph glyph-name="three.frac" horiz-adv-x="1284" 
d="M1260 1016q174 -28 174 -156q0 -86 -60 -162q-58 -74 -204 -118q-142 -43 -388 -43q-273 0 -375 28q-103 29 -156 84q-52 55 -52 139q0 23 4 54h413q0 -45 52 -65q50 -19 143 -19q104 0 157 22q54 22 54 66q0 30 -37 42q-34 11 -90 11h-250l43 209h264q48 0 78 12
q31 12 31 47q0 50 -160 50q-80 0 -120 -10q-35 -9 -54 -40h-422q41 147 199 209q159 62 444 62q286 0 412 -46q127 -46 127 -149q0 -97 -59 -150q-58 -52 -166 -73z" />
    <glyph glyph-name="four.frac" horiz-adv-x="1284" 
d="M1235 692l-29 -143h-368l28 143h-680l47 228l637 505h516l-104 -507h168l-47 -226h-168zM967 1180l-340 -262h286z" />
    <glyph glyph-name="five.frac" horiz-adv-x="1284" 
d="M680 1204l-39 -88q55 15 131 28q63 11 160 11q258 0 378 -63t120 -183q0 -179 -178 -276q-177 -96 -496 -96q-292 0 -419 63q-128 63 -128 205q0 25 2 39h407q7 -43 51 -63q41 -19 130 -19q122 0 179 30q56 29 56 85q0 36 -43 57q-41 20 -153 20q-75 0 -120 -11
q-55 -13 -73 -23h-375l213 505h1008l-47 -221h-764z" />
    <glyph glyph-name="six.frac" horiz-adv-x="1284" 
d="M1081 1157q-5 31 -43 47q-40 17 -131 17q-110 0 -173 -33t-87 -125h4q61 27 134 42q75 15 157 15q245 0 365 -55t120 -170q-2 -169 -166 -263q-166 -95 -452 -95q-315 0 -441 77q-128 78 -128 248q0 143 71 285q72 143 230 217q159 74 413 74q257 0 387 -64
q127 -63 132 -217h-392zM631 825q0 -30 43 -51q41 -20 133 -20q96 0 152 20q59 21 59 70q0 30 -41 51q-39 20 -141 20q-101 0 -152 -22q-53 -23 -53 -68z" />
    <glyph glyph-name="seven.frac" horiz-adv-x="1222" 
d="M279 549q41 131 132 224q98 99 237 196q152 106 380 221h-758l49 235h1201l-58 -276q-290 -157 -455 -304q-166 -148 -227 -296h-501z" />
    <glyph glyph-name="eight.frac" horiz-adv-x="1284" 
d="M1303 1018q63 -15 96 -57q35 -44 35 -99q0 -170 -171 -248q-169 -77 -505 -77q-297 0 -426 55q-131 56 -131 176q0 89 55 156t154 94v2q-44 15 -72 46q-29 32 -29 85q0 145 159 216q160 71 478 71q258 0 395 -44q136 -44 136 -157q0 -78 -45 -135q-46 -58 -129 -82v-2z
M705 1145q0 -28 36 -40q34 -11 131 -11q113 0 153 17q42 18 42 60q0 28 -36 40t-136 12q-91 0 -142 -16q-48 -15 -48 -62zM614 817q0 -31 45 -46t146 -15q114 0 165 19q52 19 52 71q0 35 -40 48q-39 13 -151 13q-129 0 -173 -21t-44 -69z" />
    <glyph glyph-name="nine.frac" horiz-adv-x="1284" 
d="M1053 911q-60 -27 -129 -42t-162 -15q-256 0 -369 58q-114 59 -114 167q0 162 162 260q163 99 454 99q313 0 441 -78t128 -248q0 -151 -71 -289q-72 -139 -227 -213q-153 -73 -416 -73q-261 0 -388 64q-126 64 -131 216h392q5 -33 43 -48q39 -15 131 -15q113 0 174 32
q63 33 86 125h-4zM688 1130q0 -30 39 -51q37 -20 141 -20q101 0 152 22q53 23 53 68q0 30 -43 51t-133 21q-95 0 -152 -21t-57 -70z" />
    <glyph glyph-name="glyph604" horiz-adv-x="835" 
d="M664 -248q-27 -131 -110 -182q-82 -51 -308 -51l20 98q60 5 92 16q32 12 54 43h-217l45 222h454z" />
    <glyph glyph-name="glyph605" horiz-adv-x="835" 
d="M442 1292l31 146q22 88 57 135q38 50 112 72q71 21 249 26l-21 -98q-60 -5 -88 -15q-34 -12 -55 -45h215l-45 -221h-455z" />
    <glyph glyph-name="glyph606" horiz-adv-x="569" 
d="M1198 1882q-66 -154 -162 -236q-97 -83 -213 -83q-63 0 -289 49t-276 49q-34 0 -54 -16q-24 -19 -40 -43h-217q71 148 171 233q99 84 224 84q60 0 283 -49q226 -49 258 -49q30 0 53 13q24 14 45 48h217z" />
    <glyph glyph-name="glyph607" horiz-adv-x="569" 
d="M356 1593l-252 295h621l125 -295h-494z" />
    <glyph glyph-name="glyph608" horiz-adv-x="569" 
d="M721 1593h-494l248 295h621z" />
    <glyph glyph-name="glyph609" horiz-adv-x="569" 
d="M651 1593l-106 156l-172 -156h-516l376 295h734l256 -295h-572z" />
    <glyph glyph-name="glyph610" horiz-adv-x="569" 
d="M905 1593h-733l-254 295h569l109 -155l170 155h518z" />
    <glyph glyph-name="glyph611" horiz-adv-x="569" 
d="M340 1182l129 331h485l-241 -331h-373z" />
    <glyph glyph-name="glyph612" horiz-adv-x="569" 
d="M295 1606l55 270h496l-55 -270h-496z" />
    <glyph glyph-name="glyph613" horiz-adv-x="569" 
d="M260 1593h-491l245 295h621zM997 1593h-493l248 295h620z" />
    <glyph glyph-name="glyph614" horiz-adv-x="569" 
d="M307 1741q0 132 105 231t247 99q98 0 162 -56t64 -160q0 -117 -95 -220q-94 -101 -243 -101q-108 0 -174 57t-66 150zM471 1774q0 -40 27 -67q28 -28 73 -28q55 0 104 44q48 43 48 104q0 39 -28 69q-27 29 -72 29q-59 0 -105 -46q-47 -47 -47 -105z" />
    <glyph glyph-name="glyph615" horiz-adv-x="569" 
d="M1094 1903q-72 -183 -200 -252q-129 -70 -357 -70q-241 0 -336 77t-95 234v11h271q5 -53 44 -70q40 -18 161 -18q100 0 154 18q53 18 87 70h271z" />
    <glyph glyph-name="glyph616" horiz-adv-x="569" 
d="M242 1606l65 270h1168l-68 -270h-1165z" />
    <glyph glyph-name="glyph617" horiz-adv-x="569" 
d="M-31 1606l54 270h495l-55 -270h-494zM623 1606l55 270h496l-56 -270h-495z" />
    <glyph glyph-name="glyph618" horiz-adv-x="724" 
d="M274 1126l148 336h565l-307 -336h-406z" />
    </font>
</defs>
</svg>
